<svg width="25" height="25" viewBox="0 0 20 20" fill="none" xmlns="http://www.w3.org/2000/svg">
<path d="M3.08301 13.917V10.5C3.08301 10.3053 3.16301 10.0657 3.32301 9.78099C3.48234 9.49633 3.73567 9.33999 4.08301 9.31199V8.08299C4.08301 7.81966 4.17001 7.60099 4.34401 7.42699C4.51734 7.25366 4.73601 7.16699 5.00001 7.16699H9.29201C9.48601 7.16699 9.63867 7.20499 9.75001 7.28099C9.86134 7.35766 9.94467 7.47233 10 7.62499C10.0553 7.47233 10.1387 7.35766 10.25 7.28099C10.3613 7.20499 10.514 7.16699 10.708 7.16699H15C15.264 7.16699 15.4827 7.25366 15.656 7.42699C15.83 7.60099 15.917 7.81966 15.917 8.08299V9.31199C16.2643 9.33999 16.5177 9.49633 16.677 9.78099C16.837 10.0657 16.917 10.3053 16.917 10.5V13.917H16.5V12.417H3.50001V13.917H3.08301ZM10.208 9.58299H15.5V8.08299C15.5 7.94433 15.4513 7.82633 15.354 7.72899C15.2567 7.63166 15.1387 7.58299 15 7.58299H10.708C10.5693 7.58299 10.4513 7.63166 10.354 7.72899C10.2567 7.82633 10.208 7.94433 10.208 8.08299V9.58299ZM4.50001 9.58299H9.79201V8.08299C9.79201 7.94433 9.74334 7.82633 9.64601 7.72899C9.54867 7.63166 9.43067 7.58299 9.29201 7.58299H5.00001C4.86134 7.58299 4.74334 7.63166 4.64601 7.72899C4.54867 7.82633 4.50001 7.94433 4.50001 8.08299V9.58299ZM3.50001 12H16.5V10.5C16.5 10.3613 16.4513 10.2433 16.354 10.146C16.2567 10.0487 16.1387 9.99999 16 9.99999H4.00001C3.86134 9.99999 3.74334 10.0487 3.64601 10.146C3.54867 10.2433 3.50001 10.3613 3.50001 10.5V12ZM16.5 12H3.50001H16.5Z" fill="#380445"/>
</svg>
