<svg width="109" height="76" viewBox="0 0 109 76" fill="none" xmlns="http://www.w3.org/2000/svg">
<path d="M74.1429 25.556L69.1837 13.2876C68.4789 11.5441 66.4203 10.4042 64.1675 10.5102L58.8131 10.7619C58.1469 10.7933 57.5756 10.3794 57.537 9.83748L57.425 8.26184L51.2965 8.55003L51.4085 10.1257C51.447 10.6676 50.9381 11.1323 50.2719 11.1636L48.3605 11.2535C45.7663 11.3754 43.7239 13.1 43.671 15.2131C43.671 15.2131 42.7824 21.5513 42.6665 26.2236C42.4883 33.4106 43.0267 40.9407 43.0267 40.9407C42.9928 42.2968 44.3866 43.3888 46.0514 43.3105L69.5796 42.2041C71.2971 42.1234 72.539 40.8365 72.2274 39.4604L69.9865 29.5616C69.8673 29.0346 70.3428 28.5418 71.0004 28.5109L71.697 28.4782C73.4943 28.3937 74.7052 26.947 74.1429 25.556ZM70.7328 26.1757L69.4609 26.2355C69.0899 26.2529 68.7518 26.0627 68.6412 25.7741L64.2904 14.4282C64.1336 14.0192 64.4909 13.5993 65.0167 13.5746L66.004 13.5281C66.3694 13.5109 66.7036 13.6953 66.8191 13.9777L71.4544 25.3102C71.6226 25.7216 71.2649 26.1507 70.7328 26.1757Z" fill="#BDE6FF"/>
<path d="M57.4251 8.26184L51.2965 8.55003L51.4023 10.039L57.5335 9.78685L57.4251 8.26184Z" fill="#A8DEFF"/>
<path d="M46.2408 21.205L62.0849 20.46C62.5933 20.4361 63.0612 20.685 63.2379 21.0735C63.5244 21.7034 63.9559 22.823 64.3803 24.5752C64.8669 26.5839 65.1813 28.7509 65.3366 29.9705C65.4046 30.5045 64.9105 30.9766 64.2515 31.0076L46.0921 31.8615C45.4647 31.891 44.9227 31.5083 44.8711 30.9989C44.7589 29.89 44.6172 27.9111 44.7507 25.8381C44.869 24.0028 45.0389 22.747 45.16 22.0192C45.2343 21.5723 45.6873 21.231 46.2408 21.205Z" fill="#FFE9E9"/>
<path d="M65.3366 29.9709C65.1813 28.7513 64.8669 26.5843 64.3803 24.5755C63.9559 22.8234 63.5244 21.7037 63.2379 21.0739C63.0612 20.6854 62.5933 20.4364 62.0849 20.4603L60.2181 20.5481C60.2403 22.6382 59.1164 28.8497 44.6967 27.4803C44.6915 28.9157 44.7891 30.1895 44.8711 30.9992C44.9226 31.5087 45.4646 31.8914 46.092 31.8619L64.2515 31.0079C64.9105 30.9769 65.4046 30.5049 65.3366 29.9709Z" fill="#F9DEDE"/>
<path d="M67.2027 25.7883C67.2027 25.7883 67.7746 26.843 69.0546 26.2368L69.0248 26.1551C68.8459 26.0752 68.7053 25.9414 68.6412 25.7742L64.2904 14.4283C64.1955 14.1808 64.2891 13.9295 64.4942 13.764C64.4942 13.764 63.0191 13.7337 63.4263 15.3406C63.8336 16.9475 67.2027 25.7883 67.2027 25.7883Z" fill="#A8DEFF"/>
<path d="M50.38 11.8016C50.38 11.8016 46.1464 11.6948 45.2055 13.5273C44.2647 15.3598 43.6532 20.6781 43.6532 21.5581C43.6532 22.4381 45.2055 21.8259 45.77 19.7216C46.3345 17.6172 46.8313 14.6329 48.4175 13.9442C50.0037 13.2555 52.8528 11.5819 50.38 11.8016Z" fill="#C9EBFF"/>
<path d="M57.602 9.0728L51.3149 9.36843C50.9575 9.38523 50.651 9.16319 50.6303 8.87246L50.5875 8.27085C50.5669 7.98012 50.8399 7.73084 51.1973 7.71401L57.4844 7.41837C57.8418 7.40157 58.1483 7.62361 58.169 7.91434L58.2118 8.51595C58.2324 8.80668 57.9594 9.05599 57.602 9.0728Z" fill="#364966"/>
<path d="M58.2116 8.51595L58.1689 7.91434C58.1482 7.62361 57.8417 7.40157 57.4843 7.41837L55.9237 7.49175C55.253 7.96916 53.7948 8.54637 50.625 8.79987L50.6301 8.87244C50.6508 9.16317 50.9573 9.38521 51.3148 9.36841L57.6018 9.07277C57.9593 9.05599 58.2323 8.80668 58.2116 8.51595Z" fill="#313D56"/>
<path d="M77.4912 44.5551L95.2102 3.15723C95.2102 3.15723 94.1545 14.1567 90.3077 23.4077C86.4609 32.6586 79.7304 45.3413 79.7304 45.3413L77.4912 44.5551Z" fill="#80AD5B"/>
<path d="M88.0365 19.9175L78.5343 42.118L81.1753 42.5707C83.3677 38.3212 87.5686 29.9946 90.3077 23.4077C94.1544 14.1567 95.2102 3.15723 95.2102 3.15723C95.2102 3.15723 92.7853 17.7817 88.0365 19.9175Z" fill="#7CA555"/>
<path d="M84.1154 46.8807L109 7.99841C109 7.99841 99.8831 16.1678 94.2449 24.7899C88.6067 33.4119 81.8762 46.0945 81.8762 46.0945L84.1154 46.8807Z" fill="#80AD5B"/>
<path d="M84.618 41.0571C85.5216 41.3243 86.4246 41.5928 87.327 41.8627L109 7.99841C109 7.99841 102.924 15.7051 99.2553 20.4585C96.012 24.6601 95.6061 25.8821 93.7411 25.5666C90.4976 30.6049 86.9752 36.7987 84.618 41.0571Z" fill="#7CA555"/>
<path d="M78.8347 45.0269C78.8347 45.0269 96.927 6.9301 104.855 0C104.855 0 95.3097 24.6607 82.716 46.3896L78.8347 45.0269Z" fill="#92C66A"/>
<path d="M86.244 40.0917C97.0502 20.1644 104.855 0 104.855 0C104.855 0 97.8694 16.9477 92.7656 21.2823C92.1916 21.7699 91.3069 21.674 90.6778 21.7465C86.9319 28.6482 83.4517 35.5771 81.2466 40.0585L86.244 40.0917Z" fill="#80AD5B"/>
<path d="M97.1814 37.8936C99.6207 35.9095 99.6207 32.6926 97.1813 30.7086C94.7419 28.7246 90.7869 28.7246 88.3476 30.7087C85.9082 32.6928 85.9083 35.9096 88.3477 37.8937C90.7871 39.8777 94.7421 39.8777 97.1814 37.8936Z" fill="#E85E4D"/>
<path d="M93.2217 29.9415C93.2217 29.9415 92.1862 29.78 91.5535 30.5795C90.9207 31.3789 90.9821 32.4555 92.1841 32.9463C93.3861 33.4371 93.7235 33.751 94.4308 33.4429C95.138 33.1348 94.2049 32.6573 93.7177 31.803C93.2305 30.9488 94.007 30.0782 93.2217 29.9415Z" fill="#EF6A60"/>
<path d="M88.4525 37.9757C85.9572 36.0382 85.8654 32.8223 88.2475 30.7927C89.3747 29.8323 90.854 29.3099 92.3641 29.2311C91.277 29.5913 88.5862 30.6474 88.8969 32.1943C89.2851 34.1271 91.2504 33.5679 92.1257 36.8531C92.6837 38.9469 94.1035 39.198 95.591 38.8331C93.2952 39.7799 90.4204 39.5036 88.4525 37.9757Z" fill="#D6564C"/>
<path d="M95.177 31.8385C95.177 31.8385 97.8285 30.2035 97.8692 28.7983C97.8706 28.7589 97.854 28.7205 97.8227 28.6904L97.7468 28.6181C97.6389 28.5154 97.4332 28.5633 97.4078 28.6967C97.3015 29.2525 96.4477 30.4869 95.0401 31.6833C94.936 31.7718 95.0987 31.8243 95.177 31.8385Z" fill="#A85A3F"/>
<path d="M97.4671 33.0909C95.9903 31.7524 94.9943 32.5212 94.5376 31.3019C94.4161 30.9766 94.348 30.6502 94.0872 30.3788C94.6244 30.6554 94.6826 31.2636 95.0684 31.6266C95.2877 31.8445 95.6601 31.8684 95.9678 31.958C96.6214 32.156 97.168 32.5815 97.4671 33.0909Z" fill="#CE4A41"/>
<path d="M91.9275 22.7111C91.9275 22.7111 93.6533 25.0141 93.1553 27.5242C92.6573 30.0342 86.9146 49.147 86.9146 49.147C86.9146 49.147 85.8827 51.9498 83.261 52.7386L80.5637 51.2032L87.9462 23.354L91.9275 22.7111Z" fill="#313D56"/>
<path d="M83.2611 52.7383C82.824 51.7864 83.4531 48.4857 83.4531 48.4857C83.4531 48.4857 88.7666 29.291 89.6939 26.8629C90.6211 24.4349 91.9275 22.7107 91.9275 22.7107L73.671 19.2249C73.5669 19.205 73.4577 19.2131 73.3597 19.2481C73.2618 19.283 73.1805 19.3429 73.1281 19.4187C72.7338 19.9881 71.7953 21.4401 71.0816 23.3091C70.1543 25.7372 64.8408 44.932 64.8408 44.932C64.8408 44.932 64.2117 48.2327 64.6487 49.1845L83.2611 52.7383Z" fill="#364966"/>
<path d="M73.3391 22.2962C72.9309 23.0053 72.1975 24.4076 71.6833 26.1215C71.572 26.4924 71.8549 26.8658 72.3128 26.9501L84.7209 29.2324C85.1923 29.3192 85.6556 29.0646 85.7338 28.6766C85.8991 27.8561 86.2427 26.4606 86.8582 25.1723C87.0416 24.7883 86.7635 24.361 86.2711 24.2647L74.2948 21.9223C73.9074 21.8466 73.508 22.0027 73.3391 22.2962Z" fill="#395072"/>
<path d="M80.7335 45.73L65.3606 42.7948C65.3606 42.7948 66.1807 39.1168 67.1029 35.9216C68.025 32.7265 69.5067 28.4294 69.5067 28.4294L84.7967 31.3488C85.3615 31.4567 85.7118 31.9165 85.5792 32.3758L81.8938 45.1451C81.772 45.5672 81.2525 45.8291 80.7335 45.73Z" fill="#F4DC9C"/>
<path d="M84.7967 31.3489L82.1713 30.8477C81.6057 32.4843 79.8279 35.7194 74.6322 35.57C73.4764 35.57 73.5252 34.1078 70.9138 33.3808C70.9138 33.3808 72.2593 31.8853 71.6591 31.359C71.059 30.8327 70.7677 31.6392 70.7677 31.6392C70.7677 31.6392 69.7009 32.8289 68.988 33.0912C68.6997 33.1972 68.3525 33.0583 68.0413 32.8552C67.715 33.8781 67.3831 34.9508 67.1029 35.9217C66.1807 39.1168 65.3606 42.7949 65.3606 42.7949L80.7335 45.7301C81.2525 45.8292 81.7719 45.5673 81.8938 45.1452L85.5792 32.3759C85.7118 31.9166 85.3615 31.4568 84.7967 31.3489Z" fill="#F4D28A"/>
<path d="M80.3753 45.6616L84.7857 31.3467L83.9612 31.1893L79.5509 45.5042L80.3753 45.6616ZM78.4167 45.2876L82.8271 30.9727L82.0027 30.8153L77.5923 45.1302L78.4167 45.2876ZM76.5575 44.9326L80.9679 30.6177L80.1435 30.4603L75.7331 44.7752L76.5575 44.9326ZM74.6983 44.5776L79.1087 30.2628L78.2843 30.1054L73.8739 44.4202L74.6983 44.5776ZM72.8391 44.2226L77.2495 29.9078L76.4251 29.7504L72.0147 44.0652L72.8391 44.2226ZM70.98 43.8677L75.3903 29.5528L74.5659 29.3954L70.1555 43.7103L70.98 43.8677ZM68.2963 43.3553L69.1208 43.5127L73.5311 29.1978L72.7067 29.0404L68.2963 43.3553ZM66.4371 43.0003L67.2616 43.1577L71.672 28.8428L70.8475 28.6854L66.4371 43.0003Z" fill="#F4BE6A"/>
<path d="M44.6326 44.5551L26.9136 3.15723C26.9136 3.15723 27.9693 14.1567 31.8161 23.4077C35.6629 32.6586 42.3934 45.3413 42.3934 45.3413L44.6326 44.5551Z" fill="#80AD5B"/>
<path d="M34.0874 19.9175L43.5896 42.118L40.9486 42.5707C38.7562 38.3212 34.5552 29.9946 31.8162 23.4077C27.9694 14.1567 26.9137 3.15723 26.9137 3.15723C26.9137 3.15723 29.3385 17.7817 34.0874 19.9175Z" fill="#7CA555"/>
<path d="M38.0084 46.8807L13.1239 7.99841C13.1239 7.99841 22.2408 16.1678 27.879 24.7899C33.5172 33.4119 40.2477 46.0945 40.2477 46.0945L38.0084 46.8807Z" fill="#80AD5B"/>
<path d="M37.5058 41.0571C36.6022 41.3243 35.6992 41.5928 34.7968 41.8627L13.1238 7.99841C13.1238 7.99841 19.1994 15.7051 22.8685 20.4585C26.1118 24.6601 26.5177 25.8821 28.3827 25.5666C31.6262 30.6049 35.1486 36.7987 37.5058 41.0571Z" fill="#7CA555"/>
<path d="M43.2891 45.0269C43.2891 45.0269 25.1968 6.9301 17.2688 0C17.2688 0 26.814 24.6607 39.4078 46.3896L43.2891 45.0269Z" fill="#92C66A"/>
<path d="M35.8799 40.0917C25.0737 20.1644 17.2688 0 17.2688 0C17.2688 0 24.2545 16.9477 29.3582 21.2823C29.9323 21.7699 30.817 21.674 31.446 21.7465C35.1919 28.6482 38.6721 35.5771 40.8772 40.0585L35.8799 40.0917Z" fill="#80AD5B"/>
<path d="M46.6077 37.2356L46.3479 36.2217C46.3358 36.1745 46.3473 36.1254 46.3797 36.0851C46.4122 36.0448 46.463 36.0167 46.5209 36.0069L46.5792 35.997C46.6079 35.9921 46.6352 35.9827 46.6594 35.9693C46.6836 35.9559 46.7044 35.9387 46.7204 35.9187C46.7365 35.8988 46.7476 35.8765 46.753 35.853C46.7585 35.8296 46.7582 35.8055 46.7522 35.7822L46.2765 33.9255C46.2644 33.8783 46.2298 33.837 46.1803 33.8106C46.1308 33.7842 46.0704 33.7749 46.0124 33.7847L45.9541 33.7946C45.9254 33.7995 45.8958 33.7997 45.867 33.7953C45.8382 33.7908 45.8107 33.7818 45.7862 33.7688C45.7617 33.7557 45.7406 33.7388 45.7241 33.7191C45.7076 33.6994 45.696 33.6773 45.69 33.6539L45.4302 32.64C45.4181 32.5928 45.4296 32.5437 45.462 32.5034C45.4945 32.4631 45.5453 32.435 45.6032 32.4251L45.6615 32.4153C45.7195 32.4054 45.7703 32.3773 45.8027 32.337C45.8352 32.2967 45.8466 32.2476 45.8345 32.2005L45.3588 30.3437C45.3528 30.3204 45.3413 30.2982 45.3248 30.2785C45.3082 30.2588 45.2871 30.242 45.2626 30.2289C45.2381 30.2158 45.2106 30.2068 45.1818 30.2024C45.153 30.1979 45.1234 30.1982 45.0947 30.203L45.0364 30.2129C44.9785 30.2227 44.9181 30.2134 44.8685 30.187C44.819 30.1606 44.7844 30.1193 44.7723 30.0722L44.5125 29.0582C44.5005 29.0111 44.5119 28.962 44.5443 28.9217C44.5768 28.8814 44.6276 28.8532 44.6855 28.8434L44.7438 28.8335C44.8018 28.8237 44.8526 28.7956 44.885 28.7553C44.9175 28.715 44.9289 28.6659 44.9168 28.6187L44.4411 26.762C44.4352 26.7387 44.4236 26.7165 44.4071 26.6968C44.3906 26.6771 44.3694 26.6602 44.3449 26.6472C44.3204 26.6341 44.2929 26.6251 44.2641 26.6207C44.2353 26.6162 44.2057 26.6164 44.177 26.6213L44.1187 26.6312C44.0608 26.641 44.0004 26.6317 43.9509 26.6053C43.9013 26.5789 43.8667 26.5376 43.8546 26.4905L43.5948 25.4765C43.5889 25.4532 43.5886 25.4291 43.594 25.4057C43.5995 25.3822 43.6106 25.3599 43.6266 25.34C43.6427 25.32 43.6635 25.3028 43.6877 25.2894C43.7119 25.276 43.7392 25.2666 43.7679 25.2617L43.8261 25.2518C43.8841 25.242 43.9349 25.2138 43.9673 25.1735C43.9998 25.1333 44.0112 25.0841 43.9992 25.037L43.5234 23.1803C43.5175 23.1569 43.5059 23.1348 43.4894 23.1151C43.4729 23.0954 43.4517 23.0785 43.4272 23.0654C43.4027 23.0524 43.3753 23.0434 43.3464 23.0389C43.3176 23.0345 43.288 23.0347 43.2593 23.0396L43.201 23.0495C43.1723 23.0543 43.1427 23.0545 43.1139 23.0501C43.0851 23.0457 43.0577 23.0367 43.0332 23.0236C43.0086 23.0105 42.9875 22.9936 42.971 22.9739C42.9545 22.9542 42.9429 22.9321 42.9369 22.9087L42.6772 21.8948C42.6651 21.8476 42.6765 21.7985 42.709 21.7582C42.7414 21.7179 42.7922 21.6898 42.8502 21.68L42.9085 21.6701C42.9372 21.6652 42.9644 21.6558 42.9886 21.6424C43.0129 21.629 43.0336 21.6118 43.0497 21.5918C43.0657 21.5719 43.0768 21.5496 43.0823 21.5261C43.0877 21.5027 43.0874 21.4786 43.0815 21.4553L42.1533 17.8324C41.8772 16.7548 40.5793 16.0632 39.2544 16.2878L38.605 16.3979C37.7349 16.5453 36.8825 16.0912 36.7012 15.3835L35.3993 10.302L31.177 11.0177L32.4789 16.0991C32.6602 16.8068 32.1018 17.5001 31.2317 17.6476L30.5823 17.7576C29.2574 17.9822 28.4072 19.0379 28.6833 20.1155L29.6115 23.7383C29.6174 23.7617 29.629 23.7839 29.6455 23.8036C29.662 23.8233 29.6832 23.8401 29.7077 23.8532C29.7322 23.8663 29.7596 23.8753 29.7885 23.8797C29.8173 23.8842 29.8469 23.8839 29.8756 23.8791C29.9043 23.8742 29.9339 23.874 29.9627 23.8784C29.9915 23.8829 30.0189 23.8919 30.0435 23.9049C30.068 23.918 30.0891 23.9349 30.1056 23.9546C30.1221 23.9743 30.1337 23.9964 30.1397 24.0198L30.3995 25.0337C30.4115 25.0809 30.4001 25.13 30.3676 25.1703C30.3352 25.2106 30.2844 25.2387 30.2264 25.2486C30.1685 25.2584 30.1177 25.2865 30.0852 25.3268C30.0528 25.3671 30.0414 25.4162 30.0534 25.4634L30.5291 27.3201C30.5351 27.3434 30.5467 27.3656 30.5632 27.3853C30.5797 27.405 30.6008 27.4219 30.6254 27.4349C30.6499 27.448 30.6773 27.457 30.7061 27.4614C30.7349 27.4659 30.7645 27.4657 30.7933 27.4608C30.822 27.4559 30.8516 27.4557 30.8804 27.4601C30.9092 27.4646 30.9366 27.4736 30.9611 27.4867C30.9857 27.4997 31.0068 27.5166 31.0233 27.5363C31.0398 27.556 31.0514 27.5782 31.0574 27.6015L31.3171 28.6155C31.3292 28.6626 31.3178 28.7117 31.2853 28.752C31.2529 28.7923 31.2021 28.8205 31.1441 28.8303C31.1154 28.8351 31.0882 28.8446 31.064 28.858C31.0397 28.8714 31.019 28.8886 31.0029 28.9085C30.9869 28.9285 30.9758 28.9508 30.9703 28.9742C30.9649 28.9977 30.9651 29.0218 30.9711 29.0451L31.4468 30.9018C31.4589 30.9489 31.4935 30.9903 31.5431 31.0166C31.5926 31.043 31.653 31.0523 31.7109 31.0425C31.7396 31.0377 31.7692 31.0374 31.798 31.0419C31.8269 31.0463 31.8543 31.0553 31.8788 31.0684C31.9034 31.0815 31.9245 31.0983 31.941 31.118C31.9575 31.1377 31.9691 31.1599 31.975 31.1832L32.2348 32.1972C32.2408 32.2205 32.2411 32.2446 32.2356 32.268C32.2302 32.2915 32.2191 32.3138 32.203 32.3337C32.187 32.3537 32.1662 32.3709 32.142 32.3843C32.1178 32.3977 32.0905 32.4071 32.0618 32.412C32.0331 32.4169 32.0059 32.4263 31.9816 32.4397C31.9574 32.4531 31.9367 32.4703 31.9206 32.4903C31.9045 32.5102 31.8935 32.5325 31.888 32.556C31.8826 32.5794 31.8828 32.6035 31.8888 32.6268L32.3645 34.4835C32.3705 34.5069 32.3821 34.529 32.3986 34.5487C32.4151 34.5684 32.4362 34.5853 32.4607 34.5984C32.4853 34.6114 32.5127 34.6205 32.5415 34.6249C32.5703 34.6293 32.5999 34.6291 32.6286 34.6242C32.6573 34.6194 32.6869 34.6192 32.7157 34.6236C32.7445 34.628 32.772 34.637 32.7965 34.6501C32.821 34.6632 32.8422 34.68 32.8587 34.6998C32.8752 34.7195 32.8868 34.7416 32.8927 34.765L33.1525 35.7789C33.1777 35.8771 33.1002 35.9733 32.9795 35.9937C32.8588 36.0142 32.7813 36.1104 32.8065 36.2085L33.2822 38.0653C33.2943 38.1124 33.3289 38.1537 33.3784 38.1801C33.428 38.2065 33.4883 38.2158 33.5463 38.206C33.575 38.2011 33.6046 38.2009 33.6334 38.2053C33.6622 38.2098 33.6897 38.2188 33.7142 38.2318C33.7387 38.2449 33.7598 38.2618 33.7764 38.2815C33.7929 38.3012 33.8044 38.3233 33.8104 38.3467L34.0702 39.3606C34.0762 39.384 34.0765 39.4081 34.071 39.4315C34.0655 39.4549 34.0545 39.4773 34.0384 39.4972C34.0223 39.5171 34.0016 39.5343 33.9774 39.5478C33.9531 39.5612 33.9259 39.5706 33.8972 39.5755C33.8685 39.5803 33.8412 39.5897 33.817 39.6032C33.7928 39.6166 33.7721 39.6338 33.756 39.6537C33.7399 39.6737 33.7288 39.696 33.7234 39.7194C33.7179 39.7429 33.7182 39.7669 33.7242 39.7903L34.8884 44.3343C35.2011 45.5548 36.6711 46.3381 38.1716 46.0837L46.2076 44.7217C47.7082 44.4673 48.6711 43.2717 48.3584 42.0512L47.1942 37.5072C47.1882 37.4838 47.1766 37.4617 47.1601 37.442C47.1436 37.4223 47.1225 37.4054 47.098 37.3923C47.0735 37.3793 47.046 37.3702 47.0172 37.3658C46.9884 37.3614 46.9588 37.3616 46.9301 37.3665L46.8718 37.3763C46.8431 37.3812 46.8135 37.3814 46.7847 37.377C46.7559 37.3726 46.7284 37.3636 46.7039 37.3505C46.6794 37.3374 46.6583 37.3206 46.6417 37.3008C46.6252 37.2811 46.6137 37.259 46.6077 37.2356Z" fill="#FFDC9C"/>
<path d="M31.4613 12.1276L32.4788 16.099C32.6602 16.8067 32.1018 17.5 31.2317 17.6474L30.5823 17.7575C29.2574 17.9821 28.4071 19.0377 28.6833 20.1153L29.6115 23.7382C29.6235 23.7853 29.6582 23.8267 29.7077 23.853C29.7572 23.8794 29.8176 23.8887 29.8756 23.8789C29.9268 23.8702 29.9802 23.8764 30.0263 23.8966C30.057 23.7738 29.5408 19.6194 30.2621 19.275C30.9834 18.9307 33.7588 18.6246 33.994 18.0634C34.2292 17.5023 33.602 15.4489 33.3825 14.4414C33.163 13.4339 33.8369 13.4068 33.8369 13.4068L34.6369 11.3678L31.7675 11.5719L31.4613 12.1276Z" fill="#FFD594"/>
<path d="M35.3992 10.302L31.1769 11.0176L31.8699 13.7226L36.1016 13.0435L35.3992 10.302Z" fill="#FFD594"/>
<path d="M44.82 37.2623L35.7806 38.7944C35.3368 38.8697 34.9021 38.638 34.8096 38.277L31.1499 23.9931C31.0574 23.6321 31.3422 23.2785 31.786 23.2033L40.8253 21.6712C41.2691 21.5959 41.7039 21.8276 41.7964 22.1886L45.4561 36.4725C45.5485 36.8335 45.2638 37.1871 44.82 37.2623Z" fill="#FFBE6A"/>
<path d="M39.0902 26.5321C38.267 27.0607 34.1265 27.1294 32.0869 27.6503L34.8097 38.2774C34.9022 38.6383 35.3369 38.87 35.7807 38.7948L44.8201 37.2626C45.2639 37.1874 45.5487 36.8338 45.4562 36.4729L41.7965 22.1889C41.704 21.8279 41.2693 21.5963 40.8255 21.6715L38.746 22.024C39.1159 23.384 39.756 26.1046 39.0902 26.5321Z" fill="#FFB663"/>
<path d="M35.9132 12.2373L31.6563 12.9589C31.3171 13.0164 30.9849 12.8393 30.9142 12.5635L30.5872 11.287C30.5165 11.0111 30.7342 10.7409 31.0733 10.6834L35.3302 9.96188C35.6694 9.9044 36.0016 10.0814 36.0723 10.3573L36.3993 11.6337C36.47 11.9096 36.2524 12.1799 35.9132 12.2373Z" fill="#FFBE6A"/>
<path d="M36.3994 11.6337L36.0723 10.3573C36.0017 10.0814 35.6694 9.9044 35.3302 9.96188L34.1029 10.1699C34.2419 10.6688 34.1227 11.7429 30.8138 12.1716L30.9142 12.5634C30.9849 12.8393 31.3172 13.0163 31.6563 12.9588L35.9132 12.2373C36.2524 12.1799 36.4701 11.9096 36.3994 11.6337Z" fill="#FFB663"/>
<path d="M18.4309 15.6773C16.9217 14.5271 14.464 14.8821 13.5586 16.3946C12.694 17.839 12.268 20.3736 13.5397 24.8175C16.3974 34.8036 32.1148 59.5966 39.9206 59.0155C47.7264 58.4344 37.1158 39.4092 31.3475 30.6714C26.785 23.7602 21.5936 18.0878 18.4309 15.6773Z" fill="#F4C878"/>
<path d="M38.5171 58.8761C30.6459 53.0232 25.2924 43.0922 19.0832 31.844C14.5525 23.6364 13.6178 18.7847 13.4812 16.5298C12.6701 17.9954 12.3073 20.509 13.54 24.8171C16.2351 34.236 30.3703 56.8278 38.5171 58.8761ZM25.0183 22.2431C24.6454 21.8058 24.2665 21.3719 23.8817 20.9415C20.4432 21.8018 17.9585 23.5044 17.9585 23.5044C21.1376 22.46 23.5657 22.2448 25.0183 22.2431ZM30.0158 28.7133C26.2404 29.6555 23.5113 31.7391 23.5113 31.7391C27.0304 30.4001 29.657 30.1664 31.0055 30.1577C30.681 29.6737 30.3511 29.1923 30.0158 28.7133ZM35.7816 37.9278C35.5564 37.5306 35.329 37.1343 35.0993 36.7389C31.9526 37.7658 29.7825 39.4224 29.7825 39.4224C32.2762 38.4735 34.3214 38.0798 35.7816 37.9278Z" fill="#F4BE6A"/>
<path d="M14.0527 16.5298C14.0527 16.5298 16.1866 15.078 17.9585 15.9145C19.7303 16.7509 22.5906 20.2104 22.6259 20.4585C22.6612 20.7066 21.2404 20.4457 20.5444 19.7884C19.6856 18.9773 18.992 17.9806 17.6866 17.7223C16.3813 17.464 13.1707 17.4607 14.0527 16.5298ZM15.2097 21.0281C15.1781 21.3699 15.2418 21.713 15.3877 22.0346C16.3044 24.0555 20.6748 33.6021 22.6265 36.2764C24.8133 39.2727 24.7495 35.5196 23.5113 33.4936C22.3333 31.566 15.5061 17.8165 15.2097 21.0281Z" fill="#F4D28A"/>
<path d="M40.0015 48.6404C45.2332 48.6404 49.4743 48.1689 49.4743 47.5873C49.4743 47.0057 45.2332 46.5342 40.0015 46.5342C34.7698 46.5342 30.5287 47.0057 30.5287 47.5873C30.5287 48.1689 34.7698 48.6404 40.0015 48.6404Z" fill="#3D96D9"/>
<path d="M30.5287 29.0787H49.4743V47.5874H30.5287V29.0787Z" fill="#439CDE"/>
<path d="M49.4743 29.0787H44.5749C43.6196 31.2953 40.472 35.7123 30.5287 35.9207V47.5874H49.4743V29.0787Z" fill="#3D96D9"/>
<path d="M49.4877 30.233C49.4882 30.2746 49.4659 30.3144 49.4353 30.3473C49.4049 30.3808 49.3657 30.4081 49.3252 30.433C49.2433 30.4826 49.1527 30.5215 49.0602 30.5559C48.8744 30.6238 48.6803 30.6745 48.4851 30.7202C48.0939 30.8101 47.6954 30.8764 47.2956 30.9341C46.4949 31.0455 45.6875 31.1198 44.8792 31.1793C43.2618 31.2957 41.6378 31.339 40.0149 31.3413C38.3919 31.3392 36.768 31.2958 35.1505 31.1795C34.3422 31.12 33.5348 31.0456 32.7341 30.9343C32.3343 30.8765 31.9358 30.8102 31.5446 30.7202C31.3494 30.6745 31.1553 30.6238 30.9695 30.5559C30.877 30.5215 30.7864 30.4826 30.7045 30.433C30.6639 30.4081 30.6248 30.3807 30.5943 30.3472C30.5638 30.3143 30.5415 30.2745 30.542 30.2329C30.5432 30.2745 30.5669 30.3131 30.5983 30.3447C30.6296 30.3769 30.6693 30.4029 30.7103 30.4264C30.7932 30.4733 30.8844 30.5094 30.9775 30.541C31.1638 30.6044 31.3583 30.6512 31.5538 30.6927C31.9457 30.7744 32.3445 30.8327 32.7446 30.8822C33.5447 30.9826 34.3513 31.0477 35.1588 31.097C35.9666 31.1445 36.7755 31.1808 37.5852 31.2014C38.3948 31.2237 39.2048 31.2345 40.0149 31.2337C40.8249 31.2346 41.635 31.2237 42.4446 31.2016C43.2542 31.1808 44.0631 31.1447 44.8709 31.0972C45.6784 31.0478 46.485 30.9827 47.2852 30.8823C47.6852 30.8328 48.0841 30.7745 48.4759 30.6928C48.6714 30.6512 48.8659 30.6044 49.0522 30.541C49.1453 30.5094 49.2366 30.4733 49.3193 30.4265C49.3604 30.4029 49.4001 30.3769 49.4314 30.3448C49.4628 30.3132 49.4865 30.2746 49.4877 30.233Z" fill="#53A7E6"/>
<path d="M49.4877 31.3361C49.4882 31.3777 49.4659 31.4175 49.4353 31.4504C49.4049 31.4839 49.3657 31.5112 49.3252 31.5362C49.2433 31.5857 49.1527 31.6246 49.0602 31.659C48.8744 31.7269 48.6803 31.7776 48.4851 31.8233C48.0939 31.9132 47.6954 31.9796 47.2956 32.0372C46.4949 32.1487 45.6875 32.223 44.8792 32.2824C43.2618 32.3989 41.6378 32.4422 40.0149 32.4444C38.3919 32.4423 36.768 32.399 35.1505 32.2826C34.3422 32.2231 33.5348 32.1487 32.7341 32.0374C32.3343 31.9797 31.9358 31.9133 31.5446 31.8234C31.3494 31.7776 31.1553 31.7269 30.9695 31.659C30.877 31.6246 30.7864 31.5857 30.7045 31.5362C30.6639 31.5112 30.6248 31.4839 30.5943 31.4504C30.5638 31.4175 30.5415 31.3777 30.542 31.3361C30.5432 31.3777 30.5669 31.4163 30.5983 31.4479C30.6296 31.4801 30.6693 31.506 30.7103 31.5296C30.7932 31.5764 30.8844 31.6125 30.9775 31.6441C31.1638 31.7075 31.3583 31.7543 31.5538 31.7959C31.9457 31.8776 32.3445 31.9358 32.7446 31.9853C33.5447 32.0857 34.3513 32.1508 35.1588 32.2001C35.9666 32.2476 36.7755 32.284 37.5852 32.3046C38.3948 32.3269 39.2048 32.3376 40.0149 32.3369C40.8249 32.3377 41.635 32.3268 42.4446 32.3047C43.2542 32.284 44.0631 32.2479 44.8709 32.2003C45.6784 32.151 46.485 32.0858 47.2852 31.9855C47.6852 31.9359 48.0841 31.8777 48.4759 31.7959C48.6714 31.7544 48.8659 31.7076 49.0522 31.6442C49.1453 31.6125 49.2366 31.5764 49.3193 31.5296C49.3604 31.5061 49.4001 31.4801 49.4314 31.4479C49.4628 31.4163 49.4865 31.3777 49.4877 31.3361Z" fill="#53A7E6"/>
<path d="M49.4877 32.4392C49.4882 32.4809 49.4659 32.5207 49.4353 32.5535C49.4049 32.587 49.3657 32.6144 49.3252 32.6393C49.2433 32.6889 49.1527 32.7278 49.0602 32.7621C48.8744 32.8301 48.6803 32.8807 48.4851 32.9265C48.0939 33.0164 47.6954 33.0827 47.2956 33.1404C46.4949 33.2518 45.6875 33.3261 44.8792 33.3856C43.2618 33.502 41.6378 33.5453 40.0149 33.5476C38.3919 33.5455 36.768 33.5021 35.1505 33.3858C34.3422 33.3263 33.5348 33.2519 32.7341 33.1405C32.3343 33.0828 31.9358 33.0164 31.5446 32.9265C31.3494 32.8808 31.1553 32.8301 30.9695 32.7622C30.877 32.7278 30.7864 32.6889 30.7045 32.6393C30.6639 32.6144 30.6248 32.587 30.5943 32.5535C30.5638 32.5206 30.5415 32.4808 30.542 32.4392C30.5432 32.4808 30.5669 32.5194 30.5983 32.551C30.6296 32.5832 30.6693 32.6092 30.7103 32.6327C30.7932 32.6796 30.8844 32.7157 30.9775 32.7473C31.1638 32.8107 31.3583 32.8575 31.5538 32.899C31.9457 32.9807 32.3445 33.0389 32.7446 33.0885C33.5447 33.1889 34.3513 33.254 35.1588 33.3033C35.9666 33.3508 36.7755 33.3871 37.5852 33.4077C38.3948 33.43 39.2048 33.4408 40.0149 33.44C40.8249 33.4409 41.635 33.43 42.4446 33.4079C43.2542 33.3872 44.0631 33.3511 44.8709 33.3035C45.6784 33.2542 46.485 33.189 47.2852 33.0887C47.6852 33.0391 48.0841 32.9809 48.4759 32.8991C48.6714 32.8576 48.8659 32.8108 49.0522 32.7474C49.1453 32.7157 49.2366 32.6796 49.3193 32.6328C49.3604 32.6093 49.4001 32.5833 49.4314 32.5511C49.4628 32.5194 49.4865 32.4809 49.4877 32.4392Z" fill="#53A7E6"/>
<path d="M49.4877 33.542C49.4882 33.5837 49.4659 33.6234 49.4353 33.6563C49.4049 33.6898 49.3657 33.7172 49.3252 33.7421C49.2433 33.7917 49.1527 33.8306 49.0602 33.8649C48.8744 33.9328 48.6803 33.9835 48.4851 34.0293C48.0939 34.1192 47.6954 34.1855 47.2956 34.2432C46.4949 34.3546 45.6875 34.4289 44.8792 34.4884C43.2618 34.6048 41.6378 34.6481 40.0149 34.6503C38.3919 34.6483 36.768 34.6049 35.1505 34.4886C34.3422 34.4291 33.5348 34.3547 32.7341 34.2433C32.3343 34.1856 31.9358 34.1192 31.5446 34.0293C31.3494 33.9836 31.1553 33.9329 30.9695 33.865C30.877 33.8306 30.7864 33.7917 30.7045 33.7421C30.6639 33.7172 30.6248 33.6898 30.5943 33.6563C30.5638 33.6234 30.5415 33.5836 30.542 33.542C30.5432 33.5836 30.5669 33.6222 30.5983 33.6538C30.6296 33.686 30.6693 33.712 30.7103 33.7355C30.7932 33.7823 30.8844 33.8184 30.9775 33.8501C31.1638 33.9135 31.3583 33.9602 31.5538 34.0018C31.9457 34.0835 32.3445 34.1417 32.7446 34.1913C33.5447 34.2917 34.3513 34.3568 35.1588 34.4061C35.9666 34.4536 36.7755 34.4899 37.5852 34.5106C38.3948 34.5328 39.2048 34.5436 40.0149 34.5428C40.8249 34.5437 41.635 34.5328 42.4446 34.5107C43.2542 34.49 44.0631 34.4539 44.8709 34.4063C45.6784 34.357 46.485 34.2918 47.2852 34.1914C47.6852 34.1419 48.0841 34.0836 48.4759 34.0019C48.6714 33.9603 48.8659 33.9135 49.0522 33.8501C49.1453 33.8185 49.2366 33.7824 49.3193 33.7356C49.3604 33.712 49.4001 33.6861 49.4314 33.6539C49.4628 33.6222 49.4865 33.5837 49.4877 33.542Z" fill="#53A7E6"/>
<path d="M49.4877 34.6451C49.4882 34.6868 49.4659 34.7266 49.4353 34.7594C49.4049 34.7929 49.3657 34.8203 49.3252 34.8452C49.2433 34.8948 49.1527 34.9337 49.0602 34.968C48.8744 35.036 48.6803 35.0866 48.4851 35.1324C48.0939 35.2223 47.6954 35.2887 47.2956 35.3463C46.4949 35.4577 45.6875 35.532 44.8792 35.5915C43.2618 35.7079 41.6378 35.7512 40.0149 35.7535C38.3919 35.7514 36.768 35.708 35.1505 35.5917C34.3422 35.5322 33.5348 35.4578 32.7341 35.3465C32.3343 35.2888 31.9358 35.2224 31.5446 35.1325C31.3494 35.0867 31.1553 35.036 30.9695 34.9681C30.877 34.9337 30.7864 34.8948 30.7045 34.8452C30.6639 34.8203 30.6248 34.7929 30.5943 34.7594C30.5638 34.7266 30.5415 34.6868 30.542 34.6451C30.5432 34.6868 30.5669 34.7254 30.5983 34.757C30.6296 34.7891 30.6693 34.8151 30.7103 34.8387C30.7932 34.8855 30.8844 34.9216 30.9775 34.9532C31.1638 35.0166 31.3583 35.0634 31.5538 35.105C31.9457 35.1867 32.3445 35.2449 32.7446 35.2944C33.5447 35.3948 34.3513 35.4599 35.1588 35.5092C35.9666 35.5568 36.7755 35.5931 37.5852 35.6137C38.3947 35.636 39.2048 35.6467 40.0149 35.646C40.8249 35.6469 41.635 35.636 42.4446 35.6138C43.2542 35.5931 44.0631 35.557 44.8709 35.5094C45.6784 35.4601 46.485 35.3949 47.2852 35.2946C47.6852 35.245 48.0841 35.1868 48.4759 35.1051C48.6714 35.0635 48.8659 35.0167 49.0522 34.9533C49.1453 34.9217 49.2366 34.8855 49.3193 34.8387C49.3604 34.8152 49.4001 34.7892 49.4314 34.757C49.4628 34.7254 49.4865 34.6868 49.4877 34.6451Z" fill="#53A7E6"/>
<path d="M49.4877 35.7481C49.4882 35.7897 49.4659 35.8295 49.4353 35.8624C49.4049 35.8959 49.3657 35.9232 49.3252 35.9482C49.2433 35.9977 49.1527 36.0366 49.0602 36.071C48.8744 36.1389 48.6803 36.1896 48.4851 36.2353C48.0939 36.3252 47.6954 36.3916 47.2956 36.4492C46.4949 36.5606 45.6875 36.635 44.8792 36.6944C43.2618 36.8109 41.6378 36.8542 40.0149 36.8564C38.3919 36.8543 36.768 36.811 35.1505 36.6946C34.3422 36.6351 33.5348 36.5607 32.7341 36.4494C32.3343 36.3917 31.9358 36.3253 31.5446 36.2354C31.3494 36.1896 31.1553 36.1389 30.9695 36.071C30.877 36.0366 30.7864 35.9977 30.7045 35.9481C30.6639 35.9232 30.6248 35.8958 30.5943 35.8624C30.5638 35.8295 30.5415 35.7897 30.542 35.748C30.5432 35.7897 30.5669 35.8283 30.5983 35.8599C30.6296 35.8921 30.6693 35.918 30.7103 35.9416C30.7932 35.9884 30.8844 36.0245 30.9775 36.0561C31.1638 36.1195 31.3583 36.1663 31.5538 36.2079C31.9457 36.2896 32.3445 36.3478 32.7446 36.3973C33.5447 36.4978 34.3513 36.5628 35.1588 36.6121C35.9666 36.6597 36.7755 36.696 37.5852 36.7166C38.3948 36.7389 39.2048 36.7497 40.0149 36.7489C40.8249 36.7498 41.635 36.7389 42.4446 36.7167C43.2542 36.696 44.0631 36.6599 44.8709 36.6123C45.6784 36.563 46.485 36.4978 47.2852 36.3975C47.6852 36.3479 48.0841 36.2897 48.4759 36.208C48.6714 36.1664 48.8659 36.1196 49.0522 36.0562C49.1453 36.0246 49.2366 35.9885 49.3193 35.9416C49.3604 35.9181 49.4001 35.8921 49.4314 35.8599C49.4628 35.8283 49.4865 35.7897 49.4877 35.7481Z" fill="#53A7E6"/>
<path d="M49.4877 36.8512C49.4882 36.8928 49.4659 36.9326 49.4353 36.9655C49.4049 36.999 49.3657 37.0263 49.3252 37.0513C49.2433 37.1008 49.1527 37.1397 49.0602 37.1741C48.8744 37.2421 48.6803 37.2927 48.4851 37.3384C48.0939 37.4283 47.6954 37.4947 47.2956 37.5524C46.4949 37.6638 45.6875 37.7381 44.8792 37.7975C43.2618 37.914 41.6378 37.9573 40.0149 37.9595C38.3919 37.9574 36.768 37.9141 35.1505 37.7977C34.3422 37.7383 33.5348 37.6638 32.7341 37.5525C32.3343 37.4948 31.9358 37.4284 31.5446 37.3385C31.3494 37.2928 31.1553 37.2421 30.9695 37.1741C30.877 37.1398 30.7864 37.1009 30.7045 37.0513C30.6639 37.0263 30.6248 36.999 30.5943 36.9655C30.5638 36.9326 30.5415 36.8928 30.542 36.8512C30.5432 36.8928 30.5669 36.9314 30.5983 36.963C30.6296 36.9952 30.6693 37.0212 30.7103 37.0447C30.7932 37.0915 30.8844 37.1276 30.9775 37.1592C31.1638 37.2227 31.3583 37.2694 31.5538 37.311C31.9457 37.3927 32.3445 37.4509 32.7446 37.5005C33.5447 37.6009 34.3513 37.6659 35.1588 37.7153C35.9666 37.7628 36.7755 37.7991 37.5852 37.8197C38.3948 37.842 39.2048 37.8528 40.0149 37.852C40.8249 37.8529 41.635 37.842 42.4446 37.8198C43.2542 37.7991 44.0631 37.763 44.8709 37.7154C45.6784 37.6661 46.485 37.6009 47.2852 37.5006C47.6852 37.451 48.0841 37.3928 48.4759 37.3111C48.6714 37.2695 48.8659 37.2227 49.0522 37.1593C49.1453 37.1277 49.2366 37.0916 49.3193 37.0448C49.3604 37.0212 49.4001 36.9952 49.4314 36.963C49.4628 36.9314 49.4865 36.8928 49.4877 36.8512Z" fill="#53A7E6"/>
<path d="M48.0587 42.9172H31.9443V33.7489C31.9443 33.7489 35.7179 34.1488 40.0147 34.1488C44.3116 34.1488 48.0587 33.7489 48.0587 33.7489V42.9172Z" fill="#5EAEEB"/>
<path d="M39.3158 34.1453C37.4967 34.9989 35.0996 35.6542 31.9443 35.8601V42.9172H48.0587V33.7489C48.0587 33.7489 44.3116 34.1488 40.0147 34.1488C39.78 34.1488 39.5469 34.1476 39.3158 34.1453Z" fill="#50A8EB"/>
<path d="M40.0148 30.1438C45.2465 30.1438 49.4876 29.6717 49.4876 29.0892C49.4876 28.5068 45.2465 28.0347 40.0148 28.0347C34.7831 28.0347 30.542 28.5068 30.542 29.0892C30.542 29.6717 34.7831 30.1438 40.0148 30.1438Z" fill="#53A7E6"/>
<path d="M40.0148 29.797C44.6554 29.797 48.4173 29.4572 48.4173 29.0381C48.4173 28.619 44.6554 28.2793 40.0148 28.2793C35.3741 28.2793 31.6122 28.619 31.6122 29.0381C31.6122 29.4572 35.3741 29.797 40.0148 29.797Z" fill="#5EAEEB"/>
<path d="M64.3468 41.218C67.7966 41.218 70.5932 38.9433 70.5932 36.1374C70.5932 33.3315 67.7966 31.0569 64.3468 31.0569C60.8971 31.0569 58.1005 33.3315 58.1005 36.1374C58.1005 38.9433 60.8971 41.218 64.3468 41.218Z" fill="#86B963"/>
<path d="M65.9278 31.9559C65.9278 31.9559 64.9578 31.6197 64.1312 32.292C63.3047 32.9643 63.0843 34.0271 64.1312 34.7138C65.1782 35.4005 65.4262 35.7654 66.1976 35.5862C66.9691 35.4069 66.1815 34.7794 65.9278 33.8607C65.6741 32.9419 66.6597 32.2248 65.9278 31.9559Z" fill="#92C66A"/>
<path d="M59.1746 38.9861C57.2404 36.6627 57.9882 33.5039 60.8448 31.9308C62.1965 31.1863 63.7782 30.9306 65.2746 31.1137C64.1183 31.2785 61.2137 31.8471 61.1144 33.4124C60.9904 35.3683 63.0568 35.1604 63.0568 38.5217C63.0568 40.6642 64.379 41.1542 65.9278 41.0538C63.4375 41.5836 60.6999 40.8184 59.1746 38.9861Z" fill="#80AD5B"/>
<path d="M67.345 34.1464C67.345 34.1464 70.3621 33.0052 70.7678 31.639C70.7794 31.6007 70.7732 31.5603 70.7504 31.5255L70.6951 31.4417C70.6164 31.3228 70.4029 31.3342 70.3433 31.4602C70.0947 31.9851 68.9388 33.0443 67.2516 33.9712C67.1268 34.0397 67.2721 34.119 67.345 34.1464Z" fill="#A85A3F"/>
<path d="M69.2567 35.7653C68.162 34.2028 66.9885 34.7826 66.8596 33.5123C66.8256 33.1734 66.844 32.8427 66.6598 32.5325C67.1128 32.8954 67.0113 33.4998 67.2938 33.921C67.4514 34.1718 67.8092 34.2593 68.0865 34.3999C68.6737 34.706 69.0971 35.2159 69.2567 35.7653Z" fill="#75A550"/>
<path d="M59.7626 41.6546C62.3629 39.5395 62.3628 36.1104 59.7624 33.9954C57.162 31.8804 52.946 31.8805 50.3457 33.9956C47.7454 36.1106 47.7455 39.5397 50.3459 41.6547C52.9463 43.7697 57.1623 43.7696 59.7626 41.6546Z" fill="#E85E4D"/>
<path d="M49.8829 41.2375C53.8217 43.0876 58.5328 41.4405 59.7092 38.2191C60.949 34.8241 58.0998 33.0088 58.0998 33.0088C59.6508 33.6577 60.8884 34.798 61.4309 36.2636C62.491 39.1277 60.4958 42.1485 56.9745 43.0108C54.3096 43.6633 51.5347 42.8924 49.8829 41.2375Z" fill="#D6564C"/>
<path d="M49.8829 35.2276C49.8829 35.2276 47.5177 37.7151 50.2453 40.5386C50.6586 40.8075 51.1986 40.8411 51.2799 40.0008C51.3611 39.1604 50.4106 38.1856 50.7825 37.0092C51.1545 35.8327 50.8843 33.9503 49.8829 35.2276Z" fill="#EF6A60"/>
<path d="M53.5169 34.711C53.5169 34.711 53.8212 34.7552 53.7582 34.4937C53.5589 33.6668 52.6686 31.6663 51.468 31.0814C51.4237 31.0597 51.3713 31.0517 51.3205 31.0597L51.1982 31.0789C51.0244 31.1061 50.9707 31.2864 51.1095 31.3759C51.7298 31.776 52.9252 32.7649 53.5169 34.711Z" fill="#A85A3F"/>
<path d="M56.1497 33.6433C53.8286 34.044 54.2036 35.1971 52.5706 34.9043C52.1361 34.826 51.7257 34.7074 51.28 34.765C51.8815 34.5102 52.6014 34.7892 53.2206 34.6898C53.6482 34.628 53.8775 34.2845 54.2135 34.0949C54.7682 33.7704 55.4691 33.608 56.1497 33.6433Z" fill="#CE4A41"/>
<path d="M19.083 37.5475H97.829V70.6049H19.083V37.5475Z" fill="#D3C2BA"/>
<path d="M97.8291 59.3696C92.6036 60.2473 77.9644 62.3899 67.8588 60.7783L67.4783 61.6018C67.4783 61.6018 68.5376 64.3173 75.0292 67.4821L68.8708 67.661C68.8708 67.661 69.9516 69.2229 72.087 70.605H97.8291V59.3696H97.8291Z" fill="#CEB8AF"/>
<path d="M19.083 70.6049H68.3809C63.9153 70.0548 59.4152 69.0674 56.8273 68.4476C55.5146 68.1333 54.6135 67.1533 54.6135 66.0404V64.4454C54.6135 63.9788 54.1485 63.6006 53.5748 63.6006H52.2608C51.7191 63.6006 51.2799 63.2434 51.2799 62.8027V57.1966C51.2799 56.4745 50.5602 55.8892 49.6725 55.8892H37.7189C34.298 55.8892 32.3448 52.7019 34.4174 50.4883C34.6038 50.2892 34.8122 50.0844 35.0446 49.8739C39.2663 46.0493 91.0931 47.3772 97.8291 47.5665V37.5475H19.083V70.6049Z" fill="#CEB8AF"/>
<path d="M34.3312 47.8398H82.2342V58.901H34.3312V47.8398Z" fill="#EAD9CE"/>
<path d="M49.6725 55.8893H37.7189C36.2528 55.8893 35.0568 55.3036 34.3312 54.4603V58.901H51.2799V57.1967C51.2799 56.4746 50.5603 55.8893 49.6725 55.8893ZM34.3312 50.5839C34.3593 50.5517 34.388 50.5198 34.4174 50.4884C34.6038 50.2893 34.8122 50.0845 35.0446 49.874C36.1292 48.8914 40.3562 48.2489 46.1532 47.8398H34.3312V50.5839Z" fill="#E5D0C6"/>
<path d="M36.5968 57.7673V49.0221H39.1122C39.9257 49.0221 40.5347 49.2122 40.939 49.5923C41.3432 49.9725 41.5454 50.5081 41.5454 51.1992V55.6084C41.5454 56.2956 41.3432 56.8272 40.939 57.2032C40.5347 57.5793 39.9258 57.7673 39.1122 57.7673H36.5968V57.7673ZM37.7965 56.883H39.1011C39.9508 56.883 40.3758 56.4704 40.3758 55.645V51.1504C40.3758 50.3251 39.9458 49.9124 39.0861 49.9124H37.7965V56.883ZM42.5876 55.6572V51.1382C42.5876 50.4512 42.7948 49.9124 43.209 49.5221C43.6233 49.1318 44.2321 48.9366 45.0357 48.9366C45.8467 48.9366 46.4624 49.1318 46.883 49.5221C47.3035 49.9124 47.5137 50.4512 47.5137 51.1382V55.6572C47.5137 56.3362 47.3034 56.8718 46.883 57.2642C46.4624 57.6565 45.8467 57.8526 45.0357 57.8526C44.2372 57.8526 43.6295 57.6565 43.2128 57.2642C42.796 56.8718 42.5876 56.3362 42.5876 55.6572ZM43.7573 55.706C43.7573 56.1126 43.8638 56.4247 44.0769 56.6421C44.2899 56.8596 44.6095 56.9684 45.0357 56.9684C45.8879 56.9684 46.3141 56.5476 46.3141 55.706V51.0833C46.3141 50.6808 46.2088 50.3698 45.9983 50.1503C45.7876 49.9307 45.4668 49.821 45.0357 49.821C44.6095 49.821 44.2899 49.9307 44.0769 50.1503C43.8638 50.3698 43.7573 50.6808 43.7573 51.0833V55.706ZM48.631 57.7673V49.0221H50.1485L52.6349 55.3578V49.0221H53.7071V57.7673H52.4549L49.7032 50.7152V57.7673H48.631ZM54.6143 57.7673L56.6673 49.0221H58.4306L60.4852 57.7673H59.2855L58.8699 56.0048H56.1448L55.739 57.7673H54.6143ZM56.3372 55.1693H58.6728L57.4907 50.1595L56.3372 55.1693ZM60.9875 49.9124V49.0221H66.1461V49.9124H64.1667V57.7673H62.967V49.9124H60.9875ZM66.9709 57.7673V49.0221H68.1706V57.7673H66.9709ZM69.3027 55.6572V51.1382C69.3027 50.4512 69.5098 49.9124 69.9241 49.5221C70.3384 49.1318 70.9472 48.9366 71.7508 48.9366C72.5617 48.9366 73.1775 49.1318 73.5981 49.5221C74.0185 49.9124 74.2289 50.4512 74.2289 51.1382V55.6572C74.2289 56.3362 74.0185 56.8718 73.5981 57.2642C73.1775 57.6565 72.5617 57.8526 71.7508 57.8526C70.9523 57.8526 70.3446 57.6565 69.9278 57.2642C69.511 56.8718 69.3027 56.3362 69.3027 55.6572ZM70.4724 55.706C70.4724 56.1126 70.5789 56.4247 70.792 56.6421C71.005 56.8596 71.3246 56.9684 71.7508 56.9684C72.603 56.9684 73.0292 56.5476 73.0292 55.706V51.0833C73.0292 50.6808 72.9239 50.3698 72.7133 50.1503C72.5027 49.9307 72.1819 49.821 71.7508 49.821C71.3246 49.821 71.005 49.9307 70.792 50.1503C70.5789 50.3698 70.4724 50.6808 70.4724 51.0833V55.706ZM75.346 57.7673V49.0221H76.8636L79.35 55.3578V49.0221H80.4221V57.7673H79.17L76.4183 50.7152V57.7673H75.346Z" fill="#DE6050"/>
<path d="M49.7032 55.8898C49.693 55.8896 49.6828 55.8891 49.6725 55.8891H48.631V57.7673H49.7032V55.8898ZM43.2128 57.2642C43.6295 57.6566 44.2372 57.8527 45.0358 57.8527C45.8467 57.8527 46.4625 57.6566 46.883 57.2642C47.2544 56.9177 47.4615 56.4593 47.5049 55.8891H46.3065C46.247 56.6085 45.8236 56.9684 45.0357 56.9684C44.6095 56.9684 44.2899 56.8597 44.0769 56.6422C43.8971 56.4586 43.7935 56.2074 43.7654 55.8892H42.5965C42.6395 56.4593 42.8447 56.9177 43.2128 57.2642ZM40.9391 57.2032C41.2863 56.8802 41.4841 56.4419 41.533 55.8891H40.3617C40.2824 56.5516 39.8624 56.883 39.1011 56.883H37.7965V55.8891H37.7189C37.3239 55.8891 36.9487 55.8463 36.5968 55.7677V57.7673H39.1122C39.9258 57.7673 40.5348 57.5793 40.9391 57.2032ZM37.0362 49.0221H36.5969V49.1452C36.7422 49.1016 36.8887 49.0606 37.0362 49.0221Z" fill="#D6564C"/>
<path d="M103.65 45.2307H13.5265L18.8186 37.5475H97.8292L103.65 45.2307Z" fill="#EAD9CE"/>
<path d="M31.9445 40.5673C37.3204 38.1458 91.2203 38.8576 98.9084 38.9719L97.8292 37.5475H18.8186L13.5265 45.2307H49.4745C37.9698 44.5913 27.2392 42.6867 31.9445 40.5673Z" fill="#E5D0C6"/>
<path d="M104.662 52.8582C104.662 52.8582 104.766 52.7688 105.041 52.7255C105.317 52.6823 105.686 52.5857 105.872 52.6859C106.057 52.7861 105.469 53.5351 104.662 52.8582Z" fill="#EDB264"/>
<path d="M104.596 56.7799C104.596 56.7799 104.994 54.7016 104.662 52.8582L105.899 56.6446L104.596 56.7799Z" fill="#EDB264"/>
<path d="M67.5345 60.6406C67.5345 60.6406 91.379 68.1271 104.944 56.4645L106.397 56.7627C106.397 56.7627 103.838 62.2956 98.0767 65.7417C91.3756 69.7496 80.5237 71.1735 67.1688 61.5078L67.5345 60.6406Z" fill="#F4C878"/>
<path d="M98.0766 65.7417C103.838 62.2956 106.397 56.7627 106.397 56.7627L104.944 56.4645C104.944 56.4645 105.595 56.8677 105.441 57.5691C105.288 58.2705 101.632 61.132 100.266 62.422C98.8997 63.712 84.6934 72.5567 67.1688 61.5078C80.5237 71.1735 91.3755 69.7496 98.0766 65.7417Z" fill="#F4BE6A"/>
<path d="M104.944 56.4645C92.1488 67.4651 70.2088 61.429 67.7594 60.7083C67.7554 60.7119 67.7511 60.7154 67.7472 60.7191C67.7472 60.7191 92.1057 69.4731 104.944 56.4645Z" fill="#F4D28A"/>
<path d="M67.13 61.7301L66.9741 61.6824C66.8343 61.6397 66.7635 61.5128 66.8161 61.3991L67.1966 60.5756C67.2492 60.4619 67.4051 60.4044 67.5449 60.4471L67.7008 60.4947C67.8406 60.5375 67.9114 60.6643 67.8588 60.778L67.4783 61.6015C67.4257 61.7153 67.2698 61.7728 67.13 61.7301Z" fill="#F4BE6A"/>
<path d="M69.3827 66.7985C69.3827 66.7985 94.6077 70.1511 104.944 56.4745L105.747 56.5011C106.117 56.5135 106.385 56.7935 106.308 57.0882C105.899 58.6547 104.441 63.1759 100.562 66.6997C95.0133 71.7398 84.7511 74.9424 69.2434 67.7082L69.3827 66.7985Z" fill="#F4C878"/>
<path d="M100.562 66.6998C104.585 63.0452 106.004 58.3178 106.35 56.9262C106.402 56.7155 106.211 56.5166 105.946 56.5078L104.944 56.4745C104.944 56.4745 105.682 56.7607 105.709 57.4728C105.736 58.1849 102.879 61.5952 101.867 63.0856C100.855 64.5759 89.1808 75.6013 69.2434 67.7082C84.7511 74.9425 95.0132 71.7398 100.562 66.6998Z" fill="#F4BE6A"/>
<path d="M104.944 56.4749C95.1943 69.3751 72.199 67.1246 69.6199 66.8276C69.6169 66.8318 69.6137 66.836 69.6107 66.8401C69.6107 66.8401 95.6583 71.3477 104.944 56.4749Z" fill="#F4D28A"/>
<path d="M69.2614 67.9324L69.0968 67.9117C68.9492 67.8932 68.848 67.7809 68.8708 67.6608L69.0356 66.7913C69.0584 66.6713 69.1965 66.5889 69.3441 66.6075L69.5087 66.6281C69.6563 66.6466 69.7575 66.759 69.7348 66.879L69.5699 67.7485C69.5471 67.8686 69.409 67.9509 69.2614 67.9324Z" fill="#F4BE6A"/>
<path d="M73.2529 73.1161C73.2529 73.1161 98.7508 71.6787 104.958 56.4395L105.686 56.3254C106.082 56.2633 106.452 56.5062 106.46 56.8344C106.498 58.4826 106.327 63.1005 103.573 67.2096C99.5933 73.1495 90.507 78.1795 73.3737 74.0276L73.2529 73.1161Z" fill="#F4CF78"/>
<path d="M105.205 66.8508C108.593 61.4348 106.943 58.1869 106.455 56.6855C106.377 56.4432 106.164 56.2506 105.862 56.298L104.958 56.4397C104.958 56.4397 105.757 56.5808 105.984 57.2689C106.211 57.9571 104.391 61.8091 103.826 63.4484C103.261 65.0877 95.0045 77.9955 73.3738 74.0278C80.3832 75.7264 97.0988 79.8088 105.205 66.8508Z" fill="#F4BE6A"/>
<path d="M104.958 56.4396C99.1031 70.8138 76.0861 72.9085 73.492 73.1C73.4903 73.1047 73.4883 73.1093 73.4866 73.1139C73.4866 73.1139 100.111 72.6474 104.958 56.4396Z" fill="#FFD68A"/>
<path d="M73.4546 74.2424L73.2886 74.253C73.1397 74.2624 73.0096 74.172 72.9979 74.0508L72.9133 73.1738C72.9016 73.0526 73.0129 72.9468 73.1618 72.9373L73.3278 72.9267C73.4767 72.9172 73.6069 73.0077 73.6186 73.1288L73.7032 74.0059C73.7148 74.127 73.6035 74.2329 73.4546 74.2424Z" fill="#F4BE6A"/>
<path d="M104.958 56.4397C104.958 56.4397 105.242 55.214 104.662 52.8581C104.662 52.8581 105.387 53.0547 105.872 52.6858C105.872 52.6858 108.019 57.3634 107.18 62.0439L106.043 57.5181C106.043 57.5181 106.066 56.7219 104.958 56.4397Z" fill="#F7B63E"/>
<path d="M104.958 56.4397C104.958 56.4397 105.242 55.214 104.662 52.8581C104.662 52.8581 105.387 53.0547 105.872 52.6858C105.872 52.6858 108.019 57.3634 107.18 62.0439L106.043 57.5181C106.043 57.5181 106.066 56.7219 104.958 56.4397Z" fill="#F4BE6A"/>
<path d="M47.1209 66.6531H1.66504V58.2645C1.66504 57.5845 2.34272 57.0333 3.17868 57.0333H45.6072C46.4432 57.0333 47.1209 57.5845 47.1209 58.2645V66.6531Z" fill="#FFD28A"/>
<path d="M44.0283 65.6258H4.75749C4.1507 65.6258 3.65881 65.2257 3.65881 64.7322V59.4213C3.65881 58.9278 4.1507 58.5277 4.75749 58.5277H44.0283C44.6351 58.5277 45.127 58.9278 45.127 59.4213V64.7322C45.127 65.2257 44.6351 65.6258 44.0283 65.6258Z" fill="#FFBE6A"/>
<path d="M8.3479 66.9244C8.3479 69.895 10.3265 71.0049 12.7672 71.0049C15.2079 71.0049 17.1865 69.895 17.1865 66.9244C17.1865 63.9537 15.2079 60.2472 12.7672 60.2472C10.3265 60.2472 8.3479 63.9537 8.3479 66.9244ZM18.7837 66.9244C18.7837 69.895 20.7623 71.0049 23.203 71.0049C25.6437 71.0049 27.6223 69.895 27.6223 66.9244C27.6223 63.9537 25.6437 60.2472 23.203 60.2472C20.7623 60.2472 18.7837 63.9537 18.7837 66.9244ZM29.8031 66.9244C29.8031 69.895 31.7817 71.0049 34.2224 71.0049C36.6632 71.0049 38.6417 69.895 38.6417 66.9244C38.6417 63.9537 36.6631 60.2472 34.2224 60.2472C31.7817 60.2472 29.8031 63.9537 29.8031 66.9244Z" fill="#EFC5C5"/>
<path d="M3.18079 66.9244C3.18079 69.895 5.15939 71.0049 7.60009 71.0049C10.0408 71.0049 12.0194 69.895 12.0194 66.9244C12.0194 63.9537 10.0408 60.2472 7.60009 60.2472C5.15936 60.2472 3.18079 63.9537 3.18079 66.9244Z" fill="#FFDCD9"/>
<path d="M7.78437 60.2544C7.72314 60.2496 7.66166 60.2472 7.60015 60.2472C5.87341 60.2472 4.37802 62.1024 3.65088 64.2397C8.97863 64.3909 8.23206 61.3611 7.78437 60.2544Z" fill="#FFE7E6"/>
<path d="M13.5153 66.9244C13.5153 69.895 15.4939 71.0049 17.9346 71.0049C20.3753 71.0049 22.3539 69.895 22.3539 66.9244C22.3539 63.9537 20.3753 60.2472 17.9346 60.2472C15.4939 60.2472 13.5153 63.9537 13.5153 66.9244Z" fill="#FFDCD9"/>
<path d="M13.9841 64.243C19.1566 64.3368 18.419 61.345 17.9753 60.2477C17.9617 60.2475 17.9481 60.2472 17.9345 60.2472C16.2069 60.2472 14.7109 62.1043 13.9841 64.243Z" fill="#FFE7E6"/>
<path d="M24.2797 66.9244C24.2797 69.895 26.2583 71.0049 28.699 71.0049C31.1397 71.0049 33.1183 69.895 33.1183 66.9244C33.1183 63.9537 31.1397 60.2472 28.699 60.2472C26.2583 60.2472 24.2797 63.9537 24.2797 66.9244Z" fill="#FFDCD9"/>
<path d="M24.7482 64.2444C30.4965 64.4388 29.2653 61.2318 28.5956 60.2493C26.9114 60.3216 25.4602 62.1479 24.7482 64.2444Z" fill="#FFE7E6"/>
<path d="M34.8291 66.9244C34.8291 69.895 36.8077 71.0049 39.2484 71.0049C41.6891 71.0049 43.6677 69.895 43.6677 66.9244C43.6677 63.9537 41.6891 60.2472 39.2484 60.2472C36.8077 60.2472 34.8291 63.9537 34.8291 66.9244Z" fill="#FFDCD9"/>
<path d="M35.2972 64.2451C40.7313 64.5251 40.0462 61.232 39.0516 60.2554C37.4071 60.3895 35.996 62.1872 35.2972 64.2451Z" fill="#FFE7E6"/>
<path d="M8.05999 74.078H3.39388C2.89879 74.078 2.49744 73.7516 2.49744 73.3489V71.4163H8.95646V73.3489C8.95643 73.7516 8.55508 74.078 8.05999 74.078ZM45.3918 74.078H40.7257C40.2306 74.078 39.8293 73.7516 39.8293 73.3489V71.4163H46.2883V73.3489C46.2883 73.7516 45.8869 74.078 45.3918 74.078ZM17.393 74.078H12.7269C12.2318 74.078 11.8304 73.7516 11.8304 73.3489V71.4163H18.2894V73.3489C18.2894 73.7516 17.8881 74.078 17.393 74.078ZM26.7259 74.078H22.0598C21.5647 74.078 21.1633 73.7516 21.1633 73.3489V71.4163H27.6224V73.3489C27.6223 73.7516 27.221 74.078 26.7259 74.078ZM36.0589 74.078H31.3928C30.8977 74.078 30.4963 73.7516 30.4963 73.3489V71.4163H36.9553V73.3489C36.9553 73.7516 36.554 74.078 36.0589 74.078Z" fill="#FFBE6A"/>
<path d="M46.2465 72.1634H2.4975L0 67.204H48.744L46.2465 72.1634Z" fill="#FFC36F"/>
<path d="M1.02178 69.233H47.7222L48.744 67.204H0L1.02178 69.233Z" fill="#FFBB69"/>
<path d="M47.9847 68.5446H0.759358C0.339963 68.5446 0 68.2681 0 67.927V65.7556C0 65.4144 0.33999 65.1379 0.759358 65.1379H47.9847C48.4041 65.1379 48.744 65.4145 48.744 65.7556V67.927C48.7441 68.2681 48.4041 68.5446 47.9847 68.5446Z" fill="#F4D28A"/>
<path d="M47.9847 65.1379H0.759358C0.339963 65.1379 0 65.4145 0 65.7556V67.927C0 68.2681 0.339963 68.5446 0.759358 68.5446H1.6144C1.5402 67.9904 1.5572 66.7461 3.18081 66.6534C5.1265 66.5423 43.3488 66.4353 48.744 66.4207V65.7556C48.744 65.4145 48.4041 65.1379 47.9847 65.1379Z" fill="#FFD894"/>
</svg>
