<svg width="104" height="99" viewBox="0 0 104 99" fill="none" xmlns="http://www.w3.org/2000/svg">
<path d="M51.6054 0.000666327L51.6043 0L51.6067 50.1546L103.999 50.1573C104.002 43.57 102.649 37.0466 100.017 30.9602C97.3849 24.8737 93.5257 19.3434 88.6599 14.6854C83.7942 10.0274 78.0172 6.33297 71.6591 3.81328C65.3011 1.29359 58.4867 -0.00196217 51.6054 0.000666327Z" fill="#F6AF9A"/>
<path d="M51.6071 48.8454L51.6043 99C58.4856 99.0027 65.2999 97.7072 71.6579 95.1876C78.0159 92.6681 83.7929 88.9738 88.6588 84.3159C93.5246 79.658 97.3839 74.1279 100.016 68.0416C102.648 61.9552 104.002 55.432 103.999 48.8447L104 48.8434L51.6071 48.8454Z" fill="#F6AF9A"/>
<path d="M4.45201e-06 50.1567L52.3918 50.1543L52.3943 3.85959e-06C45.5129 -0.0025808 38.6985 1.29301 32.3404 3.81273C25.9824 6.33245 20.2053 10.0269 15.3395 14.6849C10.4737 19.343 6.61452 24.8733 3.98248 30.9598C1.35044 37.0462 -0.00283275 43.5693 4.45201e-06 50.1567Z" fill="#F6AF9A"/>
<path d="M52.3918 48.846L4.45218e-06 48.8434C-0.00283281 55.4307 1.35045 61.9541 3.9825 68.0405C6.61455 74.127 10.4738 79.6572 15.3396 84.3152C20.2054 88.9732 25.9824 92.6676 32.3405 95.1872C38.6985 97.7069 45.513 99.0024 52.3943 98.9997L52.3918 48.846Z" fill="#F6AF9A"/>
<path d="M72.5138 29.1613L75.5235 27.2478L78.2418 28.9758L75.2321 30.8894L72.5138 29.1613Z" fill="#5BA1E1"/>
<path d="M70.5307 77.677L68.7249 76.5277L66.9208 77.677C66.8363 77.7308 66.7889 77.8037 66.789 77.8797C66.7891 77.9557 66.8367 78.0286 66.9213 78.0823C67.0059 78.136 67.1206 78.1662 67.2402 78.1661C67.3598 78.1661 67.4744 78.1358 67.5589 78.082L68.7252 77.3389L69.8929 78.082C69.9774 78.1358 70.0921 78.166 70.2116 78.166C70.3311 78.1661 70.4458 78.1359 70.5304 78.0822C70.615 78.0285 70.6625 77.9556 70.6626 77.8796C70.6626 77.8036 70.6152 77.7307 70.5307 77.677ZM68.7259 70.844C68.6065 70.844 68.4919 70.8742 68.4074 70.9279C68.323 70.9816 68.2755 71.0544 68.2755 71.1304V73.0548C68.2755 73.1307 68.323 73.2035 68.4074 73.2573C68.4919 73.311 68.6065 73.3411 68.7259 73.3411C68.8454 73.3411 68.96 73.311 69.0444 73.2573C69.1289 73.2035 69.1764 73.1307 69.1764 73.0548V71.1304C69.1764 71.0544 69.1289 70.9816 69.0444 70.9279C68.96 70.8742 68.8454 70.844 68.7259 70.844ZM68.7293 74.2443H68.727C68.6078 74.2443 68.4935 74.2743 68.409 74.3277C68.3246 74.3811 68.2768 74.4536 68.2762 74.5294L68.2752 74.6461C68.2748 74.6838 68.2861 74.7211 68.3085 74.756C68.3309 74.7909 68.3638 74.8226 68.4055 74.8493C68.4472 74.8761 68.4968 74.8974 68.5514 74.9119C68.606 74.9265 68.6646 74.9341 68.7239 74.9342H68.7259C68.8451 74.9342 68.9594 74.9042 69.0438 74.8507C69.1283 74.7973 69.1759 74.7247 69.1764 74.6489L69.1774 74.5322C69.1777 74.4946 69.1663 74.4573 69.144 74.4224C69.1216 74.3876 69.0887 74.3559 69.047 74.3292C69.0054 74.3024 68.9559 74.2812 68.9013 74.2666C68.8467 74.2521 68.7882 74.2445 68.729 74.2443H68.7293Z" fill="#C8DFF5"/>
<path d="M57.0515 67.2021L54.4807 64.8251C54.4284 64.7767 54.3664 64.7383 54.2981 64.7121C54.2298 64.6859 54.1566 64.6724 54.0827 64.6724C54.0087 64.6724 53.9355 64.6859 53.8672 64.7121C53.7989 64.7383 53.7369 64.7767 53.6847 64.8251L46.0589 71.8805C46.0018 71.9334 45.9576 71.997 45.9293 72.067C45.9011 72.137 45.8894 72.2119 45.895 72.2864L46.0368 74.1564L44.818 75.2836C44.7657 75.332 44.7241 75.3894 44.6958 75.4527C44.6675 75.5159 44.6529 75.5837 44.653 75.6521C44.653 75.7206 44.6676 75.7884 44.696 75.8516C44.7244 75.9148 44.766 75.9722 44.8184 76.0205L44.95 76.1424C45.0023 76.1909 45.0645 76.2294 45.1328 76.2556C45.2012 76.2818 45.2745 76.2953 45.3485 76.2953C45.4226 76.2953 45.4959 76.2818 45.5642 76.2556C45.6326 76.2294 45.6947 76.1909 45.747 76.1424L46.9658 75.0154L48.9871 75.1464C49.0673 75.1518 49.1479 75.141 49.2233 75.1149C49.2986 75.0888 49.367 75.0479 49.4237 74.9951L57.0515 67.9393C57.1567 67.8413 57.2157 67.7088 57.2157 67.5707C57.2157 67.4326 57.1567 67.3001 57.0515 67.2021Z" fill="#C8DFF5"/>
<path d="M61.8736 36.5895H39.5195C39.1716 36.5894 38.8272 36.6527 38.5057 36.7758C38.1843 36.8989 37.8923 37.0793 37.6462 37.3068C37.4002 37.5344 37.205 37.8045 37.0718 38.1018C36.9386 38.3991 36.87 38.7178 36.8699 39.0397V59.7228C36.8704 60.3728 37.1497 60.996 37.6465 61.4555C38.1434 61.915 38.817 62.1732 39.5195 62.1734H61.874C62.576 62.1725 63.249 61.914 63.7453 61.4546C64.2416 60.9952 64.5206 60.3724 64.5212 59.7228V39.0397C64.5209 38.3901 64.2419 37.7672 63.7456 37.3078C63.2492 36.8485 62.5761 36.5902 61.874 36.5897L61.8736 36.5895Z" fill="#5BA1E1"/>
<path d="M61.8736 38.7014H39.5195C39.1716 38.7013 38.8272 38.7646 38.5057 38.8877C38.1843 39.0108 37.8923 39.1912 37.6462 39.4188C37.4002 39.6463 37.205 39.9164 37.0718 40.2138C36.9386 40.5111 36.87 40.8298 36.8699 41.1516V59.7229C36.8704 60.3729 37.1497 60.9961 37.6465 61.4556C38.1434 61.9151 38.817 62.1733 39.5195 62.1735H61.874C62.576 62.1726 63.249 61.9141 63.7453 61.4547C64.2416 60.9953 64.5206 60.3724 64.5212 59.7229V41.1516C64.521 40.502 64.242 39.8791 63.7456 39.4197C63.2493 38.9603 62.5761 38.702 61.874 38.7016L61.8736 38.7014Z" fill="#288DE8"/>
<path d="M53.0378 48.5544V44.3333H48.3503V48.5544H43.7907V52.891H48.3503V57.1097H53.0378V52.891H57.5998V48.5544H53.0378Z" fill="#2481D7"/>
<path d="M53.0378 47.214V42.9929H48.3503V47.214H43.7907V51.5507H48.3503V55.7692H53.0378V51.5507H57.5998V47.214H53.0378Z" fill="#E9F6FF"/>
<path d="M48.3503 42.9929V47.214H43.7907V51.5507H48.3448L53.0378 47.2085V42.9929H48.3503Z" fill="white"/>
<path d="M57.5998 46.7264H53.5646V42.9929C53.5646 42.8636 53.5091 42.7397 53.4103 42.6483C53.3115 42.5568 53.1775 42.5055 53.0378 42.5055H48.3503C48.2107 42.5055 48.0767 42.5569 47.978 42.6483C47.8792 42.7397 47.8237 42.8637 47.8237 42.9929V46.7266H43.7907C43.6511 46.7267 43.5171 46.778 43.4184 46.8694C43.3197 46.9607 43.2642 47.0846 43.2641 47.2139V51.5507C43.2642 51.6799 43.3197 51.8038 43.4184 51.8951C43.5171 51.9865 43.6511 52.0378 43.7907 52.0379H47.8239V55.7692C47.8239 55.8984 47.8794 56.0224 47.9782 56.1138C48.0769 56.2052 48.2109 56.2566 48.3505 56.2566H53.038C53.1777 56.2566 53.3117 56.2053 53.4105 56.1139C53.5093 56.0224 53.5648 55.8985 53.5648 55.7692V52.0379H57.6C57.7397 52.0378 57.8736 51.9865 57.9723 51.8951C58.0711 51.8038 58.1266 51.6799 58.1266 51.5507V47.2139C58.1266 47.0846 58.0711 46.9607 57.9723 46.8694C57.8736 46.778 57.7397 46.7267 57.6 46.7266L57.5998 46.7264ZM57.073 51.0632H53.0378C52.8981 51.0633 52.7642 51.1147 52.6654 51.2061C52.5667 51.2975 52.5112 51.4214 52.5112 51.5507V55.282H48.8772V51.5507C48.8772 51.4214 48.8216 51.2974 48.7229 51.206C48.6241 51.1146 48.4901 51.0632 48.3503 51.0632H44.3175V47.7013H48.3503C48.4901 47.7013 48.6241 47.6499 48.7229 47.5585C48.8216 47.4671 48.8772 47.3431 48.8772 47.2139V43.4802H52.5112V47.2139C52.5112 47.3431 52.5667 47.467 52.6654 47.5584C52.7642 47.6499 52.8981 47.7012 53.0378 47.7013H57.073V51.0632Z" fill="#2481D7"/>
<path d="M61.8736 36.1021H39.5195C38.6776 36.1027 37.8703 36.4124 37.2748 36.9631C36.6793 37.5138 36.3443 38.2605 36.3431 39.0395V59.7226C36.3442 60.5017 36.6793 61.2485 37.2748 61.7992C37.8702 62.35 38.6775 62.6597 39.5195 62.6604H61.874C62.7157 62.6594 63.5225 62.3495 64.1175 61.7987C64.7125 61.248 65.047 60.5013 65.0478 59.7226V39.0395C65.047 38.2608 64.7124 37.5143 64.1174 36.9636C63.5224 36.4129 62.7156 36.1031 61.874 36.1021H61.8736ZM63.9942 59.7226C63.9937 60.2429 63.7702 60.7418 63.3727 61.1099C62.9752 61.4779 62.4362 61.685 61.8738 61.6858H39.5191C38.9565 61.6853 38.417 61.4784 38.0191 61.1104C37.6211 60.7424 37.3972 60.2434 37.3963 59.7228V39.0397C37.3971 38.5191 37.6211 38.0201 38.019 37.6521C38.417 37.2841 38.9565 37.0771 39.5191 37.0767H61.8736C62.4359 37.0775 62.975 37.2846 63.3725 37.6526C63.77 38.0206 63.9935 38.5194 63.994 39.0397L63.9942 59.7226ZM57.238 67.0297L57.2376 67.0295L54.6672 64.6526C54.5907 64.5813 54.4996 64.5247 54.3993 64.4863C54.2989 64.4478 54.1913 64.4281 54.0827 64.4284H54.0823C53.9738 64.4282 53.8664 64.4478 53.7661 64.4863C53.6659 64.5248 53.5749 64.5813 53.4985 64.6526L45.8727 71.708C45.789 71.7855 45.7242 71.8788 45.6828 71.9815C45.6413 72.0841 45.6242 72.1938 45.6325 72.3032L45.7657 74.0623L44.6319 75.1109C44.555 75.1819 44.4941 75.2661 44.4525 75.3589C44.4109 75.4517 44.3895 75.5511 44.3895 75.6516C44.3895 75.752 44.4109 75.8515 44.4525 75.9442C44.4941 76.037 44.555 76.1213 44.6319 76.1922L44.7639 76.3147C44.8406 76.386 44.9317 76.4425 45.0322 76.481C45.1326 76.5194 45.2402 76.5391 45.3489 76.5389H45.3501C45.4585 76.539 45.5658 76.5193 45.6659 76.4808C45.766 76.4424 45.8568 76.3859 45.9332 76.3147L47.0671 75.2661L48.968 75.3893C49.086 75.3973 49.2045 75.3816 49.3154 75.3433C49.4262 75.3049 49.5267 75.2448 49.6101 75.167L57.2382 68.111C57.3923 67.9672 57.4788 67.7729 57.4788 67.5704C57.4787 67.3679 57.3922 67.1736 57.238 67.0299V67.0297ZM56.8653 67.7668L49.2368 74.8231C49.2067 74.8511 49.1705 74.8727 49.1306 74.8866C49.0907 74.9004 49.048 74.9061 49.0055 74.9032L46.9842 74.7722C46.9466 74.7698 46.9089 74.7748 46.8736 74.787C46.8383 74.7992 46.8063 74.8182 46.7796 74.8429L45.5605 75.9705C45.5329 75.9962 45.5 76.0167 45.4638 76.0306C45.4276 76.0445 45.3887 76.0517 45.3495 76.0516H45.3489C45.3095 76.0517 45.2704 76.0446 45.234 76.0307C45.1975 76.0167 45.1644 75.9963 45.1366 75.9705L45.0046 75.8476C44.9767 75.8219 44.9545 75.7914 44.9394 75.7578C44.9243 75.7241 44.9165 75.6881 44.9165 75.6517C44.9165 75.6153 44.9242 75.5792 44.9393 75.5456C44.9544 75.512 44.9765 75.4814 45.0044 75.4557L46.2231 74.3285C46.2498 74.3038 46.2704 74.2742 46.2836 74.2415C46.2968 74.2088 46.3023 74.1738 46.2996 74.139L46.1579 72.2694C46.1548 72.2296 46.1611 72.1897 46.1761 72.1523C46.1912 72.1149 46.2148 72.0809 46.2452 72.0526L53.8712 64.9968C53.8988 64.971 53.9318 64.9505 53.9681 64.9366C54.0043 64.9227 54.0433 64.9156 54.0825 64.9156C54.122 64.9156 54.161 64.9227 54.1974 64.9367C54.2338 64.9507 54.2668 64.9713 54.2945 64.9972L56.8653 67.3742C56.9213 67.4264 56.9526 67.4969 56.9526 67.5705C56.9526 67.644 56.9213 67.7145 56.8653 67.7668Z" fill="#2481D7"/>
<path d="M56.6106 68.0526L55.9326 67.4251C55.9082 67.4025 55.8792 67.3845 55.8472 67.3723C55.8153 67.36 55.7811 67.3537 55.7465 67.3537C55.7119 67.3537 55.6777 67.36 55.6457 67.3722C55.6138 67.3845 55.5847 67.4024 55.5603 67.425C55.5358 67.4476 55.5164 67.4745 55.5032 67.504C55.4899 67.5336 55.4831 67.5653 55.4831 67.5973C55.4831 67.6292 55.4899 67.6609 55.5031 67.6905C55.5163 67.7201 55.5357 67.7469 55.5602 67.7695L56.2381 68.397C56.2875 68.4427 56.3545 68.4684 56.4243 68.4684C56.4941 68.4684 56.5611 68.4428 56.6105 68.3971C56.6599 68.3514 56.6877 68.2894 56.6877 68.2248C56.6877 68.1602 56.66 68.0983 56.6106 68.0526ZM55.7004 68.8957L55.5123 68.7219C55.4629 68.6762 55.3959 68.6505 55.3261 68.6506C55.2563 68.6506 55.1893 68.6763 55.1399 68.722C55.0906 68.7677 55.0629 68.8296 55.0629 68.8943C55.0629 68.9589 55.0906 69.0208 55.14 69.0665L55.3281 69.2403C55.3775 69.286 55.4444 69.3116 55.5143 69.3116C55.5841 69.3116 55.6511 69.2859 55.7005 69.2402C55.7498 69.1945 55.7775 69.1325 55.7775 69.0679C55.7775 69.0033 55.7497 68.9413 55.7004 68.8957ZM54.7271 69.796L54.0499 69.167C54.0006 69.1213 53.9337 69.0955 53.8638 69.0954C53.794 69.0953 53.7269 69.1209 53.6775 69.1665C53.628 69.2121 53.6001 69.2741 53.6 69.3387C53.5999 69.4033 53.6275 69.4653 53.6769 69.5111L54.354 70.1399C54.3784 70.1625 54.4074 70.1805 54.4394 70.1928C54.4713 70.2051 54.5055 70.2114 54.5401 70.2115C54.5747 70.2115 54.6089 70.2052 54.6409 70.193C54.6729 70.1808 54.7019 70.1629 54.7264 70.1403C54.7509 70.1177 54.7703 70.0909 54.7836 70.0614C54.7969 70.0318 54.8037 70.0001 54.8038 69.9682C54.8038 69.9362 54.797 69.9045 54.7839 69.8749C54.7707 69.8453 54.7513 69.8184 54.7269 69.7958L54.7271 69.796ZM53.8162 70.6378L53.629 70.4651C53.5796 70.4195 53.5125 70.3939 53.4427 70.394C53.3729 70.3941 53.3059 70.4198 53.2566 70.4656C53.2073 70.5113 53.1797 70.5733 53.1798 70.6379C53.1799 70.7026 53.2077 70.7645 53.2571 70.8101L53.4446 70.983C53.469 71.0056 53.4981 71.0235 53.5301 71.0356C53.562 71.0478 53.5963 71.0541 53.6308 71.054C53.6654 71.054 53.6996 71.0476 53.7315 71.0354C53.7634 71.0231 53.7924 71.0051 53.8168 70.9824C53.8412 70.9598 53.8606 70.9329 53.8738 70.9033C53.8869 70.8738 53.8937 70.8421 53.8936 70.8101C53.8936 70.7781 53.8867 70.7464 53.8734 70.7169C53.8602 70.6874 53.8407 70.6606 53.8162 70.638V70.6378ZM52.8432 71.5383L52.1652 70.9112C52.1408 70.8886 52.1117 70.8706 52.0798 70.8584C52.0478 70.8461 52.0136 70.8398 51.979 70.8398C51.9444 70.8398 51.9102 70.8461 51.8782 70.8584C51.8462 70.8706 51.8172 70.8886 51.7928 70.9112C51.7683 70.9338 51.7489 70.9607 51.7357 70.9903C51.7224 71.0198 51.7156 71.0515 51.7156 71.0835C51.7156 71.1155 51.7224 71.1472 51.7357 71.1768C51.7489 71.2064 51.7683 71.2332 51.7928 71.2558L52.4707 71.8831C52.4952 71.9057 52.5242 71.9237 52.5562 71.9359C52.5882 71.9482 52.6224 71.9545 52.657 71.9545C52.6916 71.9544 52.7259 71.9481 52.7578 71.9359C52.7898 71.9236 52.8188 71.9057 52.8433 71.883C52.8677 71.8604 52.8871 71.8335 52.9004 71.8039C52.9136 71.7743 52.9204 71.7426 52.9204 71.7106C52.9204 71.6786 52.9136 71.6469 52.9003 71.6174C52.8871 71.5878 52.8677 71.5609 52.8432 71.5383ZM51.9333 72.3805L51.7459 72.2074C51.6964 72.1618 51.6294 72.1362 51.5596 72.1362C51.4897 72.1363 51.4228 72.1621 51.3734 72.2078C51.3241 72.2536 51.2964 72.3156 51.2965 72.3802C51.2966 72.4448 51.3244 72.5068 51.3738 72.5524L51.5612 72.7255C51.6107 72.7711 51.6777 72.7967 51.7476 72.7967C51.8174 72.7966 51.8844 72.7709 51.9337 72.7251C51.9831 72.6794 52.0107 72.6174 52.0107 72.5527C52.0106 72.4881 51.9828 72.4261 51.9333 72.3805ZM50.9599 73.2814L50.2821 72.6539C50.2327 72.6082 50.1658 72.5825 50.0959 72.5825C50.0261 72.5825 49.9591 72.6081 49.9097 72.6538C49.8603 72.6995 49.8326 72.7615 49.8326 72.8261C49.8325 72.8907 49.8603 72.9526 49.9096 72.9983L50.5874 73.6258C50.6118 73.6484 50.6409 73.6664 50.6728 73.6786C50.7047 73.6909 50.739 73.6972 50.7736 73.6972C50.8081 73.6972 50.8424 73.6909 50.8743 73.6787C50.9063 73.6664 50.9353 73.6485 50.9598 73.6259C50.9842 73.6033 51.0036 73.5764 51.0169 73.5469C51.0301 73.5173 51.0369 73.4856 51.0369 73.4536C51.0369 73.4216 51.0301 73.39 51.0169 73.3604C51.0037 73.3308 50.9843 73.304 50.9599 73.2814ZM50.0496 74.1234L49.862 73.9503C49.8375 73.9277 49.8084 73.9099 49.7764 73.8977C49.7444 73.8855 49.7101 73.8793 49.6755 73.8794C49.641 73.8795 49.6067 73.8859 49.5748 73.8982C49.5429 73.9105 49.5139 73.9285 49.4895 73.9512C49.4651 73.9739 49.4458 74.0008 49.4326 74.0304C49.4195 74.06 49.4128 74.0917 49.4129 74.1237C49.413 74.1557 49.4199 74.1874 49.4332 74.2169C49.4465 74.2465 49.466 74.2733 49.4905 74.2959L49.6781 74.4687C49.7276 74.5143 49.7947 74.5398 49.8645 74.5397C49.9343 74.5395 50.0012 74.5137 50.0505 74.4679C50.0998 74.4221 50.1274 74.3601 50.1272 74.2955C50.127 74.2308 50.0991 74.1689 50.0496 74.1234ZM55.1793 66.556C55.1549 66.5334 55.1259 66.5154 55.0939 66.5032C55.062 66.4909 55.0278 66.4846 54.9932 66.4846C54.9586 66.4846 54.9244 66.4909 54.8924 66.5032C54.8605 66.5154 54.8315 66.5334 54.807 66.556L47.7524 73.0834C47.7279 73.106 47.7085 73.1329 47.6953 73.1624C47.682 73.192 47.6752 73.2237 47.6752 73.2556C47.6752 73.2876 47.682 73.3193 47.6952 73.3489C47.7084 73.3784 47.7278 73.4053 47.7523 73.4279C47.7767 73.4506 47.8057 73.4685 47.8377 73.4808C47.8696 73.493 47.9038 73.4993 47.9384 73.4993C47.973 73.4993 48.0072 73.493 48.0392 73.4808C48.0711 73.4686 48.1002 73.4506 48.1246 73.428L55.1793 66.9004C55.2038 66.8778 55.2232 66.8509 55.2364 66.8214C55.2496 66.7918 55.2564 66.7602 55.2564 66.7282C55.2564 66.6962 55.2496 66.6645 55.2364 66.635C55.2232 66.6054 55.2038 66.5786 55.1793 66.556ZM48.4106 74.8979L46.1647 72.8181C46.1403 72.7955 46.1113 72.7775 46.0793 72.7652C46.0474 72.753 46.0131 72.7466 45.9785 72.7466C45.944 72.7466 45.9097 72.7529 45.8777 72.7651C45.8458 72.7774 45.8167 72.7953 45.7923 72.8179C45.7678 72.8405 45.7484 72.8674 45.7351 72.8969C45.7219 72.9265 45.715 72.9582 45.715 72.9902C45.715 73.0222 45.7218 73.0539 45.735 73.0835C45.7482 73.113 45.7676 73.1399 45.7921 73.1625L48.0381 75.2423C48.0625 75.2649 48.0916 75.2829 48.1235 75.2951C48.1554 75.3074 48.1897 75.3137 48.2243 75.3137C48.2588 75.3137 48.2931 75.3074 48.325 75.2952C48.357 75.2829 48.386 75.265 48.4105 75.2424C48.4349 75.2198 48.4543 75.1929 48.4676 75.1634C48.4808 75.1338 48.4876 75.1021 48.4876 75.0701C48.4876 75.0381 48.4808 75.0065 48.4676 74.9769C48.4544 74.9473 48.435 74.9205 48.4106 74.8979Z" fill="#2481D7"/>
<path d="M76.0366 43.4567L70.4301 48.6445C70.2598 48.802 70.1247 48.9891 70.0325 49.1949C69.9403 49.4008 69.8929 49.6214 69.8929 49.8443C69.8929 50.0671 69.9403 50.2877 70.0325 50.4936C70.1247 50.6994 70.2598 50.8865 70.4301 51.044L71.6546 52.1769C71.9985 52.4951 72.4649 52.6738 72.9512 52.6738C73.4375 52.6738 73.9039 52.4951 74.2478 52.1769L79.8549 46.9893L76.0366 43.4567Z" fill="#C8DFF5"/>
<path d="M77.1511 44.4878L78.9097 42.8606L80.4982 44.3301L78.7395 45.9573L77.1511 44.4878Z" fill="#5BA1E1"/>
<path d="M80.0408 46.8171L76.2228 43.2847C76.1724 43.2406 76.1058 43.2161 76.0365 43.2161C75.9672 43.2161 75.9006 43.2406 75.8503 43.2847L70.244 48.4721C70.0492 48.6523 69.8946 48.8662 69.7892 49.1016C69.6837 49.3371 69.6295 49.5894 69.6295 49.8443C69.6295 50.0991 69.6837 50.3515 69.7892 50.5869C69.8946 50.8224 70.0492 51.0363 70.244 51.2164L71.4683 52.3494C71.8619 52.7126 72.3952 52.9166 72.9511 52.9166C73.5071 52.9166 74.0403 52.7126 74.434 52.3494L80.041 47.1617C80.0655 47.1391 80.0849 47.1122 80.0982 47.0827C80.1114 47.0531 80.1182 47.0214 80.1182 46.9894C80.1182 46.9574 80.1114 46.9257 80.0982 46.8961C80.0849 46.8666 80.0655 46.8397 80.041 46.8171H80.0408ZM74.0617 52.0049C73.7669 52.2769 73.3676 52.4296 72.9512 52.4296C72.5349 52.4296 72.1356 52.2769 71.8408 52.0049L70.6165 50.8718C70.4706 50.7369 70.3549 50.5767 70.2759 50.4004C70.1969 50.2241 70.1563 50.0351 70.1563 49.8443C70.1563 49.6534 70.1969 49.4645 70.2759 49.2882C70.3549 49.1119 70.4706 48.9517 70.6165 48.8168L76.0365 43.8014L79.4821 46.9894L74.0617 52.0049Z" fill="#2481D7"/>
<path d="M78.3435 46.8906L77.8466 46.4309C77.8222 46.4082 77.7931 46.3903 77.7612 46.378C77.7292 46.3658 77.695 46.3594 77.6604 46.3594C77.6258 46.3594 77.5916 46.3657 77.5596 46.3779C77.5276 46.3902 77.4986 46.4081 77.4741 46.4307C77.4497 46.4533 77.4302 46.4802 77.417 46.5097C77.4037 46.5393 77.3969 46.571 77.3969 46.603C77.3969 46.635 77.4037 46.6667 77.4169 46.6962C77.4301 46.7258 77.4495 46.7527 77.4739 46.7753L77.9708 47.2353C78.0202 47.281 78.0872 47.3067 78.1571 47.3067C78.227 47.3067 78.294 47.2811 78.3434 47.2354C78.3928 47.1897 78.4206 47.1277 78.4206 47.063C78.4206 46.9984 78.3929 46.9364 78.3435 46.8906ZM77.5319 47.64L77.2833 47.4109C77.2588 47.3883 77.2297 47.3704 77.1977 47.3583C77.1658 47.3461 77.1315 47.3399 77.0969 47.34C77.0623 47.34 77.0281 47.3464 76.9962 47.3587C76.9643 47.371 76.9353 47.3891 76.9109 47.4117C76.8865 47.4344 76.8672 47.4613 76.854 47.4909C76.8409 47.5205 76.8342 47.5522 76.8342 47.5842C76.8343 47.6162 76.8412 47.6478 76.8545 47.6774C76.8678 47.7069 76.8873 47.7337 76.9118 47.7563L77.1605 47.9854C77.21 48.031 77.277 48.0565 77.3469 48.0564C77.4167 48.0563 77.4837 48.0305 77.5329 47.9847C77.5822 47.9389 77.6098 47.8768 77.6097 47.8122C77.6095 47.7476 77.5816 47.6856 77.5321 47.64H77.5319ZM76.6382 48.4678L76.1411 48.0081C76.0918 47.9624 76.0248 47.9367 75.9549 47.9367C75.8851 47.9367 75.8181 47.9624 75.7687 48.0081C75.7193 48.0538 75.6915 48.1158 75.6915 48.1804C75.6915 48.245 75.7193 48.307 75.7687 48.3527L76.2658 48.8125C76.3152 48.8582 76.3822 48.8838 76.452 48.8838C76.5219 48.8838 76.5889 48.8582 76.6382 48.8125C76.6876 48.7668 76.7154 48.7048 76.7154 48.6402C76.7154 48.5755 76.6876 48.5135 76.6382 48.4678ZM75.8281 49.218L75.5796 48.9877C75.5303 48.942 75.4633 48.9163 75.3934 48.9162C75.3235 48.9161 75.2565 48.9418 75.2071 48.9875C75.1576 49.0331 75.1298 49.0951 75.1298 49.1598C75.1297 49.2244 75.1574 49.2864 75.2068 49.3322L75.4552 49.5624C75.4797 49.5851 75.5087 49.603 75.5406 49.6153C75.5726 49.6276 75.6068 49.6339 75.6414 49.634C75.676 49.634 75.7103 49.6277 75.7423 49.6155C75.7743 49.6032 75.8033 49.5853 75.8278 49.5627C75.8523 49.5401 75.8717 49.5132 75.885 49.4837C75.8982 49.4541 75.9051 49.4224 75.9051 49.3904C75.9051 49.3584 75.8983 49.3267 75.8851 49.2971C75.8719 49.2675 75.8525 49.2406 75.8281 49.218ZM74.9336 50.0458L74.4367 49.5855C74.4123 49.5628 74.3832 49.5448 74.3513 49.5326C74.3193 49.5203 74.2851 49.514 74.2505 49.5139C74.2159 49.5139 74.1816 49.5202 74.1496 49.5324C74.1177 49.5447 74.0886 49.5626 74.0641 49.5852C74.0396 49.6078 74.0202 49.6347 74.0069 49.6642C73.9937 49.6938 73.9868 49.7255 73.9868 49.7575C73.9868 49.7895 73.9936 49.8212 74.0068 49.8508C74.02 49.8804 74.0394 49.9073 74.0638 49.9299L74.5609 50.3902C74.5854 50.4128 74.6144 50.4308 74.6463 50.4431C74.6783 50.4553 74.7125 50.4616 74.7471 50.4616C74.7817 50.4616 74.8159 50.4553 74.8479 50.4431C74.8798 50.4309 74.9088 50.4129 74.9333 50.3903C74.9577 50.3677 74.9772 50.3408 74.9904 50.3113C75.0036 50.2817 75.0105 50.2501 75.0105 50.2181C75.0105 50.1861 75.0037 50.1544 74.9904 50.1248C74.9772 50.0953 74.9578 50.0684 74.9334 50.0458H74.9336ZM74.1236 50.7948L73.8754 50.5649C73.826 50.5192 73.759 50.4936 73.6891 50.4936C73.6193 50.4936 73.5523 50.5192 73.5029 50.5649C73.4535 50.6106 73.4258 50.6726 73.4258 50.7372C73.4258 50.8019 73.4535 50.8639 73.5029 50.9096L73.751 51.1393C73.8003 51.185 73.8673 51.2107 73.9372 51.2107C74.007 51.2108 74.074 51.1851 74.1234 51.1394C74.1729 51.0938 74.2006 51.0318 74.2007 50.9672C74.2007 50.9025 74.173 50.8405 74.1236 50.7948ZM73.2285 51.6232L72.7316 51.1629C72.7072 51.1402 72.6782 51.1223 72.6463 51.11C72.6143 51.0978 72.5801 51.0915 72.5455 51.0914C72.511 51.0914 72.4767 51.0977 72.4448 51.1099C72.4129 51.1221 72.3838 51.1401 72.3594 51.1627C72.3349 51.1853 72.3155 51.2121 72.3023 51.2417C72.289 51.2712 72.2822 51.3029 72.2822 51.3349C72.2821 51.3668 72.2889 51.3985 72.3021 51.4281C72.3154 51.4576 72.3347 51.4845 72.3592 51.5071L72.8559 51.9676C72.9052 52.0134 72.9722 52.0391 73.0421 52.0391C73.112 52.0392 73.179 52.0136 73.2284 51.9679C73.2779 51.9222 73.3057 51.8602 73.3058 51.7956C73.3058 51.7309 73.2781 51.6689 73.2287 51.6232H73.2285ZM80.7115 47.4375L75.5517 42.6638C75.5273 42.6412 75.4982 42.6232 75.4663 42.611C75.4343 42.5987 75.4001 42.5924 75.3655 42.5924C75.3309 42.5924 75.2967 42.5987 75.2647 42.611C75.2327 42.6232 75.2037 42.6412 75.1793 42.6638C75.1548 42.6864 75.1354 42.7133 75.1222 42.7429C75.1089 42.7724 75.1021 42.8041 75.1021 42.8361C75.1021 42.8681 75.1089 42.8998 75.1222 42.9294C75.1354 42.9589 75.1548 42.9858 75.1793 43.0084L80.3391 47.7821C80.3885 47.8278 80.4555 47.8535 80.5253 47.8535C80.5952 47.8535 80.6622 47.8278 80.7115 47.7821C80.7609 47.7364 80.7887 47.6744 80.7887 47.6098C80.7887 47.5451 80.7609 47.4832 80.7115 47.4375ZM81.3895 44.8103L78.391 42.036C78.3416 41.9903 78.2746 41.9646 78.2047 41.9646C78.1349 41.9646 78.0679 41.9903 78.0185 42.036C77.9691 42.0817 77.9413 42.1437 77.9413 42.2083C77.9413 42.2729 77.9691 42.3349 78.0185 42.3806L81.017 45.155C81.0664 45.2007 81.1334 45.2263 81.2033 45.2263C81.2731 45.2263 81.3401 45.2007 81.3895 45.155C81.4389 45.1093 81.4666 45.0473 81.4666 44.9826C81.4666 44.918 81.4389 44.856 81.3895 44.8103Z" fill="#2481D7"/>
<path d="M80.6843 44.1577L79.0959 42.6881C79.0456 42.6441 78.979 42.6196 78.9098 42.6196C78.8406 42.6196 78.774 42.6441 78.7236 42.6881L76.965 44.3153C76.9405 44.3379 76.9211 44.3647 76.9078 44.3943C76.8946 44.4239 76.8877 44.4556 76.8877 44.4876C76.8877 44.5196 76.8946 44.5513 76.9078 44.5809C76.9211 44.6104 76.9405 44.6373 76.965 44.6599L78.553 46.1297C78.5774 46.1524 78.6064 46.1703 78.6384 46.1826C78.6703 46.1949 78.7046 46.2012 78.7392 46.2012C78.7738 46.2012 78.808 46.1949 78.84 46.1826C78.872 46.1703 78.901 46.1524 78.9254 46.1297L80.6843 44.5023C80.7088 44.4797 80.7282 44.4529 80.7415 44.4233C80.7547 44.3937 80.7615 44.362 80.7615 44.33C80.7615 44.298 80.7547 44.2663 80.7415 44.2368C80.7282 44.2072 80.7088 44.1803 80.6843 44.1577ZM78.7392 45.6128L77.5235 44.4878L78.9099 43.205L80.1256 44.33L78.7392 45.6128ZM71.2289 51.4377C71.1795 51.392 71.1125 51.3663 71.0426 51.3663C70.9728 51.3663 70.9058 51.392 70.8564 51.4377L69.127 53.0374C69.0776 53.0831 69.0498 53.1451 69.0498 53.2097C69.0498 53.2744 69.0775 53.3364 69.1269 53.3821C69.1763 53.4278 69.2433 53.4535 69.3132 53.4535C69.3831 53.4536 69.4501 53.4279 69.4995 53.3822L71.2287 51.7823C71.2531 51.7597 71.2726 51.7328 71.2858 51.7033C71.2991 51.6737 71.3059 51.642 71.3059 51.61C71.3059 51.578 71.2991 51.5463 71.2858 51.5167C71.2726 51.4872 71.2531 51.4603 71.2287 51.4377H71.2289Z" fill="#2481D7"/>
<path d="M52.6385 23.7479C52.2782 23.7438 51.9206 23.8064 51.5868 23.9321C51.253 24.0577 50.9497 24.2439 50.6948 24.4796C50.4397 24.2442 50.1363 24.0582 49.8026 23.9326C49.4688 23.807 49.1114 23.7442 48.7511 23.7479C47.3198 23.7479 46.1615 24.7211 46.1615 25.9224C46.1618 26.3676 46.3206 26.8003 46.6135 27.1535C46.6293 27.1683 46.6437 27.1843 46.6566 27.2013C46.6637 27.2094 46.6719 27.2166 46.6809 27.2227L50.2609 31.1457C50.3144 31.2035 50.3808 31.2498 50.4555 31.2816C50.5302 31.3134 50.6114 31.3299 50.6936 31.3299C50.7758 31.3299 50.8571 31.3134 50.9318 31.2816C51.0064 31.2498 51.0728 31.2035 51.1263 31.1457L54.7063 27.2253C54.7063 27.2253 54.729 27.2098 54.7318 27.2013C54.7455 27.1834 54.7602 27.1663 54.7761 27.15C55.0679 26.7976 55.227 26.3664 55.2289 25.9224C55.2289 24.7212 54.0597 23.7479 52.6387 23.7479H52.6385Z" fill="#C8DFF5"/>
<path d="M49.5439 27.7033L49.5897 27.6378L45.2474 27.7033H49.5439ZM49.5897 27.6378L50.8376 27.619L50.619 26.1626L49.5897 27.6378ZM51.032 28.915L52.4373 27.595L50.8376 27.619L51.032 28.915ZM52.4969 27.5391L52.4373 27.595L56.1429 27.5391H52.4969Z" fill="#C8DFF5"/>
<path d="M52.6386 23.5043C51.9289 23.4997 51.2404 23.7272 50.6944 24.1467C50.1486 23.7276 49.4604 23.5001 48.7511 23.5043C47.1779 23.5043 45.8981 24.5891 45.8981 25.9226C45.8986 26.4209 46.0762 26.9052 46.4036 27.3008C46.4113 27.3102 46.4197 27.3191 46.4287 27.3273C46.4373 27.338 46.4467 27.3493 46.4582 27.3618C46.4697 27.3742 46.482 27.3859 46.4951 27.3969L50.0604 31.3036C50.1386 31.3883 50.2358 31.4563 50.3452 31.5029C50.4546 31.5495 50.5736 31.5736 50.6941 31.5736C50.8145 31.5735 50.9335 31.5493 51.0429 31.5026C51.1522 31.4559 51.2494 31.3879 51.3275 31.3031L54.892 27.3998C54.9145 27.3819 54.9342 27.3611 54.9506 27.3382C54.9556 27.332 54.9605 27.3258 54.9654 27.3196C54.9731 27.3123 54.9803 27.3045 54.9869 27.2963C55.3127 26.9016 55.4902 26.4193 55.4924 25.9226C55.4924 24.5891 54.2122 23.5043 52.6386 23.5043ZM54.5739 26.9934C54.5586 27.0097 54.5441 27.0267 54.5305 27.0443C54.5215 27.0518 54.5131 27.0598 54.5053 27.0683L50.9269 30.9869C50.8983 31.0179 50.8628 31.0428 50.8227 31.06C50.7827 31.0771 50.7392 31.0861 50.6951 31.0863C50.651 31.0865 50.6074 31.0778 50.5672 31.061C50.5271 31.0442 50.4913 31.0195 50.4624 30.9887L46.8822 27.0657C46.8731 27.0558 46.8633 27.0465 46.8527 27.0381L46.8524 27.0377C46.8399 27.0214 46.8261 27.006 46.8112 26.9916C46.561 26.6832 46.4255 26.3082 46.4249 25.9226C46.4249 24.8579 47.4684 23.9918 48.7511 23.9918C49.0762 23.9882 49.3988 24.0446 49.7001 24.1575C50.0014 24.2705 50.2754 24.4378 50.5062 24.6497C50.5307 24.673 50.5601 24.6915 50.5925 24.7042C50.6249 24.7169 50.6597 24.7234 50.6948 24.7235H50.6952C50.7305 24.7234 50.7653 24.7169 50.7978 24.7042C50.8302 24.6915 50.8596 24.6729 50.8841 24.6495C51.1146 24.4375 51.3886 24.2701 51.6899 24.1572C51.9911 24.0442 52.3137 23.988 52.6388 23.9918C53.9219 23.9918 54.9658 24.8579 54.9658 25.9226C54.9634 26.3093 54.8261 26.6849 54.5741 26.9934H54.5739Z" fill="#2481D7"/>
<path d="M56.1431 27.2957H52.4971C52.4621 27.2957 52.4276 27.3021 52.3954 27.3146C52.3631 27.327 52.3339 27.3453 52.3094 27.3684L51.2195 28.3921L50.8799 26.1293C50.8727 26.08 50.8492 26.0339 50.8127 25.9973C50.7763 25.9607 50.7286 25.9353 50.676 25.9246C50.6235 25.9138 50.5687 25.9182 50.5189 25.9372C50.4692 25.9561 50.4269 25.9887 50.3978 26.0306L49.4006 27.46H45.2476C45.1777 27.46 45.1108 27.4857 45.0614 27.5314C45.012 27.5771 44.9843 27.6391 44.9843 27.7037C44.9843 27.7683 45.012 27.8302 45.0614 27.8759C45.1108 27.9216 45.1777 27.9473 45.2476 27.9473H49.544C49.588 27.9473 49.6313 27.9371 49.67 27.9177C49.7087 27.8982 49.7414 27.8701 49.7653 27.8358L50.4558 26.8462L50.7713 28.9489C50.778 28.994 50.7982 29.0364 50.8297 29.0714C50.8611 29.1063 50.9026 29.1325 50.9493 29.1468C50.9959 29.1611 51.046 29.163 51.0938 29.1523C51.1416 29.1416 51.1852 29.1188 51.2197 29.0863L52.6073 27.7829H56.1431C56.2129 27.7829 56.2799 27.7572 56.3292 27.7115C56.3786 27.6659 56.4064 27.6039 56.4064 27.5393C56.4064 27.4747 56.3786 27.4127 56.3292 27.367C56.2799 27.3213 56.2129 27.2957 56.1431 27.2957Z" fill="#2481D7"/>
<path d="M32.7127 45.6431L31.43 44.4558C31.1719 44.2169 30.8654 44.0275 30.5281 43.8983C30.1908 43.7691 29.8294 43.7027 29.4643 43.7028C29.0993 43.7029 28.7378 43.7695 28.4006 43.8989C28.0634 44.0283 27.7571 44.2179 27.4991 44.4569L22.0665 49.4829C21.5454 49.9653 21.2526 50.6194 21.2526 51.3014C21.2526 51.9835 21.5454 52.6376 22.0665 53.12L23.3498 54.3068C23.8711 54.7889 24.5781 55.0598 25.3152 55.0598C26.0523 55.0598 26.7592 54.7889 27.2805 54.3068L32.7127 49.2809C33.2341 48.7985 33.5269 48.1442 33.5269 47.462C33.5269 46.7798 33.2341 46.1256 32.7127 45.6431Z" fill="#C8DFF5"/>
<path d="M30.1344 49.1132L27.6808 46.8426C27.6427 46.8072 27.5974 46.7791 27.5475 46.76C27.4977 46.7408 27.4442 46.7309 27.3902 46.7308C27.3362 46.7308 27.2827 46.7406 27.2329 46.7598C27.183 46.7789 27.1377 46.8069 27.0995 46.8423L24.6457 49.1132C24.5687 49.1846 24.5255 49.2813 24.5256 49.3822C24.5256 49.483 24.5689 49.5798 24.6459 49.6511L27.0995 51.9211C27.1768 51.9922 27.2814 52.0321 27.3903 52.0319C27.4993 52.0317 27.6038 51.9915 27.6808 51.9202L30.1344 49.65C30.1725 49.6148 30.2028 49.573 30.2234 49.5269C30.244 49.4808 30.2547 49.4315 30.2547 49.3816C30.2547 49.3317 30.244 49.2824 30.2234 49.2363C30.2028 49.1902 30.1725 49.1484 30.1344 49.1132Z" fill="#5BA1E1"/>
<path d="M32.8991 45.471L31.6164 44.2838C31.3346 44.0216 30.9993 43.8137 30.6301 43.6722C30.2608 43.5307 29.8649 43.4583 29.4653 43.4594H29.4647C29.0649 43.4584 28.6688 43.5309 28.2995 43.6726C27.9302 43.8143 27.5949 44.0223 27.3132 44.2848L21.8802 49.311C21.3107 49.8395 20.9908 50.5553 20.9908 51.3016C20.9908 52.0479 21.3107 52.7638 21.8802 53.2923L23.1637 54.4791C23.7344 55.007 24.5083 55.3035 25.3152 55.3035C26.1221 55.3035 26.896 55.007 27.4667 54.4791L32.8991 49.4532C33.4697 48.9251 33.7903 48.2089 33.7903 47.4621C33.7903 46.7154 33.4697 45.9992 32.8991 45.471ZM32.5268 49.1088L27.0944 54.1347C26.6225 54.5712 25.9826 54.8164 25.3153 54.8164C24.648 54.8164 24.0081 54.5712 23.5362 54.1347L22.2528 52.9479C21.7818 52.5108 21.5173 51.9188 21.5173 51.3016C21.5173 50.6845 21.7818 50.0925 22.2528 49.6554L27.6856 44.6292C27.9186 44.4122 28.1959 44.2401 28.5013 44.1229C28.8067 44.0057 29.1342 43.9458 29.4649 43.9466H29.4653C29.7957 43.9457 30.1231 44.0056 30.4284 44.1226C30.7337 44.2396 31.0109 44.4115 31.2439 44.6283L32.5268 45.8157C32.9987 46.2524 33.2639 46.8447 33.2639 47.4622C33.2639 48.0798 32.9987 48.6721 32.5268 49.1088Z" fill="#2481D7"/>
<path d="M30.3206 48.9409L27.8672 46.6706C27.8048 46.6123 27.7305 46.5661 27.6486 46.5346C27.5668 46.5031 27.479 46.487 27.3903 46.4872H27.3901C27.3015 46.487 27.2138 46.503 27.1319 46.5344C27.0501 46.5658 26.9758 46.6119 26.9133 46.67L24.4597 48.9407C24.3334 49.0579 24.2625 49.2166 24.2625 49.3821C24.2625 49.5476 24.3334 49.7063 24.4597 49.8235L26.9131 52.0931C26.9754 52.1511 27.0494 52.1971 27.131 52.2284C27.2126 52.2597 27.3001 52.2758 27.3885 52.2755H27.3891C27.4779 52.2758 27.5659 52.2597 27.6479 52.2283C27.73 52.1968 27.8044 52.1506 27.8671 52.0923L30.3202 49.8228C30.3829 49.7649 30.4327 49.6962 30.4666 49.6206C30.5006 49.5449 30.518 49.4638 30.5181 49.3819C30.5181 49.3 30.5007 49.2189 30.4668 49.1432C30.4329 49.0675 30.3833 48.9988 30.3206 48.9409ZM29.9482 49.4778L27.4946 51.7479C27.4807 51.7608 27.4642 51.7709 27.4461 51.7778C27.428 51.7847 27.4085 51.7882 27.3889 51.7881C27.3698 51.7882 27.3508 51.7847 27.3331 51.778C27.3154 51.7713 27.2993 51.7613 27.2858 51.7488L24.8326 49.4792C24.8048 49.4536 24.7891 49.4188 24.789 49.3825C24.7889 49.3462 24.8044 49.3113 24.832 49.2855L27.2858 47.0145C27.2995 47.0018 27.3157 46.9917 27.3336 46.9849C27.3515 46.978 27.3707 46.9745 27.3901 46.9746C27.4095 46.9746 27.4288 46.9782 27.4467 46.9851C27.4647 46.992 27.4809 47.0022 27.4946 47.015L29.9486 49.2859C29.976 49.3114 29.9913 49.3459 29.9913 49.3819C29.9912 49.4179 29.9757 49.4523 29.9482 49.4778ZM28.6624 45.6133L28.4557 45.4205C28.4064 45.3746 28.3395 45.3487 28.2697 45.3485C28.1998 45.3482 28.1327 45.3737 28.0831 45.4193C28.0335 45.4648 28.0055 45.5267 28.0053 45.5914C28.005 45.656 28.0326 45.7181 28.0818 45.764L28.2886 45.9566C28.3129 45.9793 28.3419 45.9973 28.3738 46.0097C28.4057 46.0221 28.4399 46.0285 28.4745 46.0286C28.5091 46.0287 28.5434 46.0225 28.5754 46.0104C28.6074 45.9983 28.6365 45.9804 28.6611 45.9579C28.6856 45.9353 28.7051 45.9085 28.7185 45.879C28.7318 45.8495 28.7388 45.8178 28.7389 45.7858C28.739 45.7538 28.7323 45.7221 28.7192 45.6925C28.7061 45.6629 28.6868 45.636 28.6624 45.6133ZM29.665 46.5403L29.4572 46.3484C29.4328 46.3258 29.4037 46.3079 29.3718 46.2957C29.3398 46.2835 29.3056 46.2772 29.271 46.2772C29.2364 46.2773 29.2022 46.2836 29.1702 46.2958C29.1383 46.3081 29.1093 46.3261 29.0849 46.3487C29.0604 46.3714 29.0411 46.3982 29.0279 46.4278C29.0147 46.4574 29.0079 46.4891 29.0079 46.521C29.0079 46.553 29.0148 46.5847 29.028 46.6143C29.0413 46.6438 29.0607 46.6706 29.0852 46.6933L29.2929 46.8851C29.3174 46.9077 29.3465 46.9256 29.3784 46.9379C29.4104 46.9501 29.4447 46.9563 29.4793 46.9563C29.5138 46.9563 29.5481 46.9499 29.58 46.9377C29.612 46.9254 29.641 46.9074 29.6654 46.8848C29.6898 46.8621 29.7092 46.8352 29.7224 46.8056C29.7356 46.7761 29.7424 46.7444 29.7424 46.7124C29.7423 46.6804 29.7355 46.6487 29.7222 46.6191C29.7089 46.5896 29.6895 46.5627 29.665 46.5401V46.5403ZM30.6684 47.4687L30.461 47.2768C30.4116 47.2311 30.3447 47.2054 30.2748 47.2054C30.205 47.2054 30.138 47.231 30.0886 47.2767C30.0392 47.3224 30.0115 47.3843 30.0115 47.449C30.0115 47.5136 30.0392 47.5755 30.0885 47.6212L30.2959 47.8131C30.3204 47.8357 30.3494 47.8537 30.3813 47.8659C30.4133 47.8782 30.4475 47.8845 30.4821 47.8845C30.5167 47.8845 30.5509 47.8782 30.5829 47.866C30.6148 47.8538 30.6438 47.8358 30.6683 47.8132C30.6927 47.7906 30.7121 47.7637 30.7254 47.7342C30.7386 47.7046 30.7455 47.6729 30.7455 47.6409C30.7455 47.609 30.7387 47.5773 30.7254 47.5477C30.7122 47.5182 30.6928 47.4913 30.6684 47.4687ZM31.6714 48.3972L31.464 48.2053C31.4396 48.1827 31.4105 48.1647 31.3786 48.1525C31.3467 48.1402 31.3125 48.1339 31.2779 48.1339C31.2433 48.1339 31.2091 48.1402 31.1771 48.1524C31.1452 48.1646 31.1162 48.1825 31.0917 48.2051C31.0673 48.2278 31.0478 48.2546 31.0346 48.2841C31.0214 48.3137 31.0145 48.3453 31.0145 48.3773C31.0145 48.4093 31.0213 48.441 31.0345 48.4705C31.0477 48.5001 31.0671 48.527 31.0915 48.5496L31.2989 48.7415C31.3482 48.7872 31.4152 48.8129 31.485 48.8129C31.5548 48.8129 31.6218 48.7873 31.6712 48.7416C31.7206 48.696 31.7483 48.6341 31.7484 48.5695C31.7484 48.5049 31.7207 48.4429 31.6714 48.3972ZM29.8289 45.4609L29.6214 45.2688C29.572 45.2231 29.505 45.1974 29.4352 45.1974C29.3654 45.1974 29.2984 45.223 29.249 45.2687C29.1996 45.3144 29.1718 45.3764 29.1718 45.441C29.1718 45.5056 29.1995 45.5676 29.2489 45.6133L29.4562 45.8053C29.4807 45.8279 29.5097 45.8459 29.5417 45.8582C29.5736 45.8704 29.6079 45.8768 29.6424 45.8768C29.677 45.8768 29.7113 45.8705 29.7432 45.8583C29.7752 45.846 29.8043 45.8281 29.8287 45.8055C29.8532 45.7829 29.8726 45.756 29.8859 45.7265C29.8991 45.6969 29.9059 45.6652 29.906 45.6332C29.906 45.6012 29.8992 45.5695 29.886 45.5399C29.8728 45.5104 29.8534 45.4835 29.8289 45.4609ZM30.8321 46.3896L30.6247 46.197C30.5754 46.1512 30.5085 46.1254 30.4386 46.1253C30.3688 46.1252 30.3017 46.1508 30.2522 46.1964C30.2028 46.242 30.1749 46.304 30.1748 46.3686C30.1747 46.4333 30.2023 46.4953 30.2516 46.541L30.459 46.7337C30.5083 46.7794 30.5753 46.8052 30.6451 46.8053C30.715 46.8054 30.782 46.7798 30.8315 46.7342C30.881 46.6886 30.9088 46.6266 30.9089 46.562C30.9091 46.4974 30.8814 46.4354 30.8321 46.3896ZM31.8351 47.3159L31.6275 47.1248C31.603 47.1022 31.5739 47.0843 31.542 47.0721C31.51 47.0599 31.4757 47.0537 31.4412 47.0537C31.4066 47.0538 31.3724 47.0602 31.3404 47.0725C31.3085 47.0848 31.2795 47.1028 31.2551 47.1254C31.2307 47.1481 31.2114 47.175 31.1982 47.2046C31.185 47.2341 31.1783 47.2658 31.1783 47.2978C31.1784 47.3298 31.1853 47.3615 31.1986 47.391C31.2119 47.4206 31.2313 47.4474 31.2558 47.47L31.4632 47.6613C31.4877 47.6839 31.5168 47.7018 31.5488 47.714C31.5808 47.7262 31.615 47.7324 31.6496 47.7323C31.6842 47.7323 31.7185 47.7259 31.7504 47.7136C31.7823 47.7013 31.8113 47.6833 31.8358 47.6606C31.8602 47.6379 31.8795 47.611 31.8927 47.5814C31.9059 47.5519 31.9126 47.5201 31.9126 47.4881C31.9125 47.4561 31.9056 47.4244 31.8923 47.3949C31.879 47.3653 31.8596 47.3385 31.8351 47.3159ZM30.9962 45.3094L30.7894 45.1173C30.765 45.0947 30.736 45.0766 30.7041 45.0643C30.6722 45.052 30.6379 45.0456 30.6033 45.0455C30.5687 45.0455 30.5345 45.0517 30.5025 45.0639C30.4705 45.076 30.4414 45.0939 30.4168 45.1165C30.3923 45.1391 30.3729 45.1659 30.3595 45.1955C30.3462 45.225 30.3393 45.2567 30.3392 45.2887C30.3392 45.3207 30.3459 45.3524 30.359 45.382C30.3722 45.4116 30.3915 45.4385 30.416 45.4612L30.6227 45.6533C30.6471 45.676 30.6761 45.694 30.7081 45.7063C30.74 45.7186 30.7742 45.725 30.8088 45.7251C30.8434 45.7252 30.8777 45.7189 30.9097 45.7068C30.9417 45.6946 30.9708 45.6767 30.9953 45.6541C31.0198 45.6315 31.0393 45.6047 31.0526 45.5752C31.0659 45.5456 31.0728 45.5139 31.0729 45.4819C31.073 45.4499 31.0663 45.4182 31.0531 45.3886C31.0399 45.359 31.0206 45.3321 30.9962 45.3094ZM31.9988 46.237L31.7918 46.0459C31.7424 46.0002 31.6754 45.9746 31.6056 45.9746C31.5358 45.9746 31.4688 46.0003 31.4194 46.046C31.3701 46.0917 31.3423 46.1536 31.3424 46.2183C31.3424 46.2829 31.3701 46.3448 31.4195 46.3905L31.6263 46.5816C31.6508 46.6043 31.6798 46.6222 31.7117 46.6345C31.7437 46.6467 31.7779 46.653 31.8125 46.653C31.8471 46.653 31.8814 46.6467 31.9133 46.6345C31.9453 46.6222 31.9743 46.6043 31.9988 46.5816C32.0232 46.559 32.0426 46.5321 32.0559 46.5026C32.0691 46.473 32.0759 46.4413 32.0759 46.4093C32.0759 46.3773 32.0691 46.3456 32.0559 46.3161C32.0426 46.2865 32.0232 46.2596 31.9988 46.237ZM26.6982 52.998L26.4906 52.8061C26.4661 52.7835 26.4371 52.7656 26.4052 52.7533C26.3732 52.7411 26.339 52.7348 26.3044 52.7348C26.2698 52.7348 26.2355 52.7411 26.2036 52.7533C26.1716 52.7656 26.1426 52.7835 26.1181 52.8061C26.0937 52.8288 26.0743 52.8556 26.061 52.8852C26.0478 52.9148 26.041 52.9464 26.041 52.9784C26.041 53.0104 26.0478 53.0421 26.061 53.0717C26.0743 53.1013 26.0937 53.1281 26.1181 53.1508L26.3257 53.3426C26.3751 53.3883 26.4421 53.414 26.5119 53.414C26.5818 53.414 26.6488 53.3883 26.6982 53.3426C26.7476 53.2969 26.7753 53.2349 26.7753 53.1703C26.7753 53.1057 26.7476 53.0437 26.6982 52.998ZM25.6948 52.0706L25.4878 51.8787C25.4634 51.8561 25.4344 51.8381 25.4024 51.8258C25.3705 51.8135 25.3363 51.8072 25.3017 51.8071C25.2671 51.8071 25.2328 51.8134 25.2009 51.8256C25.1689 51.8378 25.1398 51.8557 25.1154 51.8783C25.0909 51.9009 25.0714 51.9278 25.0582 51.9573C25.0449 51.9869 25.0381 52.0186 25.038 52.0506C25.038 52.0826 25.0448 52.1143 25.058 52.1439C25.0712 52.1734 25.0905 52.2003 25.115 52.223L25.3219 52.4148C25.3713 52.4606 25.4382 52.4863 25.5081 52.4864C25.5779 52.4865 25.645 52.4609 25.6944 52.4152C25.7439 52.3696 25.7717 52.3076 25.7717 52.243C25.7718 52.1783 25.7441 52.1163 25.6948 52.0706ZM24.6914 51.142L24.4841 50.9502C24.4347 50.9045 24.3677 50.8788 24.2978 50.8788C24.228 50.8788 24.161 50.9045 24.1116 50.9502C24.0622 50.9959 24.0344 51.0578 24.0344 51.1225C24.0344 51.1871 24.0622 51.2491 24.1116 51.2948L24.3192 51.4867C24.3686 51.5323 24.4355 51.558 24.5054 51.558C24.5752 51.558 24.6422 51.5323 24.6915 51.4866C24.7409 51.4409 24.7686 51.3789 24.7686 51.3143C24.7686 51.2497 24.7408 51.1877 24.6914 51.142ZM23.6885 50.2137L23.4811 50.0214C23.4317 49.9757 23.3647 49.95 23.2949 49.9499C23.225 49.9499 23.158 49.9755 23.1085 50.0212C23.0591 50.0668 23.0313 50.1288 23.0312 50.1935C23.0311 50.2581 23.0589 50.3201 23.1082 50.3659L23.3156 50.5579C23.3649 50.6037 23.4319 50.6294 23.5017 50.6295C23.5716 50.6296 23.6386 50.604 23.6881 50.5583C23.7375 50.5127 23.7653 50.4507 23.7654 50.3861C23.7655 50.3214 23.7378 50.2594 23.6885 50.2137ZM25.5309 53.1489L25.3235 52.9576C25.2741 52.912 25.2071 52.8863 25.1372 52.8864C25.0674 52.8865 25.0004 52.9122 24.9511 52.958C24.9017 53.0037 24.874 53.0657 24.8741 53.1304C24.8742 53.195 24.902 53.2569 24.9515 53.3026L25.1588 53.4939C25.1833 53.5165 25.2124 53.5344 25.2443 53.5467C25.2763 53.5589 25.3106 53.5651 25.3451 53.5651C25.3797 53.5651 25.414 53.5587 25.4459 53.5465C25.4779 53.5342 25.5069 53.5162 25.5313 53.4935C25.5557 53.4709 25.5751 53.444 25.5883 53.4144C25.6015 53.3849 25.6083 53.3532 25.6082 53.3212C25.6082 53.2892 25.6014 53.2575 25.5881 53.2279C25.5748 53.1984 25.5554 53.1715 25.5309 53.1489ZM24.5275 52.2217L24.3202 52.0298C24.2957 52.0072 24.2667 51.9892 24.2348 51.977C24.2029 51.9647 24.1686 51.9584 24.1341 51.9584C24.0995 51.9584 24.0653 51.9646 24.0333 51.9769C24.0014 51.9891 23.9723 52.007 23.9479 52.0296C23.9234 52.0522 23.904 52.0791 23.8908 52.1086C23.8775 52.1381 23.8707 52.1698 23.8707 52.2018C23.8707 52.2338 23.8775 52.2655 23.8907 52.295C23.9039 52.3246 23.9233 52.3514 23.9477 52.3741L24.1551 52.5661C24.2044 52.6118 24.2714 52.6375 24.3412 52.6375C24.4111 52.6375 24.478 52.6119 24.5274 52.5662C24.5768 52.5205 24.6046 52.4586 24.6046 52.394C24.6046 52.3293 24.5769 52.2674 24.5275 52.2217ZM23.5244 51.293L23.317 51.1016C23.2675 51.056 23.2005 51.0304 23.1307 51.0304C23.0608 51.0305 22.9939 51.0563 22.9445 51.102C22.8952 51.1478 22.8675 51.2098 22.8676 51.2744C22.8676 51.339 22.8955 51.401 22.9449 51.4466L23.1523 51.6379C23.2017 51.6836 23.2688 51.7092 23.3386 51.7091C23.4085 51.7091 23.4754 51.6833 23.5248 51.6376C23.5741 51.5918 23.6018 51.5298 23.6017 51.4652C23.6016 51.4006 23.5738 51.3386 23.5244 51.293ZM24.3638 53.3017L24.1567 53.1098C24.1073 53.0641 24.0403 53.0384 23.9704 53.0384C23.9006 53.0384 23.8336 53.0641 23.7842 53.1098C23.7348 53.1555 23.707 53.2175 23.707 53.2821C23.707 53.3468 23.7348 53.4087 23.7842 53.4544L23.9912 53.6463C24.0405 53.692 24.1075 53.7177 24.1774 53.7177C24.2473 53.7178 24.3143 53.6921 24.3637 53.6464C24.4131 53.6007 24.4409 53.5387 24.4409 53.4741C24.441 53.4094 24.4132 53.3474 24.3638 53.3017ZM23.3609 52.3737L23.1539 52.1813C23.1295 52.1586 23.1005 52.1406 23.0685 52.1284C23.0366 52.1161 23.0024 52.1097 22.9678 52.1097C22.9332 52.1096 22.899 52.1159 22.867 52.1281C22.835 52.1403 22.806 52.1582 22.7815 52.1808C22.757 52.2034 22.7376 52.2302 22.7243 52.2598C22.711 52.2893 22.7042 52.321 22.7041 52.353C22.7041 52.385 22.7109 52.4167 22.724 52.4462C22.7372 52.4758 22.7566 52.5027 22.781 52.5253L22.988 52.7176C23.0373 52.7633 23.1042 52.7891 23.1741 52.7892C23.2439 52.7893 23.3109 52.7637 23.3604 52.718C23.4098 52.6724 23.4376 52.6105 23.4377 52.5459C23.4378 52.4813 23.4102 52.4193 23.3609 52.3735V52.3737Z" fill="#2481D7"/>
<path d="M21.5104 33.5734H30.0229V34.0606H21.5104V33.5734ZM21.5104 35.0963H27.9019V35.5838H21.5104V35.0963ZM21.5104 36.6193H30.0229V37.1067H21.5104V36.6193ZM21.5104 38.1421H27.9019V38.6293H21.5104V38.1421ZM21.5104 39.665H30.0229V40.1525H21.5104V39.665ZM71.3678 58.6103H79.8801V59.0977H71.3678V58.6103ZM71.3678 60.1333H77.7593V60.6207H71.3678V60.1333ZM71.3678 61.6562H79.8801V62.1435H71.3678V61.6562ZM71.3678 63.1792H77.7593V63.6666H71.3678V63.1792ZM71.3678 64.702H79.8801V65.1894H71.3678V64.702ZM63.6525 29.9509C63.6179 29.9509 63.5837 29.9572 63.5518 29.9695C63.5198 29.9817 63.4908 29.9997 63.4663 30.0223C63.4419 30.045 63.4225 30.0718 63.4093 30.1014C63.3961 30.131 63.3893 30.1626 63.3893 30.1946V31.8311C63.3893 31.8957 63.4171 31.9576 63.4664 32.0033C63.5158 32.049 63.5828 32.0747 63.6526 32.0747C63.7225 32.0747 63.7894 32.049 63.8388 32.0033C63.8882 31.9576 63.9159 31.8957 63.9159 31.8311V30.1945C63.9159 30.1299 63.8882 30.0679 63.8388 30.0223C63.7895 29.9766 63.7225 29.9509 63.6527 29.9509H63.6525ZM63.6551 32.8426C63.6204 32.842 63.5859 32.8477 63.5536 32.8596C63.5214 32.8715 63.492 32.8893 63.4673 32.9118C63.4426 32.9344 63.423 32.9613 63.4097 32.991C63.3964 33.0207 63.3897 33.0525 63.3899 33.0847L63.3893 33.1837C63.3891 33.2157 63.3956 33.2474 63.4086 33.2771C63.4216 33.3067 63.4407 33.3337 63.465 33.3565C63.4893 33.3793 63.5181 33.3974 63.55 33.4099C63.5818 33.4223 63.616 33.4289 63.6505 33.4291H63.6525C63.7221 33.4292 63.7888 33.4038 63.8381 33.3584C63.8875 33.3131 63.9155 33.2516 63.9159 33.1872L63.9167 33.088C63.917 33.056 63.9104 33.0242 63.8974 32.9946C63.8844 32.9649 63.8652 32.9379 63.8409 32.9151C63.8166 32.8923 63.7877 32.8742 63.7558 32.8618C63.7239 32.8493 63.6897 32.8428 63.6551 32.8426Z" fill="#C8DFF5"/>
<path d="M64.7071 30.8272L63.6523 29.85L62.5979 30.8272C62.5734 30.8499 62.5541 30.8768 62.5409 30.9063C62.5276 30.9359 62.5208 30.9676 62.5209 30.9996C62.5209 31.0317 62.5277 31.0633 62.541 31.0929C62.5543 31.1225 62.5737 31.1493 62.5982 31.1719C62.6227 31.1946 62.6517 31.2125 62.6837 31.2247C62.7157 31.2369 62.7499 31.2432 62.7845 31.2432C62.8191 31.2432 62.8534 31.2368 62.8853 31.2246C62.9173 31.2123 62.9463 31.1943 62.9708 31.1717L63.6523 30.5398L64.3344 31.1717C64.3589 31.1943 64.3879 31.2123 64.4199 31.2246C64.4518 31.2368 64.4861 31.2432 64.5207 31.2432C64.5553 31.2432 64.5895 31.2369 64.6215 31.2247C64.6535 31.2125 64.6825 31.1946 64.707 31.1719C64.7315 31.1493 64.7509 31.1225 64.7642 31.0929C64.7775 31.0633 64.7843 31.0317 64.7843 30.9996C64.7844 30.9676 64.7776 30.9359 64.7644 30.9063C64.7511 30.8768 64.7318 30.8499 64.7073 30.8272H64.7071ZM63.6525 25.0167C63.5827 25.0167 63.5158 25.0424 63.4664 25.0881C63.417 25.1337 63.3893 25.1957 63.3893 25.2602V26.8967C63.3893 26.9613 63.417 27.0233 63.4664 27.0689C63.5158 27.1146 63.5828 27.1403 63.6526 27.1403C63.7224 27.1403 63.7894 27.1146 63.8388 27.0689C63.8882 27.0233 63.9159 26.9613 63.9159 26.8967V25.2602C63.9159 25.1957 63.8882 25.1337 63.8388 25.0881C63.7895 25.0424 63.7225 25.0167 63.6527 25.0167H63.6525ZM63.6551 27.9084C63.6205 27.9081 63.5862 27.9142 63.5541 27.9262C63.5221 27.9382 63.4929 27.956 63.4683 27.9784C63.4436 28.0009 63.424 28.0277 63.4106 28.0571C63.3971 28.0866 63.3901 28.1183 63.3899 28.1503L63.3893 28.2495C63.389 28.2815 63.3956 28.3132 63.4086 28.3429C63.4216 28.3725 63.4407 28.3995 63.465 28.4223C63.4892 28.4451 63.5181 28.4632 63.5499 28.4757C63.5818 28.4881 63.6159 28.4947 63.6505 28.4949H63.6525C63.7221 28.495 63.7888 28.4695 63.8382 28.4242C63.8875 28.3788 63.9155 28.3172 63.9159 28.2529L63.9167 28.1538C63.917 28.1218 63.9104 28.09 63.8974 28.0604C63.8844 28.0307 63.8652 28.0037 63.8409 27.9809C63.8166 27.9581 63.7877 27.94 63.7558 27.9276C63.7239 27.9151 63.6897 27.9086 63.6551 27.9084Z" fill="#C8DFF5"/>
<path d="M64.7072 25.893L63.6524 24.9158L62.5979 25.893C62.5486 25.9388 62.5209 26.0008 62.521 26.0654C62.5211 26.13 62.5489 26.192 62.5983 26.2376C62.6478 26.2833 62.7148 26.3089 62.7847 26.3088C62.8545 26.3088 62.9215 26.283 62.9708 26.2373L63.6524 25.6054L64.3345 26.2373C64.3838 26.283 64.4508 26.3088 64.5206 26.3088C64.5905 26.3089 64.6575 26.2833 64.707 26.2376C64.7564 26.192 64.7842 26.13 64.7843 26.0654C64.7844 26.0008 64.7567 25.9388 64.7074 25.893H64.7072ZM63.6526 20.0825C63.5827 20.0825 63.5158 20.1082 63.4664 20.1538C63.4171 20.1995 63.3893 20.2615 63.3893 20.326V21.9625C63.3893 22.0271 63.4171 22.089 63.4665 22.1347C63.5158 22.1804 63.5828 22.2061 63.6527 22.2061C63.7225 22.2061 63.7895 22.1804 63.8388 22.1347C63.8882 22.089 63.916 22.0271 63.916 21.9625V20.326C63.916 20.2615 63.8882 20.1995 63.8389 20.1538C63.7895 20.1082 63.7226 20.0825 63.6528 20.0825H63.6526ZM63.6551 22.974C63.5855 22.9743 63.5187 22.9997 63.4692 23.045C63.4196 23.0902 63.3911 23.1517 63.3899 23.2161L63.3893 23.3151C63.3891 23.3471 63.3956 23.3788 63.4086 23.4085C63.4216 23.4381 63.4408 23.4651 63.465 23.4879C63.4893 23.5107 63.5182 23.5288 63.55 23.5413C63.5818 23.5537 63.616 23.5603 63.6506 23.5605H63.6526C63.722 23.5606 63.7887 23.5352 63.8381 23.4899C63.8874 23.4446 63.9154 23.3831 63.916 23.3188L63.9168 23.2194C63.917 23.1874 63.9105 23.1556 63.8974 23.126C63.8844 23.0963 63.8652 23.0693 63.8409 23.0465C63.8166 23.0237 63.7877 23.0056 63.7558 22.9932C63.724 22.9807 63.6897 22.9742 63.6551 22.974Z" fill="#C8DFF5"/>
<path d="M64.7072 20.9589L63.6524 19.9817L62.598 20.9589C62.5736 20.9816 62.5542 21.0085 62.541 21.038C62.5278 21.0676 62.521 21.0993 62.5211 21.1313C62.5211 21.1633 62.528 21.195 62.5412 21.2246C62.5545 21.2541 62.5739 21.281 62.5984 21.3036C62.6229 21.3262 62.652 21.3441 62.6839 21.3563C62.7159 21.3685 62.7501 21.3748 62.7847 21.3747C62.8193 21.3747 62.8536 21.3684 62.8855 21.3561C62.9174 21.3438 62.9465 21.3258 62.9709 21.3032L63.6524 20.6713L64.3346 21.3032C64.3839 21.3489 64.4509 21.3747 64.5207 21.3747C64.5906 21.3748 64.6576 21.3492 64.707 21.3036C64.7565 21.2579 64.7843 21.196 64.7844 21.1313C64.7845 21.0667 64.7568 21.0047 64.7074 20.9589H64.7072ZM37.7385 75.202C37.6687 75.202 37.6017 75.2277 37.5524 75.2734C37.503 75.319 37.4753 75.381 37.4753 75.4456V77.082C37.4753 77.1466 37.503 77.2085 37.5524 77.2542C37.6017 77.2998 37.6687 77.3255 37.7385 77.3255C37.8083 77.3255 37.8752 77.2998 37.9246 77.2542C37.9739 77.2085 38.0017 77.1466 38.0017 77.082V75.4456C38.0017 75.381 37.9739 75.319 37.9246 75.2734C37.8752 75.2277 37.8083 75.202 37.7385 75.202ZM37.7405 78.0935H37.7391C37.6694 78.0935 37.6026 78.1191 37.5532 78.1645C37.5039 78.21 37.476 78.2717 37.4757 78.3361L37.4751 78.4354C37.4749 78.4674 37.4815 78.4991 37.4946 78.5288C37.5077 78.5584 37.527 78.5854 37.5513 78.6081C37.5757 78.6308 37.6046 78.6489 37.6365 78.6613C37.6684 78.6737 37.7027 78.6801 37.7373 78.6802H37.7385C37.8081 78.6802 37.8748 78.6547 37.9242 78.6093C37.9735 78.5638 38.0014 78.5022 38.0017 78.4378L38.0023 78.3384C38.0025 78.3064 37.9958 78.2746 37.9828 78.245C37.9697 78.2154 37.9504 78.1884 37.9261 78.1657C37.9018 78.143 37.8728 78.1249 37.8409 78.1125C37.8091 78.1001 37.7749 78.0937 37.7403 78.0935H37.7405Z" fill="#C8DFF5"/>
<path d="M38.7929 76.0783L37.7376 75.1011L36.6834 76.0783C36.6341 76.1241 36.6064 76.1861 36.6064 76.2507C36.6065 76.3154 36.6343 76.3774 36.6837 76.423C36.7332 76.4687 36.8002 76.4944 36.8701 76.4943C36.9399 76.4942 37.0069 76.4685 37.0563 76.4228L37.7378 75.7909L38.4202 76.4228C38.4695 76.4685 38.5365 76.4942 38.6064 76.4942C38.6762 76.4943 38.7432 76.4686 38.7927 76.423C38.8421 76.3773 38.8699 76.3153 38.8699 76.2507C38.8699 76.186 38.8422 76.124 38.7929 76.0783ZM37.7382 70.2678C37.6684 70.2678 37.6015 70.2935 37.5521 70.3392C37.5028 70.3848 37.475 70.4468 37.475 70.5114V72.1478C37.475 72.2124 37.5028 72.2743 37.5521 72.32C37.6015 72.3656 37.6684 72.3913 37.7382 72.3913C37.808 72.3913 37.875 72.3656 37.9244 72.32C37.9737 72.2743 38.0014 72.2124 38.0014 72.1478V70.5114C38.0014 70.4468 37.9737 70.3848 37.9244 70.3392C37.875 70.2935 37.808 70.2678 37.7382 70.2678ZM37.7402 73.1593H37.7388C37.6692 73.1593 37.6024 73.1848 37.5531 73.2303C37.5037 73.2757 37.4758 73.3373 37.4754 73.4017L37.4748 73.501C37.4746 73.533 37.4812 73.5648 37.4943 73.5944C37.5074 73.6241 37.5267 73.6511 37.551 73.6738C37.5754 73.6966 37.6043 73.7147 37.6363 73.7271C37.6682 73.7394 37.7024 73.7459 37.737 73.746H37.7382C37.8079 73.746 37.8747 73.7205 37.924 73.675C37.9733 73.6295 38.0012 73.5678 38.0014 73.5034L38.002 73.4041C38.0022 73.3722 37.9956 73.3404 37.9825 73.3108C37.9695 73.2812 37.9502 73.2542 37.9259 73.2315C37.9015 73.2088 37.8726 73.1907 37.8407 73.1783C37.8088 73.1659 37.7746 73.1595 37.74 73.1593H37.7402Z" fill="#C8DFF5"/>
<path d="M38.7928 71.1442L37.7376 70.1669L36.6834 71.1442C36.634 71.1899 36.6063 71.2519 36.6064 71.3166C36.6065 71.3812 36.6343 71.4432 36.6838 71.4888C36.7332 71.5345 36.8002 71.5601 36.8701 71.56C36.9399 71.5599 37.0069 71.5342 37.0562 71.4884L37.7378 70.8566L38.4201 71.4886C38.4446 71.5113 38.4736 71.5292 38.5055 71.5415C38.5375 71.5538 38.5717 71.5601 38.6063 71.5601C38.6409 71.5601 38.6752 71.5538 38.7071 71.5416C38.7391 71.5294 38.7681 71.5114 38.7926 71.4888C38.8171 71.4662 38.8365 71.4393 38.8497 71.4098C38.863 71.3802 38.8698 71.3485 38.8698 71.3165C38.8699 71.2845 38.8631 71.2528 38.8498 71.2233C38.8366 71.1937 38.8172 71.1668 38.7928 71.1442ZM37.7382 65.3335C37.7036 65.3335 37.6693 65.3398 37.6374 65.3521C37.6055 65.3643 37.5764 65.3823 37.552 65.4049C37.5275 65.4275 37.5082 65.4544 37.4949 65.484C37.4817 65.5135 37.4749 65.5452 37.475 65.5772V67.2136C37.475 67.2782 37.5027 67.3402 37.5521 67.3858C37.6014 67.4315 37.6684 67.4572 37.7382 67.4572C37.808 67.4572 37.8749 67.4315 37.9243 67.3858C37.9736 67.3402 38.0014 67.2782 38.0014 67.2136V65.5772C38.0014 65.5126 37.9736 65.4507 37.9243 65.405C37.8749 65.3593 37.808 65.3337 37.7382 65.3337V65.3335ZM37.7402 68.2252H37.7388C37.6691 68.2251 37.6023 68.2506 37.5529 68.2961C37.5036 68.3415 37.4757 68.4032 37.4754 68.4676L37.4748 68.5669C37.4746 68.5989 37.4812 68.6306 37.4943 68.6602C37.5074 68.6899 37.5267 68.7168 37.551 68.7396C37.5754 68.7623 37.6043 68.7804 37.6362 68.7928C37.6681 68.8051 37.7024 68.8116 37.737 68.8117H37.7382C37.8078 68.8117 37.8745 68.7862 37.9239 68.7407C37.9732 68.6953 38.0011 68.6337 38.0014 68.5693L38.002 68.47C38.0022 68.438 37.9955 68.4063 37.9825 68.3767C37.9694 68.347 37.9501 68.3201 37.9258 68.2974C37.9015 68.2746 37.8725 68.2565 37.8406 68.2442C37.8088 68.2318 37.7745 68.2253 37.74 68.2252H37.7402Z" fill="#C8DFF5"/>
<path d="M38.7929 66.2099L37.7376 65.2327L36.6834 66.2099C36.6341 66.2557 36.6064 66.3177 36.6064 66.3823C36.6065 66.447 36.6343 66.509 36.6837 66.5546C36.7332 66.6003 36.8002 66.6259 36.8701 66.6259C36.9399 66.6258 37.0069 66.6001 37.0563 66.5544L37.7378 65.9225L38.4202 66.5544C38.4695 66.6001 38.5365 66.6258 38.6064 66.6258C38.6762 66.6258 38.7432 66.6002 38.7927 66.5545C38.8421 66.5089 38.8699 66.4469 38.8699 66.3823C38.8699 66.3176 38.8422 66.2556 38.7929 66.2099Z" fill="#C8DFF5"/>
</svg>
