<?xml version="1.0" encoding="UTF-8" standalone="no"?>
<!DOCTYPE svg PUBLIC "-//W3C//DTD SVG 1.1//EN" "http://www.w3.org/Graphics/SVG/1.1/DTD/svg11.dtd">
<svg width="100%" height="100%" viewBox="0 0 2084 2084" version="1.1" xmlns="http://www.w3.org/2000/svg" xmlns:xlink="http://www.w3.org/1999/xlink" xml:space="preserve" xmlns:serif="http://www.serif.com/" style="fill-rule:evenodd;clip-rule:evenodd;stroke-linejoin:round;stroke-miterlimit:2;">
    <g transform="matrix(4.16667,0,0,4.16667,0,0)">
        <rect x="0" y="0" width="500" height="500" style="fill:rgb(201,219,240);fill-rule:nonzero;"/>
        <path d="M437.308,75.114C436.037,50.148 455.598,25.816 480.253,21.693C504.908,17.569 531.321,34.212 538.244,58.232C544.586,49.092 557.047,44.714 567.712,47.879C578.376,51.044 586.433,61.511 586.762,72.63C598.62,69.212 611.524,73.508 620.512,81.84C629.885,90.529 623.668,106.234 610.887,106.296C557.994,106.554 452.891,106.999 413.341,107.165C403.898,107.205 396.367,99.102 397.315,89.707C397.397,88.895 397.498,88.081 397.621,87.27C400.087,70.971 436.65,62.212 437.308,75.114Z" style="fill:rgb(242,245,249);fill-rule:nonzero;"/>
        <path d="M450.225,359.542C451.495,334.576 431.935,310.244 407.279,306.121C382.624,301.997 356.21,318.64 349.288,342.66C342.946,333.521 330.485,329.143 319.82,332.308C309.155,335.473 301.1,345.939 300.771,357.059C288.912,353.641 276.008,357.937 267.021,366.268C257.647,374.957 263.864,390.663 276.645,390.725C329.538,390.982 434.642,391.427 474.191,391.594C483.634,391.633 491.165,383.53 490.217,374.135C490.135,373.323 490.033,372.509 489.911,371.698C487.445,355.399 450.882,346.641 450.225,359.542Z" style="fill:rgb(242,245,249);fill-rule:nonzero;"/>
        <path d="M-51.89,62.3C-53.161,37.335 -33.6,13.003 -8.944,8.879C15.71,4.756 42.124,21.399 49.046,45.419C55.388,36.279 67.849,31.901 78.514,35.066C89.178,38.231 97.234,48.698 97.564,59.817C109.422,56.399 122.327,60.695 131.314,69.027C140.687,77.716 134.47,93.421 121.689,93.484C68.795,93.741 -36.307,94.186 -75.856,94.352C-85.299,94.392 -92.83,86.289 -91.882,76.894C-91.8,76.082 -91.699,75.268 -91.576,74.457C-89.11,58.158 -52.546,49.399 -51.89,62.3Z" style="fill:rgb(242,245,249);fill-rule:nonzero;"/>
        <path d="M55.618,220.058C54.431,196.736 72.705,174.005 95.737,170.153C118.77,166.301 143.445,181.848 149.912,204.287C155.836,195.749 167.478,191.659 177.44,194.616C187.403,197.572 194.929,207.351 195.236,217.738C206.314,214.545 218.369,218.558 226.765,226.341C235.521,234.458 229.713,249.13 217.774,249.188C168.362,249.429 70.175,249.845 33.229,250C24.408,250.037 17.372,242.467 18.258,233.69C18.335,232.932 18.429,232.172 18.544,231.414C20.847,216.188 55.004,208.005 55.618,220.058Z" style="fill:rgb(242,245,249);fill-rule:nonzero;"/>
        <path d="M339.533,517.961C341.852,513.505 346.56,486.886 348.501,485.747C331.487,495.726 312.508,521.099 316.387,542.158C310.292,534.242 305.396,524.42 302.104,513.158C311.885,507.421 319.933,495.849 325.431,485.402C327.974,480.57 334.018,451.423 336.015,450.232C319.188,460.263 299.844,485.874 300.855,508.534C298.155,497.686 296.779,486.415 295.573,475.379C305.574,470.068 314.107,458.889 320.052,448.715C322.807,444.001 330.136,415.149 332.185,414.049C315.893,422.806 296.737,445.341 294.655,466.923C293.708,458.303 292.635,449.515 290.911,440.933C299.417,436.264 306.673,426.729 311.749,418.043C314.133,413.962 320.478,388.989 322.251,388.036C307.734,395.839 290.59,416.278 289.645,435.446C288.162,429.752 285.888,422.433 283.788,416.56C287.065,407.766 286.798,396.395 285.45,386.869C284.788,382.19 274.267,358.67 275.066,356.822C268.058,373.026 267.681,402.478 281.48,417.398C283.955,424.316 286.685,433.298 288.019,439.109C274.904,423.866 246.191,420.33 229.383,424.989C231.323,424.451 253.175,438.104 257.719,439.401C267.367,442.16 279.166,444.027 288.528,441.547C290.519,451.508 291.637,461.803 292.711,471.772C292.797,472.577 292.885,473.384 292.972,474.191C275.135,458.879 241.091,460.651 222.681,469.494C224.777,468.486 252.41,479.557 257.842,480.107C269.335,481.272 283.074,480.998 293.204,476.32C294.465,487.799 295.938,499.521 298.91,510.826C284.196,492.964 251.366,487.951 231.881,492.729C234.141,492.175 258.902,508.696 264.104,510.354C275.2,513.888 288.83,516.458 299.75,513.862C302.839,524.427 307.315,533.771 312.862,541.53C296.278,529.078 266.301,532.607 249.639,541.865C251.605,540.772 276.923,550.249 281.939,550.517C292.747,551.095 305.747,550.091 315.296,544.749C323.393,554.858 333.456,561.825 344.648,564.666L345.253,562.284C334.779,559.625 325.326,553.146 317.64,543.738C327.08,538.226 334.542,527.553 339.533,517.961Z" style="fill:rgb(86,90,150);fill-rule:nonzero;"/>
        <path d="M-49.119,385.216C-45.079,383.185 -40.226,384.197 -35.888,385.476C-23.98,388.984 -12.251,394.409 -3.851,403.55C6.705,415.039 11.865,436.289 -10.18,428.613C-28.684,422.171 -40.093,401.082 -49.119,385.216Z" style="fill:rgb(150,165,211);fill-rule:nonzero;"/>
        <path d="M-43.218,460.319C-40.82,457.711 -36.981,457.11 -33.448,456.846C-23.746,456.119 -13.645,456.848 -4.956,461.223C5.964,466.721 15.633,480.87 -2.654,481.349C-18.003,481.751 -32.208,469.451 -43.218,460.319Z" style="fill:rgb(150,165,211);fill-rule:nonzero;"/>
        <path d="M31.196,400.649C34.409,402.145 36.146,405.62 37.468,408.907C41.101,417.933 43.468,427.779 41.933,437.386C40.003,449.46 29.45,462.961 23.451,445.68C18.416,431.174 25.832,413.91 31.196,400.649Z" style="fill:rgb(150,165,211);fill-rule:nonzero;"/>
        <path d="M32.828,426.198C32.613,426.153 32.403,426.292 32.358,426.509C27.4,450.725 24.327,465.79 29.991,500.969C29.75,500.466 29.499,499.966 29.238,499.47C26.828,492.712 24.681,485.867 22.567,479.112C20.939,473.911 19.255,468.533 17.483,463.303C10.814,443.613 0.5,419.154 -20.221,404.655C-20.402,404.528 -20.65,404.574 -20.776,404.753C-20.902,404.934 -20.858,405.182 -20.678,405.309C-0.145,419.675 10.098,443.984 16.729,463.558C18.498,468.78 20.179,474.153 21.806,479.351C23.514,484.806 25.242,490.32 27.112,495.802C17.729,481.105 0.25,470.209 -16.763,469.283C-16.983,469.272 -17.17,469.439 -17.183,469.659C-17.194,469.879 -17.026,470.067 -16.807,470.079C1.31,471.064 19.96,483.523 28.503,499.782C29.255,501.89 30.035,503.988 30.846,506.074C30.847,506.079 30.848,506.084 30.849,506.09C30.859,506.146 30.882,506.198 30.913,506.243C34.041,514.263 37.659,522.083 42.192,529.393C42.309,529.579 42.554,529.638 42.741,529.521L42.743,529.521C42.929,529.404 42.986,529.159 42.87,528.973C38.35,521.684 34.74,513.874 31.618,505.858C24.849,467.169 27.794,452.776 33.139,426.668C33.183,426.453 33.044,426.242 32.828,426.198Z" style="fill:rgb(86,90,150);fill-rule:nonzero;"/>
        <path d="M217.318,385.041C212.945,385.904 209.782,389.629 207.179,393.247C200.035,403.183 194.188,414.5 193.182,426.695C191.917,442.022 200.757,461.682 213.271,442.371C223.773,426.163 219.893,402.849 217.318,385.041Z" style="fill:rgb(150,165,211);fill-rule:nonzero;"/>
        <path d="M258.163,447.058C254.718,446.479 251.367,448.333 248.458,450.265C240.468,455.569 233.048,462.247 228.932,470.908C223.76,481.794 224.796,498.654 239.317,487.964C251.505,478.99 255.118,460.825 258.163,447.058Z" style="fill:rgb(150,165,211);fill-rule:nonzero;"/>
        <path d="M164.152,445.642C162.556,448.749 163.308,452.504 164.267,455.862C166.9,465.084 171.015,474.179 178.022,480.726C186.828,488.954 203.209,493.077 197.422,475.998C192.565,461.664 176.349,452.716 164.152,445.642Z" style="fill:rgb(150,165,211);fill-rule:nonzero;"/>
        <path d="M178.339,466.511C178.479,466.347 178.727,466.326 178.893,466.468C197.4,482.314 208.907,492.18 225.781,522.982C225.665,522.443 225.558,521.903 225.46,521.359C223.248,514.643 220.778,508.018 218.336,501.481C216.457,496.449 214.513,491.245 212.728,486.103C206.007,466.745 199.235,441.472 206.59,417.651C206.654,417.443 206.875,417.329 207.081,417.393C207.288,417.456 207.405,417.676 207.341,417.884C200.053,441.485 206.788,466.602 213.47,485.845C215.252,490.979 217.194,496.178 219.072,501.206C221.044,506.485 223.035,511.821 224.896,517.219C223.308,500.105 230.317,481.052 242.998,470.038C243.162,469.896 243.41,469.913 243.552,470.077C243.694,470.241 243.676,470.489 243.513,470.631C230.01,482.358 223.034,503.337 226.221,521.158C226.911,523.254 227.574,525.358 228.205,527.473C228.207,527.477 228.209,527.481 228.212,527.486C228.239,527.537 228.252,527.591 228.255,527.645C230.673,535.778 232.587,544.053 233.482,552.483C233.504,552.699 233.349,552.893 233.133,552.916L233.131,552.916C232.916,552.938 232.723,552.781 232.701,552.566C231.809,544.159 229.893,535.898 227.473,527.771C209.335,493.568 198.335,484.149 178.381,467.064C178.217,466.924 178.197,466.676 178.339,466.511Z" style="fill:rgb(86,90,150);fill-rule:nonzero;"/>
        <path d="M366.37,368.401C370.88,368.728 374.527,372.085 377.597,375.406C386.022,384.523 393.313,395.193 395.839,407.349C399.014,422.624 392.551,443.515 377.557,425.623C364.972,410.606 365.986,386.65 366.37,368.401Z" style="fill:rgb(150,165,211);fill-rule:nonzero;"/>
        <path d="M332.937,435.911C336.333,434.901 339.937,436.353 343.106,437.937C351.809,442.287 360.108,448.09 365.327,456.301C371.886,466.62 372.934,483.725 356.986,474.762C343.601,467.238 337.71,449.396 332.937,435.911Z" style="fill:rgb(150,165,211);fill-rule:nonzero;"/>
        <path d="M427.419,422.824C429.411,425.755 429.12,429.629 428.571,433.13C427.063,442.741 424.049,452.409 417.806,459.87C409.96,469.248 393.978,475.431 397.686,457.517C400.798,442.481 416.016,431.46 427.419,422.824Z" style="fill:rgb(150,165,211);fill-rule:nonzero;"/>
        <path d="M415.724,445.597C415.562,445.448 415.311,445.459 415.16,445.622C398.491,463.873 388.129,475.234 374.959,508.343C375.01,507.786 375.05,507.229 375.081,506.669C376.476,499.631 378.141,492.653 379.788,485.77C381.057,480.47 382.368,474.989 383.528,469.59C387.895,449.265 391.577,422.977 381.217,399.905C381.126,399.704 380.89,399.615 380.69,399.705C380.489,399.795 380.399,400.031 380.489,400.231C390.755,423.093 387.089,449.217 382.749,469.422C381.591,474.813 380.28,480.288 379.013,485.584C377.683,491.144 376.34,496.765 375.136,502.43C374.612,485.001 365.19,466.685 351.057,457.169C350.873,457.047 350.627,457.095 350.504,457.276C350.381,457.46 350.429,457.707 350.611,457.83C365.662,467.964 375.288,488.222 374.29,506.561C373.855,508.756 373.448,510.957 373.076,513.164C373.074,513.169 373.072,513.174 373.07,513.179C373.05,513.232 373.043,513.289 373.046,513.343C371.621,521.833 370.72,530.402 370.865,539.002C370.869,539.222 371.05,539.397 371.271,539.394C371.491,539.389 371.666,539.208 371.662,538.988C371.517,530.413 372.421,521.857 373.85,513.374C387.87,476.686 397.777,465.837 415.749,446.16C415.897,445.997 415.886,445.745 415.724,445.597Z" style="fill:rgb(86,90,150);fill-rule:nonzero;"/>
        <rect x="223.955" y="171.451" width="147.823" height="158.595" style="fill:rgb(200,159,114);fill-rule:nonzero;"/>
        <rect x="129.21" y="171.451" width="94.745" height="158.595" style="fill:rgb(173,131,89);fill-rule:nonzero;"/>
        <path d="M223.536,330.295L128.791,171.701L129.63,171.201L224.375,329.796L223.536,330.295Z" style="fill:rgb(200,159,114);fill-rule:nonzero;"/>
        <path d="M125.119,330.305L124.291,329.786L223.542,171.192L224.369,171.71L125.119,330.305Z" style="fill:rgb(200,159,114);fill-rule:nonzero;"/>
        <path d="M329.899,244.998C329.899,261.744 317.97,275.318 303.253,275.318C288.536,275.318 276.605,261.744 276.605,244.998C276.605,228.252 288.536,214.677 303.253,214.677C317.97,214.677 329.899,228.252 329.899,244.998Z" style="fill:rgb(242,245,249);fill-rule:nonzero;"/>
        <path d="M320.244,240.814L307.437,240.814L307.437,228.006L299.068,228.006L299.068,240.814L286.261,240.814L286.261,249.182L299.068,249.182L299.068,261.99L307.437,261.99L307.437,249.182L320.244,249.182L320.244,240.814Z" style="fill:rgb(207,128,182);fill-rule:nonzero;"/>
        <path d="M288.518,321.587C288.727,322.505 289.536,323.168 290.31,323.72C298.932,329.944 309.354,333.294 319.866,334.887C329.883,336.397 332.894,337.576 342.349,337.602L342.344,337.836C330.653,340.446 326.584,340.455 314.595,340.437C311.356,340.43 310.271,344.794 313.125,346.327C316.566,348.186 320.824,349.074 324.766,349.547C355.958,353.301 379.514,352.025 405.442,337.841L405.438,337.828C391.657,321.322 387.772,298.619 388.42,277.139L388.433,277.135C366.487,275.832 350.878,274.905 327.966,273.54C326.765,273.474 325.403,273.46 324.559,274.303C322.965,275.901 324.658,278.561 326.364,280.023C332.202,285.048 338.955,288.986 346.194,291.585C328.341,292.569 311.207,294.356 293.338,294.305C292.087,294.295 290.787,294.302 289.651,294.845C288.527,295.383 287.638,296.624 287.916,297.834C288.13,298.764 288.936,299.415 289.713,299.979C291.514,301.272 293.401,302.455 295.354,303.506C295.712,303.716 296.095,303.918 296.473,304.107C295.885,304.111 294.741,304.259 293.585,304.451C292.288,304.676 290.967,304.95 290.338,305.16C287.971,305.919 288.743,307.828 289.021,309.038C289.235,309.969 290.045,310.632 290.818,311.184C293.343,313.004 296.02,314.582 298.813,315.931C300.075,316.553 301.358,317.113 302.658,317.641L302.662,317.653C302.209,317.653 300.963,317.532 299.481,317.408C296.853,317.171 293.491,316.876 292.706,317.027C288.212,317.863 288.234,320.364 288.518,321.587Z" style="fill:rgb(152,95,66);fill-rule:nonzero;"/>
        <path d="M293.579,304.452C308.384,307.785 324.725,309.47 343.421,309.618C343.49,309.622 343.552,309.602 343.626,309.577C343.886,309.49 344.066,309.252 344.071,308.977C344.071,308.606 343.783,308.318 343.426,308.313C325.446,308.175 309.664,306.605 295.349,303.508L293.579,304.452Z" style="fill:rgb(32,33,55);fill-rule:nonzero;"/>
        <path d="M302.656,317.655C302.204,317.655 300.957,317.534 299.477,317.41C313.331,320.482 329.329,323.199 346.043,322.416C346.101,322.424 346.162,322.403 346.211,322.387C346.483,322.297 346.673,322.042 346.669,321.741C346.645,321.38 346.349,321.107 345.982,321.12C329.021,321.903 312.78,319.075 298.807,315.932C300.069,316.555 301.353,317.115 302.652,317.643L302.656,317.655Z" style="fill:rgb(32,33,55);fill-rule:nonzero;"/>
        <path d="M405.438,337.828L405.442,337.841C479.025,322.446 555.225,278.459 613.883,226.578C623.473,218.092 649.896,199.271 662.919,179.041C671.303,166.018 667.81,148.674 655.202,139.678L619.097,113.912C614.038,110.302 607.542,109.354 601.678,111.41C579.638,119.136 549.104,147.495 539.979,155.578C491.45,198.581 439.502,241.568 388.433,277.135L388.42,277.139C387.772,298.619 391.657,321.322 405.438,337.828Z" style="fill:rgb(215,164,203);fill-rule:nonzero;"/>
        <path d="M104.035,339.577C128.91,346.502 175.905,350.912 207.338,343.195C217.26,340.75 229.74,334.828 231.62,324.92C231.69,324.609 231.733,324.284 231.775,323.974L231.747,323.974C232.51,323.168 233.231,322.306 234.63,320.199L235.323,318.941C235.408,318.871 235.479,318.786 235.563,318.701C235.62,318.673 235.662,318.617 235.705,318.574C237.386,316.878 238.121,314.744 236.863,312.327C235.577,309.84 232.75,308.539 229.966,308.864C212.836,310.857 193.487,308.37 175.65,302.42C183,298.151 189.699,292.13 194.01,284.81C195.72,281.884 197.091,278.011 195.098,275.269C193.713,273.36 191.056,272.725 188.724,273.078C186.392,273.417 184.258,274.576 182.166,275.65C165.248,284.343 146.38,289.177 127.384,289.77C122.649,306.984 114.791,325.316 104.035,339.577Z" style="fill:rgb(152,95,66);fill-rule:nonzero;"/>
        <path d="M231.747,323.974C229.034,326.931 225.261,328.558 221.104,329.839C205.784,334.545 189.29,335.846 173.432,333.612C173.135,333.57 172.852,333.782 172.81,334.079C172.767,334.376 172.965,334.658 173.276,334.701C178.364,335.422 183.537,335.775 188.696,335.775C199.777,335.775 210.872,334.136 221.429,330.898C225.373,329.697 228.878,327.605 231.62,324.92C231.69,324.609 231.733,324.284 231.775,323.974L231.747,323.974Z" style="fill:rgb(32,33,55);fill-rule:nonzero;"/>
        <path d="M169.729,324.072C169.686,324.369 169.898,324.651 170.195,324.694C178.308,325.825 186.435,326.391 194.505,326.391C205.6,326.391 216.624,325.316 227.479,323.182C229.655,322.744 231.775,321.938 233.528,320.906C233.923,320.681 234.291,320.454 234.63,320.199L235.323,318.941C235.408,318.871 235.479,318.786 235.563,318.701C235.379,318.504 235.083,318.489 234.871,318.645C234.842,318.645 234.828,318.659 234.814,318.673C233.005,320.242 230.178,321.514 227.252,322.094C208.652,325.782 189.501,326.277 170.351,323.605C170.054,323.563 169.771,323.775 169.729,324.072Z" style="fill:rgb(32,33,55);fill-rule:nonzero;"/>
        <path d="M-157.762,249.433C-144.18,271.82 -119.601,284.908 -95.545,295.254C-30.714,323.14 33.522,336.962 104.035,339.577C114.791,325.316 122.649,306.984 127.384,289.77L127.384,289.756C51.938,262.449 -13.4,219.37 -74.967,167.924C-87.079,157.804 -100.394,146.667 -116.167,146.879C-126.696,147.02 -136.562,152.405 -144.392,159.43C-168.885,181.393 -174.807,221.292 -157.762,249.433Z" style="fill:rgb(86,90,150);fill-rule:nonzero;"/>
        <path d="M409.419,495.421C407.556,489.62 407.354,456.839 405.266,455.082C423.569,470.479 441.086,504.68 432.155,529.063C441.056,520.844 448.911,510.101 455.142,497.308C444.619,488.455 437.357,472.981 432.914,459.373C430.859,453.078 429.577,417.003 427.432,415.172C445.502,430.593 463.405,465.152 457.577,492.035C463.017,479.616 466.958,466.424 470.65,453.478C459.776,445.09 451.855,429.986 446.823,416.612C444.491,410.415 441.61,374.432 439.386,372.698C457.077,386.487 475.382,417.331 473.472,443.556C476.36,433.444 479.437,423.157 483.245,413.249C474.029,405.934 467.299,393.058 463.002,381.638C460.983,376.274 458.49,345.128 456.564,343.627C472.327,355.913 488.654,383.842 485.879,406.949C488.811,400.444 493.021,392.158 496.729,385.565C494.604,374.385 497.241,360.846 500.795,349.733C502.54,344.275 519.912,318.303 519.333,315.932C524.408,336.731 518.854,372.015 499.316,387.038C494.947,394.804 489.855,404.983 487.075,411.659C505.859,396.111 540.905,397.736 560.049,406.732C557.839,405.694 528.934,417.56 523.237,418.186C511.14,419.516 496.654,419.343 485.969,414.47C481.559,425.972 478.124,438.05 474.808,449.749C474.54,450.693 474.271,451.64 474.002,452.588C498.446,437.919 538.782,446.978 558.987,461.301C556.687,459.67 521.396,467.271 514.791,466.821C500.815,465.871 484.446,462.743 473.29,455.085C469.443,468.55 465.292,482.263 459.436,495.171C480.666,476.818 520.934,477.519 543.252,487.201C540.665,486.079 507.695,500.781 501.139,501.701C487.155,503.664 470.337,503.959 457.813,498.63C451.966,510.629 444.71,520.888 436.497,529.031C458.86,517.526 493.977,527.856 512.008,542.321C509.88,540.613 477.684,546.78 471.631,546.078C458.595,544.566 443.258,540.716 432.933,532.383C421.192,542.817 407.741,549.095 393.782,550.209L393.545,547.239C406.608,546.195 419.229,540.376 430.336,530.697C420.175,522.184 413.43,507.903 409.419,495.421Z" style="fill:rgb(86,90,150);fill-rule:nonzero;"/>
        <path d="M154.056,529.641C157.421,525.389 167.831,498.135 170.12,497.323C150.056,504.436 124.774,527.463 124.598,550.572C119.75,540.942 116.56,529.535 115.364,516.929C126.899,512.839 137.785,502.213 145.739,492.261C149.418,487.657 161.758,457.995 164.118,457.14C144.241,464.344 118.524,487.55 114.982,511.773C114.33,499.725 115.167,487.5 116.135,475.558C127.816,471.966 139.136,461.854 147.508,452.282C151.388,447.847 165.031,418.761 167.426,418.011C148.375,423.974 123.485,443.959 116.884,466.408C117.635,457.08 118.287,447.546 118.208,438.1C128.173,434.883 137.805,426.256 144.954,418.082C148.312,414.243 160.12,389.067 162.194,388.418C145.22,393.731 122.888,411.904 117.982,432.027C117.571,425.69 116.651,417.47 115.621,410.817C120.884,402.164 122.917,390.058 123.427,379.688C123.678,374.594 117.317,347.523 118.541,345.728C107.813,361.475 101.417,392.612 113.004,411.236C114.219,419.072 115.282,429.146 115.513,435.578C104.717,416.753 75.004,407.157 56.242,408.674C58.407,408.499 78.788,427.417 83.339,429.719C93.004,434.606 105.129,438.988 115.557,438.266C115.638,449.229 114.727,460.367 113.835,471.152C113.763,472.022 113.691,472.896 113.62,473.77C97.832,453.908 61.389,448.854 40.077,454.479C42.504,453.838 69.537,471.197 75.182,472.887C87.125,476.462 101.744,478.969 113.433,476.072C112.432,488.495 111.606,501.219 112.454,513.806C100.496,491.879 66.721,479.881 45.097,480.978C47.604,480.851 70.484,503.403 75.661,506.219C86.701,512.223 100.624,517.723 112.726,517.195C113.849,529.021 116.69,539.837 120.99,549.189C105.949,532.615 73.458,530.252 53.912,536.672C56.219,535.914 81.123,551.112 86.385,552.418C97.722,555.23 111.705,556.813 122.913,553.096C129.437,565.459 138.684,574.893 149.968,580.183L151.094,577.781C140.534,572.83 131.835,564.038 125.603,552.502C136.731,548.582 146.813,538.789 154.056,529.641Z" style="fill:rgb(86,90,150);fill-rule:nonzero;"/>
    </g>
</svg>
