<svg width="30" height="30" viewBox="0 0 25 25" fill="white" xmlns="http://www.w3.org/2000/svg">
<path d="M12.6523 19.6177L12.1023 19.1275C10.4857 17.6732 9.14835 16.4314 8.09035 15.402C7.03168 14.3726 6.19835 13.47 5.59035 12.6941C4.98168 11.9177 4.55668 11.219 4.31535 10.5981C4.07335 9.97715 3.95235 9.35624 3.95235 8.73532C3.95235 7.57519 4.35668 6.59872 5.16535 5.80591C5.97335 5.01375 6.96901 4.61768 8.15235 4.61768C9.03568 4.61768 9.86068 4.85036 10.6273 5.31572C11.394 5.78173 12.069 6.46408 12.6523 7.36277C13.2357 6.46408 13.9107 5.78173 14.6773 5.31572C15.444 4.85036 16.269 4.61768 17.1523 4.61768C18.3357 4.61768 19.3317 5.01375 20.1403 5.80591C20.9483 6.59872 21.3523 7.57519 21.3523 8.73532C21.3523 9.35624 21.2317 9.97715 20.9903 10.5981C20.7483 11.219 20.323 11.9177 19.7143 12.6941C19.1063 13.47 18.2773 14.3726 17.2273 15.402C16.1773 16.4314 14.8357 17.6732 13.2023 19.1275L12.6523 19.6177ZM12.6523 18.6863C14.2523 17.2647 15.569 16.0474 16.6023 15.0343C17.6357 14.0213 18.4523 13.1428 19.0523 12.399C19.6523 11.6559 20.069 10.9984 20.3023 10.4265C20.5357 9.8546 20.6523 9.29088 20.6523 8.73532C20.6523 7.75493 20.319 6.93794 19.6523 6.28434C18.9857 5.63075 18.1523 5.30395 17.1523 5.30395C16.3523 5.30395 15.615 5.52846 14.9403 5.97748C14.265 6.42715 13.619 7.13402 13.0023 8.09807H12.3023C11.669 7.11768 11.019 6.40689 10.3523 5.96571C9.68568 5.52454 8.95235 5.30395 8.15235 5.30395C7.16901 5.30395 6.34001 5.63075 5.66535 6.28434C4.99001 6.93794 4.65235 7.75493 4.65235 8.73532C4.65235 9.29088 4.76901 9.8546 5.00235 10.4265C5.23568 10.9984 5.65235 11.6559 6.25235 12.399C6.85235 13.1428 7.66901 14.017 8.70235 15.0216C9.73568 16.0268 11.0523 17.2484 12.6523 18.6863Z" fill="#380445"/>
</svg>
