<svg width="80" height="74" viewBox="0 0 180 174" fill="none" xmlns="http://www.w3.org/2000/svg">
<g clip-path="url(#clip0_227_1076)">
<path d="M59.8284 27.1161C59.8284 27.1161 32.5512 40.5489 18.9468 61.248C5.34238 81.947 6.41878 108.576 22.95 128.342C39.4812 148.109 71.0784 145.513 97.5348 158.034C123.991 170.555 153.18 167.976 165.69 141.448C178.2 114.92 159.336 105.005 156.096 74.3049C152.856 43.6044 124.225 -1.35025 59.8284 27.1161Z" fill="#7E57C2"/>
<path opacity="0.7" d="M59.8284 27.1161C59.8284 27.1161 32.5512 40.5489 18.9468 61.248C5.34238 81.947 6.41878 108.576 22.95 128.342C39.4812 148.109 71.0784 145.513 97.5348 158.034C123.991 170.555 153.18 167.976 165.69 141.448C178.2 114.92 159.336 105.005 156.096 74.3049C152.856 43.6044 124.225 -1.35025 59.8284 27.1161Z" fill="white"/>
<path d="M132.61 31.6053C129.895 30.175 128.65 31.3687 127.674 30.175C126.698 28.9814 130.388 25.8807 122.994 22.78C122.994 22.78 122.501 16.1019 112.381 15.8618C102.262 15.6217 104.98 22.5434 102.265 24.2138C99.5508 25.8842 98.8092 23.2603 96.0948 24.9307C93.3804 26.6011 94.608 29.928 92.3868 30.4152C90.1656 30.9024 87.2028 28.268 84.4884 29.9384C81.774 31.6088 81.774 33.0391 80.5284 33.0391C79.2828 33.0391 76.824 32.0856 75.3444 33.0391C73.8648 33.9926 72.1368 35.1862 72.1368 35.1862H134.586C134.586 35.1862 135.324 33.0391 132.61 31.6053Z" stroke="#263238" stroke-linecap="round" stroke-linejoin="round"/>
<path d="M95.6773 30.624C95.3233 30.817 94.9551 30.9845 94.5757 31.1251" stroke="#263238" stroke-linecap="round" stroke-linejoin="round"/>
<path d="M109.033 19.4879C108.421 19.7521 107.883 20.154 107.464 20.6601C107.045 21.1662 106.757 21.7618 106.625 22.3972C106.171 24.5826 105.116 26.0373 103.914 26.1834C102.712 26.3296 98.19 25.8911 97.434 27.4954C97.2329 27.9643 97.0914 28.4551 97.0128 28.957" stroke="#263238" stroke-linecap="round" stroke-linejoin="round"/>
<path d="M71.6616 48.7548C70.2396 48.0066 69.5916 48.6295 69.0732 48.0066C68.5548 47.3837 70.4952 45.755 66.6144 44.1264C66.6144 44.1264 66.3552 40.6255 61.0524 40.5002C55.7496 40.375 57.168 44.0011 55.746 44.892C54.324 45.7829 53.946 44.3909 52.506 45.2678C51.066 46.1448 51.732 47.8952 50.5656 48.1458C49.3992 48.3964 47.8476 47.0183 46.4256 47.8952C45.0036 48.7722 44.9856 49.5204 44.3556 49.5204C43.7256 49.5204 42.4152 49.0193 41.6376 49.5204C40.86 50.0215 39.9564 50.6444 39.9564 50.6444H72.6912C72.6912 50.6444 73.08 49.5065 71.6616 48.7548Z" stroke="#263238" stroke-linecap="round" stroke-linejoin="round"/>
<path d="M52.2973 48.2432C52.11 48.3419 51.9164 48.4291 51.7177 48.5042" stroke="#263238" stroke-linecap="round" stroke-linejoin="round"/>
<path d="M59.2993 42.4003C58.9781 42.5385 58.6959 42.7489 58.476 43.0141C58.2562 43.2793 58.1052 43.5914 58.0357 43.9245C57.7981 45.0694 57.2473 45.835 56.5957 45.9116C55.9441 45.9881 53.5969 45.7585 53.2009 46.6076C53.0964 46.8537 53.0215 47.1106 52.9777 47.3732" stroke="#263238" stroke-linecap="round" stroke-linejoin="round"/>
<path d="M113.994 74.9313C113.994 74.9313 130.961 76.5565 139.554 86.7215C139.554 86.7215 148.64 74.9452 164.959 75.1854C168.945 70.5356 171.483 64.887 172.278 58.8971C173.072 52.9072 172.089 46.8224 169.445 41.3513C166.8 35.8801 162.603 31.2476 157.34 27.9932C152.078 24.7387 145.967 22.9962 139.72 22.9685C133.473 22.9408 127.347 24.629 122.054 27.8366C116.761 31.0442 112.519 35.6392 109.823 41.0867C107.126 46.5341 106.086 52.6099 106.823 58.6066C107.561 64.6033 110.045 70.2743 113.987 74.9591L113.994 74.9313Z" fill="#7E57C2"/>
<path opacity="0.5" d="M113.994 74.9313C113.994 74.9313 130.961 76.5565 139.554 86.7215C139.554 86.7215 148.64 74.9452 164.959 75.1854C168.945 70.5356 171.483 64.887 172.278 58.8971C173.072 52.9072 172.089 46.8224 169.445 41.3513C166.8 35.8801 162.603 31.2476 157.34 27.9932C152.078 24.7387 145.967 22.9962 139.72 22.9685C133.473 22.9408 127.347 24.629 122.054 27.8366C116.761 31.0442 112.519 35.6392 109.823 41.0867C107.126 46.5341 106.086 52.6099 106.823 58.6066C107.561 64.6033 110.045 70.2743 113.987 74.9591L113.994 74.9313Z" fill="white"/>
<path d="M139 25.2161L138.424 150.6H141.289L139 25.2161Z" fill="#263238"/>
<path d="M139.856 83.6244C139.856 83.6244 145.584 73.6577 155.88 70.6127C155.88 70.6127 144.997 73.1043 139.558 81.686L139.856 83.6244Z" fill="#263238"/>
<path d="M139.856 55.3876C139.856 55.3876 145.584 45.4244 155.88 42.3794C155.88 42.3794 144.997 44.8711 139.558 53.4493L139.856 55.3876Z" fill="#263238"/>
<path d="M139.856 69.506C139.856 69.506 145.584 59.5393 155.88 56.4943C155.88 56.4943 144.997 58.9859 139.558 67.5676L139.856 69.506Z" fill="#263238"/>
<path d="M139.007 62.5843C139.007 62.5843 133.481 52.621 123.527 49.576C123.527 49.576 134.028 52.0677 139.277 60.6494L139.007 62.5843Z" fill="#263238"/>
<path d="M139.007 76.4243C139.007 76.4243 133.481 66.461 123.527 63.416C123.527 63.416 134.028 65.9077 139.277 74.4894L139.007 76.4243Z" fill="#263238"/>
<path d="M60.8976 87.9291C60.8976 87.9291 74.9376 89.2758 82.0692 97.6939C82.0692 97.6939 89.5932 87.9499 103.108 88.1413C106.41 84.2904 108.513 79.6117 109.172 74.6502C109.83 69.6886 109.017 64.6483 106.827 60.1161C104.637 55.584 101.16 51.7465 96.8014 49.0505C92.4426 46.3545 87.3811 44.9109 82.2064 44.8879C77.0318 44.8648 71.9568 46.2633 67.5725 48.9203C63.1881 51.5774 59.6748 55.3838 57.4417 59.8963C55.2086 64.4087 54.3475 69.4416 54.9587 74.4088C55.5699 79.376 57.6282 84.0732 60.894 87.9534L60.8976 87.9291Z" fill="#7E57C2"/>
<path opacity="0.3" d="M60.8976 87.9291C60.8976 87.9291 74.9376 89.2758 82.0692 97.6939C82.0692 97.6939 89.5932 87.9499 103.108 88.1413C106.41 84.2904 108.513 79.6117 109.172 74.6502C109.83 69.6886 109.017 64.6483 106.827 60.1161C104.637 55.584 101.16 51.7465 96.8014 49.0505C92.4426 46.3545 87.3811 44.9109 82.2064 44.8879C77.0318 44.8648 71.9568 46.2633 67.5725 48.9203C63.1881 51.5774 59.6748 55.3838 57.4417 59.8963C55.2086 64.4087 54.3475 69.4416 54.9587 74.4088C55.5699 79.376 57.6282 84.0732 60.894 87.9534L60.8976 87.9291Z" fill="white"/>
<path d="M81.6048 46.7538L81.1332 150.6H83.502L81.6048 46.7538Z" fill="#263238"/>
<path d="M82.3177 95.1292C82.3177 95.1292 87.0589 86.8746 95.5981 84.3412C95.5981 84.3412 86.5981 86.4048 82.0801 93.511L82.3177 95.1292Z" fill="#263238"/>
<path d="M82.3177 71.7437C82.3177 71.7437 87.0589 63.4891 95.5981 60.9557C95.5981 60.9557 86.5981 63.0193 82.0801 70.129L82.3177 71.7437Z" fill="#263238"/>
<path d="M82.3177 83.4364C82.3177 83.4364 87.0589 75.1819 95.5981 72.6484C95.5981 72.6484 86.5981 74.7121 82.0801 81.8217L82.3177 83.4364Z" fill="#263238"/>
<path d="M81.6157 77.7049C81.6157 77.7049 77.0365 69.4503 68.7997 66.9169C68.7997 66.9169 77.4937 68.9805 81.8425 76.0901L81.6157 77.7049Z" fill="#263238"/>
<path d="M81.6157 89.168C81.6157 89.168 77.0365 80.9134 68.7997 78.38C68.7997 78.38 77.4937 80.4436 81.8425 87.5533L81.6157 89.168Z" fill="#263238"/>
<path d="M94.0067 150.482C93.9563 149.393 94.1039 147.326 95.3171 144.218C97.2179 139.346 100.548 149.09 100.548 149.09C100.548 149.09 100.548 147.931 104.116 144.218C107.683 140.505 110.772 147.002 110.772 147.002C110.772 147.002 109.109 131.46 113.152 132.619C117.194 133.778 116.716 147.002 116.716 147.002C116.716 147.002 119.57 137.258 123.376 137.258C127.181 137.258 128.131 144.218 128.131 144.218C128.131 144.218 129.082 131.923 132.887 131.69C136.692 131.457 140.969 141.9 140.969 141.9C140.969 141.9 139.781 127.98 143.586 127.284C147.391 126.588 148.817 132.386 148.817 132.386C148.817 132.386 152.143 113.131 158.566 115.452C164.988 117.774 159.516 139.116 159.516 139.116C159.516 139.116 165.935 124.267 171.166 127.747C175.921 130.911 169.87 147.493 168.732 150.482H94.0067Z" fill="#7E57C2"/>
<path d="M170.759 150.451C170.759 150.451 173.545 142.13 172.116 140.738C170.687 139.346 164.52 145.38 164.52 145.38C164.52 145.38 169.038 130.531 161.903 128.676C154.768 126.822 153.583 143.059 153.583 143.059C153.583 143.059 148.352 135.636 147.161 138.42C146.443 140.117 146.041 141.923 145.973 143.755C145.973 143.755 143.359 123.571 137.412 124.5C131.465 125.43 136.937 145.38 136.937 145.38C136.937 145.38 133.61 138.42 129.805 139.116C126 139.812 124.56 144.218 124.56 144.218C124.56 144.218 122.897 140.275 121.705 140.275C120.514 140.275 119.092 147.235 119.092 147.235C119.092 147.235 117.652 136.562 115.049 137.028C112.446 137.495 106.963 146.539 106.963 146.539C106.963 146.539 107.917 141.434 105.062 141.204C102.208 140.975 100.544 149.09 100.544 149.09C100.544 149.09 96.7392 141.434 94.3632 142.826C91.9872 144.218 93.1212 150.684 93.1212 150.684" stroke="#263238" stroke-linecap="round" stroke-linejoin="round"/>
<path d="M157.921 150.336L159.991 140.509" stroke="#263238" stroke-linecap="round" stroke-linejoin="round"/>
<path d="M143.111 150.482L141.919 143.989" stroke="#263238" stroke-linecap="round" stroke-linejoin="round"/>
<path d="M113.04 150.451L114.577 145.147" stroke="#263238" stroke-linecap="round" stroke-linejoin="round"/>
<path d="M131.458 150.715L128.844 146.077" stroke="#263238" stroke-linecap="round" stroke-linejoin="round"/>
<path d="M158.328 146.539L156.424 142.826" stroke="#263238" stroke-linecap="round" stroke-linejoin="round"/>
<path d="M143.111 148.394L144.774 145.147" stroke="#263238" stroke-linecap="round" stroke-linejoin="round"/>
<path d="M130.27 148.165L131.458 146.077" stroke="#263238" stroke-linecap="round" stroke-linejoin="round"/>
<path d="M113.519 148.481L112.676 145.61" stroke="#263238" stroke-linecap="round" stroke-linejoin="round"/>
<path d="M83.16 150.534C83.1996 149.689 83.088 148.098 82.1988 145.662C80.8056 141.88 78.3612 149.445 78.3612 149.445C78.3612 149.445 78.3612 148.544 75.7476 145.662C73.134 142.781 70.866 147.823 70.866 147.823C70.866 147.823 72.0864 135.758 69.12 136.66C66.1536 137.561 66.5064 147.823 66.5064 147.823C66.5064 147.823 64.44 140.272 61.632 140.272C58.824 140.272 58.1436 145.673 58.1436 145.673C58.1436 145.673 57.4488 136.127 54.6588 135.95C51.8688 135.772 48.7296 143.87 48.7296 143.87C48.7296 143.87 49.6008 133.082 46.8108 132.525C44.0208 131.969 42.9732 136.489 42.9732 136.489C42.9732 136.489 40.5324 121.542 35.8236 123.342C31.1148 125.141 35.1252 141.713 35.1252 141.713C35.1252 141.713 30.4164 130.187 26.5824 132.887C23.094 135.344 27.5328 148.199 28.3824 150.534H83.16Z" fill="#7E57C2"/>
<path d="M26.8812 150.51C26.8812 150.51 24.84 144.051 25.884 142.972C26.928 141.893 31.464 146.574 31.464 146.574C31.464 146.574 28.152 135.048 33.3828 133.608C38.6136 132.167 39.5028 144.771 39.5028 144.771C39.5028 144.771 43.3404 139.009 44.2116 141.17C44.7391 142.493 45.0336 143.893 45.0828 145.311C45.0828 145.311 47.0016 129.651 51.3612 130.364C55.7208 131.078 51.7212 146.574 51.7212 146.574C51.7212 146.574 54.162 141.17 56.952 141.702C59.742 142.235 60.7896 145.662 60.7896 145.662C60.7896 145.662 62.01 142.6 62.8812 142.6C63.7524 142.6 64.8 148.004 64.8 148.004C64.8 148.004 65.8476 139.718 67.7664 140.08C69.6852 140.442 73.6956 147.461 73.6956 147.461C73.6956 147.461 72.9972 143.501 75.0888 143.32C77.1804 143.139 78.4008 149.445 78.4008 149.445C78.4008 149.445 81.1908 143.501 82.9368 144.573C84.6828 145.645 83.8224 150.684 83.8224 150.684" stroke="#263238" stroke-linecap="round" stroke-linejoin="round"/>
<path d="M36.2952 150.42L34.776 142.791" stroke="#263238" stroke-linecap="round" stroke-linejoin="round"/>
<path d="M47.16 150.534L48.0312 145.492" stroke="#263238" stroke-linecap="round" stroke-linejoin="round"/>
<path d="M69.2137 150.51L68.0833 146.393" stroke="#263238" stroke-linecap="round" stroke-linejoin="round"/>
<path d="M55.7028 150.715L57.6216 147.114" stroke="#263238" stroke-linecap="round" stroke-linejoin="round"/>
<path d="M36 147.472L37.3932 144.591" stroke="#263238" stroke-linecap="round" stroke-linejoin="round"/>
<path d="M47.16 148.913L45.9396 146.393" stroke="#263238" stroke-linecap="round" stroke-linejoin="round"/>
<path d="M56.574 148.735L55.7028 147.114" stroke="#263238" stroke-linecap="round" stroke-linejoin="round"/>
<path d="M68.8608 148.979L69.48 146.752" stroke="#263238" stroke-linecap="round" stroke-linejoin="round"/>
<path d="M6.12 150.6H177.84" stroke="#263238" stroke-linecap="round" stroke-linejoin="round"/>
<path d="M137.261 121.654L135.504 124.205L121.068 130.27C121.068 130.27 119.059 130.636 119.059 131.241C119.059 131.847 118.681 133.548 119.059 133.792C119.437 134.036 121.939 133.183 121.939 133.183C121.939 133.183 121.187 134.032 121.939 134.276C122.692 134.519 123.444 133.427 123.444 133.427C124.181 132.978 124.894 132.492 125.579 131.972C125.933 131.523 126.228 131.033 126.457 130.514L139.777 127.239L142.538 123.234C142.538 123.234 136.886 122.625 137.261 121.654Z" fill="#B5B5B5" stroke="#263238" stroke-linecap="round" stroke-linejoin="round"/>
<path d="M138.265 115.933L136.631 121.118L140.904 123.578L142.628 119.534L138.265 115.933Z" fill="white" stroke="#263238" stroke-linecap="round" stroke-linejoin="round"/>
<path d="M136.8 119.448L141.984 122.437L141.073 124.017L136.166 121.556C136.2 120.815 136.418 120.091 136.8 119.448Z" fill="white" stroke="#263238" stroke-linecap="round" stroke-linejoin="round"/>
<path d="M126.54 146.856C126.54 146.856 122.904 148.613 121.903 149.403C120.902 150.193 120.722 150.099 120.992 150.722H132.631L132.358 146.678L126.54 146.856Z" fill="white" stroke="#263238" stroke-linecap="round" stroke-linejoin="round"/>
<path d="M132.588 150.117H120.992C120.834 150.28 120.852 150.413 120.992 150.733H132.631L132.588 150.117Z" fill="white" stroke="#263238" stroke-linecap="round" stroke-linejoin="round"/>
<path d="M142.175 125.952C142.175 125.952 137.722 124.194 134.086 123.843C130.45 123.491 122.904 123.665 122.54 125.235C122.177 126.804 127.904 144.027 127.904 144.027C127.904 144.027 126.904 144.643 126.824 145.071C126.745 145.499 126.554 146.811 126.554 146.811L132.372 147.688C132.372 147.688 132.552 145.93 132.552 144.263C132.552 142.596 130.554 132.31 130.554 132.31L142.279 135.915L137.916 144.876C137.916 144.876 136.555 147.514 138.1 148.833C139.644 150.152 142.189 149.877 142.189 149.877L162.918 150.141L162.558 146.887C162.558 146.887 159.559 146.449 159.012 146.449C158.465 146.449 148.01 143.901 148.01 143.901C148.01 143.901 156.377 135.462 157.284 134.057C157.824 133.278 158.191 132.4 158.364 131.478C158.536 130.556 158.509 129.609 158.285 128.697C157.738 126.588 157.374 126.146 157.374 126.146C157.374 126.146 150.995 129.108 147.722 128.412C145.718 127.969 143.83 127.131 142.175 125.952Z" fill="#263238" stroke="#263238" stroke-linecap="round" stroke-linejoin="round"/>
<path d="M127.357 98.9711C127.357 98.9711 127.994 100.993 127.994 101.257C127.994 101.522 127.537 102.837 127.904 103.276C128.272 103.714 129.344 103.805 129.344 103.805C129.344 103.805 130.979 105.649 131.706 106.352C132.433 107.055 133.25 107.32 134.161 106.881C135.072 106.443 135.889 105.298 135.889 105.298L137.617 106.968L141.617 102.486L140.177 100.729C140.177 100.729 140.537 98.7066 139.176 96.0723C137.815 93.4379 133.085 92.7315 129.992 93.2604C126.9 93.7894 126.176 95.5433 126.176 95.8948C126.176 96.2463 127.357 98.9711 127.357 98.9711Z" fill="white" stroke="#263238" stroke-linecap="round" stroke-linejoin="round"/>
<path d="M128.995 90.9741C128.995 90.9741 127.084 89.5821 125.813 90.1842C124.542 90.7862 125.093 91.3256 124.902 92.38C124.711 93.4345 121.54 93.5215 121.54 95.2789C121.54 97.0363 123.811 97.6522 124.265 97.7392C124.718 97.8262 124.358 99.7611 125.705 99.7611C127.051 99.7611 127.343 98.9712 127.343 98.9712C127.343 98.9712 126.342 96.1593 127.433 95.7208C128.524 95.2824 130.979 94.4019 130.615 96.0688C130.252 97.7358 131.526 98.2647 132.253 98.0907C132.98 97.9167 133.888 98.0002 134.053 98.3517C134.219 98.7032 135.133 99.3192 135.133 98.4422C135.133 97.5652 135.587 96.7718 136.404 96.7718C137.221 96.7718 137.844 98.0907 137.768 99.1452C137.707 99.7801 137.457 100.384 137.048 100.885L140.141 100.708C140.141 100.708 140.958 96.7544 140.231 93.9426C139.504 91.1307 136.08 89.5682 133.992 89.3037C131.904 89.0392 129.265 90.1842 128.995 90.9741Z" fill="#263238" stroke="#263238" stroke-linecap="round" stroke-linejoin="round"/>
<path d="M129.776 100.541C130.003 100.889 130.057 101.237 129.902 101.324C129.748 101.411 129.431 101.237 129.208 100.903C128.984 100.568 128.923 100.207 129.082 100.12C129.24 100.033 129.55 100.224 129.776 100.541Z" fill="#263238"/>
<path d="M130.957 104.487C131.392 104.403 131.785 104.183 132.077 103.861C132.369 103.539 132.542 103.133 132.57 102.705" stroke="#263238" stroke-linecap="round" stroke-linejoin="round"/>
<path d="M128.189 99.8064C128.189 99.8064 128.34 98.9886 129.341 99.361" stroke="#263238" stroke-linecap="round" stroke-linejoin="round"/>
<path d="M137.812 108.461C137.812 108.461 137.092 114.262 137.902 116.02C138.712 117.777 141.631 124.807 141.631 124.807C141.631 124.807 140.994 129.108 142.812 130.256C144.63 131.405 151.538 131.575 154.177 129.992C156.816 128.409 157.903 127.18 157.903 126.039C157.903 124.897 156.175 119.886 153.45 114.878C151.454 111.211 148.7 107.979 145.357 105.385C143.449 103.892 142.722 103.189 142.358 103.189C141.995 103.189 137.632 106.794 137.812 108.461Z" fill="white" stroke="#263238" stroke-linecap="round" stroke-linejoin="round"/>
<path d="M141.631 102.047L136.721 107.407L137.722 110.309L143.266 103.366L141.631 102.047Z" fill="white" stroke="#263238" stroke-linecap="round" stroke-linejoin="round"/>
<path d="M141.721 121.643C141.721 121.643 131.72 127.18 130.45 127.622C129.179 128.064 125.086 128.06 123.901 127.97C123.756 127.945 123.607 127.951 123.464 127.988C123.322 128.025 123.189 128.092 123.077 128.184C122.964 128.276 122.874 128.391 122.812 128.521C122.75 128.65 122.719 128.791 122.72 128.934L122.54 132.275C122.54 132.275 123.538 132.539 123.98 132.275C124.423 132.01 124.888 131.043 124.888 131.043C124.888 131.043 126.526 131.22 127.069 130.869C127.426 130.634 127.761 130.37 128.07 130.079C129.75 129.944 131.42 129.712 133.07 129.383C134.888 128.941 143.251 126.307 144.526 126.042C145.8 125.778 146.254 125.075 146.344 124.65C146.434 124.225 141.721 121.643 141.721 121.643Z" fill="white" stroke="#263238" stroke-linecap="round" stroke-linejoin="round"/>
<path d="M130.32 127.657C128.93 128.057 125.05 128.057 123.901 127.973C123.756 127.948 123.607 127.955 123.464 127.992C123.322 128.029 123.189 128.095 123.077 128.187C122.964 128.279 122.874 128.394 122.812 128.524C122.75 128.654 122.719 128.795 122.72 128.937L122.54 132.278C122.54 132.278 123.538 132.543 123.98 132.278C124.423 132.014 124.888 131.046 124.888 131.046C124.888 131.046 126.526 131.224 127.069 130.872C127.426 130.638 127.761 130.373 128.07 130.082C128.07 130.082 129.596 129.954 131.141 129.734L130.32 127.657Z" fill="#7E57C2" stroke="#263238" stroke-linecap="round" stroke-linejoin="round"/>
<path d="M142.448 108.552C142.448 108.552 140.904 110.219 141.084 111.45C141.264 112.682 141.721 121.643 141.721 121.643L146.902 123.665L148.342 116.549C148.342 116.549 149.526 114.701 149.342 112.943" fill="white"/>
<path d="M142.448 108.552C142.448 108.552 140.904 110.219 141.084 111.45C141.264 112.682 141.721 121.643 141.721 121.643L146.902 123.665L148.342 116.549C148.342 116.549 149.526 114.701 149.342 112.943" stroke="#263238" stroke-linecap="round" stroke-linejoin="round"/>
<path d="M141.268 122.085L146.538 125.158C146.538 125.158 147.258 125.158 147.359 124.017C147.46 122.875 147.992 122.698 147.539 122.085C147.085 121.473 142.265 119.534 141.811 119.534C141.358 119.534 140.904 120.589 141.268 122.085Z" fill="white" stroke="#263238" stroke-linecap="round" stroke-linejoin="round"/>
<path d="M162.54 146.953C162.54 146.953 165.265 144.671 165.722 144.758C166.18 144.845 169.812 148.185 169.812 148.185C169.812 148.185 173.174 149.943 173.174 150.207C173.174 150.472 172.631 150.555 172.631 150.555L162.911 150.207L162.54 146.953Z" fill="white" stroke="#263238" stroke-linecap="round" stroke-linejoin="round"/>
<path d="M173.16 150.207C173.16 149.943 169.798 148.185 169.798 148.185C169.798 148.185 166.162 144.844 165.708 144.757C165.546 144.726 165.092 144.998 164.581 145.36L168.98 148.359L172.184 150.541L172.616 150.559C172.616 150.559 173.16 150.468 173.16 150.207Z" fill="white" stroke="#263238" stroke-linecap="round" stroke-linejoin="round"/>
<path d="M142.265 135.97L141.358 132.278" stroke="#999999" stroke-linecap="round" stroke-linejoin="round"/>
<path d="M110.635 121.341C109.555 120.749 107.968 119.949 107.968 119.949C107.968 119.949 105.829 114.729 104.152 112.293C102.474 109.857 101.48 109.561 99.6481 109.415C97.8157 109.268 92.3257 110.667 92.0881 111.036C92.0881 111.036 86.9761 113.323 85.6801 114.948C84.3841 116.573 84.8377 129.181 84.8377 129.181C84.8377 129.181 79.3513 132.772 77.9041 136.764C76.9825 139.294 78.0553 143.473 83.0161 144.73C84.6711 145.158 86.4084 145.195 88.0813 144.838C89.3701 145.888 90.7973 146.77 92.3257 147.458C97.4377 149.817 100.793 150.259 103.921 150.409C107.05 150.559 110.254 149.598 110.866 149.017C111.478 148.436 112.698 146.139 109.57 142.823C106.873 139.959 98.7373 136.771 96.5413 135.946C96.7597 134.707 96.88 133.455 96.9013 132.198C96.9013 132.198 101.632 126.978 101.941 125.781C102.251 124.584 103.021 119.733 103.021 119.733C103.021 119.733 105.617 124.309 106.38 124.97C107.143 125.631 111.568 125.12 112.025 125.12C112.482 125.12 112.712 123.202 112.712 123.202C112.132 122.474 111.43 121.845 110.635 121.341Z" fill="white" stroke="#263238" stroke-linecap="round" stroke-linejoin="round"/>
<path d="M109.57 142.805C106.873 139.941 98.7373 136.753 96.5413 135.929C96.6097 135.542 96.6673 135.167 96.7105 134.812C94.6576 135.25 92.5261 135.208 90.4933 134.69C84.6937 133.214 83.4733 130.19 83.4733 130.19H83.4301C81.6985 131.547 78.8797 134.063 77.9041 136.753C76.9825 139.283 78.0553 143.463 83.0161 144.719C84.6711 145.147 86.4084 145.184 88.0813 144.827C89.3701 145.878 90.7973 146.759 92.3257 147.448C97.4377 149.807 100.793 150.249 103.921 150.399C107.05 150.548 110.254 149.588 110.866 149.007C111.478 148.425 112.698 146.122 109.57 142.805Z" fill="#696969" stroke="#263238" stroke-linecap="round" stroke-linejoin="round"/>
<path d="M80.9532 137.272C80.9532 137.272 83.7 134.025 87.2892 135.355C99.828 140 103.007 145.165 103.849 147.228C104.692 149.292 104.382 150.402 103.698 150.844C103.014 151.286 95.8392 149.664 92.4048 148.485C88.9704 147.305 84.3912 147.893 80.4996 144.723C76.608 141.552 77.22 138.459 78.4404 135.797" fill="#696969"/>
<path d="M80.9532 137.272C80.9532 137.272 83.7 134.025 87.2892 135.355C99.828 140 103.007 145.165 103.849 147.228C104.692 149.292 104.382 150.402 103.698 150.844C103.014 151.286 95.8392 149.664 92.4048 148.485C88.9704 147.305 84.3912 147.893 80.4996 144.723C76.608 141.552 77.22 138.459 78.4404 135.797" stroke="#263238" stroke-linecap="round" stroke-linejoin="round"/>
<path d="M112.698 123.192C112.121 122.471 111.424 121.848 110.635 121.348C109.555 120.756 107.968 119.956 107.968 119.956C107.968 119.956 107.352 118.452 106.528 116.681C105.602 117.426 104.087 118.856 103.504 120.592C104.296 121.95 105.815 124.49 106.384 124.97C107.143 125.635 111.571 125.12 112.028 125.12C112.486 125.12 112.698 123.192 112.698 123.192Z" fill="white" stroke="#263238" stroke-linecap="round" stroke-linejoin="round"/>
<path d="M103.006 119.715L102.931 115.734" stroke="#263238" stroke-linecap="round" stroke-linejoin="round"/>
<path d="M115.175 129.731C114.318 130.028 113.495 130.41 112.72 130.872C112 131.398 111.902 131.84 111.902 132.63C111.902 133.42 110.264 134.474 111.085 134.474C111.906 134.474 112.525 134.21 113.267 132.894C114.008 131.579 114.901 131.189 114.901 131.189C114.958 131.825 115.078 132.455 115.261 133.068C115.515 133.592 115.549 134.191 115.355 134.739C115.171 135.435 116.075 135.268 116.352 133.347C116.499 132.121 116.311 130.879 115.808 129.745L115.175 129.731Z" fill="white" stroke="#263238" stroke-linecap="round" stroke-linejoin="round"/>
<path d="M114.995 127.615C114.995 127.615 115.265 129.098 115.175 129.435C115.085 129.773 113.81 130.716 113.357 131.523C113.175 131.852 113.066 132.213 113.035 132.584C113.004 132.955 113.052 133.328 113.177 133.681C113.357 134.22 113.897 135.971 114.174 135.501C114.451 135.031 114.534 134.488 114.534 133.479C114.534 132.47 114.354 131.589 114.894 131.186L115.441 130.782C115.705 131.371 115.918 131.979 116.078 132.602C116.438 133.883 115.805 134.961 115.985 135.163C116.165 135.365 116.896 135.229 116.986 134.69C117.076 134.151 117.439 133.545 117.439 132.466C117.433 131.808 117.23 131.166 116.852 130.618C116.682 130.164 116.545 129.699 116.442 129.226C116.28 128.412 115.722 126.874 114.995 127.615Z" fill="white" stroke="#263238" stroke-linecap="round" stroke-linejoin="round"/>
<path d="M117.81 125.249C118.205 125.894 118.566 126.558 118.89 127.239C119.117 127.831 119.272 128.495 118.89 128.631C118.508 128.767 118.202 127.747 117.972 127.305C117.742 126.863 116.971 124.953 117.81 125.249Z" fill="#7E57C2" stroke="#263238" stroke-linecap="round" stroke-linejoin="round"/>
<path d="M117.81 125.249C117.353 124.292 114.757 122.813 114.07 122.447C113.591 122.186 112.061 122.148 111.19 122.144C110.981 122.113 110.768 122.113 110.56 122.144C110.56 122.144 109.339 123.028 109.415 123.989C109.443 124.263 109.564 124.52 109.76 124.72C109.955 124.92 110.214 125.052 110.495 125.096H110.855C110.797 125.454 110.861 125.82 111.038 126.14C111.647 127.048 112.018 128.086 112.118 129.164C112.118 130.124 113.263 129.755 113.414 129.017C113.566 128.28 113.188 126.954 113.188 126.658C113.188 126.362 113.796 125.551 113.796 125.551C113.796 125.551 115.477 127.246 115.704 127.615C115.931 127.984 116.01 129.901 116.622 130.051C117.234 130.201 117.23 129.007 117.23 129.007C117.357 129.017 117.484 129.002 117.604 128.962C117.724 128.922 117.834 128.859 117.928 128.776C118.021 128.693 118.096 128.592 118.147 128.479C118.198 128.367 118.224 128.246 118.224 128.123C118.35 127.146 118.208 126.155 117.81 125.249Z" fill="#7E57C2" stroke="#263238" stroke-linecap="round" stroke-linejoin="round"/>
<path d="M116.132 125.471C116.132 125.471 117.274 126.133 117.274 126.797C117.274 127.462 117.198 129.01 117.198 129.01" stroke="#263238" stroke-linecap="round" stroke-linejoin="round"/>
<path d="M104.076 148.944C104.076 149.988 104.684 150.124 102.319 151.526C99.9541 152.929 96.3685 151.968 92.8585 151.23C89.3485 150.493 85.1509 149.901 83.5489 149.901C81.9469 149.901 78.1201 150.475 76.6801 150.475C75.2401 150.475 72.8677 150.329 73.1737 149.591C73.4797 148.854 77.3677 147.67 77.6737 147.378C77.9797 147.086 77.9041 146.491 78.6673 145.384C78.8399 145.081 79.1193 144.847 79.4549 144.726C79.7904 144.604 80.1598 144.603 80.4961 144.723C81.8439 145.916 83.5185 146.71 85.3201 147.009C88.2001 147.451 93.4813 147.67 95.5441 147.67C97.6069 147.67 100.199 148.558 100.426 148.558" fill="#696969"/>
<path d="M104.076 148.944C104.076 149.988 104.684 150.124 102.319 151.526C99.9541 152.929 96.3685 151.968 92.8585 151.23C89.3485 150.493 85.1509 149.901 83.5489 149.901C81.9469 149.901 78.1201 150.475 76.6801 150.475C75.2401 150.475 72.8677 150.329 73.1737 149.591C73.4797 148.854 77.3677 147.67 77.6737 147.378C77.9797 147.086 77.9041 146.491 78.6673 145.384C78.8399 145.081 79.1193 144.847 79.4549 144.726C79.7904 144.604 80.1598 144.603 80.4961 144.723C81.8439 145.916 83.5185 146.71 85.3201 147.009C88.2001 147.451 93.4813 147.67 95.5441 147.67C97.6069 147.67 100.199 148.558 100.426 148.558" stroke="#263238" stroke-linecap="round" stroke-linejoin="round"/>
<path d="M85.3199 147.009C83.5234 146.708 81.8542 145.914 80.5103 144.723C80.174 144.603 79.8046 144.604 79.4691 144.726C79.1336 144.847 78.8541 145.081 78.6815 145.384C77.9183 146.491 77.9939 147.082 77.6879 147.378C77.3819 147.674 73.4903 148.854 73.1879 149.591C72.8855 150.329 75.2399 150.475 76.6799 150.475C78.1199 150.475 81.9467 149.884 83.5487 149.884C84.381 149.906 85.2114 149.972 86.0363 150.082C86.0363 150.016 86.0075 149.95 85.9895 149.884C85.7663 148.965 86.4071 147.764 86.7635 147.194C86.2343 147.138 85.7411 147.075 85.3199 147.009Z" fill="white" stroke="#263238" stroke-linecap="round" stroke-linejoin="round"/>
<path d="M80.496 144.723C80.1598 144.603 79.7903 144.604 79.4548 144.726C79.1193 144.847 78.8398 145.081 78.6672 145.384C77.904 146.491 77.9796 147.082 77.6736 147.378C77.3676 147.674 73.476 148.854 73.1736 149.591C73.062 149.852 73.2924 150.037 73.6956 150.169C74.592 149.24 77.4396 148.467 78.2352 147.907C79.0308 147.347 78.4368 147.155 79.2756 146.049C79.4845 145.79 79.7446 145.575 80.0407 145.414C80.3367 145.254 80.6629 145.153 81 145.116C80.6688 144.886 80.496 144.723 80.496 144.723Z" stroke="#263238" stroke-linecap="round" stroke-linejoin="round"/>
<path d="M87.516 113.448C87.516 113.448 84.3876 114.628 83.7792 117.06C83.1708 119.493 84.312 134.617 84.312 134.986C84.312 135.355 86.3712 135.723 89.5788 136.03C92.7864 136.336 98.7336 136.399 98.7336 136.399C98.7336 136.399 101.329 137.502 101.862 137.502C102.395 137.502 103.54 136.841 103.54 136.841C103.54 136.841 103.388 137.502 103.997 137.356C104.605 137.209 106.668 135.584 106.668 135.292C106.668 135 105.296 133.594 104.458 133.448C103.619 133.301 99.8784 134.7 99.4968 134.7C99.1152 134.7 92.4768 133.308 91.2564 132.783C90.2859 132.402 89.2915 132.082 88.2792 131.822L88.8156 119.065" fill="white"/>
<path d="M87.516 113.448C87.516 113.448 84.3876 114.628 83.7792 117.06C83.1708 119.493 84.312 134.617 84.312 134.986C84.312 135.355 86.3712 135.723 89.5788 136.03C92.7864 136.336 98.7336 136.399 98.7336 136.399C98.7336 136.399 101.329 137.502 101.862 137.502C102.395 137.502 103.54 136.841 103.54 136.841C103.54 136.841 103.388 137.502 103.997 137.356C104.605 137.209 106.668 135.584 106.668 135.292C106.668 135 105.296 133.594 104.458 133.448C103.619 133.301 99.8784 134.7 99.4968 134.7C99.1152 134.7 92.4768 133.308 91.2564 132.783C90.2859 132.402 89.2915 132.082 88.2792 131.822L88.8156 119.065" stroke="#263238" stroke-linecap="round" stroke-linejoin="round"/>
<path d="M104.458 133.437C103.615 133.287 99.8784 134.69 99.4968 134.69C99.1152 134.69 92.4768 133.298 91.2564 132.772C90.2859 132.392 89.2915 132.071 88.2792 131.812L88.5708 124.821L83.7144 124.64C83.9196 129.473 84.312 134.77 84.312 134.986C84.312 135.355 86.3712 135.723 89.5788 136.03C92.7864 136.336 98.7336 136.399 98.7336 136.399C98.7336 136.399 101.329 137.502 101.862 137.502C102.395 137.502 103.54 136.841 103.54 136.841C103.54 136.841 103.388 137.502 103.997 137.356C104.605 137.209 106.668 135.584 106.668 135.292C106.668 135 105.296 133.583 104.458 133.437Z" fill="white" stroke="#263238" stroke-linecap="round" stroke-linejoin="round"/>
<path d="M106.668 135.281C106.668 134.986 105.296 133.583 104.458 133.437C103.619 133.291 99.8784 134.69 99.4968 134.69C99.378 134.69 98.6508 134.554 97.668 134.342C97.308 134.69 96.966 135.288 97.0812 136.346L98.7336 136.378C98.7336 136.378 101.329 137.481 101.862 137.481C102.395 137.481 103.54 136.82 103.54 136.82C103.54 136.82 103.388 137.481 103.997 137.335C104.605 137.189 106.668 135.574 106.668 135.281Z" fill="#7E57C2" stroke="#263238" stroke-linecap="round" stroke-linejoin="round"/>
<path d="M90.0361 98.9885C90.0361 98.9885 87.1345 96.7787 85.9897 97.5165C84.8449 98.2542 80.0389 104.153 79.5817 105.775C79.1245 107.396 81.6409 107.769 80.7265 109.094C79.8121 110.42 78.0553 110.939 78.7429 112.574C79.4305 114.21 82.1773 114.346 82.7857 114.715C83.3941 115.084 84.3877 116.486 86.6017 115.894C88.8157 115.303 88.3549 112.574 90.0361 112.206C91.7173 111.837 91.5625 109.627 90.7993 107.856C90.0361 106.084 89.5789 103.652 90.4933 102.545C91.4077 101.438 90.0361 98.9885 90.0361 98.9885Z" fill="#263238" stroke="#263238" stroke-linecap="round" stroke-linejoin="round"/>
<path d="M91.728 97.4713C91.728 97.4713 89.388 97.6 88.2828 100.426C87.1776 103.252 88.2829 107.462 88.6069 108.155C88.9309 108.847 90.6228 109.547 91.6632 108.969C92.7036 108.392 94.1328 106.206 95.1696 105.639C96.2064 105.072 98.2908 102.688 98.2908 102.688L99.7848 104.508C99.7848 104.508 100.76 104.383 101.149 102.563C101.538 100.742 100.112 98.7937 97.7724 97.6627C95.4324 96.5317 92.898 96.5943 91.728 97.4713Z" fill="#263238" stroke="#263238" stroke-linecap="round" stroke-linejoin="round"/>
<path d="M91.4076 110.201C91.4076 110.201 91.4832 112.414 92.0196 113.375C92.556 114.335 93.9276 118.595 95.6808 118.758C97.434 118.922 97.3584 112.783 97.3584 112.783C97.3584 112.783 95.2992 112.856 94.0788 111.604C92.8584 110.351 91.5624 109.62 91.4076 110.201Z" stroke="#263238" stroke-linecap="round" stroke-linejoin="round"/>
<path d="M98.55 100.864C98.55 100.864 95.8212 103.944 93.6756 105.263C91.53 106.582 90.558 106.77 90.558 106.77C90.558 106.77 91.4004 106.645 90.8172 107.212C90.234 107.779 90.0972 107.908 89.7768 107.4C89.4564 106.892 88.1532 106.394 87.8904 107.65C87.7787 108.175 87.8619 108.72 88.1253 109.191C88.3886 109.662 88.8154 110.029 89.3304 110.225C89.8849 110.451 90.5007 110.495 91.0836 110.351C91.0836 110.351 91.278 112.487 93.8772 113.744C96.4764 115 98.8848 113.243 99.5976 111.924C100.31 110.605 100.055 104.637 99.9216 103.631C99.7884 102.625 98.55 100.864 98.55 100.864Z" fill="white" stroke="#263238" stroke-linecap="round" stroke-linejoin="round"/>
<path d="M97.8948 106.808C97.8948 106.808 97.74 107.988 97.9704 108.061C98.2008 108.134 99.0504 108.43 98.7336 108.875C98.4168 109.321 97.9704 109.613 97.4376 109.39" stroke="#263238" stroke-linecap="round" stroke-linejoin="round"/>
<path d="M94.4604 110.424C94.4604 110.424 95.0724 111.381 97.4376 110.866" stroke="#263238" stroke-linecap="round" stroke-linejoin="round"/>
<path d="M95.8356 107.288C95.8356 107.636 95.6628 107.915 95.454 107.915C95.2452 107.915 95.0724 107.633 95.0724 107.288C95.0724 106.944 95.2416 106.662 95.454 106.662C95.6664 106.662 95.8356 106.94 95.8356 107.288Z" fill="#263238"/>
<path d="M99.1152 106.919C99.1152 107.267 98.946 107.546 98.7336 107.546C98.5212 107.546 98.3521 107.264 98.3521 106.919C98.3521 106.575 98.5212 106.293 98.7336 106.293C98.946 106.293 99.1152 106.571 99.1152 106.919Z" fill="#263238"/>
<path d="M94.3201 106.14C94.5283 105.893 94.7992 105.702 95.1065 105.586C95.4137 105.47 95.7468 105.433 96.0733 105.479" stroke="#263238" stroke-linecap="round" stroke-linejoin="round"/>
<path d="M97.9705 105.406C97.9705 105.406 98.4277 104.449 99.4105 105.113" stroke="#263238" stroke-linecap="round" stroke-linejoin="round"/>
<path d="M123.358 131.311C123.358 131.311 115.992 133.597 113.998 134.3C112.003 135.003 105.451 135.09 104.998 135.793C104.544 136.496 101.282 140.47 100.645 142.753C100.008 145.036 100.854 151.22 101.462 151.606C103.907 153.169 110.336 152.688 113.058 152.588C118.037 152.41 122.857 154.147 125.658 149.247C126.565 147.663 125.255 142.12 125.075 140.275C124.895 138.431 124.254 135.355 124.164 134.913C124.074 134.471 124.722 131.662 123.358 131.311Z" fill="white" stroke="#263238" stroke-linecap="round" stroke-linejoin="round"/>
<path d="M114.145 140.244C118.04 138.915 121.363 135.024 122.396 134.37C123.43 133.715 123.995 132.282 123.995 132.282C122.363 133.345 120.592 134.192 118.728 134.801" stroke="#263238" stroke-linecap="round" stroke-linejoin="round"/>
<path d="M123.887 132.915C123.15 135.114 121.849 137.095 120.103 138.674" stroke="#263238" stroke-linecap="round" stroke-linejoin="round"/>
<path d="M106.466 136.016C106.466 136.016 107.611 136.569 111.506 136.569" stroke="#263238" stroke-linecap="round" stroke-linejoin="round"/>
<path d="M106.006 136.127C106.006 136.127 106.924 140.004 112.082 141.556" stroke="#263238" stroke-linecap="round" stroke-linejoin="round"/>
<path d="M105.091 137.46C105.873 138.794 106.925 139.962 108.184 140.895" stroke="#263238" stroke-linecap="round" stroke-linejoin="round"/>
<path d="M32.7384 118.936C32.7384 118.936 34.7724 124.542 34.7724 126.804C34.7724 129.066 36.3996 141.458 36.6012 142.837C36.7362 143.692 37.0121 144.522 37.4184 145.293C38.808 146.535 40.3863 147.563 42.0984 148.342C45.0468 149.734 44.946 149.327 44.4384 149.915C43.9308 150.503 39.2472 150.611 37.1124 150.409C34.9776 150.207 32.8392 150.9 32.7384 150.016C32.6376 149.132 32.634 145.589 32.634 144.016C32.634 142.443 28.3608 134.676 27.8532 132.212C27.3456 129.748 27.5472 125.92 27.5472 125.92L25.0056 120.004L32.7384 118.936Z" fill="white" stroke="#263238" stroke-linecap="round" stroke-linejoin="round"/>
<path d="M36.72 146.278V147.67L32.6592 146.915C32.6592 148.245 32.6952 149.543 32.7528 150.047C32.8536 150.931 34.9884 150.242 37.1268 150.44C39.2652 150.639 43.9416 150.538 44.4528 149.946C44.964 149.355 45.0612 149.751 42.1128 148.373C40.4016 147.593 38.8235 146.565 37.4328 145.325C37.4328 145.325 36.72 145.391 36.72 146.278Z" fill="#263238" stroke="#263238" stroke-linecap="round" stroke-linejoin="round"/>
<path d="M24.3936 119.528C24.3936 119.528 24.6888 125.691 23.6736 128.182C18.5868 140.769 18.3852 145.492 18.3852 145.492C18.3852 145.492 23.4792 149.226 24.5988 149.64C25.7184 150.054 26.3268 150.228 25.614 150.719C24.9012 151.209 18.4932 151.112 17.3736 151.112C16.254 151.112 13.5072 150.326 13.2048 149.835C12.9024 149.344 13.9248 145.408 13.9248 145.408C13.9248 145.408 14.436 135.574 14.436 133.312C14.436 131.05 16.9776 126.627 16.9776 125.837C16.9776 125.047 16.47 119.152 16.47 119.152C16.47 119.152 22.5648 120.61 24.3936 119.528Z" fill="white" stroke="#263238" stroke-linecap="round" stroke-linejoin="round"/>
<path d="M25.614 150.701C26.334 150.211 25.7184 150.005 24.5988 149.623C23.4792 149.24 18.3924 145.492 18.3924 145.492C18.3924 145.492 17.8848 145.687 17.8848 146.473C17.9077 146.887 17.8011 147.298 17.5788 147.653C17.5788 147.653 15.9516 147.361 14.0184 146.957C13.8564 146.926 13.7088 146.894 13.5648 146.859C13.302 148.032 13.0248 149.522 13.2048 149.811C13.5072 150.301 16.254 151.088 17.3736 151.088C18.4932 151.088 24.9048 151.196 25.614 150.701Z" fill="#263238" stroke="#263238" stroke-linecap="round" stroke-linejoin="round"/>
<path d="M32.8392 89.9232L36.6012 95.2337L52.1676 93.0726V95.9227C52.1676 95.9227 36.72 100.054 36.0936 99.5628C35.4672 99.0721 30.294 96.7092 30.294 96.7092L32.8392 89.9232Z" fill="#B5B5B5" stroke="#263238" stroke-linecap="round" stroke-linejoin="round"/>
<path d="M18.9 82.9423C18.9 82.9423 17.7804 89.2376 17.7804 91.7919V100.84C17.7804 100.84 14.5404 105.858 14.0184 110.281C13.4964 114.704 13.4064 119.625 13.4064 119.625C13.4064 119.625 18.2916 121.692 22.2588 121.396C24.6194 121.222 26.9649 120.892 29.2788 120.408L34.8732 119.131L30.7008 100.84C30.7008 100.84 32.7384 95.6199 33.0408 95.3346C33.3432 95.0492 34.4808 91.5066 34.0596 88.8409C33.6384 86.1752 32.1264 80.6803 28.9728 79.2048C25.8192 77.7293 20.3256 79.5006 18.9 82.9423Z" fill="#5E5E5E" stroke="#263238" stroke-linecap="round" stroke-linejoin="round"/>
<path d="M23.5368 100.92C23.3162 102.524 22.6183 104.032 21.528 105.26C19.728 107.268 18.2448 107.654 18.2448 107.654C18.2448 107.654 17.3736 115.828 17.7084 119.016" stroke="#263238" stroke-linecap="round" stroke-linejoin="round"/>
<path d="M24.48 101.191C24.2993 102.699 23.7967 104.154 23.004 105.465C21.7296 107.473 19.044 108.186 19.044 108.186" stroke="#263238" stroke-linecap="round" stroke-linejoin="round"/>
<path d="M30.8052 82.2532C30.2724 80.4958 28.728 79.337 27.972 78.8602C25.6212 78.2999 22.5252 79.0934 20.538 80.7812C20.502 80.99 20.4768 81.1779 20.4264 81.3693C20.3256 81.7625 18.7992 90.3164 18.7992 90.3164C18.7992 90.3164 19.1592 90.386 19.7208 90.4834C19.1592 93.25 19.7892 97.8645 19.7892 97.8645C19.7892 97.8645 22.7952 98.8006 25.1208 98.7067C27.4464 98.6127 30.1608 97.3147 30.1608 97.3147C30.1608 96.5247 30.8412 92.561 31.1616 90.7375H31.3128C31.3128 90.7375 31.5144 84.6127 30.8052 82.2532Z" fill="white" stroke="#263238" stroke-linecap="round" stroke-linejoin="round"/>
<path d="M26.5752 89.8083C26.5752 89.8083 22.9752 93.2884 21.1464 93.8347L26.5752 89.8083Z" fill="white"/>
<path d="M26.5752 89.8083C26.5752 89.8083 22.9752 93.2884 21.1464 93.8347" stroke="#263238" stroke-linecap="round" stroke-linejoin="round"/>
<path d="M26.5752 91.5867C26.5752 91.5867 24.5376 93.3684 22.8924 94.6804L26.5752 91.5867Z" fill="white"/>
<path d="M26.5752 91.5867C26.5752 91.5867 24.5376 93.3684 22.8924 94.6804" stroke="#263238" stroke-linecap="round" stroke-linejoin="round"/>
<path d="M34.416 117.126C32.6156 118.055 30.6066 118.541 28.566 118.543C28.566 118.543 25.5132 119.823 20.7324 119.625C18.1818 119.491 15.6984 118.786 13.4784 117.565C13.4244 118.818 13.4064 119.625 13.4064 119.625C13.4064 119.625 18.2916 121.692 22.2588 121.396C24.6194 121.222 26.9649 120.892 29.2788 120.408L34.8732 119.131L34.416 117.126Z" fill="white" stroke="#263238" stroke-linecap="round" stroke-linejoin="round"/>
<path d="M28.6668 120.61L28.872 109.888" stroke="#263238" stroke-linecap="round" stroke-linejoin="round"/>
<path d="M38.7396 69.2729V71.8272C38.7396 71.8272 40.0608 72.812 39.2472 73.5011C38.9202 73.8197 38.5421 74.0852 38.1276 74.2875C38.1276 74.2875 37.62 76.5495 36.5004 77.6318C35.3808 78.7141 34.7724 78.5157 33.1452 77.4335C31.518 76.3512 30.4992 75.6656 30.4992 75.6656C30.4992 75.6656 31.5144 70.8458 32.2272 69.2729C32.94 67.6999 35.1792 67.5015 36.2988 67.6964C37.4184 67.8913 38.7396 69.2729 38.7396 69.2729Z" fill="white" stroke="#263238" stroke-linecap="round" stroke-linejoin="round"/>
<path d="M37.6271 71.6358C37.6271 71.9316 37.4903 72.1718 37.3247 72.1718C37.1591 72.1718 37.0223 71.9316 37.0223 71.6358C37.0223 71.34 37.1555 71.0964 37.3247 71.0964C37.4939 71.0964 37.6271 71.34 37.6271 71.6358Z" fill="#263238"/>
<path d="M36.666 70.3656C36.666 70.3656 37.224 69.4886 37.98 70.2194" stroke="#263238" stroke-linecap="round" stroke-linejoin="round"/>
<path d="M35.91 74.472C36.2444 74.8009 36.6969 74.9928 37.1736 75.008" stroke="#263238" stroke-linecap="round" stroke-linejoin="round"/>
<path d="M34.2 68.4446C34.2 68.4446 32.0616 73.4001 32.1696 75.7769C32.2776 78.1538 35.0496 84.9711 33.8796 87.2435C32.7096 89.516 30.24 91.1759 28.44 88.4824C26.64 85.7889 25.9812 84.9711 24.8076 86.6206C23.634 88.2701 22.2444 91.2699 19.5732 91.2699C16.902 91.2699 13.68 87.863 15.282 84.2472C16.884 80.6315 20.52 79.0829 22.7628 75.5716C24.4095 73.0765 25.5687 70.3105 26.1828 67.411L34.4088 67.7207L34.2 68.4446Z" fill="#263238" stroke="#263238" stroke-linecap="round" stroke-linejoin="round"/>
<path d="M25.9668 68.9597H38.79C38.79 68.9597 38.79 63.6909 37.71 62.8662C36.63 62.0414 28.2024 62.2467 27.2412 62.8662C26.28 63.4856 25.56 68.3402 25.9668 68.9597Z" fill="#380445" stroke="#263238" stroke-linecap="round" stroke-linejoin="round"/>
<path d="M34.6932 68.9039C34.6932 68.9039 37.6848 70.0384 40.356 70.0384C43.0272 70.0384 44.4168 68.9039 44.4168 68.9039H34.6932Z" fill="#7E57C2" stroke="#263238" stroke-linecap="round" stroke-linejoin="round"/>
<path d="M55.728 92.568C55.728 92.568 56.8476 92.3732 56.8476 93.1596C56.8476 93.9461 55.5264 93.8556 54.4068 93.4554C53.2872 93.0552 54.8136 92.7768 55.728 92.568Z" fill="#B5B5B5" stroke="#263238" stroke-linecap="round" stroke-linejoin="round"/>
<path d="M55.9332 93.5633C55.9332 93.5633 57.0528 93.365 57.0528 94.1549C57.0528 94.9449 55.728 94.8509 54.612 94.4472C53.496 94.0435 55.0188 93.7617 55.9332 93.5633Z" fill="#B5B5B5" stroke="#263238" stroke-linecap="round" stroke-linejoin="round"/>
<path d="M56.1384 94.5481C56.1384 94.5481 57.2544 94.3497 57.2544 95.1362C57.2544 95.9227 55.9332 95.8322 54.8136 95.432C53.694 95.0318 55.2204 94.7429 56.1384 94.5481Z" fill="#B5B5B5" stroke="#263238" stroke-linecap="round" stroke-linejoin="round"/>
<path d="M55.9368 95.5538C55.9368 95.5538 57.0564 95.3554 57.0564 96.1419C57.0564 96.9284 55.7316 96.8379 54.6156 96.4377C53.4996 96.0375 55.0224 95.7487 55.9368 95.5538Z" fill="#B5B5B5" stroke="#263238" stroke-linecap="round" stroke-linejoin="round"/>
<path d="M51.0479 93.5632C51.0479 93.5632 44.7407 106.937 44.7407 107.831C44.7407 108.726 44.7407 111.075 45.3527 112.453C45.9647 113.831 49.6259 116.385 51.2531 116.681C52.8803 116.977 59.7995 115.404 60.6131 115.205C61.4267 115.007 63.5651 109.502 63.4607 108.419C63.3563 107.337 60.7139 103.199 60.3071 102.521C59.9003 101.842 56.5451 97.4052 56.1383 96.6048C55.7315 95.8044 54.5075 93.7546 54.5075 93.7546L51.0479 93.5632Z" fill="white" stroke="#263238" stroke-linecap="round" stroke-linejoin="round"/>
<path d="M52.1676 95.9227L51.354 101.727" stroke="#263238" stroke-linecap="round" stroke-linejoin="round"/>
<path d="M53.5931 95.2336V102.907" stroke="#263238" stroke-linecap="round" stroke-linejoin="round"/>
<path d="M54.6119 94.4471L57.4595 103.102" stroke="#263238" stroke-linecap="round" stroke-linejoin="round"/>
<path d="M34.56 94.3497C34.56 94.3497 29.5776 82.1697 28.2528 81.5642C26.928 80.9587 22.9716 81.0839 23.3784 85.6079C23.7852 90.1319 31.6188 99.5732 32.634 99.6706C33.6492 99.7681 49.626 94.6559 49.626 94.6559C49.626 94.6559 55.026 95.3519 55.4256 94.7534C55.8252 94.1548 55.9332 92.0007 55.9332 92.0007C55.9332 92.0007 56.6532 90.5252 55.9332 90.0345C55.2132 89.5438 51.9732 89.8361 51.4584 89.8361C50.9436 89.8361 48.5064 92.1956 48.5064 92.1956L34.56 94.3497Z" fill="white" stroke="#263238" stroke-linecap="round" stroke-linejoin="round"/>
<path d="M55.44 94.743C55.8468 94.1549 55.9476 91.9903 55.9476 91.9903C55.9476 91.9903 56.6676 90.5148 55.9476 90.0242C55.2276 89.5335 51.9876 89.8258 51.4728 89.8258C50.958 89.8258 48.5208 92.1852 48.5208 92.1852L45.8748 92.5959L46.3248 95.6965C48.2796 95.0806 49.6404 94.6525 49.6404 94.6525C49.6404 94.6525 55.0188 95.352 55.44 94.743Z" fill="#7E57C2" stroke="#263238" stroke-linecap="round" stroke-linejoin="round"/>
<path d="M57.2544 88.646L63.054 91.597L61.9344 93.5632L57.2544 88.646Z" fill="white" stroke="#263238" stroke-linecap="round" stroke-linejoin="round"/>
<path d="M52.4736 89.6308L53.2872 87.5637C53.2872 87.5637 53.8992 87.2679 56.1384 87.8595C58.3776 88.4511 62.748 94.4471 62.748 94.4471C62.748 94.4471 59.5944 96.6117 59.0868 96.7091C58.5792 96.8066 56.7468 91.4891 56.5452 91.0054C56.3839 90.6552 56.1783 90.3255 55.9332 90.0241L52.4736 89.6308Z" fill="white" stroke="#263238" stroke-linecap="round" stroke-linejoin="round"/>
<path d="M55.9332 90.0241L54.1332 88.8931" stroke="#263238" stroke-linecap="round" stroke-linejoin="round"/>
<path d="M67.9356 111.75H42.2748V150.621H67.9356V111.75Z" fill="#7E57C2" stroke="#263238" stroke-linecap="round" stroke-linejoin="round"/>
<path d="M67.8744 124.932H42.336C42.1546 124.932 41.9806 124.862 41.8523 124.738C41.724 124.614 41.652 124.446 41.652 124.271C41.652 124.095 41.724 123.927 41.8523 123.803C41.9806 123.679 42.1546 123.61 42.336 123.61H67.8744C68.0558 123.61 68.2298 123.679 68.358 123.803C68.4863 123.927 68.5584 124.095 68.5584 124.271C68.5584 124.446 68.4863 124.614 68.358 124.738C68.2298 124.862 68.0558 124.932 67.8744 124.932Z" fill="#7E57C2" stroke="#263238" stroke-linecap="round" stroke-linejoin="round"/>
<path d="M67.8744 112.334H42.336C42.1546 112.334 41.9806 112.265 41.8523 112.141C41.724 112.017 41.652 111.849 41.652 111.673C41.652 111.498 41.724 111.33 41.8523 111.206C41.9806 111.082 42.1546 111.012 42.336 111.012H67.8744C68.0558 111.012 68.2298 111.082 68.358 111.206C68.4863 111.33 68.5584 111.498 68.5584 111.673C68.5584 111.849 68.4863 112.017 68.358 112.141C68.2298 112.265 68.0558 112.334 67.8744 112.334Z" fill="#7E57C2" stroke="#263238" stroke-linecap="round" stroke-linejoin="round"/>
<path d="M67.8744 138.1H42.336C42.1546 138.1 41.9806 138.031 41.8523 137.907C41.724 137.783 41.652 137.614 41.652 137.439C41.652 137.264 41.724 137.095 41.8523 136.971C41.9806 136.847 42.1546 136.778 42.336 136.778H67.8744C68.0558 136.778 68.2298 136.847 68.358 136.971C68.4863 137.095 68.5584 137.264 68.5584 137.439C68.5584 137.614 68.4863 137.783 68.358 137.907C68.2298 138.031 68.0558 138.1 67.8744 138.1Z" fill="#7E57C2" stroke="#263238" stroke-linecap="round" stroke-linejoin="round"/>
</g>
<defs>
<clipPath id="clip0_227_1076">
<rect width="180" height="174" fill="white"/>
</clipPath>
</defs>
</svg>
