<svg width="170" height="124" viewBox="0 0 170 124" fill="none" xmlns="http://www.w3.org/2000/svg">
<path d="M120 106.001C120.002 107.785 119.699 109.553 119.106 111.209C117.408 115.95 113.462 119.408 108.745 119.931C108.335 119.977 107.92 120 107.5 120C104.404 120.004 101.419 118.717 99.1238 116.39C98.9514 116.217 98.7835 116.037 98.6199 115.852C96.3814 113.323 95 109.843 95 106.001C95 102.277 96.2983 98.8932 98.4156 96.3842C99.0518 95.6307 99.7602 94.958 100.528 94.3783C102.519 92.8759 104.919 92 107.5 92C109.899 92 112.14 92.7564 114.044 94.0703C114.314 94.2566 114.577 94.4539 114.833 94.6623C115.229 94.9838 115.608 95.3307 115.967 95.7014C118.337 98.1478 119.86 101.606 119.991 105.462C119.997 105.641 120 105.82 120 106.001Z" fill="#41788E"/>
<path d="M106.137 100.382C106.059 101.395 104.49 101.94 103.739 102.731C103.084 103.421 102.654 104.331 103.334 104.566C104.014 104.801 104.639 104.163 105.01 104.462C105.369 104.751 105.455 106.487 104.971 107.295C104.486 108.103 103.648 108.659 102.469 108.175C101.289 107.692 100.744 107.715 100.528 107.985C100.101 108.518 100.313 108.883 100.433 109.198C100.578 109.575 100.379 109.7 100.49 110.157C100.617 110.68 101.699 110.505 102.376 110.964C103.025 111.404 103.569 112.299 102.73 113.121C101.892 113.944 101.433 114.208 101.158 115.162C100.882 116.116 100.411 117.223 99.926 116.732C99.3145 116.113 100.11 115.396 100.201 114.559C100.292 113.723 100.237 113.034 99.4005 112.49C98.5641 111.946 98.3012 111.169 98.903 110.583C99.5049 109.997 99.6634 109.835 99.7292 108.866C99.795 107.897 99.6501 107.604 99.1267 107.399C98.6034 107.194 97.3065 106.012 96.9655 105.373C96.4752 104.455 96.2162 103.142 97.0886 102.497C97.961 101.853 99.0099 101.059 99.1402 100.002C99.2705 98.9441 99.4195 97.836 98.4156 97.4003C99.0518 96.6467 99.7602 95.974 100.528 95.3943H100.529C100.57 95.3979 101.493 95.4737 101.814 96.3635C102.141 97.2726 102.573 98.3441 103.517 98.8866C104.46 99.4291 106.216 99.3707 106.137 100.382ZM106.068 102.819C106.225 103.06 106.81 102.408 107.151 102.222C107.492 102.036 108.339 102.193 108.505 101.889C108.671 101.586 108.758 100.813 108.234 100.598C107.71 100.383 106.793 99.9719 106.732 100.598C106.671 101.224 106.872 101.283 106.539 101.733C106.207 102.183 105.858 102.496 106.068 102.819ZM120 107.015C120.002 108.799 119.699 110.568 119.106 112.224C118.652 111.689 118.178 111.382 117.877 111.32C117.256 111.194 116.987 112.123 116.802 112.542C116.618 112.962 116.208 113.014 116.165 112.593C116.121 112.172 116.785 110.656 116.313 110.538C115.841 110.419 115.85 111.496 115.518 112.162C115.187 112.828 114.225 113.121 113.613 113.276C113.002 113.432 112.67 113.649 112.352 114.666C112.034 115.684 111.273 116.33 110.924 115.645C110.574 114.96 111.15 113.942 111.326 112.821C111.501 111.701 111.028 111.183 111.448 110.361C111.868 109.539 112.287 107.877 111.274 106.82C110.261 105.763 109.998 104.961 110.102 104.1C110.206 103.239 113.159 102.653 114.61 104.1C116.06 105.548 117.474 105.373 118.47 105.627C119.466 105.881 119.99 106.478 119.99 106.478C119.997 106.656 120 106.835 120 107.015Z" fill="#F7A741"/>
<mask id="path-3-outside-1_807_263" maskUnits="userSpaceOnUse" x="5" y="17" width="160" height="71" fill="black">
<rect fill="white" x="5" y="17" width="160" height="71"/>
<path d="M18.3132 21.5455V87H6.45597V21.5455H18.3132ZM42.2115 58.2358V87H30.6419V37.9091H41.7001V46.2507H42.2754C43.4047 43.5021 45.2051 41.3182 47.6767 39.6989C50.1696 38.0795 53.2484 37.2699 56.9132 37.2699C60.301 37.2699 63.252 37.9943 65.7662 39.4432C68.3017 40.892 70.2619 42.9908 71.6468 45.7393C73.0531 48.4879 73.7456 51.8224 73.7243 55.7429V87H62.1547V57.5327C62.1547 54.2514 61.3024 51.6839 59.5978 49.8303C57.9146 47.9766 55.5815 47.0497 52.5985 47.0497C50.5744 47.0497 48.774 47.4972 47.1973 48.392C45.6419 49.2656 44.4167 50.5334 43.5218 52.1953C42.6483 53.8572 42.2115 55.8707 42.2115 58.2358ZM108.177 87H85.997V21.5455H108.625C115.123 21.5455 120.706 22.8558 125.372 25.4766C130.059 28.076 133.66 31.8153 136.175 36.6946C138.689 41.5739 139.946 47.4119 139.946 54.2088C139.946 61.027 138.678 66.8864 136.143 71.7869C133.628 76.6875 129.996 80.4482 125.244 83.0689C120.514 85.6896 114.825 87 108.177 87ZM97.8542 76.7408H107.602C112.162 76.7408 115.965 75.9098 119.012 74.2479C122.059 72.5646 124.349 70.0611 125.883 66.7372C127.417 63.392 128.184 59.2159 128.184 54.2088C128.184 49.2017 127.417 45.0469 125.883 41.7443C124.349 38.4205 122.08 35.9382 119.076 34.2976C116.093 32.6357 112.385 31.8047 107.954 31.8047H97.8542V76.7408ZM150.7 87V37.9091H162.27V87H150.7ZM156.517 30.9418C154.685 30.9418 153.108 30.3345 151.787 29.12C150.466 27.8842 149.806 26.4034 149.806 24.6776C149.806 22.9304 150.466 21.4496 151.787 20.2351C153.108 18.9993 154.685 18.3814 156.517 18.3814C158.371 18.3814 159.948 18.9993 161.247 20.2351C162.568 21.4496 163.229 22.9304 163.229 24.6776C163.229 26.4034 162.568 27.8842 161.247 29.12C159.948 30.3345 158.371 30.9418 156.517 30.9418Z"/>
</mask>
<path d="M18.3132 21.5455V87H6.45597V21.5455H18.3132ZM42.2115 58.2358V87H30.6419V37.9091H41.7001V46.2507H42.2754C43.4047 43.5021 45.2051 41.3182 47.6767 39.6989C50.1696 38.0795 53.2484 37.2699 56.9132 37.2699C60.301 37.2699 63.252 37.9943 65.7662 39.4432C68.3017 40.892 70.2619 42.9908 71.6468 45.7393C73.0531 48.4879 73.7456 51.8224 73.7243 55.7429V87H62.1547V57.5327C62.1547 54.2514 61.3024 51.6839 59.5978 49.8303C57.9146 47.9766 55.5815 47.0497 52.5985 47.0497C50.5744 47.0497 48.774 47.4972 47.1973 48.392C45.6419 49.2656 44.4167 50.5334 43.5218 52.1953C42.6483 53.8572 42.2115 55.8707 42.2115 58.2358ZM108.177 87H85.997V21.5455H108.625C115.123 21.5455 120.706 22.8558 125.372 25.4766C130.059 28.076 133.66 31.8153 136.175 36.6946C138.689 41.5739 139.946 47.4119 139.946 54.2088C139.946 61.027 138.678 66.8864 136.143 71.7869C133.628 76.6875 129.996 80.4482 125.244 83.0689C120.514 85.6896 114.825 87 108.177 87ZM97.8542 76.7408H107.602C112.162 76.7408 115.965 75.9098 119.012 74.2479C122.059 72.5646 124.349 70.0611 125.883 66.7372C127.417 63.392 128.184 59.2159 128.184 54.2088C128.184 49.2017 127.417 45.0469 125.883 41.7443C124.349 38.4205 122.08 35.9382 119.076 34.2976C116.093 32.6357 112.385 31.8047 107.954 31.8047H97.8542V76.7408ZM150.7 87V37.9091H162.27V87H150.7ZM156.517 30.9418C154.685 30.9418 153.108 30.3345 151.787 29.12C150.466 27.8842 149.806 26.4034 149.806 24.6776C149.806 22.9304 150.466 21.4496 151.787 20.2351C153.108 18.9993 154.685 18.3814 156.517 18.3814C158.371 18.3814 159.948 18.9993 161.247 20.2351C162.568 21.4496 163.229 22.9304 163.229 24.6776C163.229 26.4034 162.568 27.8842 161.247 29.12C159.948 30.3345 158.371 30.9418 156.517 30.9418Z" fill="white"/>
<path d="M18.3132 21.5455H19.3132V20.5455H18.3132V21.5455ZM18.3132 87V88H19.3132V87H18.3132ZM6.45597 87H5.45597V88H6.45597V87ZM6.45597 21.5455V20.5455H5.45597V21.5455H6.45597ZM17.3132 21.5455V87H19.3132V21.5455H17.3132ZM18.3132 86H6.45597V88H18.3132V86ZM7.45597 87V21.5455H5.45597V87H7.45597ZM6.45597 22.5455H18.3132V20.5455H6.45597V22.5455ZM42.2115 87V88H43.2115V87H42.2115ZM30.6419 87H29.6419V88H30.6419V87ZM30.6419 37.9091V36.9091H29.6419V37.9091H30.6419ZM41.7001 37.9091H42.7001V36.9091H41.7001V37.9091ZM41.7001 46.2507H40.7001V47.2507H41.7001V46.2507ZM42.2754 46.2507V47.2507H42.9456L43.2004 46.6307L42.2754 46.2507ZM47.6767 39.6989L47.1319 38.8602L47.1286 38.8624L47.6767 39.6989ZM65.7662 39.4432L65.2669 40.3096L65.27 40.3114L65.7662 39.4432ZM71.6468 45.7393L70.7538 46.1893L70.7566 46.1948L71.6468 45.7393ZM73.7243 55.7429L72.7243 55.7375V55.7429H73.7243ZM73.7243 87V88H74.7243V87H73.7243ZM62.1547 87H61.1547V88H62.1547V87ZM59.5978 49.8303L58.8575 50.5025L58.8617 50.5071L59.5978 49.8303ZM47.1973 48.392L47.687 49.2639L47.6909 49.2617L47.1973 48.392ZM43.5218 52.1953L42.6413 51.7212L42.6367 51.73L43.5218 52.1953ZM41.2115 58.2358V87H43.2115V58.2358H41.2115ZM42.2115 86H30.6419V88H42.2115V86ZM31.6419 87V37.9091H29.6419V87H31.6419ZM30.6419 38.9091H41.7001V36.9091H30.6419V38.9091ZM40.7001 37.9091V46.2507H42.7001V37.9091H40.7001ZM41.7001 47.2507H42.2754V45.2507H41.7001V47.2507ZM43.2004 46.6307C44.2534 44.0677 45.923 42.0434 48.2247 40.5353L47.1286 38.8624C44.4872 40.593 42.5559 42.9365 41.3504 45.8707L43.2004 46.6307ZM48.2214 40.5375C50.518 39.0457 53.3966 38.2699 56.9132 38.2699V36.2699C53.1002 36.2699 49.8211 37.1134 47.1319 38.8603L48.2214 40.5375ZM56.9132 38.2699C60.1553 38.2699 62.9283 38.9619 65.2669 40.3096L66.2655 38.5767C63.5756 37.0267 60.4466 36.2699 56.9132 36.2699V38.2699ZM65.27 40.3114C67.6256 41.6575 69.4522 43.6062 70.7538 46.1893L72.5399 45.2894C71.0716 42.3754 68.9777 40.1266 66.2623 38.5749L65.27 40.3114ZM70.7566 46.1948C72.0728 48.7675 72.7449 51.9351 72.7243 55.7375L74.7242 55.7483C74.7462 51.7098 74.0333 48.2084 72.5371 45.2839L70.7566 46.1948ZM72.7243 55.7429V87H74.7243V55.7429H72.7243ZM73.7243 86H62.1547V88H73.7243V86ZM63.1547 87V57.5327H61.1547V87H63.1547ZM63.1547 57.5327C63.1547 54.0788 62.2546 51.2421 60.3339 49.1534L58.8617 50.5071C60.3502 52.1258 61.1547 54.424 61.1547 57.5327H63.1547ZM60.3382 49.158C58.4292 47.0557 55.8047 46.0497 52.5985 46.0497V48.0497C55.3583 48.0497 57.4 48.8974 58.8575 50.5025L60.3382 49.158ZM52.5985 46.0497C50.4219 46.0497 48.4478 46.5324 46.7037 47.5224L47.6909 49.2617C49.1001 48.4619 50.7268 48.0497 52.5985 48.0497V46.0497ZM46.7076 47.5201C44.9771 48.4921 43.6207 49.9025 42.6414 51.7212L44.4023 52.6694C45.2128 51.1643 46.3067 50.0392 47.687 49.2639L46.7076 47.5201ZM42.6367 51.73C41.6706 53.5679 41.2115 55.7498 41.2115 58.2358H43.2115C43.2115 55.9917 43.6259 54.1465 44.407 52.6606L42.6367 51.73ZM85.997 87H84.997V88H85.997V87ZM85.997 21.5455V20.5455H84.997V21.5455H85.997ZM125.372 25.4766L124.882 26.3485L124.887 26.3511L125.372 25.4766ZM136.175 36.6946L135.286 37.1526V37.1527L136.175 36.6946ZM136.143 71.7869L135.254 71.3274L135.253 71.3305L136.143 71.7869ZM125.244 83.0689L124.761 82.1933L124.759 82.1942L125.244 83.0689ZM97.8542 76.7408H96.8542V77.7408H97.8542V76.7408ZM119.012 74.2479L119.491 75.1258L119.495 75.1232L119.012 74.2479ZM125.883 66.7372L126.791 67.1563L126.792 67.1541L125.883 66.7372ZM125.883 41.7443L124.975 42.1634L124.976 42.1656L125.883 41.7443ZM119.076 34.2976L118.589 35.1712L118.597 35.1752L119.076 34.2976ZM97.8542 31.8047V30.8047H96.8542V31.8047H97.8542ZM108.177 86H85.997V88H108.177V86ZM86.997 87V21.5455H84.997V87H86.997ZM85.997 22.5455H108.625V20.5455H85.997V22.5455ZM108.625 22.5455C114.988 22.5455 120.395 23.828 124.882 26.3485L125.862 24.6047C121.017 21.8837 115.258 20.5455 108.625 20.5455V22.5455ZM124.887 26.3511C129.397 28.8522 132.86 32.4446 135.286 37.1526L137.063 36.2366C134.461 31.1861 130.722 27.2997 125.857 24.602L124.887 26.3511ZM135.286 37.1527C137.711 41.8605 138.946 47.534 138.946 54.2088H140.946C140.946 47.2899 139.666 41.2873 137.063 36.2366L135.286 37.1527ZM138.946 54.2088C138.946 60.9041 137.701 66.5985 135.254 71.3274L137.031 72.2465C139.655 67.1742 140.946 61.1498 140.946 54.2088H138.946ZM135.253 71.3305C132.828 76.0568 129.336 79.6702 124.761 82.1933L125.727 83.9445C130.656 81.2261 134.429 77.3182 137.032 72.2434L135.253 71.3305ZM124.759 82.1942C120.208 84.7159 114.694 86 108.177 86V88C114.956 88 120.82 86.6633 125.729 83.9436L124.759 82.1942ZM97.8542 77.7408H107.602V75.7408H97.8542V77.7408ZM107.602 77.7408C112.278 77.7408 116.258 76.889 119.491 75.1258L118.533 73.37C115.672 74.9306 112.045 75.7408 107.602 75.7408V77.7408ZM119.495 75.1232C122.739 73.3314 125.173 70.6629 126.791 67.1563L124.975 66.3182C123.526 69.4593 121.379 71.7979 118.528 73.3726L119.495 75.1232ZM126.792 67.1541C128.404 63.6399 129.184 59.3108 129.184 54.2088H127.184C127.184 59.121 126.431 63.1442 124.974 66.3204L126.792 67.1541ZM129.184 54.2088C129.184 49.1075 128.404 44.7973 126.79 41.323L124.976 42.1656C126.431 45.2964 127.184 49.2959 127.184 54.2088H129.184ZM126.791 41.3253C125.174 37.8209 122.761 35.1708 119.555 33.4199L118.597 35.1752C121.399 36.7056 123.525 39.02 124.975 42.1634L126.791 41.3253ZM119.563 33.424C116.393 31.6581 112.506 30.8047 107.954 30.8047V32.8047C112.264 32.8047 115.793 33.6132 118.589 35.1712L119.563 33.424ZM107.954 30.8047H97.8542V32.8047H107.954V30.8047ZM96.8542 31.8047V76.7408H98.8542V31.8047H96.8542ZM150.7 87H149.7V88H150.7V87ZM150.7 37.9091V36.9091H149.7V37.9091H150.7ZM162.27 37.9091H163.27V36.9091H162.27V37.9091ZM162.27 87V88H163.27V87H162.27ZM151.787 29.12L151.104 29.8503L151.11 29.8562L151.787 29.12ZM151.787 20.2351L152.464 20.9713L152.47 20.9654L151.787 20.2351ZM161.247 20.2351L160.558 20.9598L160.564 20.9656L160.571 20.9712L161.247 20.2351ZM161.247 29.12L161.93 29.8507L161.93 29.8503L161.247 29.12ZM151.7 87V37.9091H149.7V87H151.7ZM150.7 38.9091H162.27V36.9091H150.7V38.9091ZM161.27 37.9091V87H163.27V37.9091H161.27ZM162.27 86H150.7V88H162.27V86ZM156.517 29.9418C154.93 29.9418 153.596 29.4248 152.464 28.3839L151.11 29.8562C152.62 31.2443 154.44 31.9418 156.517 31.9418V29.9418ZM152.47 28.3898C151.34 27.3328 150.806 26.112 150.806 24.6776H148.806C148.806 26.6948 149.592 28.4357 151.104 29.8503L152.47 28.3898ZM150.806 24.6776C150.806 23.2187 151.343 22.0022 152.464 20.9712L151.11 19.4989C149.59 20.897 148.806 22.6421 148.806 24.6776H150.806ZM152.47 20.9654C153.603 19.9053 154.935 19.3814 156.517 19.3814V17.3814C154.435 17.3814 152.613 18.0932 151.104 19.5048L152.47 20.9654ZM156.517 19.3814C158.124 19.3814 159.451 19.9072 160.558 20.9598L161.936 19.5104C160.444 18.0914 158.618 17.3814 156.517 17.3814V19.3814ZM160.571 20.9712C161.692 22.0022 162.229 23.2187 162.229 24.6776H164.229C164.229 22.6421 163.445 20.897 161.924 19.4989L160.571 20.9712ZM162.229 24.6776C162.229 26.112 161.694 27.3328 160.564 28.3898L161.93 29.8503C163.443 28.4357 164.229 26.6948 164.229 24.6776H162.229ZM160.565 28.3894C159.459 29.4229 158.129 29.9418 156.517 29.9418V31.9418C158.613 31.9418 160.437 31.2461 161.93 29.8507L160.565 28.3894Z" fill="#380445" mask="url(#path-3-outside-1_807_263)"/>
<mask id="path-5-outside-2_807_263" maskUnits="userSpaceOnUse" x="0" y="91" width="93" height="29" fill="black">
<rect fill="white" y="91" width="93" height="29"/>
<path d="M16.3441 99.543C16.2281 98.4575 15.7392 97.6123 14.8775 97.0075C14.024 96.4026 12.9137 96.1001 11.5465 96.1001C10.5853 96.1001 9.76089 96.2451 9.07315 96.5352C8.38542 96.8252 7.85926 97.2187 7.49467 97.7159C7.13009 98.2131 6.94366 98.7807 6.93537 99.4187C6.93537 99.949 7.05552 100.409 7.29581 100.798C7.54439 101.188 7.87997 101.519 8.30256 101.793C8.72514 102.058 9.1933 102.281 9.70703 102.464C10.2208 102.646 10.7386 102.799 11.2607 102.924L13.647 103.52C14.6082 103.744 15.5321 104.046 16.4187 104.428C17.3136 104.809 18.1132 105.289 18.8175 105.869C19.5301 106.449 20.0935 107.15 20.5078 107.97C20.9221 108.79 21.1293 109.751 21.1293 110.853C21.1293 112.345 20.7481 113.658 19.9858 114.793C19.2235 115.92 18.1214 116.803 16.6797 117.441C15.2462 118.07 13.5103 118.385 11.4719 118.385C9.4916 118.385 7.77225 118.079 6.31392 117.466C4.86387 116.852 3.72869 115.958 2.90838 114.781C2.09635 113.604 1.6572 112.171 1.59091 110.48H6.12749C6.19377 111.367 6.46721 112.105 6.9478 112.693C7.42839 113.281 8.05398 113.72 8.82457 114.01C9.60346 114.3 10.4735 114.445 11.4347 114.445C12.4373 114.445 13.3156 114.296 14.0696 113.998C14.8319 113.691 15.4285 113.269 15.8594 112.73C16.2902 112.183 16.5098 111.545 16.5181 110.816C16.5098 110.153 16.3151 109.606 15.9339 109.175C15.5528 108.736 15.0183 108.372 14.3306 108.082C13.6512 107.783 12.8557 107.518 11.9442 107.286L9.0483 106.54C6.95194 106.002 5.29474 105.186 4.0767 104.092C2.86695 102.99 2.26207 101.527 2.26207 99.7045C2.26207 98.2048 2.66809 96.8915 3.48011 95.7646C4.30043 94.6377 5.41489 93.7635 6.82351 93.142C8.23213 92.5123 9.82718 92.1974 11.6087 92.1974C13.415 92.1974 14.9976 92.5123 16.3565 93.142C17.7237 93.7635 18.7968 94.6294 19.5756 95.7397C20.3545 96.8417 20.7564 98.1095 20.7812 99.543H16.3441ZM41.286 92.5455H45.8971V109.175C45.8971 110.998 45.4662 112.602 44.6045 113.985C43.751 115.369 42.5496 116.451 41.0001 117.229C39.4506 118 37.6401 118.385 35.5686 118.385C33.4888 118.385 31.6742 118 30.1247 117.229C28.5753 116.451 27.3738 115.369 26.5203 113.985C25.6669 112.602 25.2401 110.998 25.2401 109.175V92.5455H29.8513V108.79C29.8513 109.851 30.0833 110.795 30.5473 111.624C31.0196 112.453 31.6825 113.103 32.536 113.575C33.3894 114.039 34.4003 114.271 35.5686 114.271C36.737 114.271 37.7478 114.039 38.6013 113.575C39.463 113.103 40.1259 112.453 40.5899 111.624C41.0539 110.795 41.286 109.851 41.286 108.79V92.5455ZM50.9091 118V92.5455H60.4545C62.41 92.5455 64.0507 92.91 65.3764 93.6392C66.7105 94.3684 67.7172 95.371 68.3967 96.647C69.0844 97.9148 69.4283 99.3565 69.4283 100.972C69.4283 102.605 69.0844 104.055 68.3967 105.322C67.7089 106.59 66.6939 107.589 65.3516 108.318C64.0092 109.039 62.3562 109.399 60.3924 109.399H54.0661V105.608H59.771C60.9144 105.608 61.8507 105.409 62.5799 105.012C63.3091 104.614 63.8477 104.067 64.1957 103.371C64.552 102.675 64.7301 101.875 64.7301 100.972C64.7301 100.069 64.552 99.2737 64.1957 98.5859C63.8477 97.8982 63.3049 97.3638 62.5675 96.9826C61.8383 96.5932 60.8978 96.3984 59.7461 96.3984H55.5202V118H50.9091ZM73.4335 118V92.5455H82.979C84.9345 92.5455 86.5751 92.91 87.9008 93.6392C89.2349 94.3684 90.2416 95.371 90.9211 96.647C91.6088 97.9148 91.9527 99.3565 91.9527 100.972C91.9527 102.605 91.6088 104.055 90.9211 105.322C90.2333 106.59 89.2183 107.589 87.876 108.318C86.5336 109.039 84.8806 109.399 82.9168 109.399H76.5905V105.608H82.2954C83.4388 105.608 84.3751 105.409 85.1043 105.012C85.8335 104.614 86.3721 104.067 86.7201 103.371C87.0764 102.675 87.2545 101.875 87.2545 100.972C87.2545 100.069 87.0764 99.2737 86.7201 98.5859C86.3721 97.8982 85.8293 97.3638 85.0919 96.9826C84.3627 96.5932 83.4223 96.3984 82.2705 96.3984H78.0447V118H73.4335Z"/>
</mask>
<path d="M16.3441 99.543C16.2281 98.4575 15.7392 97.6123 14.8775 97.0075C14.024 96.4026 12.9137 96.1001 11.5465 96.1001C10.5853 96.1001 9.76089 96.2451 9.07315 96.5352C8.38542 96.8252 7.85926 97.2187 7.49467 97.7159C7.13009 98.2131 6.94366 98.7807 6.93537 99.4187C6.93537 99.949 7.05552 100.409 7.29581 100.798C7.54439 101.188 7.87997 101.519 8.30256 101.793C8.72514 102.058 9.1933 102.281 9.70703 102.464C10.2208 102.646 10.7386 102.799 11.2607 102.924L13.647 103.52C14.6082 103.744 15.5321 104.046 16.4187 104.428C17.3136 104.809 18.1132 105.289 18.8175 105.869C19.5301 106.449 20.0935 107.15 20.5078 107.97C20.9221 108.79 21.1293 109.751 21.1293 110.853C21.1293 112.345 20.7481 113.658 19.9858 114.793C19.2235 115.92 18.1214 116.803 16.6797 117.441C15.2462 118.07 13.5103 118.385 11.4719 118.385C9.4916 118.385 7.77225 118.079 6.31392 117.466C4.86387 116.852 3.72869 115.958 2.90838 114.781C2.09635 113.604 1.6572 112.171 1.59091 110.48H6.12749C6.19377 111.367 6.46721 112.105 6.9478 112.693C7.42839 113.281 8.05398 113.72 8.82457 114.01C9.60346 114.3 10.4735 114.445 11.4347 114.445C12.4373 114.445 13.3156 114.296 14.0696 113.998C14.8319 113.691 15.4285 113.269 15.8594 112.73C16.2902 112.183 16.5098 111.545 16.5181 110.816C16.5098 110.153 16.3151 109.606 15.9339 109.175C15.5528 108.736 15.0183 108.372 14.3306 108.082C13.6512 107.783 12.8557 107.518 11.9442 107.286L9.0483 106.54C6.95194 106.002 5.29474 105.186 4.0767 104.092C2.86695 102.99 2.26207 101.527 2.26207 99.7045C2.26207 98.2048 2.66809 96.8915 3.48011 95.7646C4.30043 94.6377 5.41489 93.7635 6.82351 93.142C8.23213 92.5123 9.82718 92.1974 11.6087 92.1974C13.415 92.1974 14.9976 92.5123 16.3565 93.142C17.7237 93.7635 18.7968 94.6294 19.5756 95.7397C20.3545 96.8417 20.7564 98.1095 20.7812 99.543H16.3441ZM41.286 92.5455H45.8971V109.175C45.8971 110.998 45.4662 112.602 44.6045 113.985C43.751 115.369 42.5496 116.451 41.0001 117.229C39.4506 118 37.6401 118.385 35.5686 118.385C33.4888 118.385 31.6742 118 30.1247 117.229C28.5753 116.451 27.3738 115.369 26.5203 113.985C25.6669 112.602 25.2401 110.998 25.2401 109.175V92.5455H29.8513V108.79C29.8513 109.851 30.0833 110.795 30.5473 111.624C31.0196 112.453 31.6825 113.103 32.536 113.575C33.3894 114.039 34.4003 114.271 35.5686 114.271C36.737 114.271 37.7478 114.039 38.6013 113.575C39.463 113.103 40.1259 112.453 40.5899 111.624C41.0539 110.795 41.286 109.851 41.286 108.79V92.5455ZM50.9091 118V92.5455H60.4545C62.41 92.5455 64.0507 92.91 65.3764 93.6392C66.7105 94.3684 67.7172 95.371 68.3967 96.647C69.0844 97.9148 69.4283 99.3565 69.4283 100.972C69.4283 102.605 69.0844 104.055 68.3967 105.322C67.7089 106.59 66.6939 107.589 65.3516 108.318C64.0092 109.039 62.3562 109.399 60.3924 109.399H54.0661V105.608H59.771C60.9144 105.608 61.8507 105.409 62.5799 105.012C63.3091 104.614 63.8477 104.067 64.1957 103.371C64.552 102.675 64.7301 101.875 64.7301 100.972C64.7301 100.069 64.552 99.2737 64.1957 98.5859C63.8477 97.8982 63.3049 97.3638 62.5675 96.9826C61.8383 96.5932 60.8978 96.3984 59.7461 96.3984H55.5202V118H50.9091ZM73.4335 118V92.5455H82.979C84.9345 92.5455 86.5751 92.91 87.9008 93.6392C89.2349 94.3684 90.2416 95.371 90.9211 96.647C91.6088 97.9148 91.9527 99.3565 91.9527 100.972C91.9527 102.605 91.6088 104.055 90.9211 105.322C90.2333 106.59 89.2183 107.589 87.876 108.318C86.5336 109.039 84.8806 109.399 82.9168 109.399H76.5905V105.608H82.2954C83.4388 105.608 84.3751 105.409 85.1043 105.012C85.8335 104.614 86.3721 104.067 86.7201 103.371C87.0764 102.675 87.2545 101.875 87.2545 100.972C87.2545 100.069 87.0764 99.2737 86.7201 98.5859C86.3721 97.8982 85.8293 97.3638 85.0919 96.9826C84.3627 96.5932 83.4223 96.3984 82.2705 96.3984H78.0447V118H73.4335Z" fill="white"/>
<path d="M16.3441 99.543L15.3498 99.6492L15.4453 100.543H16.3441V99.543ZM14.8775 97.0075L14.2992 97.8233L14.303 97.8259L14.8775 97.0075ZM9.07315 96.5352L9.46171 97.4566L9.46171 97.4566L9.07315 96.5352ZM7.49467 97.7159L6.68827 97.1245L6.68827 97.1245L7.49467 97.7159ZM6.93537 99.4187L5.93537 99.4057V99.4187H6.93537ZM7.29581 100.798L6.44477 101.323L6.44878 101.33L6.45289 101.336L7.29581 100.798ZM8.30256 101.793L7.75925 102.632L7.77107 102.64L8.30256 101.793ZM9.70703 102.464L9.37262 103.406L9.70703 102.464ZM11.2607 102.924L11.5032 101.953L11.4923 101.951L11.2607 102.924ZM13.647 103.52L13.4045 104.49L13.4124 104.492L13.4203 104.494L13.647 103.52ZM16.4187 104.428L16.0237 105.346L16.0268 105.348L16.4187 104.428ZM18.8175 105.869L18.1818 106.641L18.1862 106.645L18.8175 105.869ZM19.9858 114.793L20.8141 115.354L20.816 115.351L19.9858 114.793ZM16.6797 117.441L17.0819 118.356L17.0844 118.355L16.6797 117.441ZM6.31392 117.466L5.92445 118.387L5.92633 118.387L6.31392 117.466ZM2.90838 114.781L2.08535 115.349L2.08806 115.353L2.90838 114.781ZM1.59091 110.48V109.48H0.550925L0.591677 110.52L1.59091 110.48ZM6.12749 110.48L7.1247 110.406L7.05551 109.48H6.12749V110.48ZM6.9478 112.693L7.72224 112.06H7.72224L6.9478 112.693ZM8.82457 114.01L8.47235 114.946L8.47564 114.947L8.82457 114.01ZM14.0696 113.998L14.4375 114.928L14.4427 114.926L14.0696 113.998ZM15.8594 112.73L16.6403 113.355L16.6449 113.349L15.8594 112.73ZM16.5181 110.816L17.518 110.827L17.5182 110.815L17.518 110.804L16.5181 110.816ZM15.9339 109.175L15.1787 109.831L15.185 109.838L15.9339 109.175ZM14.3306 108.082L13.9286 108.997L13.9353 109L13.9421 109.003L14.3306 108.082ZM11.9442 107.286L11.6949 108.255L11.6976 108.255L11.9442 107.286ZM9.0483 106.54L9.29767 105.572L9.29713 105.572L9.0483 106.54ZM4.0767 104.092L3.40326 104.831L3.40858 104.836L4.0767 104.092ZM3.48011 95.7646L2.67163 95.176L2.66881 95.1799L3.48011 95.7646ZM6.82351 93.142L7.22715 94.057L7.23164 94.055L6.82351 93.142ZM16.3565 93.142L15.9361 94.0494L15.9427 94.0524L16.3565 93.142ZM19.5756 95.7397L18.757 96.314L18.759 96.3169L19.5756 95.7397ZM20.7812 99.543V100.543H21.7987L21.7811 99.5256L20.7812 99.543ZM17.3384 99.4367C17.1931 98.0765 16.5596 96.9664 15.452 96.189L14.303 97.8259C14.9188 98.2582 15.2631 98.8386 15.3498 99.6492L17.3384 99.4367ZM15.4557 96.1916C14.3881 95.4349 13.0577 95.1001 11.5465 95.1001V97.1001C12.7697 97.1001 13.6599 97.3702 14.2992 97.8233L15.4557 96.1916ZM11.5465 95.1001C10.4886 95.1001 9.52518 95.2593 8.6846 95.6137L9.46171 97.4566C9.9966 97.231 10.682 97.1001 11.5465 97.1001V95.1001ZM8.6846 95.6137C7.86544 95.9592 7.18024 96.4537 6.68827 97.1245L8.30108 98.3073C8.53827 97.9838 8.90539 97.6912 9.46171 97.4566L8.6846 95.6137ZM6.68827 97.1245C6.19601 97.7958 5.94634 98.5672 5.93545 99.4057L7.93529 99.4317C7.94097 98.9941 8.06417 98.6303 8.30108 98.3073L6.68827 97.1245ZM5.93537 99.4187C5.93537 100.104 6.09246 100.752 6.44477 101.323L8.14685 100.273C8.01857 100.065 7.93537 99.7935 7.93537 99.4187H5.93537ZM6.45289 101.336C6.78528 101.857 7.22727 102.288 7.75931 102.632L8.84581 100.953C8.53268 100.75 8.3035 100.518 8.13873 100.26L6.45289 101.336ZM7.77107 102.64C8.26108 102.947 8.79621 103.202 9.37262 103.406L10.0414 101.521C9.59039 101.361 9.18921 101.168 8.83405 100.946L7.77107 102.64ZM9.37262 103.406C9.91951 103.6 10.4717 103.764 11.029 103.896L11.4923 101.951C11.0056 101.835 10.522 101.692 10.0414 101.521L9.37262 103.406ZM11.0181 103.894L13.4045 104.49L13.8896 102.55L11.5032 101.954L11.0181 103.894ZM13.4203 104.494C14.3252 104.705 15.1927 104.989 16.0237 105.346L16.8136 103.509C15.8715 103.104 14.8912 102.783 13.8737 102.546L13.4203 104.494ZM16.0268 105.348C16.8396 105.694 17.556 106.126 18.1818 106.641L19.4532 105.097C18.6704 104.453 17.7876 103.924 16.8105 103.508L16.0268 105.348ZM18.1862 106.645C18.7898 107.136 19.2642 107.726 19.6152 108.421L21.4004 107.519C20.9228 106.573 20.2703 105.762 19.4487 105.094L18.1862 106.645ZM19.6152 108.421C19.9462 109.076 20.1293 109.877 20.1293 110.853H22.1293C22.1293 109.626 21.8981 108.504 21.4004 107.519L19.6152 108.421ZM20.1293 110.853C20.1293 112.165 19.7972 113.28 19.1556 114.236L20.816 115.351C21.699 114.036 22.1293 112.525 22.1293 110.853H20.1293ZM19.1575 114.233C18.5162 115.181 17.5729 115.952 16.275 116.526L17.0844 118.355C18.67 117.653 19.9308 116.659 20.8141 115.354L19.1575 114.233ZM16.2775 116.525C15.0029 117.085 13.4118 117.385 11.4719 117.385V119.385C13.6088 119.385 15.4896 119.056 17.0819 118.356L16.2775 116.525ZM11.4719 117.385C9.59233 117.385 8.01045 117.094 6.70151 116.544L5.92633 118.387C7.53406 119.063 9.39087 119.385 11.4719 119.385V117.385ZM6.70339 116.545C5.40943 115.997 4.43077 115.216 3.7287 114.209L2.08806 115.353C3.02662 116.699 4.31831 117.707 5.92445 118.387L6.70339 116.545ZM3.73141 114.213C3.04545 113.219 2.65038 111.977 2.59014 110.441L0.591677 110.52C0.664012 112.364 1.14726 113.99 2.08535 115.349L3.73141 114.213ZM1.59091 111.48H6.12749V109.48H1.59091V111.48ZM5.13027 110.555C5.20917 111.61 5.54205 112.553 6.17336 113.325L7.72224 112.06C7.39238 111.656 7.17838 111.124 7.1247 110.406L5.13027 110.555ZM6.17336 113.325C6.77476 114.062 7.55102 114.599 8.47235 114.946L9.1768 113.074C8.55694 112.841 8.08201 112.501 7.72224 112.06L6.17336 113.325ZM8.47564 114.947C9.38215 115.285 10.3727 115.445 11.4347 115.445V113.445C10.5743 113.445 9.82476 113.316 9.17351 113.073L8.47564 114.947ZM11.4347 115.445C12.5344 115.445 13.5422 115.282 14.4375 114.928L13.7017 113.068C13.0889 113.31 12.3401 113.445 11.4347 113.445V115.445ZM14.4427 114.926C15.3342 114.567 16.0829 114.051 16.6402 113.355L15.0785 112.105C14.7741 112.486 14.3296 112.815 13.6965 113.07L14.4427 114.926ZM16.6449 113.349C17.2191 112.62 17.5074 111.766 17.518 110.827L15.5182 110.805C15.5123 111.324 15.3614 111.746 15.0739 112.111L16.6449 113.349ZM17.518 110.804C17.5072 109.94 17.2469 109.15 16.6829 108.513L15.185 109.838C15.3833 110.062 15.5124 110.367 15.5182 110.829L17.518 110.804ZM16.6892 108.52C16.1835 107.937 15.5092 107.493 14.7192 107.16L13.9421 109.003C14.5275 109.25 14.9221 109.535 15.1787 109.831L16.6892 108.52ZM14.7326 107.166C13.9917 106.841 13.1422 106.559 12.1909 106.317L11.6976 108.255C12.5692 108.477 13.3106 108.726 13.9286 108.997L14.7326 107.166ZM12.1936 106.318L9.29767 105.572L8.79892 107.509L11.6949 108.255L12.1936 106.318ZM9.29713 105.572C7.3083 105.061 5.81093 104.305 4.74483 103.348L3.40858 104.836C4.77856 106.066 6.59558 106.943 8.79946 107.509L9.29713 105.572ZM4.75013 103.353C3.77336 102.463 3.26207 101.282 3.26207 99.7045H1.26207C1.26207 101.773 1.96055 103.517 3.40328 104.831L4.75013 103.353ZM3.26207 99.7045C3.26207 98.397 3.61202 97.292 4.29142 96.3492L2.66881 95.1799C1.72416 96.4909 1.26207 98.0126 1.26207 99.7045H3.26207ZM4.28859 96.3531C4.9945 95.3834 5.96258 94.6149 7.22715 94.057L6.41987 92.2271C4.8672 92.9121 3.60635 93.892 2.67163 95.176L4.28859 96.3531ZM7.23164 94.055C8.49348 93.4908 9.94622 93.1974 11.6087 93.1974V91.1974C9.70814 91.1974 7.97077 91.5338 6.41538 92.2291L7.23164 94.055ZM11.6087 93.1974C13.2992 93.1974 14.7332 93.4919 15.9361 94.0494L16.777 92.2347C15.262 91.5327 13.5308 91.1974 11.6087 91.1974V93.1974ZM15.9427 94.0524C17.1653 94.6081 18.0914 95.3651 18.757 96.314L20.3943 95.1654C19.5021 93.8936 18.2821 92.9189 16.7703 92.2317L15.9427 94.0524ZM18.759 96.3169C19.4146 97.2445 19.7598 98.3144 19.7814 99.5603L21.7811 99.5256C21.753 97.9046 21.2944 96.439 20.3923 95.1625L18.759 96.3169ZM20.7812 98.543H16.3441V100.543H20.7812V98.543ZM41.286 92.5455V91.5455H40.286V92.5455H41.286ZM45.8971 92.5455H46.8971V91.5455H45.8971V92.5455ZM44.6045 113.985L43.7556 113.457L43.7534 113.46L44.6045 113.985ZM41.0001 117.229L41.4454 118.125L41.4492 118.123L41.0001 117.229ZM30.1247 117.229L29.6756 118.123L29.6794 118.125L30.1247 117.229ZM26.5203 113.985L27.3715 113.46L26.5203 113.985ZM25.2401 92.5455V91.5455H24.2401V92.5455H25.2401ZM29.8513 92.5455H30.8513V91.5455H29.8513V92.5455ZM30.5473 111.624L29.6748 112.113L29.6785 112.119L30.5473 111.624ZM32.536 113.575L32.0517 114.45L32.0583 114.454L32.536 113.575ZM38.6013 113.575L39.079 114.454L39.0819 114.452L38.6013 113.575ZM40.5899 111.624L41.4624 112.113L40.5899 111.624ZM41.286 93.5455H45.8971V91.5455H41.286V93.5455ZM44.8971 92.5455V109.175H46.8971V92.5455H44.8971ZM44.8971 109.175C44.8971 110.834 44.5072 112.25 43.7556 113.457L45.4533 114.514C46.4252 112.953 46.8971 111.162 46.8971 109.175H44.8971ZM43.7534 113.46C43.0037 114.676 41.9464 115.634 40.551 116.336L41.4492 118.123C43.1527 117.267 44.4983 116.062 45.4556 114.51L43.7534 113.46ZM40.5548 116.334C39.1683 117.024 37.5157 117.385 35.5686 117.385V119.385C37.7645 119.385 39.7329 118.976 41.4454 118.125L40.5548 116.334ZM35.5686 117.385C33.6125 117.385 31.956 117.023 30.57 116.334L29.6794 118.125C31.3925 118.977 33.3652 119.385 35.5686 119.385V117.385ZM30.5739 116.336C29.1784 115.634 28.1211 114.676 27.3715 113.46L25.6692 114.51C26.6265 116.062 27.9721 117.267 29.6756 118.123L30.5739 116.336ZM27.3715 113.46C26.6268 112.253 26.2401 110.836 26.2401 109.175H24.2401C24.2401 111.161 24.707 112.95 25.6692 114.51L27.3715 113.46ZM26.2401 109.175V92.5455H24.2401V109.175H26.2401ZM25.2401 93.5455H29.8513V91.5455H25.2401V93.5455ZM28.8513 92.5455V108.79H30.8513V92.5455H28.8513ZM28.8513 108.79C28.8513 110.001 29.1178 111.118 29.6748 112.113L31.4198 111.135C31.0488 110.473 30.8513 109.7 30.8513 108.79H28.8513ZM29.6785 112.119C30.2439 113.111 31.0415 113.891 32.0518 114.45L33.0202 112.7C32.3235 112.315 31.7953 111.794 31.4161 111.129L29.6785 112.119ZM32.0583 114.454C33.0853 115.012 34.2671 115.271 35.5686 115.271V113.271C34.5335 113.271 33.6935 113.066 33.0136 112.697L32.0583 114.454ZM35.5686 115.271C36.8702 115.271 38.0519 115.012 39.079 114.454L38.1236 112.697C37.4437 113.066 36.6038 113.271 35.5686 113.271V115.271ZM39.0819 114.452C40.1021 113.893 40.9035 113.111 41.4624 112.113L39.7174 111.135C39.3483 111.794 38.824 112.313 38.1207 112.698L39.0819 114.452ZM41.4624 112.113C42.0195 111.118 42.286 110.001 42.286 108.79H40.286C40.286 109.7 40.0884 110.473 39.7174 111.135L41.4624 112.113ZM42.286 108.79V92.5455H40.286V108.79H42.286ZM50.9091 118H49.9091V119H50.9091V118ZM50.9091 92.5455V91.5455H49.9091V92.5455H50.9091ZM65.3764 93.6392L64.8945 94.5154L64.8968 94.5167L65.3764 93.6392ZM68.3967 96.647L67.514 97.117L67.5177 97.1239L68.3967 96.647ZM68.3967 105.322L69.2757 105.799L68.3967 105.322ZM65.3516 108.318L65.8247 109.199L65.8289 109.197L65.3516 108.318ZM54.0661 109.399H53.0661V110.399H54.0661V109.399ZM54.0661 105.608V104.608H53.0661V105.608H54.0661ZM62.5799 105.012L63.0588 105.89L62.5799 105.012ZM64.1957 103.371L63.3055 102.915L63.3012 102.924L64.1957 103.371ZM64.1957 98.5859L63.3034 99.0375L63.3078 99.0459L64.1957 98.5859ZM62.5675 96.9826L62.0963 97.8648L62.1083 97.871L62.5675 96.9826ZM55.5202 96.3984V95.3984H54.5202V96.3984H55.5202ZM55.5202 118V119H56.5202V118H55.5202ZM51.9091 118V92.5455H49.9091V118H51.9091ZM50.9091 93.5455H60.4545V91.5455H50.9091V93.5455ZM60.4545 93.5455C62.2895 93.5455 63.7534 93.8878 64.8945 94.5154L65.8583 92.763C64.348 91.9323 62.5306 91.5455 60.4545 91.5455V93.5455ZM64.8968 94.5167C66.0689 95.1573 66.9311 96.0223 67.514 97.117L69.2793 96.177C68.5033 94.7196 67.352 93.5794 65.856 92.7617L64.8968 94.5167ZM67.5177 97.1239C68.1168 98.2283 68.4283 99.5027 68.4283 100.972H70.4283C70.4283 99.2104 70.052 97.6012 69.2757 96.1702L67.5177 97.1239ZM68.4283 100.972C68.4283 102.46 68.116 103.743 67.5177 104.846L69.2757 105.799C70.0528 104.367 70.4283 102.749 70.4283 100.972H68.4283ZM67.5177 104.846C66.9277 105.933 66.0572 106.797 64.8742 107.439L65.8289 109.197C67.3306 108.381 68.4901 107.247 69.2757 105.799L67.5177 104.846ZM64.8784 107.437C63.7176 108.06 62.2374 108.399 60.3924 108.399V110.399C62.4749 110.399 64.3009 110.017 65.8247 109.199L64.8784 107.437ZM60.3924 108.399H54.0661V110.399H60.3924V108.399ZM55.0661 109.399V105.608H53.0661V109.399H55.0661ZM54.0661 106.608H59.771V104.608H54.0661V106.608ZM59.771 106.608C61.0218 106.608 62.1378 106.392 63.0588 105.89L62.101 104.134C61.5637 104.427 60.8071 104.608 59.771 104.608V106.608ZM63.0588 105.89C63.9544 105.401 64.6445 104.71 65.0901 103.818L63.3012 102.924C63.0508 103.425 62.6637 103.827 62.101 104.134L63.0588 105.89ZM65.0858 103.827C65.5248 102.969 65.7301 102.009 65.7301 100.972H63.7301C63.7301 101.742 63.5792 102.381 63.3055 102.915L65.0858 103.827ZM65.7301 100.972C65.7301 99.9356 65.5249 98.9777 65.0836 98.1259L63.3078 99.0459C63.5791 99.5696 63.7301 100.203 63.7301 100.972H65.7301ZM65.0879 98.1344C64.6376 97.2445 63.9356 96.564 63.0266 96.0942L62.1083 97.871C62.6743 98.1635 63.0577 98.5519 63.3034 99.0374L65.0879 98.1344ZM63.0386 96.1005C62.1187 95.6092 61.0011 95.3984 59.7461 95.3984V97.3984C60.7946 97.3984 61.5579 97.5771 62.0964 97.8647L63.0386 96.1005ZM59.7461 95.3984H55.5202V97.3984H59.7461V95.3984ZM54.5202 96.3984V118H56.5202V96.3984H54.5202ZM55.5202 117H50.9091V119H55.5202V117ZM73.4335 118H72.4335V119H73.4335V118ZM73.4335 92.5455V91.5455H72.4335V92.5455H73.4335ZM87.9008 93.6392L87.4189 94.5154L87.4212 94.5167L87.9008 93.6392ZM90.9211 96.647L90.0384 97.117L90.0421 97.1239L90.9211 96.647ZM90.9211 105.322L91.8001 105.799L90.9211 105.322ZM87.876 108.318L88.3491 109.199L88.3533 109.197L87.876 108.318ZM76.5905 109.399H75.5905V110.399H76.5905V109.399ZM76.5905 105.608V104.608H75.5905V105.608H76.5905ZM85.1043 105.012L85.5832 105.89L85.1043 105.012ZM86.7201 103.371L85.8299 102.915L85.8257 102.924L86.7201 103.371ZM86.7201 98.5859L85.8278 99.0375L85.8322 99.0459L86.7201 98.5859ZM85.0919 96.9826L84.6207 97.8648L84.6327 97.871L85.0919 96.9826ZM78.0447 96.3984V95.3984H77.0447V96.3984H78.0447ZM78.0447 118V119H79.0447V118H78.0447ZM74.4335 118V92.5455H72.4335V118H74.4335ZM73.4335 93.5455H82.979V91.5455H73.4335V93.5455ZM82.979 93.5455C84.8139 93.5455 86.2778 93.8878 87.4189 94.5154L88.3828 92.763C86.8724 91.9323 85.055 91.5455 82.979 91.5455V93.5455ZM87.4212 94.5167C88.5933 95.1573 89.4555 96.0223 90.0384 97.117L91.8037 96.177C91.0277 94.7196 89.8764 93.5794 88.3804 92.7617L87.4212 94.5167ZM90.0421 97.1239C90.6412 98.2283 90.9527 99.5027 90.9527 100.972H92.9527C92.9527 99.2104 92.5764 97.6012 91.8001 96.1702L90.0421 97.1239ZM90.9527 100.972C90.9527 102.46 90.6404 103.743 90.0421 104.846L91.8001 105.799C92.5772 104.367 92.9527 102.749 92.9527 100.972H90.9527ZM90.0421 104.846C89.4521 105.933 88.5816 106.797 87.3986 107.439L88.3533 109.197C89.855 108.381 91.0146 107.247 91.8001 105.799L90.0421 104.846ZM87.4028 107.437C86.242 108.06 84.7618 108.399 82.9168 108.399V110.399C84.9993 110.399 86.8253 110.017 88.3491 109.199L87.4028 107.437ZM82.9168 108.399H76.5905V110.399H82.9168V108.399ZM77.5905 109.399V105.608H75.5905V109.399H77.5905ZM76.5905 106.608H82.2954V104.608H76.5905V106.608ZM82.2954 106.608C83.5462 106.608 84.6622 106.392 85.5832 105.89L84.6255 104.134C84.0881 104.427 83.3315 104.608 82.2954 104.608V106.608ZM85.5832 105.89C86.4788 105.401 87.1689 104.71 87.6145 103.818L85.8257 102.924C85.5752 103.425 85.1881 103.827 84.6255 104.134L85.5832 105.89ZM87.6102 103.827C88.0492 102.969 88.2545 102.009 88.2545 100.972H86.2545C86.2545 101.742 86.1036 102.381 85.8299 102.915L87.6102 103.827ZM88.2545 100.972C88.2545 99.9356 88.0493 98.9777 87.608 98.1259L85.8322 99.0459C86.1035 99.5696 86.2545 100.203 86.2545 100.972H88.2545ZM87.6124 98.1344C87.162 97.2445 86.46 96.564 85.551 96.0942L84.6327 97.871C85.1987 98.1635 85.5821 98.5519 85.8278 99.0374L87.6124 98.1344ZM85.563 96.1005C84.6431 95.6092 83.5255 95.3984 82.2705 95.3984V97.3984C83.319 97.3984 84.0823 97.5771 84.6208 97.8647L85.563 96.1005ZM82.2705 95.3984H78.0447V97.3984H82.2705V95.3984ZM77.0447 96.3984V118H79.0447V96.3984H77.0447ZM78.0447 117H73.4335V119H78.0447V117Z" fill="#380445" mask="url(#path-5-outside-2_807_263)"/>
<mask id="path-7-outside-3_807_263" maskUnits="userSpaceOnUse" x="123" y="91" width="45" height="28" fill="black">
<rect fill="white" x="123" y="91" width="45" height="28"/>
<path d="M124.642 118V92.5455H134.187C136.142 92.5455 137.783 92.8852 139.109 93.5646C140.443 94.2441 141.45 95.197 142.129 96.4233C142.817 97.6413 143.161 99.0624 143.161 100.686C143.161 102.319 142.813 103.736 142.117 104.937C141.429 106.13 140.414 107.054 139.072 107.709C137.729 108.355 136.08 108.678 134.125 108.678H127.326V104.85H133.503C134.647 104.85 135.583 104.693 136.312 104.378C137.041 104.055 137.58 103.587 137.928 102.973C138.284 102.352 138.463 101.59 138.463 100.686C138.463 99.7833 138.284 99.0127 137.928 98.3746C137.572 97.7283 137.029 97.2395 136.3 96.908C135.571 96.5683 134.63 96.3984 133.479 96.3984H129.253V118H124.642ZM137.791 106.466L144.093 118H138.947L132.758 106.466H137.791ZM146.287 96.4109V92.5455H166.596V96.4109H158.728V118H154.154V96.4109H146.287Z"/>
</mask>
<path d="M124.642 118V92.5455H134.187C136.142 92.5455 137.783 92.8852 139.109 93.5646C140.443 94.2441 141.45 95.197 142.129 96.4233C142.817 97.6413 143.161 99.0624 143.161 100.686C143.161 102.319 142.813 103.736 142.117 104.937C141.429 106.13 140.414 107.054 139.072 107.709C137.729 108.355 136.08 108.678 134.125 108.678H127.326V104.85H133.503C134.647 104.85 135.583 104.693 136.312 104.378C137.041 104.055 137.58 103.587 137.928 102.973C138.284 102.352 138.463 101.59 138.463 100.686C138.463 99.7833 138.284 99.0127 137.928 98.3746C137.572 97.7283 137.029 97.2395 136.3 96.908C135.571 96.5683 134.63 96.3984 133.479 96.3984H129.253V118H124.642ZM137.791 106.466L144.093 118H138.947L132.758 106.466H137.791ZM146.287 96.4109V92.5455H166.596V96.4109H158.728V118H154.154V96.4109H146.287Z" fill="white"/>
<path d="M124.642 118H123.642V119H124.642V118ZM124.642 92.5455V91.5455H123.642V92.5455H124.642ZM139.109 93.5646L138.653 94.4546L138.655 94.4557L139.109 93.5646ZM142.129 96.4233L141.254 96.9079L141.258 96.915L142.129 96.4233ZM142.117 104.937L141.251 104.436L141.25 104.438L142.117 104.937ZM139.072 107.709L139.505 108.61L139.51 108.608L139.072 107.709ZM127.326 108.678H126.326V109.678H127.326V108.678ZM127.326 104.85V103.85H126.326V104.85H127.326ZM136.312 104.378L136.709 105.296L136.717 105.292L136.312 104.378ZM137.928 102.973L137.061 102.476L137.058 102.48L137.928 102.973ZM137.928 98.3746L137.052 98.8574L137.055 98.8622L137.928 98.3746ZM136.3 96.908L135.878 97.8145L135.886 97.8184L136.3 96.908ZM129.253 96.3984V95.3984H128.253V96.3984H129.253ZM129.253 118V119H130.253V118H129.253ZM137.791 106.466L138.669 105.986L138.385 105.466H137.791V106.466ZM144.093 118V119H145.779L144.97 117.521L144.093 118ZM138.947 118L138.066 118.473L138.349 119H138.947V118ZM132.758 106.466V105.466H131.086L131.876 106.939L132.758 106.466ZM125.642 118V92.5455H123.642V118H125.642ZM124.642 93.5455H134.187V91.5455H124.642V93.5455ZM134.187 93.5455C136.032 93.5455 137.505 93.8665 138.653 94.4546L139.565 92.6747C138.061 91.9039 136.253 91.5455 134.187 91.5455V93.5455ZM138.655 94.4557C139.824 95.0511 140.678 95.8681 141.254 96.9079L143.004 95.9387C142.221 94.5259 141.062 93.437 139.563 92.6735L138.655 94.4557ZM141.258 96.915C141.849 97.9603 142.161 99.2067 142.161 100.686H144.161C144.161 98.9181 143.785 97.3223 143 95.9316L141.258 96.915ZM142.161 100.686C142.161 102.174 141.845 103.412 141.251 104.436L142.982 105.438C143.781 104.06 144.161 102.464 144.161 100.686H142.161ZM141.25 104.438C140.671 105.443 139.812 106.235 138.633 106.81L139.51 108.608C141.016 107.873 142.187 106.817 142.983 105.437L141.25 104.438ZM138.638 106.808C137.466 107.372 135.975 107.678 134.125 107.678V109.678C136.186 109.678 137.992 109.338 139.505 108.61L138.638 106.808ZM134.125 107.678H127.326V109.678H134.125V107.678ZM128.326 108.678V104.85H126.326V108.678H128.326ZM127.326 105.85H133.503V103.85H127.326V105.85ZM133.503 105.85C134.728 105.85 135.812 105.683 136.709 105.296L135.916 103.46C135.354 103.702 134.566 103.85 133.503 103.85V105.85ZM136.717 105.292C137.616 104.894 138.33 104.291 138.798 103.467L137.058 102.48C136.83 102.883 136.467 103.215 135.907 103.464L136.717 105.292ZM138.796 103.471C139.259 102.663 139.463 101.719 139.463 100.686H137.463C137.463 101.46 137.31 102.041 137.061 102.476L138.796 103.471ZM139.463 100.686C139.463 99.6524 139.258 98.7054 138.801 97.8871L137.055 98.8622C137.311 99.3199 137.463 99.9141 137.463 100.686H139.463ZM138.804 97.8919C138.335 97.0407 137.621 96.4101 136.714 95.9977L135.886 97.8184C136.437 98.0688 136.809 98.416 137.052 98.8574L138.804 97.8919ZM136.722 96.0016C135.816 95.5796 134.718 95.3984 133.479 95.3984V97.3984C134.543 97.3984 135.325 97.557 135.878 97.8145L136.722 96.0016ZM133.479 95.3984H129.253V97.3984H133.479V95.3984ZM128.253 96.3984V118H130.253V96.3984H128.253ZM129.253 117H124.642V119H129.253V117ZM136.914 106.945L143.215 118.479L144.97 117.521L138.669 105.986L136.914 106.945ZM144.093 117H138.947V119H144.093V117ZM139.828 117.527L133.639 105.993L131.876 106.939L138.066 118.473L139.828 117.527ZM132.758 107.466H137.791V105.466H132.758V107.466ZM146.287 96.4109H145.287V97.4109H146.287V96.4109ZM146.287 92.5455V91.5455H145.287V92.5455H146.287ZM166.596 92.5455H167.596V91.5455H166.596V92.5455ZM166.596 96.4109V97.4109H167.596V96.4109H166.596ZM158.728 96.4109V95.4109H157.728V96.4109H158.728ZM158.728 118V119H159.728V118H158.728ZM154.154 118H153.154V119H154.154V118ZM154.154 96.4109H155.154V95.4109H154.154V96.4109ZM147.287 96.4109V92.5455H145.287V96.4109H147.287ZM146.287 93.5455H166.596V91.5455H146.287V93.5455ZM165.596 92.5455V96.4109H167.596V92.5455H165.596ZM166.596 95.4109H158.728V97.4109H166.596V95.4109ZM157.728 96.4109V118H159.728V96.4109H157.728ZM158.728 117H154.154V119H158.728V117ZM155.154 118V96.4109H153.154V118H155.154ZM154.154 95.4109H146.287V97.4109H154.154V95.4109Z" fill="#380445" mask="url(#path-7-outside-3_807_263)"/>
</svg>
