<svg width="174" height="128" viewBox="0 0 174 128" fill="none" xmlns="http://www.w3.org/2000/svg">
<g filter="url(#filter0_d_807_263)">
<path d="M123 106.001C123.002 107.785 122.699 109.553 122.106 111.209C120.408 115.95 116.462 119.408 111.745 119.931C111.335 119.977 110.92 120 110.5 120C107.404 120.004 104.419 118.717 102.124 116.39C101.951 116.217 101.783 116.037 101.62 115.852C99.3814 113.323 98 109.843 98 106.001C98 102.277 99.2983 98.8932 101.416 96.3842C102.052 95.6307 102.76 94.958 103.528 94.3783C105.519 92.8759 107.919 92 110.5 92C112.899 92 115.14 92.7564 117.044 94.0703C117.314 94.2566 117.577 94.4539 117.833 94.6623C118.229 94.9838 118.608 95.3307 118.967 95.7014C121.337 98.1478 122.86 101.606 122.991 105.462C122.997 105.641 123 105.82 123 106.001Z" fill="#41788E"/>
<path d="M109.137 100.382C109.059 101.395 107.49 101.94 106.739 102.731C106.084 103.421 105.654 104.331 106.334 104.566C107.014 104.801 107.639 104.163 108.01 104.462C108.369 104.751 108.455 106.487 107.971 107.295C107.486 108.103 106.648 108.659 105.469 108.175C104.289 107.692 103.744 107.715 103.528 107.985C103.101 108.518 103.313 108.883 103.433 109.198C103.578 109.575 103.379 109.7 103.49 110.157C103.617 110.68 104.699 110.505 105.376 110.964C106.025 111.404 106.569 112.299 105.73 113.121C104.892 113.944 104.433 114.208 104.158 115.162C103.882 116.116 103.411 117.223 102.926 116.732C102.315 116.113 103.11 115.396 103.201 114.559C103.292 113.723 103.237 113.034 102.401 112.49C101.564 111.946 101.301 111.169 101.903 110.583C102.505 109.997 102.663 109.835 102.729 108.866C102.795 107.897 102.65 107.604 102.127 107.399C101.603 107.194 100.307 106.012 99.9655 105.373C99.4752 104.455 99.2162 103.142 100.089 102.497C100.961 101.853 102.01 101.059 102.14 100.002C102.271 98.9441 102.419 97.836 101.416 97.4003C102.052 96.6467 102.76 95.974 103.528 95.3943H103.529C103.57 95.3979 104.493 95.4737 104.814 96.3635C105.141 97.2726 105.573 98.3441 106.517 98.8866C107.46 99.4291 109.216 99.3707 109.137 100.382V100.382ZM109.068 102.819C109.225 103.06 109.81 102.408 110.151 102.222C110.492 102.036 111.339 102.193 111.505 101.889C111.671 101.586 111.758 100.813 111.234 100.598C110.71 100.383 109.793 99.9719 109.732 100.598C109.671 101.224 109.872 101.283 109.539 101.733C109.207 102.183 108.858 102.496 109.068 102.819V102.819ZM123 107.015C123.002 108.799 122.699 110.568 122.106 112.224C121.652 111.689 121.178 111.382 120.877 111.32C120.256 111.194 119.987 112.123 119.802 112.542C119.618 112.962 119.208 113.014 119.165 112.593C119.121 112.172 119.785 110.656 119.313 110.538C118.841 110.419 118.85 111.496 118.518 112.162C118.187 112.828 117.225 113.121 116.613 113.276C116.002 113.432 115.67 113.649 115.352 114.666C115.034 115.684 114.273 116.33 113.924 115.645C113.574 114.96 114.15 113.942 114.326 112.821C114.501 111.701 114.028 111.183 114.448 110.361C114.868 109.539 115.287 107.877 114.274 106.82C113.261 105.763 112.998 104.961 113.102 104.1C113.206 103.239 116.159 102.653 117.61 104.1C119.06 105.548 120.474 105.373 121.47 105.627C122.466 105.881 122.99 106.478 122.99 106.478C122.997 106.656 123 106.835 123 107.015V107.015Z" fill="#F7A741"/>
</g>
<g filter="url(#filter1_d_807_263)">
<mask id="path-3-outside-1_807_263" maskUnits="userSpaceOnUse" x="8" y="17" width="160" height="71" fill="black">
<rect fill="white" x="8" y="17" width="160" height="71"/>
<path d="M21.3132 21.5455V87H9.45597V21.5455H21.3132ZM45.2115 58.2358V87H33.6419V37.9091H44.7001V46.2507H45.2754C46.4047 43.5021 48.2051 41.3182 50.6767 39.6989C53.1696 38.0795 56.2484 37.2699 59.9132 37.2699C63.301 37.2699 66.252 37.9943 68.7662 39.4432C71.3017 40.892 73.2619 42.9908 74.6468 45.7393C76.0531 48.4879 76.7456 51.8224 76.7243 55.7429V87H65.1547V57.5327C65.1547 54.2514 64.3024 51.6839 62.5978 49.8303C60.9146 47.9766 58.5815 47.0497 55.5985 47.0497C53.5744 47.0497 51.774 47.4972 50.1973 48.392C48.6419 49.2656 47.4167 50.5334 46.5218 52.1953C45.6483 53.8572 45.2115 55.8707 45.2115 58.2358ZM111.177 87H88.997V21.5455H111.625C118.123 21.5455 123.706 22.8558 128.372 25.4766C133.059 28.076 136.66 31.8153 139.175 36.6946C141.689 41.5739 142.946 47.4119 142.946 54.2088C142.946 61.027 141.678 66.8864 139.143 71.7869C136.628 76.6875 132.996 80.4482 128.244 83.0689C123.514 85.6896 117.825 87 111.177 87ZM100.854 76.7408H110.602C115.162 76.7408 118.965 75.9098 122.012 74.2479C125.059 72.5646 127.349 70.0611 128.883 66.7372C130.417 63.392 131.184 59.2159 131.184 54.2088C131.184 49.2017 130.417 45.0469 128.883 41.7443C127.349 38.4205 125.08 35.9382 122.076 34.2976C119.093 32.6357 115.385 31.8047 110.954 31.8047H100.854V76.7408ZM153.7 87V37.9091H165.27V87H153.7ZM159.517 30.9418C157.685 30.9418 156.108 30.3345 154.787 29.12C153.466 27.8842 152.806 26.4034 152.806 24.6776C152.806 22.9304 153.466 21.4496 154.787 20.2351C156.108 18.9993 157.685 18.3814 159.517 18.3814C161.371 18.3814 162.948 18.9993 164.247 20.2351C165.568 21.4496 166.229 22.9304 166.229 24.6776C166.229 26.4034 165.568 27.8842 164.247 29.12C162.948 30.3345 161.371 30.9418 159.517 30.9418Z"/>
</mask>
<path d="M21.3132 21.5455V87H9.45597V21.5455H21.3132ZM45.2115 58.2358V87H33.6419V37.9091H44.7001V46.2507H45.2754C46.4047 43.5021 48.2051 41.3182 50.6767 39.6989C53.1696 38.0795 56.2484 37.2699 59.9132 37.2699C63.301 37.2699 66.252 37.9943 68.7662 39.4432C71.3017 40.892 73.2619 42.9908 74.6468 45.7393C76.0531 48.4879 76.7456 51.8224 76.7243 55.7429V87H65.1547V57.5327C65.1547 54.2514 64.3024 51.6839 62.5978 49.8303C60.9146 47.9766 58.5815 47.0497 55.5985 47.0497C53.5744 47.0497 51.774 47.4972 50.1973 48.392C48.6419 49.2656 47.4167 50.5334 46.5218 52.1953C45.6483 53.8572 45.2115 55.8707 45.2115 58.2358ZM111.177 87H88.997V21.5455H111.625C118.123 21.5455 123.706 22.8558 128.372 25.4766C133.059 28.076 136.66 31.8153 139.175 36.6946C141.689 41.5739 142.946 47.4119 142.946 54.2088C142.946 61.027 141.678 66.8864 139.143 71.7869C136.628 76.6875 132.996 80.4482 128.244 83.0689C123.514 85.6896 117.825 87 111.177 87ZM100.854 76.7408H110.602C115.162 76.7408 118.965 75.9098 122.012 74.2479C125.059 72.5646 127.349 70.0611 128.883 66.7372C130.417 63.392 131.184 59.2159 131.184 54.2088C131.184 49.2017 130.417 45.0469 128.883 41.7443C127.349 38.4205 125.08 35.9382 122.076 34.2976C119.093 32.6357 115.385 31.8047 110.954 31.8047H100.854V76.7408ZM153.7 87V37.9091H165.27V87H153.7ZM159.517 30.9418C157.685 30.9418 156.108 30.3345 154.787 29.12C153.466 27.8842 152.806 26.4034 152.806 24.6776C152.806 22.9304 153.466 21.4496 154.787 20.2351C156.108 18.9993 157.685 18.3814 159.517 18.3814C161.371 18.3814 162.948 18.9993 164.247 20.2351C165.568 21.4496 166.229 22.9304 166.229 24.6776C166.229 26.4034 165.568 27.8842 164.247 29.12C162.948 30.3345 161.371 30.9418 159.517 30.9418Z" fill="#380445"/>
<path d="M21.3132 21.5455H22.3132V20.5455H21.3132V21.5455ZM21.3132 87V88H22.3132V87H21.3132ZM9.45597 87H8.45597V88H9.45597V87ZM9.45597 21.5455V20.5455H8.45597V21.5455H9.45597ZM20.3132 21.5455V87H22.3132V21.5455H20.3132ZM21.3132 86H9.45597V88H21.3132V86ZM10.456 87V21.5455H8.45597V87H10.456ZM9.45597 22.5455H21.3132V20.5455H9.45597V22.5455ZM45.2115 87V88H46.2115V87H45.2115ZM33.6419 87H32.6419V88H33.6419V87ZM33.6419 37.9091V36.9091H32.6419V37.9091H33.6419ZM44.7001 37.9091H45.7001V36.9091H44.7001V37.9091ZM44.7001 46.2507H43.7001V47.2507H44.7001V46.2507ZM45.2754 46.2507V47.2507H45.9456L46.2004 46.6307L45.2754 46.2507ZM50.6767 39.6989L50.1319 38.8602L50.1286 38.8624L50.6767 39.6989ZM68.7662 39.4432L68.2669 40.3096L68.27 40.3114L68.7662 39.4432ZM74.6468 45.7393L73.7538 46.1893L73.7566 46.1948L74.6468 45.7393ZM76.7243 55.7429L75.7243 55.7375V55.7429H76.7243ZM76.7243 87V88H77.7243V87H76.7243ZM65.1547 87H64.1547V88H65.1547V87ZM62.5978 49.8303L61.8575 50.5025L61.8617 50.5071L62.5978 49.8303ZM50.1973 48.392L50.687 49.2639L50.6909 49.2617L50.1973 48.392ZM46.5218 52.1953L45.6413 51.7212L45.6367 51.73L46.5218 52.1953ZM44.2115 58.2358V87H46.2115V58.2358H44.2115ZM45.2115 86H33.6419V88H45.2115V86ZM34.6419 87V37.9091H32.6419V87H34.6419ZM33.6419 38.9091H44.7001V36.9091H33.6419V38.9091ZM43.7001 37.9091V46.2507H45.7001V37.9091H43.7001ZM44.7001 47.2507H45.2754V45.2507H44.7001V47.2507ZM46.2004 46.6307C47.2534 44.0677 48.923 42.0434 51.2247 40.5353L50.1286 38.8624C47.4872 40.593 45.5559 42.9365 44.3504 45.8707L46.2004 46.6307ZM51.2214 40.5375C53.518 39.0457 56.3966 38.2699 59.9132 38.2699V36.2699C56.1002 36.2699 52.8211 37.1134 50.1319 38.8603L51.2214 40.5375ZM59.9132 38.2699C63.1553 38.2699 65.9283 38.9619 68.2669 40.3096L69.2655 38.5767C66.5756 37.0267 63.4466 36.2699 59.9132 36.2699V38.2699ZM68.27 40.3114C70.6256 41.6575 72.4522 43.6062 73.7538 46.1893L75.5399 45.2894C74.0716 42.3754 71.9777 40.1266 69.2623 38.5749L68.27 40.3114ZM73.7566 46.1948C75.0728 48.7675 75.7449 51.9351 75.7243 55.7375L77.7242 55.7483C77.7462 51.7098 77.0333 48.2084 75.5371 45.2839L73.7566 46.1948ZM75.7243 55.7429V87H77.7243V55.7429H75.7243ZM76.7243 86H65.1547V88H76.7243V86ZM66.1547 87V57.5327H64.1547V87H66.1547ZM66.1547 57.5327C66.1547 54.0788 65.2546 51.2421 63.3339 49.1534L61.8617 50.5071C63.3502 52.1258 64.1547 54.424 64.1547 57.5327H66.1547ZM63.3382 49.158C61.4292 47.0557 58.8047 46.0497 55.5985 46.0497V48.0497C58.3583 48.0497 60.4 48.8974 61.8575 50.5025L63.3382 49.158ZM55.5985 46.0497C53.4219 46.0497 51.4478 46.5324 49.7037 47.5224L50.6909 49.2617C52.1001 48.4619 53.7268 48.0497 55.5985 48.0497V46.0497ZM49.7076 47.5202C47.9771 48.4921 46.6207 49.9025 45.6414 51.7212L47.4023 52.6694C48.2128 51.1643 49.3067 50.0392 50.687 49.2639L49.7076 47.5202ZM45.6367 51.73C44.6706 53.5679 44.2115 55.7498 44.2115 58.2358H46.2115C46.2115 55.9917 46.6259 54.1465 47.407 52.6606L45.6367 51.73ZM88.997 87H87.997V88H88.997V87ZM88.997 21.5455V20.5455H87.997V21.5455H88.997ZM128.372 25.4766L127.882 26.3485L127.887 26.3511L128.372 25.4766ZM139.175 36.6946L138.286 37.1527L138.286 37.1527L139.175 36.6946ZM139.143 71.7869L138.254 71.3274L138.253 71.3305L139.143 71.7869ZM128.244 83.0689L127.761 82.1933L127.76 82.1942L128.244 83.0689ZM100.854 76.7408H99.8542V77.7408H100.854V76.7408ZM122.012 74.2479L122.491 75.1258L122.495 75.1232L122.012 74.2479ZM128.883 66.7372L129.791 67.1563L129.792 67.1541L128.883 66.7372ZM128.883 41.7443L127.975 42.1634L127.976 42.1656L128.883 41.7443ZM122.076 34.2976L121.589 35.1712L121.597 35.1752L122.076 34.2976ZM100.854 31.8047V30.8047H99.8542V31.8047H100.854ZM111.177 86H88.997V88H111.177V86ZM89.997 87V21.5455H87.997V87H89.997ZM88.997 22.5455H111.625V20.5455H88.997V22.5455ZM111.625 22.5455C117.988 22.5455 123.395 23.828 127.882 26.3485L128.862 24.6047C124.017 21.8837 118.258 20.5455 111.625 20.5455V22.5455ZM127.887 26.3511C132.397 28.8522 135.86 32.4446 138.286 37.1527L140.063 36.2366C137.461 31.1861 133.722 27.2997 128.857 24.602L127.887 26.3511ZM138.286 37.1527C140.711 41.8605 141.946 47.534 141.946 54.2088H143.946C143.946 47.2899 142.666 41.2873 140.063 36.2366L138.286 37.1527ZM141.946 54.2088C141.946 60.9041 140.701 66.5985 138.254 71.3274L140.031 72.2465C142.655 67.1742 143.946 61.1498 143.946 54.2088H141.946ZM138.253 71.3305C135.828 76.0568 132.336 79.6702 127.761 82.1933L128.727 83.9445C133.656 81.2261 137.429 77.3182 140.032 72.2434L138.253 71.3305ZM127.76 82.1942C123.208 84.7159 117.694 86 111.177 86V88C117.956 88 123.82 86.6633 128.729 83.9436L127.76 82.1942ZM100.854 77.7408H110.602V75.7408H100.854V77.7408ZM110.602 77.7408C115.278 77.7408 119.258 76.889 122.491 75.1258L121.533 73.37C118.672 74.9306 115.045 75.7408 110.602 75.7408V77.7408ZM122.495 75.1232C125.739 73.3314 128.173 70.6629 129.791 67.1563L127.975 66.3182C126.526 69.4593 124.379 71.7979 121.528 73.3726L122.495 75.1232ZM129.792 67.1541C131.404 63.6399 132.184 59.3108 132.184 54.2088H130.184C130.184 59.121 129.431 63.1442 127.974 66.3204L129.792 67.1541ZM132.184 54.2088C132.184 49.1075 131.404 44.7973 129.79 41.323L127.976 42.1656C129.431 45.2964 130.184 49.2959 130.184 54.2088H132.184ZM129.791 41.3253C128.174 37.8209 125.761 35.1708 122.555 33.4199L121.597 35.1752C124.399 36.7056 126.525 39.02 127.975 42.1634L129.791 41.3253ZM122.563 33.424C119.393 31.6581 115.506 30.8047 110.954 30.8047V32.8047C115.264 32.8047 118.793 33.6132 121.589 35.1712L122.563 33.424ZM110.954 30.8047H100.854V32.8047H110.954V30.8047ZM99.8542 31.8047V76.7408H101.854V31.8047H99.8542ZM153.7 87H152.7V88H153.7V87ZM153.7 37.9091V36.9091H152.7V37.9091H153.7ZM165.27 37.9091H166.27V36.9091H165.27V37.9091ZM165.27 87V88H166.27V87H165.27ZM154.787 29.12L154.104 29.8503L154.11 29.8562L154.787 29.12ZM154.787 20.2351L155.464 20.9713L155.47 20.9654L154.787 20.2351ZM164.247 20.2351L163.558 20.9598L163.564 20.9656L163.571 20.9712L164.247 20.2351ZM164.247 29.12L164.93 29.8507L164.93 29.8503L164.247 29.12ZM154.7 87V37.9091H152.7V87H154.7ZM153.7 38.9091H165.27V36.9091H153.7V38.9091ZM164.27 37.9091V87H166.27V37.9091H164.27ZM165.27 86H153.7V88H165.27V86ZM159.517 29.9418C157.93 29.9418 156.596 29.4248 155.464 28.3839L154.11 29.8562C155.62 31.2443 157.44 31.9418 159.517 31.9418V29.9418ZM155.47 28.3898C154.34 27.3328 153.806 26.112 153.806 24.6776H151.806C151.806 26.6948 152.592 28.4357 154.104 29.8503L155.47 28.3898ZM153.806 24.6776C153.806 23.2187 154.343 22.0022 155.464 20.9712L154.11 19.4989C152.59 20.897 151.806 22.6421 151.806 24.6776H153.806ZM155.47 20.9654C156.603 19.9053 157.935 19.3814 159.517 19.3814V17.3814C157.435 17.3814 155.613 18.0932 154.104 19.5048L155.47 20.9654ZM159.517 19.3814C161.124 19.3814 162.451 19.9072 163.558 20.9598L164.936 19.5104C163.444 18.0914 161.618 17.3814 159.517 17.3814V19.3814ZM163.571 20.9712C164.692 22.0022 165.229 23.2187 165.229 24.6776H167.229C167.229 22.6421 166.445 20.897 164.924 19.4989L163.571 20.9712ZM165.229 24.6776C165.229 26.112 164.694 27.3328 163.564 28.3898L164.93 29.8503C166.443 28.4357 167.229 26.6948 167.229 24.6776H165.229ZM163.565 28.3894C162.459 29.4229 161.129 29.9418 159.517 29.9418V31.9418C161.613 31.9418 163.437 31.2461 164.93 29.8507L163.565 28.3894Z" fill="white" mask="url(#path-3-outside-1_807_263)"/>
</g>
<g filter="url(#filter2_d_807_263)">
<mask id="path-5-outside-2_807_263" maskUnits="userSpaceOnUse" x="3" y="91" width="93" height="29" fill="black">
<rect fill="white" x="3" y="91" width="93" height="29"/>
<path d="M19.3441 99.543C19.2281 98.4575 18.7392 97.6123 17.8775 97.0075C17.024 96.4026 15.9137 96.1001 14.5465 96.1001C13.5853 96.1001 12.7609 96.2451 12.0732 96.5352C11.3854 96.8252 10.8593 97.2187 10.4947 97.7159C10.1301 98.2131 9.94366 98.7807 9.93537 99.4187C9.93537 99.949 10.0555 100.409 10.2958 100.798C10.5444 101.188 10.88 101.519 11.3026 101.793C11.7251 102.058 12.1933 102.281 12.707 102.464C13.2208 102.646 13.7386 102.799 14.2607 102.924L16.647 103.52C17.6082 103.744 18.5321 104.046 19.4187 104.428C20.3136 104.809 21.1132 105.289 21.8175 105.869C22.5301 106.449 23.0935 107.15 23.5078 107.97C23.9221 108.79 24.1293 109.751 24.1293 110.853C24.1293 112.345 23.7481 113.658 22.9858 114.793C22.2235 115.92 21.1214 116.803 19.6797 117.441C18.2462 118.07 16.5103 118.385 14.4719 118.385C12.4916 118.385 10.7723 118.079 9.31392 117.466C7.86387 116.852 6.72869 115.958 5.90838 114.781C5.09635 113.604 4.6572 112.171 4.59091 110.48H9.12749C9.19377 111.367 9.46721 112.105 9.9478 112.693C10.4284 113.281 11.054 113.72 11.8246 114.01C12.6035 114.3 13.4735 114.445 14.4347 114.445C15.4373 114.445 16.3156 114.296 17.0696 113.998C17.8319 113.691 18.4285 113.269 18.8594 112.73C19.2902 112.183 19.5098 111.545 19.5181 110.816C19.5098 110.153 19.3151 109.606 18.9339 109.175C18.5528 108.736 18.0183 108.372 17.3306 108.082C16.6512 107.783 15.8557 107.518 14.9442 107.286L12.0483 106.54C9.95194 106.002 8.29474 105.186 7.0767 104.092C5.86695 102.99 5.26207 101.527 5.26207 99.7045C5.26207 98.2048 5.66809 96.8915 6.48011 95.7646C7.30043 94.6377 8.41489 93.7635 9.82351 93.142C11.2321 92.5123 12.8272 92.1974 14.6087 92.1974C16.415 92.1974 17.9976 92.5123 19.3565 93.142C20.7237 93.7635 21.7968 94.6294 22.5756 95.7397C23.3545 96.8417 23.7564 98.1095 23.7812 99.543H19.3441ZM44.286 92.5455H48.8971V109.175C48.8971 110.998 48.4662 112.602 47.6045 113.985C46.751 115.369 45.5496 116.451 44.0001 117.229C42.4506 118 40.6401 118.385 38.5686 118.385C36.4888 118.385 34.6742 118 33.1247 117.229C31.5753 116.451 30.3738 115.369 29.5203 113.985C28.6669 112.602 28.2401 110.998 28.2401 109.175V92.5455H32.8513V108.79C32.8513 109.851 33.0833 110.795 33.5473 111.624C34.0196 112.453 34.6825 113.103 35.536 113.575C36.3894 114.039 37.4003 114.271 38.5686 114.271C39.737 114.271 40.7478 114.039 41.6013 113.575C42.463 113.103 43.1259 112.453 43.5899 111.624C44.0539 110.795 44.286 109.851 44.286 108.79V92.5455ZM53.9091 118V92.5455H63.4545C65.41 92.5455 67.0507 92.91 68.3764 93.6392C69.7105 94.3684 70.7172 95.371 71.3967 96.647C72.0844 97.9148 72.4283 99.3565 72.4283 100.972C72.4283 102.605 72.0844 104.055 71.3967 105.322C70.7089 106.59 69.6939 107.589 68.3516 108.318C67.0092 109.039 65.3562 109.399 63.3924 109.399H57.0661V105.608H62.771C63.9144 105.608 64.8507 105.409 65.5799 105.012C66.3091 104.614 66.8477 104.067 67.1957 103.371C67.552 102.675 67.7301 101.875 67.7301 100.972C67.7301 100.069 67.552 99.2737 67.1957 98.5859C66.8477 97.8982 66.3049 97.3638 65.5675 96.9826C64.8383 96.5932 63.8978 96.3984 62.7461 96.3984H58.5202V118H53.9091ZM76.4335 118V92.5455H85.979C87.9345 92.5455 89.5751 92.91 90.9008 93.6392C92.2349 94.3684 93.2416 95.371 93.9211 96.647C94.6088 97.9148 94.9527 99.3565 94.9527 100.972C94.9527 102.605 94.6088 104.055 93.9211 105.322C93.2333 106.59 92.2183 107.589 90.876 108.318C89.5336 109.039 87.8806 109.399 85.9168 109.399H79.5905V105.608H85.2954C86.4388 105.608 87.3751 105.409 88.1043 105.012C88.8335 104.614 89.3721 104.067 89.7201 103.371C90.0764 102.675 90.2545 101.875 90.2545 100.972C90.2545 100.069 90.0764 99.2737 89.7201 98.5859C89.3721 97.8982 88.8293 97.3638 88.0919 96.9826C87.3627 96.5932 86.4223 96.3984 85.2705 96.3984H81.0447V118H76.4335Z"/>
</mask>
<path d="M19.3441 99.543C19.2281 98.4575 18.7392 97.6123 17.8775 97.0075C17.024 96.4026 15.9137 96.1001 14.5465 96.1001C13.5853 96.1001 12.7609 96.2451 12.0732 96.5352C11.3854 96.8252 10.8593 97.2187 10.4947 97.7159C10.1301 98.2131 9.94366 98.7807 9.93537 99.4187C9.93537 99.949 10.0555 100.409 10.2958 100.798C10.5444 101.188 10.88 101.519 11.3026 101.793C11.7251 102.058 12.1933 102.281 12.707 102.464C13.2208 102.646 13.7386 102.799 14.2607 102.924L16.647 103.52C17.6082 103.744 18.5321 104.046 19.4187 104.428C20.3136 104.809 21.1132 105.289 21.8175 105.869C22.5301 106.449 23.0935 107.15 23.5078 107.97C23.9221 108.79 24.1293 109.751 24.1293 110.853C24.1293 112.345 23.7481 113.658 22.9858 114.793C22.2235 115.92 21.1214 116.803 19.6797 117.441C18.2462 118.07 16.5103 118.385 14.4719 118.385C12.4916 118.385 10.7723 118.079 9.31392 117.466C7.86387 116.852 6.72869 115.958 5.90838 114.781C5.09635 113.604 4.6572 112.171 4.59091 110.48H9.12749C9.19377 111.367 9.46721 112.105 9.9478 112.693C10.4284 113.281 11.054 113.72 11.8246 114.01C12.6035 114.3 13.4735 114.445 14.4347 114.445C15.4373 114.445 16.3156 114.296 17.0696 113.998C17.8319 113.691 18.4285 113.269 18.8594 112.73C19.2902 112.183 19.5098 111.545 19.5181 110.816C19.5098 110.153 19.3151 109.606 18.9339 109.175C18.5528 108.736 18.0183 108.372 17.3306 108.082C16.6512 107.783 15.8557 107.518 14.9442 107.286L12.0483 106.54C9.95194 106.002 8.29474 105.186 7.0767 104.092C5.86695 102.99 5.26207 101.527 5.26207 99.7045C5.26207 98.2048 5.66809 96.8915 6.48011 95.7646C7.30043 94.6377 8.41489 93.7635 9.82351 93.142C11.2321 92.5123 12.8272 92.1974 14.6087 92.1974C16.415 92.1974 17.9976 92.5123 19.3565 93.142C20.7237 93.7635 21.7968 94.6294 22.5756 95.7397C23.3545 96.8417 23.7564 98.1095 23.7812 99.543H19.3441ZM44.286 92.5455H48.8971V109.175C48.8971 110.998 48.4662 112.602 47.6045 113.985C46.751 115.369 45.5496 116.451 44.0001 117.229C42.4506 118 40.6401 118.385 38.5686 118.385C36.4888 118.385 34.6742 118 33.1247 117.229C31.5753 116.451 30.3738 115.369 29.5203 113.985C28.6669 112.602 28.2401 110.998 28.2401 109.175V92.5455H32.8513V108.79C32.8513 109.851 33.0833 110.795 33.5473 111.624C34.0196 112.453 34.6825 113.103 35.536 113.575C36.3894 114.039 37.4003 114.271 38.5686 114.271C39.737 114.271 40.7478 114.039 41.6013 113.575C42.463 113.103 43.1259 112.453 43.5899 111.624C44.0539 110.795 44.286 109.851 44.286 108.79V92.5455ZM53.9091 118V92.5455H63.4545C65.41 92.5455 67.0507 92.91 68.3764 93.6392C69.7105 94.3684 70.7172 95.371 71.3967 96.647C72.0844 97.9148 72.4283 99.3565 72.4283 100.972C72.4283 102.605 72.0844 104.055 71.3967 105.322C70.7089 106.59 69.6939 107.589 68.3516 108.318C67.0092 109.039 65.3562 109.399 63.3924 109.399H57.0661V105.608H62.771C63.9144 105.608 64.8507 105.409 65.5799 105.012C66.3091 104.614 66.8477 104.067 67.1957 103.371C67.552 102.675 67.7301 101.875 67.7301 100.972C67.7301 100.069 67.552 99.2737 67.1957 98.5859C66.8477 97.8982 66.3049 97.3638 65.5675 96.9826C64.8383 96.5932 63.8978 96.3984 62.7461 96.3984H58.5202V118H53.9091ZM76.4335 118V92.5455H85.979C87.9345 92.5455 89.5751 92.91 90.9008 93.6392C92.2349 94.3684 93.2416 95.371 93.9211 96.647C94.6088 97.9148 94.9527 99.3565 94.9527 100.972C94.9527 102.605 94.6088 104.055 93.9211 105.322C93.2333 106.59 92.2183 107.589 90.876 108.318C89.5336 109.039 87.8806 109.399 85.9168 109.399H79.5905V105.608H85.2954C86.4388 105.608 87.3751 105.409 88.1043 105.012C88.8335 104.614 89.3721 104.067 89.7201 103.371C90.0764 102.675 90.2545 101.875 90.2545 100.972C90.2545 100.069 90.0764 99.2737 89.7201 98.5859C89.3721 97.8982 88.8293 97.3638 88.0919 96.9826C87.3627 96.5932 86.4223 96.3984 85.2705 96.3984H81.0447V118H76.4335Z" fill="#380445"/>
<path d="M19.3441 99.543L18.3498 99.6492L18.4453 100.543H19.3441V99.543ZM17.8775 97.0075L17.2992 97.8233L17.303 97.8259L17.8775 97.0075ZM12.0732 96.5352L12.4617 97.4566L12.4617 97.4566L12.0732 96.5352ZM10.4947 97.7159L9.68827 97.1245L9.68827 97.1245L10.4947 97.7159ZM9.93537 99.4187L8.93537 99.4057V99.4187H9.93537ZM10.2958 100.798L9.44477 101.323L9.44878 101.33L9.45289 101.336L10.2958 100.798ZM11.3026 101.793L10.7593 102.632L10.7711 102.64L11.3026 101.793ZM12.707 102.464L12.3726 103.406L12.3726 103.406L12.707 102.464ZM14.2607 102.924L14.5032 101.953L14.4923 101.951L14.2607 102.924ZM16.647 103.52L16.4045 104.49L16.4124 104.492L16.4203 104.494L16.647 103.52ZM19.4187 104.428L19.0237 105.346L19.0268 105.348L19.4187 104.428ZM21.8175 105.869L21.1818 106.641L21.1862 106.645L21.8175 105.869ZM22.9858 114.793L23.8141 115.354L23.816 115.351L22.9858 114.793ZM19.6797 117.441L20.0819 118.356L20.0844 118.355L19.6797 117.441ZM9.31392 117.466L8.92445 118.387L8.92633 118.387L9.31392 117.466ZM5.90838 114.781L5.08535 115.349L5.08806 115.353L5.90838 114.781ZM4.59091 110.48V109.48H3.55092L3.59168 110.52L4.59091 110.48ZM9.12749 110.48L10.1247 110.406L10.0555 109.48H9.12749V110.48ZM9.9478 112.693L10.7222 112.06L10.7222 112.06L9.9478 112.693ZM11.8246 114.01L11.4723 114.946L11.4756 114.947L11.8246 114.01ZM17.0696 113.998L17.4375 114.928L17.4427 114.926L17.0696 113.998ZM18.8594 112.73L19.6403 113.355L19.6449 113.349L18.8594 112.73ZM19.5181 110.816L20.518 110.827L20.5182 110.815L20.518 110.804L19.5181 110.816ZM18.9339 109.175L18.1787 109.831L18.185 109.838L18.9339 109.175ZM17.3306 108.082L16.9286 108.997L16.9353 109L16.9421 109.003L17.3306 108.082ZM14.9442 107.286L14.6949 108.255L14.6976 108.255L14.9442 107.286ZM12.0483 106.54L12.2977 105.572L12.2971 105.572L12.0483 106.54ZM7.0767 104.092L6.40326 104.831L6.40858 104.836L7.0767 104.092ZM6.48011 95.7646L5.67163 95.176L5.66881 95.1799L6.48011 95.7646ZM9.82351 93.142L10.2272 94.057L10.2316 94.055L9.82351 93.142ZM19.3565 93.142L18.9361 94.0494L18.9427 94.0524L19.3565 93.142ZM22.5756 95.7397L21.757 96.314L21.759 96.3169L22.5756 95.7397ZM23.7812 99.543V100.543H24.7987L24.7811 99.5256L23.7812 99.543ZM20.3384 99.4367C20.1931 98.0765 19.5596 96.9664 18.452 96.189L17.303 97.8259C17.9188 98.2582 18.2631 98.8386 18.3498 99.6492L20.3384 99.4367ZM18.4557 96.1916C17.3881 95.4349 16.0577 95.1001 14.5465 95.1001V97.1001C15.7697 97.1001 16.6599 97.3702 17.2992 97.8233L18.4557 96.1916ZM14.5465 95.1001C13.4886 95.1001 12.5252 95.2593 11.6846 95.6137L12.4617 97.4566C12.9966 97.231 13.682 97.1001 14.5465 97.1001V95.1001ZM11.6846 95.6137C10.8654 95.9592 10.1802 96.4537 9.68827 97.1245L11.3011 98.3073C11.5383 97.9838 11.9054 97.6912 12.4617 97.4566L11.6846 95.6137ZM9.68827 97.1245C9.19601 97.7958 8.94634 98.5672 8.93545 99.4057L10.9353 99.4317C10.941 98.9941 11.0642 98.6303 11.3011 98.3073L9.68827 97.1245ZM8.93537 99.4187C8.93537 100.104 9.09246 100.752 9.44477 101.323L11.1468 100.273C11.0186 100.065 10.9354 99.7935 10.9354 99.4187H8.93537ZM9.45289 101.336C9.78528 101.857 10.2273 102.288 10.7593 102.632L11.8458 100.953C11.5327 100.75 11.3035 100.518 11.1387 100.26L9.45289 101.336ZM10.7711 102.64C11.2611 102.947 11.7962 103.202 12.3726 103.406L13.0414 101.521C12.5904 101.361 12.1892 101.168 11.834 100.946L10.7711 102.64ZM12.3726 103.406C12.9195 103.6 13.4717 103.764 14.029 103.896L14.4923 101.951C14.0056 101.835 13.522 101.692 13.0414 101.521L12.3726 103.406ZM14.0181 103.894L16.4045 104.49L16.8896 102.55L14.5032 101.954L14.0181 103.894ZM16.4203 104.494C17.3252 104.705 18.1927 104.989 19.0237 105.346L19.8136 103.509C18.8715 103.104 17.8912 102.783 16.8737 102.546L16.4203 104.494ZM19.0268 105.348C19.8396 105.694 20.556 106.126 21.1818 106.641L22.4532 105.097C21.6704 104.453 20.7876 103.924 19.8105 103.508L19.0268 105.348ZM21.1862 106.645C21.7898 107.136 22.2642 107.726 22.6152 108.421L24.4004 107.519C23.9228 106.573 23.2703 105.762 22.4487 105.094L21.1862 106.645ZM22.6152 108.421C22.9462 109.076 23.1293 109.877 23.1293 110.853H25.1293C25.1293 109.626 24.8981 108.504 24.4004 107.519L22.6152 108.421ZM23.1293 110.853C23.1293 112.165 22.7972 113.28 22.1556 114.236L23.816 115.351C24.699 114.036 25.1293 112.525 25.1293 110.853H23.1293ZM22.1575 114.233C21.5162 115.181 20.5729 115.952 19.275 116.526L20.0844 118.355C21.67 117.653 22.9308 116.659 23.8141 115.354L22.1575 114.233ZM19.2775 116.525C18.0029 117.085 16.4118 117.385 14.4719 117.385V119.385C16.6088 119.385 18.4896 119.056 20.0819 118.356L19.2775 116.525ZM14.4719 117.385C12.5923 117.385 11.0104 117.094 9.70151 116.544L8.92633 118.387C10.5341 119.063 12.3909 119.385 14.4719 119.385V117.385ZM9.70339 116.545C8.40943 115.997 7.43077 115.216 6.7287 114.209L5.08806 115.353C6.02662 116.699 7.31831 117.707 8.92445 118.387L9.70339 116.545ZM6.73141 114.213C6.04545 113.219 5.65038 111.977 5.59014 110.441L3.59168 110.52C3.66401 112.364 4.14726 113.99 5.08535 115.349L6.73141 114.213ZM4.59091 111.48H9.12749V109.48H4.59091V111.48ZM8.13027 110.555C8.20917 111.61 8.54205 112.553 9.17336 113.325L10.7222 112.06C10.3924 111.656 10.1784 111.124 10.1247 110.406L8.13027 110.555ZM9.17336 113.325C9.77476 114.062 10.551 114.599 11.4723 114.946L12.1768 113.074C11.5569 112.841 11.082 112.501 10.7222 112.06L9.17336 113.325ZM11.4756 114.947C12.3822 115.285 13.3727 115.445 14.4347 115.445V113.445C13.5743 113.445 12.8248 113.316 12.1735 113.073L11.4756 114.947ZM14.4347 115.445C15.5344 115.445 16.5422 115.282 17.4375 114.928L16.7017 113.068C16.0889 113.31 15.3401 113.445 14.4347 113.445V115.445ZM17.4427 114.926C18.3342 114.567 19.0829 114.051 19.6402 113.355L18.0785 112.105C17.7741 112.486 17.3296 112.815 16.6965 113.07L17.4427 114.926ZM19.6449 113.349C20.2191 112.62 20.5074 111.766 20.518 110.827L18.5182 110.805C18.5123 111.324 18.3614 111.746 18.0739 112.111L19.6449 113.349ZM20.518 110.804C20.5072 109.94 20.2469 109.15 19.6829 108.513L18.185 109.838C18.3833 110.062 18.5124 110.367 18.5182 110.829L20.518 110.804ZM19.6892 108.52C19.1835 107.937 18.5092 107.493 17.7192 107.16L16.9421 109.003C17.5275 109.25 17.9221 109.535 18.1787 109.831L19.6892 108.52ZM17.7326 107.166C16.9917 106.841 16.1422 106.559 15.1909 106.317L14.6976 108.255C15.5692 108.477 16.3106 108.726 16.9286 108.997L17.7326 107.166ZM15.1936 106.318L12.2977 105.572L11.7989 107.509L14.6949 108.255L15.1936 106.318ZM12.2971 105.572C10.3083 105.061 8.81093 104.305 7.74483 103.348L6.40858 104.836C7.77856 106.066 9.59558 106.943 11.7995 107.509L12.2971 105.572ZM7.75013 103.353C6.77336 102.463 6.26207 101.282 6.26207 99.7045H4.26207C4.26207 101.773 4.96055 103.517 6.40328 104.831L7.75013 103.353ZM6.26207 99.7045C6.26207 98.397 6.61202 97.292 7.29142 96.3492L5.66881 95.1799C4.72416 96.4909 4.26207 98.0126 4.26207 99.7045H6.26207ZM7.28859 96.3531C7.9945 95.3834 8.96258 94.6149 10.2271 94.057L9.41987 92.2271C7.8672 92.9121 6.60635 93.892 5.67163 95.176L7.28859 96.3531ZM10.2316 94.055C11.4935 93.4908 12.9462 93.1974 14.6087 93.1974V91.1974C12.7081 91.1974 10.9708 91.5338 9.41538 92.2291L10.2316 94.055ZM14.6087 93.1974C16.2992 93.1974 17.7332 93.4919 18.9361 94.0494L19.777 92.2347C18.262 91.5327 16.5308 91.1974 14.6087 91.1974V93.1974ZM18.9427 94.0524C20.1653 94.6081 21.0914 95.3651 21.757 96.314L23.3943 95.1654C22.5021 93.8936 21.2821 92.9189 19.7703 92.2317L18.9427 94.0524ZM21.759 96.3169C22.4146 97.2445 22.7598 98.3144 22.7814 99.5603L24.7811 99.5256C24.753 97.9046 24.2944 96.439 23.3923 95.1625L21.759 96.3169ZM23.7812 98.543H19.3441V100.543H23.7812V98.543ZM44.286 92.5455V91.5455H43.286V92.5455H44.286ZM48.8971 92.5455H49.8971V91.5455H48.8971V92.5455ZM47.6045 113.985L46.7556 113.457L46.7534 113.46L47.6045 113.985ZM44.0001 117.229L44.4454 118.125L44.4492 118.123L44.0001 117.229ZM33.1247 117.229L32.6756 118.123L32.6794 118.125L33.1247 117.229ZM29.5203 113.985L30.3715 113.46L29.5203 113.985ZM28.2401 92.5455V91.5455H27.2401V92.5455H28.2401ZM32.8513 92.5455H33.8513V91.5455H32.8513V92.5455ZM33.5473 111.624L32.6748 112.113L32.6785 112.119L33.5473 111.624ZM35.536 113.575L35.0517 114.45L35.0583 114.454L35.536 113.575ZM41.6013 113.575L42.079 114.454L42.0819 114.452L41.6013 113.575ZM43.5899 111.624L44.4624 112.113L44.4624 112.113L43.5899 111.624ZM44.286 93.5455H48.8971V91.5455H44.286V93.5455ZM47.8971 92.5455V109.175H49.8971V92.5455H47.8971ZM47.8971 109.175C47.8971 110.834 47.5072 112.25 46.7556 113.457L48.4533 114.514C49.4252 112.953 49.8971 111.162 49.8971 109.175H47.8971ZM46.7534 113.46C46.0037 114.676 44.9464 115.634 43.551 116.336L44.4492 118.123C46.1527 117.267 47.4984 116.062 48.4556 114.51L46.7534 113.46ZM43.5548 116.334C42.1683 117.024 40.5157 117.385 38.5686 117.385V119.385C40.7645 119.385 42.7329 118.976 44.4454 118.125L43.5548 116.334ZM38.5686 117.385C36.6125 117.385 34.956 117.023 33.57 116.334L32.6794 118.125C34.3925 118.977 36.3652 119.385 38.5686 119.385V117.385ZM33.5739 116.336C32.1784 115.634 31.1211 114.676 30.3715 113.46L28.6692 114.51C29.6265 116.062 30.9721 117.267 32.6756 118.123L33.5739 116.336ZM30.3715 113.46C29.6268 112.253 29.2401 110.836 29.2401 109.175H27.2401C27.2401 111.161 27.707 112.95 28.6692 114.51L30.3715 113.46ZM29.2401 109.175V92.5455H27.2401V109.175H29.2401ZM28.2401 93.5455H32.8513V91.5455H28.2401V93.5455ZM31.8513 92.5455V108.79H33.8513V92.5455H31.8513ZM31.8513 108.79C31.8513 110.001 32.1178 111.118 32.6748 112.113L34.4198 111.135C34.0488 110.473 33.8513 109.7 33.8513 108.79H31.8513ZM32.6785 112.119C33.2439 113.111 34.0415 113.891 35.0518 114.45L36.0202 112.7C35.3235 112.315 34.7953 111.794 34.4161 111.129L32.6785 112.119ZM35.0583 114.454C36.0853 115.012 37.2671 115.271 38.5686 115.271V113.271C37.5335 113.271 36.6935 113.066 36.0136 112.697L35.0583 114.454ZM38.5686 115.271C39.8702 115.271 41.0519 115.012 42.079 114.454L41.1236 112.697C40.4437 113.066 39.6038 113.271 38.5686 113.271V115.271ZM42.0819 114.452C43.1021 113.893 43.9035 113.111 44.4624 112.113L42.7174 111.135C42.3483 111.794 41.824 112.313 41.1207 112.698L42.0819 114.452ZM44.4624 112.113C45.0195 111.118 45.286 110.001 45.286 108.79H43.286C43.286 109.7 43.0884 110.473 42.7174 111.135L44.4624 112.113ZM45.286 108.79V92.5455H43.286V108.79H45.286ZM53.9091 118H52.9091V119H53.9091V118ZM53.9091 92.5455V91.5455H52.9091V92.5455H53.9091ZM68.3764 93.6392L67.8945 94.5154L67.8968 94.5167L68.3764 93.6392ZM71.3967 96.647L70.514 97.117L70.5177 97.1239L71.3967 96.647ZM71.3967 105.322L72.2757 105.799L72.2757 105.799L71.3967 105.322ZM68.3516 108.318L68.8247 109.199L68.8289 109.197L68.3516 108.318ZM57.0661 109.399H56.0661V110.399H57.0661V109.399ZM57.0661 105.608V104.608H56.0661V105.608H57.0661ZM65.5799 105.012L66.0588 105.89L66.0588 105.89L65.5799 105.012ZM67.1957 103.371L66.3055 102.915L66.3012 102.924L67.1957 103.371ZM67.1957 98.5859L66.3034 99.0375L66.3078 99.0459L67.1957 98.5859ZM65.5675 96.9826L65.0963 97.8648L65.1083 97.871L65.5675 96.9826ZM58.5202 96.3984V95.3984H57.5202V96.3984H58.5202ZM58.5202 118V119H59.5202V118H58.5202ZM54.9091 118V92.5455H52.9091V118H54.9091ZM53.9091 93.5455H63.4545V91.5455H53.9091V93.5455ZM63.4545 93.5455C65.2895 93.5455 66.7534 93.8878 67.8945 94.5154L68.8583 92.763C67.348 91.9323 65.5306 91.5455 63.4545 91.5455V93.5455ZM67.8968 94.5167C69.0689 95.1573 69.9311 96.0223 70.514 97.117L72.2793 96.177C71.5033 94.7196 70.352 93.5794 68.856 92.7617L67.8968 94.5167ZM70.5177 97.1239C71.1168 98.2283 71.4283 99.5027 71.4283 100.972H73.4283C73.4283 99.2104 73.052 97.6012 72.2757 96.1702L70.5177 97.1239ZM71.4283 100.972C71.4283 102.46 71.116 103.743 70.5177 104.846L72.2757 105.799C73.0528 104.367 73.4283 102.749 73.4283 100.972H71.4283ZM70.5177 104.846C69.9277 105.933 69.0572 106.797 67.8742 107.439L68.8289 109.197C70.3306 108.381 71.4901 107.247 72.2757 105.799L70.5177 104.846ZM67.8784 107.437C66.7176 108.06 65.2374 108.399 63.3924 108.399V110.399C65.4749 110.399 67.3009 110.017 68.8247 109.199L67.8784 107.437ZM63.3924 108.399H57.0661V110.399H63.3924V108.399ZM58.0661 109.399V105.608H56.0661V109.399H58.0661ZM57.0661 106.608H62.771V104.608H57.0661V106.608ZM62.771 106.608C64.0218 106.608 65.1378 106.392 66.0588 105.89L65.101 104.134C64.5637 104.427 63.8071 104.608 62.771 104.608V106.608ZM66.0588 105.89C66.9544 105.401 67.6445 104.71 68.0901 103.818L66.3012 102.924C66.0508 103.425 65.6637 103.827 65.101 104.134L66.0588 105.89ZM68.0858 103.827C68.5248 102.969 68.7301 102.009 68.7301 100.972H66.7301C66.7301 101.742 66.5792 102.381 66.3055 102.915L68.0858 103.827ZM68.7301 100.972C68.7301 99.9356 68.5249 98.9777 68.0836 98.1259L66.3078 99.0459C66.5791 99.5696 66.7301 100.203 66.7301 100.972H68.7301ZM68.0879 98.1344C67.6376 97.2445 66.9356 96.564 66.0266 96.0942L65.1083 97.871C65.6743 98.1635 66.0577 98.5519 66.3034 99.0374L68.0879 98.1344ZM66.0386 96.1005C65.1187 95.6092 64.0011 95.3984 62.7461 95.3984V97.3984C63.7946 97.3984 64.5579 97.5771 65.0964 97.8647L66.0386 96.1005ZM62.7461 95.3984H58.5202V97.3984H62.7461V95.3984ZM57.5202 96.3984V118H59.5202V96.3984H57.5202ZM58.5202 117H53.9091V119H58.5202V117ZM76.4335 118H75.4335V119H76.4335V118ZM76.4335 92.5455V91.5455H75.4335V92.5455H76.4335ZM90.9008 93.6392L90.4189 94.5154L90.4212 94.5167L90.9008 93.6392ZM93.9211 96.647L93.0384 97.117L93.0421 97.1239L93.9211 96.647ZM93.9211 105.322L94.8001 105.799L94.8001 105.799L93.9211 105.322ZM90.876 108.318L91.3491 109.199L91.3533 109.197L90.876 108.318ZM79.5905 109.399H78.5905V110.399H79.5905V109.399ZM79.5905 105.608V104.608H78.5905V105.608H79.5905ZM88.1043 105.012L88.5832 105.89L88.5832 105.89L88.1043 105.012ZM89.7201 103.371L88.8299 102.915L88.8257 102.924L89.7201 103.371ZM89.7201 98.5859L88.8278 99.0375L88.8322 99.0459L89.7201 98.5859ZM88.0919 96.9826L87.6207 97.8648L87.6327 97.871L88.0919 96.9826ZM81.0447 96.3984V95.3984H80.0447V96.3984H81.0447ZM81.0447 118V119H82.0447V118H81.0447ZM77.4335 118V92.5455H75.4335V118H77.4335ZM76.4335 93.5455H85.979V91.5455H76.4335V93.5455ZM85.979 93.5455C87.8139 93.5455 89.2778 93.8878 90.4189 94.5154L91.3828 92.763C89.8724 91.9323 88.055 91.5455 85.979 91.5455V93.5455ZM90.4212 94.5167C91.5933 95.1573 92.4555 96.0223 93.0384 97.117L94.8037 96.177C94.0277 94.7196 92.8764 93.5794 91.3805 92.7617L90.4212 94.5167ZM93.0421 97.1239C93.6412 98.2283 93.9527 99.5027 93.9527 100.972H95.9527C95.9527 99.2104 95.5764 97.6012 94.8001 96.1702L93.0421 97.1239ZM93.9527 100.972C93.9527 102.46 93.6404 103.743 93.0421 104.846L94.8001 105.799C95.5772 104.367 95.9527 102.749 95.9527 100.972H93.9527ZM93.0421 104.846C92.4521 105.933 91.5816 106.797 90.3986 107.439L91.3533 109.197C92.855 108.381 94.0146 107.247 94.8001 105.799L93.0421 104.846ZM90.4028 107.437C89.242 108.06 87.7619 108.399 85.9168 108.399V110.399C87.9993 110.399 89.8253 110.017 91.3491 109.199L90.4028 107.437ZM85.9168 108.399H79.5905V110.399H85.9168V108.399ZM80.5905 109.399V105.608H78.5905V109.399H80.5905ZM79.5905 106.608H85.2954V104.608H79.5905V106.608ZM85.2954 106.608C86.5462 106.608 87.6622 106.392 88.5832 105.89L87.6255 104.134C87.0881 104.427 86.3315 104.608 85.2954 104.608V106.608ZM88.5832 105.89C89.4788 105.401 90.1689 104.71 90.6145 103.818L88.8257 102.924C88.5752 103.425 88.1881 103.827 87.6255 104.134L88.5832 105.89ZM90.6102 103.827C91.0492 102.969 91.2545 102.009 91.2545 100.972H89.2545C89.2545 101.742 89.1036 102.381 88.8299 102.915L90.6102 103.827ZM91.2545 100.972C91.2545 99.9356 91.0493 98.9777 90.608 98.1259L88.8322 99.0459C89.1035 99.5696 89.2545 100.203 89.2545 100.972H91.2545ZM90.6123 98.1344C90.162 97.2445 89.46 96.564 88.551 96.0942L87.6327 97.871C88.1987 98.1635 88.5821 98.5519 88.8278 99.0374L90.6123 98.1344ZM88.563 96.1005C87.6431 95.6092 86.5255 95.3984 85.2705 95.3984V97.3984C86.319 97.3984 87.0823 97.5771 87.6208 97.8647L88.563 96.1005ZM85.2705 95.3984H81.0447V97.3984H85.2705V95.3984ZM80.0447 96.3984V118H82.0447V96.3984H80.0447ZM81.0447 117H76.4335V119H81.0447V117Z" fill="white" mask="url(#path-5-outside-2_807_263)"/>
</g>
<g filter="url(#filter3_d_807_263)">
<mask id="path-7-outside-3_807_263" maskUnits="userSpaceOnUse" x="126" y="91" width="45" height="28" fill="black">
<rect fill="white" x="126" y="91" width="45" height="28"/>
<path d="M127.642 118V92.5455H137.187C139.142 92.5455 140.783 92.8852 142.109 93.5646C143.443 94.2441 144.45 95.197 145.129 96.4233C145.817 97.6413 146.161 99.0624 146.161 100.686C146.161 102.319 145.813 103.736 145.117 104.937C144.429 106.13 143.414 107.054 142.072 107.709C140.729 108.355 139.08 108.678 137.125 108.678H130.326V104.85H136.503C137.647 104.85 138.583 104.693 139.312 104.378C140.041 104.055 140.58 103.587 140.928 102.973C141.284 102.352 141.463 101.59 141.463 100.686C141.463 99.7833 141.284 99.0127 140.928 98.3746C140.572 97.7283 140.029 97.2395 139.3 96.908C138.571 96.5683 137.63 96.3984 136.479 96.3984H132.253V118H127.642ZM140.791 106.466L147.093 118H141.947L135.758 106.466H140.791ZM149.287 96.4109V92.5455H169.596V96.4109H161.728V118H157.154V96.4109H149.287Z"/>
</mask>
<path d="M127.642 118V92.5455H137.187C139.142 92.5455 140.783 92.8852 142.109 93.5646C143.443 94.2441 144.45 95.197 145.129 96.4233C145.817 97.6413 146.161 99.0624 146.161 100.686C146.161 102.319 145.813 103.736 145.117 104.937C144.429 106.13 143.414 107.054 142.072 107.709C140.729 108.355 139.08 108.678 137.125 108.678H130.326V104.85H136.503C137.647 104.85 138.583 104.693 139.312 104.378C140.041 104.055 140.58 103.587 140.928 102.973C141.284 102.352 141.463 101.59 141.463 100.686C141.463 99.7833 141.284 99.0127 140.928 98.3746C140.572 97.7283 140.029 97.2395 139.3 96.908C138.571 96.5683 137.63 96.3984 136.479 96.3984H132.253V118H127.642ZM140.791 106.466L147.093 118H141.947L135.758 106.466H140.791ZM149.287 96.4109V92.5455H169.596V96.4109H161.728V118H157.154V96.4109H149.287Z" fill="#380445"/>
<path d="M127.642 118H126.642V119H127.642V118ZM127.642 92.5455V91.5455H126.642V92.5455H127.642ZM142.109 93.5646L141.653 94.4546L141.655 94.4557L142.109 93.5646ZM145.129 96.4233L144.254 96.9079L144.258 96.915L145.129 96.4233ZM145.117 104.937L144.251 104.436L144.25 104.438L145.117 104.937ZM142.072 107.709L142.505 108.61L142.51 108.608L142.072 107.709ZM130.326 108.678H129.326V109.678H130.326V108.678ZM130.326 104.85V103.85H129.326V104.85H130.326ZM139.312 104.378L139.709 105.296L139.717 105.292L139.312 104.378ZM140.928 102.973L140.061 102.476L140.058 102.48L140.928 102.973ZM140.928 98.3746L140.052 98.8574L140.055 98.8622L140.928 98.3746ZM139.3 96.908L138.878 97.8145L138.886 97.8184L139.3 96.908ZM132.253 96.3984V95.3984H131.253V96.3984H132.253ZM132.253 118V119H133.253V118H132.253ZM140.791 106.466L141.669 105.986L141.385 105.466H140.791V106.466ZM147.093 118V119H148.779L147.97 117.521L147.093 118ZM141.947 118L141.066 118.473L141.349 119H141.947V118ZM135.758 106.466V105.466H134.086L134.876 106.939L135.758 106.466ZM128.642 118V92.5455H126.642V118H128.642ZM127.642 93.5455H137.187V91.5455H127.642V93.5455ZM137.187 93.5455C139.032 93.5455 140.505 93.8665 141.653 94.4546L142.565 92.6747C141.061 91.9039 139.253 91.5455 137.187 91.5455V93.5455ZM141.655 94.4557C142.824 95.0511 143.678 95.8681 144.254 96.9079L146.004 95.9387C145.221 94.5259 144.062 93.437 142.563 92.6735L141.655 94.4557ZM144.258 96.915C144.849 97.9603 145.161 99.2067 145.161 100.686H147.161C147.161 98.9181 146.785 97.3223 146 95.9316L144.258 96.915ZM145.161 100.686C145.161 102.174 144.845 103.412 144.251 104.436L145.982 105.438C146.781 104.06 147.161 102.464 147.161 100.686H145.161ZM144.25 104.438C143.671 105.443 142.812 106.235 141.633 106.81L142.51 108.608C144.016 107.873 145.187 106.817 145.983 105.437L144.25 104.438ZM141.638 106.808C140.466 107.372 138.975 107.678 137.125 107.678V109.678C139.186 109.678 140.992 109.338 142.505 108.61L141.638 106.808ZM137.125 107.678H130.326V109.678H137.125V107.678ZM131.326 108.678V104.85H129.326V108.678H131.326ZM130.326 105.85H136.503V103.85H130.326V105.85ZM136.503 105.85C137.728 105.85 138.812 105.683 139.709 105.296L138.916 103.46C138.354 103.702 137.566 103.85 136.503 103.85V105.85ZM139.717 105.292C140.616 104.894 141.33 104.291 141.798 103.467L140.058 102.48C139.83 102.883 139.467 103.215 138.907 103.464L139.717 105.292ZM141.796 103.471C142.259 102.663 142.463 101.719 142.463 100.686H140.463C140.463 101.46 140.31 102.041 140.061 102.476L141.796 103.471ZM142.463 100.686C142.463 99.6524 142.258 98.7054 141.801 97.8871L140.055 98.8622C140.311 99.3199 140.463 99.9141 140.463 100.686H142.463ZM141.804 97.8919C141.335 97.0407 140.621 96.4101 139.714 95.9977L138.886 97.8184C139.437 98.0688 139.809 98.416 140.052 98.8574L141.804 97.8919ZM139.722 96.0016C138.816 95.5796 137.718 95.3984 136.479 95.3984V97.3984C137.543 97.3984 138.325 97.557 138.878 97.8145L139.722 96.0016ZM136.479 95.3984H132.253V97.3984H136.479V95.3984ZM131.253 96.3984V118H133.253V96.3984H131.253ZM132.253 117H127.642V119H132.253V117ZM139.914 106.945L146.215 118.479L147.97 117.521L141.669 105.986L139.914 106.945ZM147.093 117H141.947V119H147.093V117ZM142.828 117.527L136.639 105.993L134.876 106.939L141.066 118.473L142.828 117.527ZM135.758 107.466H140.791V105.466H135.758V107.466ZM149.287 96.4109H148.287V97.4109H149.287V96.4109ZM149.287 92.5455V91.5455H148.287V92.5455H149.287ZM169.596 92.5455H170.596V91.5455H169.596V92.5455ZM169.596 96.4109V97.4109H170.596V96.4109H169.596ZM161.728 96.4109V95.4109H160.728V96.4109H161.728ZM161.728 118V119H162.728V118H161.728ZM157.154 118H156.154V119H157.154V118ZM157.154 96.4109H158.154V95.4109H157.154V96.4109ZM150.287 96.4109V92.5455H148.287V96.4109H150.287ZM149.287 93.5455H169.596V91.5455H149.287V93.5455ZM168.596 92.5455V96.4109H170.596V92.5455H168.596ZM169.596 95.4109H161.728V97.4109H169.596V95.4109ZM160.728 96.4109V118H162.728V96.4109H160.728ZM161.728 117H157.154V119H161.728V117ZM158.154 118V96.4109H156.154V118H158.154ZM157.154 95.4109H149.287V97.4109H157.154V95.4109Z" fill="white" mask="url(#path-7-outside-3_807_263)"/>
</g>
<defs>
<filter id="filter0_d_807_263" x="93.9999" y="92" width="33.0001" height="36" filterUnits="userSpaceOnUse" color-interpolation-filters="sRGB">
<feFlood flood-opacity="0" result="BackgroundImageFix"/>
<feColorMatrix in="SourceAlpha" type="matrix" values="0 0 0 0 0 0 0 0 0 0 0 0 0 0 0 0 0 0 127 0" result="hardAlpha"/>
<feOffset dy="4"/>
<feGaussianBlur stdDeviation="2"/>
<feComposite in2="hardAlpha" operator="out"/>
<feColorMatrix type="matrix" values="0 0 0 0 0 0 0 0 0 0 0 0 0 0 0 0 0 0 0.25 0"/>
<feBlend mode="normal" in2="BackgroundImageFix" result="effect1_dropShadow_807_263"/>
<feBlend mode="normal" in="SourceGraphic" in2="effect1_dropShadow_807_263" result="shape"/>
</filter>
<filter id="filter1_d_807_263" x="5.45599" y="18.3814" width="164.773" height="76.6186" filterUnits="userSpaceOnUse" color-interpolation-filters="sRGB">
<feFlood flood-opacity="0" result="BackgroundImageFix"/>
<feColorMatrix in="SourceAlpha" type="matrix" values="0 0 0 0 0 0 0 0 0 0 0 0 0 0 0 0 0 0 127 0" result="hardAlpha"/>
<feOffset dy="4"/>
<feGaussianBlur stdDeviation="2"/>
<feComposite in2="hardAlpha" operator="out"/>
<feColorMatrix type="matrix" values="0 0 0 0 0 0 0 0 0 0 0 0 0 0 0 0 0 0 0.25 0"/>
<feBlend mode="normal" in2="BackgroundImageFix" result="effect1_dropShadow_807_263"/>
<feBlend mode="normal" in="SourceGraphic" in2="effect1_dropShadow_807_263" result="shape"/>
</filter>
<filter id="filter2_d_807_263" x="0.590881" y="92.1974" width="98.3618" height="34.1879" filterUnits="userSpaceOnUse" color-interpolation-filters="sRGB">
<feFlood flood-opacity="0" result="BackgroundImageFix"/>
<feColorMatrix in="SourceAlpha" type="matrix" values="0 0 0 0 0 0 0 0 0 0 0 0 0 0 0 0 0 0 127 0" result="hardAlpha"/>
<feOffset dy="4"/>
<feGaussianBlur stdDeviation="2"/>
<feComposite in2="hardAlpha" operator="out"/>
<feColorMatrix type="matrix" values="0 0 0 0 0 0 0 0 0 0 0 0 0 0 0 0 0 0 0.25 0"/>
<feBlend mode="normal" in2="BackgroundImageFix" result="effect1_dropShadow_807_263"/>
<feBlend mode="normal" in="SourceGraphic" in2="effect1_dropShadow_807_263" result="shape"/>
</filter>
<filter id="filter3_d_807_263" x="123.642" y="92.5455" width="49.954" height="33.4545" filterUnits="userSpaceOnUse" color-interpolation-filters="sRGB">
<feFlood flood-opacity="0" result="BackgroundImageFix"/>
<feColorMatrix in="SourceAlpha" type="matrix" values="0 0 0 0 0 0 0 0 0 0 0 0 0 0 0 0 0 0 127 0" result="hardAlpha"/>
<feOffset dy="4"/>
<feGaussianBlur stdDeviation="2"/>
<feComposite in2="hardAlpha" operator="out"/>
<feColorMatrix type="matrix" values="0 0 0 0 0 0 0 0 0 0 0 0 0 0 0 0 0 0 0.25 0"/>
<feBlend mode="normal" in2="BackgroundImageFix" result="effect1_dropShadow_807_263"/>
<feBlend mode="normal" in="SourceGraphic" in2="effect1_dropShadow_807_263" result="shape"/>
</filter>
</defs>
</svg>
