<svg width="64" height="109" viewBox="0 0 64 109" fill="none" xmlns="http://www.w3.org/2000/svg">
<g opacity="0.9" clip-path="url(#clip0_227_1261)">
<path d="M80.9178 20.0147C82.3041 19.1613 83.4255 17.9389 84.1565 16.4844C84.8876 15.0298 85.1993 13.4005 85.0569 11.7788C85.0306 11.4756 84.9881 11.1741 84.9297 10.8754C84.666 9.72602 84.1655 8.64422 83.4601 7.69914C82.7547 6.75405 81.86 5.96646 80.8331 5.38664C79.8062 4.80683 78.6697 4.44754 77.4961 4.33173C76.3225 4.21592 75.1377 4.34613 74.0172 4.71404L71.5584 5.4683L70.6534 3.08973C70.2508 1.98118 69.6215 0.968788 68.8056 0.117233C67.9897 -0.734322 67.0051 -1.40631 65.9147 -1.85581C64.8244 -2.3053 63.6523 -2.52241 62.4733 -2.49326C61.2943 -2.46411 60.1343 -2.18935 59.0675 -1.68653C58.7966 -1.54791 58.5333 -1.39504 58.2785 -1.22857C56.9146 -0.338702 55.8253 0.913378 55.1328 2.38739C54.4403 3.86141 54.1719 5.49913 54.3576 7.11709L57.9774 28.3498L47.7141 9.39592C46.8611 8.00923 45.6388 6.8875 44.1841 6.15644C42.7295 5.42538 41.1 5.11388 39.4782 5.25685C39.1745 5.28371 38.8723 5.32583 38.5729 5.38305C37.4234 5.64701 36.3417 6.14774 35.3967 6.85328C34.4516 7.55881 33.6641 8.45365 33.0844 9.48067C32.5046 10.5077 32.1454 11.6443 32.0296 12.8179C31.9138 13.9916 32.0441 15.1765 32.412 16.297L33.1636 18.7435L30.7807 19.655C29.6721 20.0575 28.6597 20.6869 27.8082 21.5028C26.9566 22.3187 26.2846 23.3033 25.8351 24.3937C25.3857 25.484 25.1685 26.6561 25.1977 27.8351C25.2268 29.0141 25.5016 30.1741 26.0044 31.2409C26.1429 31.5118 26.2958 31.7752 26.4624 32.0298C27.3523 33.396 28.6054 34.4869 30.081 35.1802C31.5567 35.8735 33.1964 36.1417 34.816 35.9546L58.9986 31.3033L59.0119 31.2987L80.9178 20.0147ZM91.5408 30.5796C90.6517 29.2156 89.4002 28.1261 87.9267 27.4334C86.4531 26.7407 84.8157 26.4721 83.1981 26.6577L59.009 31.2997L37.0948 42.5981C35.708 43.4513 34.5862 44.6739 33.8552 46.1288C33.1242 47.5838 32.813 49.2136 32.9563 50.8355C32.983 51.1387 33.0249 51.4404 33.082 51.7394C33.3457 52.8889 33.8463 53.9708 34.5518 54.916C35.2573 55.8611 36.1521 56.6488 37.1792 57.2285C38.2063 57.8083 39.343 58.1675 40.5167 58.2832C41.6904 58.3988 42.8754 58.2684 43.9959 57.9003L46.4388 57.1383L47.3503 59.5212C47.7531 60.6296 48.3825 61.6419 49.1985 62.4933C50.0144 63.3447 50.999 64.0166 52.0893 64.4661C53.1795 64.9155 54.3516 65.1327 55.5305 65.1037C56.7094 65.0746 57.8694 64.8001 58.9362 64.2975C59.2071 64.1575 59.4707 64.004 59.7261 63.8375C61.0898 62.9483 62.179 61.6968 62.8714 60.2234C63.5639 58.7499 63.8323 57.1127 63.6466 55.4953L60.0198 34.2567L64.5922 42.6995L70.2946 53.2199C71.1483 54.6062 72.371 55.7276 73.8258 56.4585C75.2806 57.1894 76.9101 57.5011 78.532 57.3585C78.835 57.3313 79.1365 57.2889 79.4353 57.2313C80.5847 56.9676 81.6665 56.4671 82.6116 55.7617C83.5567 55.0564 84.3443 54.1617 84.9241 53.1348C85.5039 52.1078 85.8632 50.9713 85.979 49.7977C86.0948 48.6241 85.9646 47.4393 85.5967 46.3189L84.8336 43.8631L87.216 42.9501C88.3246 42.5476 89.337 41.9182 90.1885 41.1023C91.0401 40.2864 91.7121 39.3018 92.1616 38.2114C92.6111 37.1211 92.8282 35.949 92.799 34.77C92.7699 33.591 92.4951 32.431 91.9923 31.3642C91.855 31.0953 91.7043 30.8335 91.5408 30.5796Z" fill="#380445"/>
<path d="M20.7138 54.46C21.5294 54.178 21.962 53.2882 21.68 52.4726C21.398 51.6571 20.5082 51.2245 19.6927 51.5065C18.8771 51.7885 18.4445 52.6782 18.7265 53.4938C19.0085 54.3094 19.8983 54.7419 20.7138 54.46Z" fill="#41788E"/>
<path d="M54.7732 95.5881C55.5887 95.3061 56.0213 94.4164 55.7393 93.6008C55.4573 92.7852 54.5676 92.3527 53.752 92.6347C52.9364 92.9167 52.5039 93.8064 52.7859 94.622C53.0678 95.4376 53.9576 95.8701 54.7732 95.5881Z" fill="#41788E"/>
<path d="M64.5922 42.6995L60.0198 34.2568L62.3257 47.7304C63.9827 53.9094 66.0275 60.5263 67.477 65.0676C68.6087 68.6145 69.9297 72.0982 71.4342 75.5037L76.3436 86.614C76.5024 86.9734 76.7907 87.2598 77.1511 87.4161C77.5116 87.5724 77.9177 87.5872 78.2885 87.4576L82.1664 86.1168C82.3914 86.0386 82.5955 85.9101 82.7631 85.741C82.9308 85.5719 83.0576 85.3667 83.1339 85.1411C83.2101 84.9155 83.2338 84.6755 83.2031 84.4394C83.1724 84.2032 83.0881 83.9772 82.9567 83.7786C77.5011 75.8082 65.2732 44.4397 64.5922 42.6995Z" fill="#744F7D"/>
<path d="M60.0198 34.2567L61.7471 44.3544C67.152 58.643 75.8478 80.0351 81.3542 86.3976L82.1605 86.1188C82.3854 86.0406 82.5895 85.9121 82.7572 85.743C82.9249 85.5739 83.0517 85.3687 83.1279 85.1431C83.2042 84.9176 83.2279 84.6775 83.1972 84.4414C83.1665 84.2052 83.0822 83.9792 82.9508 83.7806C77.5011 75.8082 65.2732 44.4397 64.5921 42.6995L60.0198 34.2567Z" fill="#380445"/>
<path d="M62.4996 31.2682C62.127 31.087 61.8417 30.7652 61.7063 30.3737C61.5709 29.9821 61.5966 29.5528 61.7777 29.1801L70.0729 12.1171C70.2217 11.75 70.2255 11.34 70.0835 10.9701C69.9415 10.6003 69.6643 10.2982 69.308 10.1249C68.9517 9.95173 68.5429 9.92032 68.1643 10.0371C67.7858 10.1539 67.4657 10.4101 67.2688 10.7539L58.9736 27.8169C58.7924 28.1895 58.4706 28.4749 58.079 28.6103C57.6874 28.7456 57.2581 28.72 56.8855 28.5389L39.818 20.2451C39.6323 20.1388 39.4266 20.0717 39.2139 20.0482C39.0011 20.0246 38.7858 20.045 38.5812 20.1081C38.3767 20.1711 38.1873 20.2756 38.0248 20.4149C37.8623 20.5542 37.7301 20.7255 37.6365 20.918C37.5429 21.1105 37.4899 21.3202 37.4807 21.5341C37.4715 21.7479 37.5063 21.9614 37.5831 22.1612C37.6598 22.3611 37.7768 22.543 37.9267 22.6957C38.0767 22.8485 38.2564 22.9688 38.4548 23.0492L55.5149 31.3505C55.8875 31.5317 56.1729 31.8534 56.3083 32.245C56.4437 32.6366 56.418 33.0659 56.2369 33.4385L47.9461 50.5C47.8521 50.685 47.796 50.8869 47.7809 51.0938C47.7658 51.3007 47.792 51.5086 47.8581 51.7052C47.9242 51.9019 48.0288 52.0834 48.1658 52.2392C48.3028 52.3951 48.4695 52.522 48.656 52.6127C48.8426 52.7035 49.0454 52.7561 49.2526 52.7676C49.4597 52.7791 49.6671 52.7492 49.8626 52.6797C50.0581 52.6102 50.2378 52.5025 50.3912 52.3628C50.5446 52.2231 50.6687 52.0543 50.7561 51.8661L59.0498 34.7987C59.2311 34.4261 59.5528 34.1407 59.9444 34.0054C60.336 33.87 60.7653 33.8956 61.1379 34.0767L78.193 42.3681C78.5645 42.5408 78.989 42.5607 79.375 42.4235C79.7611 42.2862 80.0777 42.0029 80.2569 41.6344C80.436 41.2659 80.4633 40.8419 80.3327 40.4535C80.2022 40.0652 79.9244 39.7436 79.5591 39.5581L62.4996 31.2682Z" fill="#744F7D"/>
<path d="M87.9476 -9.29128C88.1434 -9.35899 88.3043 -9.50172 88.3949 -9.68806C88.4855 -9.87441 88.4983 -10.0891 88.4306 -10.2849L87.92 -11.7617C87.8523 -11.9575 87.7096 -12.1184 87.5233 -12.209C87.3369 -12.2996 87.1222 -12.3124 86.9264 -12.2447C86.7306 -12.177 86.5697 -12.0343 86.4791 -11.8479C86.3885 -11.6616 86.3756 -11.4469 86.4433 -11.2511L86.9539 -9.77435C87.0216 -9.57853 87.1643 -9.41762 87.3507 -9.32703C87.537 -9.23643 87.7517 -9.22358 87.9476 -9.29128ZM91.9222 -7.35901L93.3989 -7.86959C93.5947 -7.9373 93.7556 -8.08002 93.8462 -8.26637C93.9368 -8.45272 93.9497 -8.66742 93.882 -8.86324C93.8143 -9.05907 93.6715 -9.21998 93.4852 -9.31057C93.2988 -9.40116 93.0841 -9.41402 92.8883 -9.34631L91.4116 -8.83573C91.2158 -8.76802 91.0549 -8.6253 90.9643 -8.43895C90.8737 -8.2526 90.8608 -8.0379 90.9285 -7.84208C90.9962 -7.64625 91.1389 -7.48534 91.3253 -7.39475C91.5116 -7.30416 91.7263 -7.2913 91.9222 -7.35901ZM90.5005 -1.90767C90.6963 -1.97538 90.8572 -2.1181 90.9478 -2.30445C91.0384 -2.4908 91.0513 -2.7055 90.9835 -2.90132L90.473 -4.37805C90.4053 -4.57387 90.2625 -4.73478 90.0762 -4.82537C89.8898 -4.91597 89.6751 -4.92882 89.4793 -4.86112C89.2835 -4.79341 89.1226 -4.65068 89.032 -4.46434C88.9414 -4.27799 88.9285 -4.06329 88.9962 -3.86746L89.5068 -2.39074C89.5745 -2.19491 89.7173 -2.034 89.9036 -1.94341C90.0899 -1.85282 90.3046 -1.83996 90.5005 -1.90767ZM84.5386 -4.80609L86.0153 -5.31667C86.2111 -5.38438 86.372 -5.5271 86.4626 -5.71345C86.5532 -5.8998 86.5661 -6.1145 86.4983 -6.31032C86.4306 -6.50615 86.2879 -6.66706 86.1016 -6.75765C85.9152 -6.84824 85.7005 -6.8611 85.5047 -6.79339L84.028 -6.28281C83.8321 -6.2151 83.6712 -6.07238 83.5806 -5.88603C83.49 -5.69968 83.4772 -5.48498 83.5449 -5.28916C83.6126 -5.09333 83.7553 -4.93242 83.9417 -4.84183C84.128 -4.75124 84.3427 -4.73838 84.5386 -4.80609ZM41.8909 70.2835C41.8232 70.0877 41.6804 69.9268 41.4941 69.8362C41.3077 69.7456 41.093 69.7327 40.8972 69.8005C40.7014 69.8682 40.5405 70.0109 40.4499 70.1972C40.3593 70.3836 40.3464 70.5983 40.4141 70.7941L40.9247 72.2708C40.9924 72.4667 41.1352 72.6276 41.3215 72.7182C41.5078 72.8088 41.7225 72.8216 41.9184 72.7539C42.1142 72.6862 42.2751 72.5435 42.3657 72.3571C42.4563 72.1708 42.4692 71.9561 42.4014 71.7602L41.8909 70.2835ZM47.3697 74.1756C47.5655 74.1079 47.7264 73.9652 47.817 73.7788C47.9076 73.5925 47.9205 73.3778 47.8528 73.1819C47.7851 72.9861 47.6423 72.8252 47.456 72.7346C47.2697 72.644 47.055 72.6312 46.8591 72.6989L45.3824 73.2095C45.1866 73.2772 45.0257 73.4199 44.9351 73.6062C44.8445 73.7926 44.8316 74.0073 44.8993 74.2031C44.967 74.3989 45.1098 74.5598 45.2961 74.6504C45.4825 74.741 45.6972 74.7539 45.893 74.6862L47.3697 74.1756ZM43.4501 77.1841C43.2543 77.2518 43.0934 77.3945 43.0028 77.5808C42.9122 77.7672 42.8993 77.9819 42.9671 78.1777L43.4776 79.6544C43.5453 79.8503 43.6881 80.0112 43.8744 80.1018C44.0608 80.1924 44.2755 80.2052 44.4713 80.1375C44.6671 80.0698 44.828 79.9271 44.9186 79.7407C45.0092 79.5544 45.0221 79.3397 44.9544 79.1439L44.4438 77.6671C44.3761 77.4713 44.2333 77.3104 44.047 77.2198C43.8607 77.1292 43.6459 77.1164 43.4501 77.1841ZM38.5094 77.2391L39.9861 76.7285C40.1819 76.6608 40.3428 76.5181 40.4334 76.3317C40.524 76.1454 40.5369 75.9307 40.4692 75.7349C40.4015 75.539 40.2587 75.3781 40.0724 75.2875C39.886 75.1969 39.6713 75.1841 39.4755 75.2518L37.9988 75.7624C37.803 75.8301 37.6421 75.9728 37.5515 76.1591C37.4609 76.3455 37.448 76.5602 37.5157 76.756C37.5834 76.9518 37.7262 77.1128 37.9125 77.2034C38.0988 77.2939 38.3135 77.3068 38.5094 77.2391ZM16.0987 17.204C16.2945 17.1363 16.4555 16.9936 16.546 16.8073C16.6366 16.6209 16.6495 16.4062 16.5818 16.2104L16.0712 14.7337C16.0035 14.5378 15.8608 14.3769 15.6744 14.2863C15.4881 14.1957 15.2734 14.1829 15.0776 14.2506C14.8817 14.3183 14.7208 14.461 14.6302 14.6474C14.5396 14.8337 14.5268 15.0484 14.5945 15.2442L15.1051 16.721C15.1728 16.9168 15.3155 17.0777 15.5018 17.1683C15.6882 17.2589 15.9029 17.2717 16.0987 17.204ZM20.0733 19.1363L21.5501 18.6257C21.7459 18.558 21.9068 18.4153 21.9974 18.229C22.088 18.0426 22.1008 17.8279 22.0331 17.6321C21.9654 17.4363 21.8227 17.2753 21.6363 17.1848C21.45 17.0942 21.2353 17.0813 21.0395 17.149L19.5627 17.6596C19.3669 17.7273 19.206 17.87 19.1154 18.0564C19.0248 18.2427 19.012 18.4574 19.0797 18.6532C19.1474 18.8491 19.2901 19.01 19.4765 19.1006C19.6628 19.1912 19.8775 19.204 20.0733 19.1363ZM18.6516 24.5877C18.8475 24.5199 19.0084 24.3772 19.099 24.1909C19.1896 24.0045 19.2024 23.7898 19.1347 23.594L18.6241 22.1173C18.5564 21.9215 18.4137 21.7605 18.2273 21.6699C18.041 21.5794 17.8263 21.5665 17.6305 21.6342C17.4346 21.7019 17.2737 21.8446 17.1831 22.031C17.0925 22.2173 17.0797 22.432 17.1474 22.6279L17.658 24.1046C17.7257 24.3004 17.8684 24.4613 18.0548 24.5519C18.2411 24.6425 18.4558 24.6554 18.6516 24.5877ZM12.6897 21.6892L14.1664 21.1787C14.3623 21.1109 14.5232 20.9682 14.6138 20.7819C14.7044 20.5955 14.7172 20.3808 14.6495 20.185C14.5818 19.9892 14.4391 19.8283 14.2527 19.7377C14.0664 19.6471 13.8517 19.6342 13.6559 19.7019L12.1791 20.2125C11.9833 20.2802 11.8224 20.4229 11.7318 20.6093C11.6412 20.7956 11.6284 21.0103 11.6961 21.2062C11.7638 21.402 11.9065 21.5629 12.0928 21.6535C12.2792 21.7441 12.4939 21.7569 12.6897 21.6892ZM106.812 42.8771C106.744 42.6813 106.601 42.5204 106.415 42.4298C106.229 42.3392 106.014 42.3263 105.818 42.394C105.622 42.4617 105.461 42.6044 105.371 42.7908C105.28 42.9771 105.267 43.1918 105.335 43.3877L105.845 44.8644C105.913 45.0602 106.056 45.2211 106.242 45.3117C106.429 45.4023 106.643 45.4152 106.839 45.3475C107.035 45.2798 107.196 45.137 107.286 44.9507C107.377 44.7643 107.39 44.5496 107.322 44.3538L106.812 42.8771ZM110.814 47.2797L112.29 46.7692C112.486 46.7014 112.647 46.5587 112.738 46.3724C112.828 46.186 112.841 45.9713 112.774 45.7755C112.706 45.5797 112.563 45.4188 112.377 45.3282C112.19 45.2376 111.976 45.2247 111.78 45.2924L110.303 45.803C110.107 45.8707 109.946 46.0135 109.856 46.1998C109.765 46.3861 109.752 46.6008 109.82 46.7967C109.888 46.9925 110.031 47.1534 110.217 47.244C110.403 47.3346 110.618 47.3474 110.814 47.2797ZM109.365 50.2607C109.297 50.0649 109.154 49.904 108.968 49.8134C108.781 49.7228 108.567 49.7099 108.371 49.7776C108.175 49.8453 108.014 49.9881 107.924 50.1744C107.833 50.3608 107.82 50.5755 107.888 50.7713L108.398 52.248C108.466 52.4438 108.609 52.6047 108.795 52.6953C108.982 52.7859 109.196 52.7988 109.392 52.7311C109.588 52.6634 109.749 52.5206 109.839 52.3343C109.93 52.1479 109.943 51.9332 109.875 51.7374L109.365 50.2607ZM103.43 49.8327L104.907 49.3221C105.103 49.2544 105.264 49.1116 105.354 48.9253C105.445 48.7389 105.458 48.5242 105.39 48.3284C105.322 48.1326 105.18 47.9717 104.993 47.8811C104.807 47.7905 104.592 47.7776 104.396 47.8454L102.92 48.3559C102.724 48.4236 102.563 48.5664 102.472 48.7527C102.382 48.9391 102.369 49.1538 102.436 49.3496C102.504 49.5454 102.647 49.7063 102.833 49.7969C103.02 49.8875 103.234 49.9004 103.43 49.8327Z" fill="#F5B461"/>
<path d="M74.0167 4.71264L71.5584 5.46838L70.6533 3.0898C70.2508 1.98126 69.6215 0.968864 68.8056 0.117308C67.9896 -0.734246 67.005 -1.40624 65.9147 -1.85573C64.8244 -2.30522 63.6522 -2.52233 62.4732 -2.49318C61.2942 -2.46404 60.1343 -2.18927 59.0675 -1.68645C58.7966 -1.54783 58.5332 -1.39497 58.2785 -1.2285C56.6511 -0.162958 55.4252 1.41448 54.7944 3.25457C55.4516 2.2622 56.3044 1.41435 57.3006 0.762896C57.5558 0.59625 57.8196 0.443215 58.091 0.304428C59.1578 -0.198393 60.3178 -0.473155 61.4968 -0.502303C62.6758 -0.53145 63.8479 -0.314343 64.9382 0.13515C66.0286 0.584641 67.0132 1.25663 67.8291 2.10819C68.645 2.95974 69.2743 3.97214 69.6769 5.08068L70.5923 7.45568L73.0426 6.69608C74.1631 6.32817 75.348 6.19794 76.5217 6.31372C77.6953 6.42949 78.8319 6.78872 79.8589 7.36846C80.886 7.94821 81.7808 8.73574 82.4863 9.68076C83.1919 10.6258 83.6926 11.7076 83.9565 12.857C84.0138 13.1559 84.0557 13.4576 84.0822 13.7608C84.1905 14.9658 84.0473 16.18 83.6619 17.3268C84.7411 15.684 85.2357 13.7256 85.0661 11.7674C85.0398 11.4642 84.9974 11.1627 84.9389 10.8641C84.6742 9.71439 84.1726 8.63259 83.4661 7.6878C82.7596 6.743 81.8638 5.95599 80.8359 5.37706C79.8079 4.79813 78.6705 4.44002 77.4964 4.32561C76.3222 4.21121 75.1371 4.34303 74.0167 4.71264ZM28.4478 33.005C28.2814 32.7501 28.128 32.487 27.9884 32.2165C27.4858 31.1497 27.2112 29.9897 27.1822 28.8108C27.1532 27.6319 27.3703 26.4599 27.8198 25.3696C28.2692 24.2793 28.9411 23.2947 29.7926 22.4788C30.644 21.6628 31.6562 21.0334 32.7646 20.6307L35.1509 19.7097L34.3928 17.2588C34.0259 16.1391 33.8963 14.9552 34.0124 13.7826C34.1284 12.61 34.4876 11.4745 35.0668 10.4484C35.6461 9.42229 36.4329 8.52817 37.3769 7.82302C38.3209 7.11787 39.4015 6.61717 40.5498 6.35284C40.8488 6.29579 41.1505 6.25384 41.4537 6.22715C42.6598 6.12144 43.8747 6.26777 45.0212 6.65684C43.3824 5.58273 41.4305 5.08976 39.4782 5.25692C39.1745 5.28378 38.8723 5.3259 38.5728 5.38313C37.4234 5.64708 36.3417 6.14782 35.3966 6.85335C34.4516 7.55889 33.6641 8.45373 33.0843 9.48074C32.5046 10.5078 32.1454 11.6444 32.0296 12.818C31.9138 13.9917 32.044 15.1766 32.412 16.2971L33.1636 18.7436L30.7807 19.6551C29.6721 20.0576 28.6597 20.6869 27.8082 21.5029C26.9566 22.3188 26.2846 23.3034 25.8351 24.3937C25.3856 25.4841 25.1685 26.6562 25.1977 27.8352C25.2268 29.0142 25.5016 30.1741 26.0044 31.2409C26.1429 31.5119 26.2958 31.7753 26.4624 32.0299C27.5258 33.6531 29.0987 34.8767 30.9335 35.5083C29.9431 34.8518 29.0973 33.9999 28.4478 33.005Z" fill="#744F7D"/>
<path d="M92.0002 31.3681C91.8604 31.0977 91.7071 30.8346 91.5408 30.5796C90.4732 28.9474 88.8905 27.7191 87.0443 27.0902C88.0459 27.7496 88.901 28.6082 89.5564 29.6125C89.7227 29.8674 89.876 30.1306 90.0159 30.4009C90.5184 31.4678 90.793 32.6277 90.822 33.8066C90.8511 34.9856 90.6339 36.1576 90.1844 37.2479C89.735 38.3381 89.0631 39.3227 88.2116 40.1387C87.3602 40.9546 86.348 41.5841 85.2396 41.9868L82.8551 42.8939L83.6132 45.3448C83.9812 46.4652 84.1114 47.6501 83.9956 48.8236C83.8797 49.9972 83.5205 51.1338 82.9406 52.1607C82.3608 53.1876 81.5732 54.0823 80.6281 54.7876C79.6831 55.493 78.6013 55.9935 77.4518 56.2572C77.153 56.3148 76.8515 56.3572 76.5485 56.3844C75.3481 56.4883 74.1392 56.3435 72.9973 55.959C74.635 57.0289 76.5839 57.5192 78.5328 57.3516C78.8359 57.3244 79.1374 57.2819 79.4362 57.2244C80.5856 56.9607 81.6674 56.4602 82.6125 55.7548C83.5576 55.0494 84.3452 54.1547 84.925 53.1278C85.5048 52.1009 85.8641 50.9644 85.9799 49.7908C86.0957 48.6172 85.9655 47.4324 85.5976 46.3119L84.8336 43.8631L87.216 42.9501C88.3247 42.5483 89.3375 41.9197 90.1896 41.1044C91.0416 40.2891 91.7143 39.305 92.1645 38.2151C92.6147 37.1251 92.8327 35.9532 92.8044 34.7743C92.7761 33.5953 92.5022 32.4352 92.0002 31.3681ZM60.7002 61.8541C60.4447 62.0206 60.1811 62.1741 59.9102 62.3141C58.8434 62.8166 57.6835 63.0912 56.5046 63.1202C55.3256 63.1492 54.1536 62.9321 53.0633 62.4826C51.973 62.0332 50.9885 61.3613 50.1725 60.5098C49.3565 59.6584 48.7271 58.6462 48.3244 57.5378L47.4049 55.151L44.954 55.9091C43.8335 56.2773 42.6486 56.4077 41.4749 56.292C40.3011 56.1764 39.1644 55.8172 38.1373 55.2374C37.1103 54.6576 36.2154 53.87 35.5099 52.9248C34.8044 51.9797 34.3038 50.8978 34.0401 49.7482C33.9831 49.4492 33.9411 49.1476 33.9144 48.8443C33.8098 47.6474 33.9523 46.4418 34.333 45.3022C33.2672 46.9391 32.7797 48.8856 32.9483 50.8317C32.975 51.1349 33.0169 51.4365 33.074 51.7355C33.3377 52.8851 33.8383 53.967 34.5438 54.9121C35.2493 55.8573 36.1441 56.6449 37.1712 57.2247C38.1983 57.8045 39.335 58.1637 40.5087 58.2793C41.6825 58.395 42.8674 58.2646 43.9879 57.8964L46.4388 57.1383L47.3503 59.5212C47.753 60.6296 48.3825 61.6419 49.1984 62.4933C50.0144 63.3447 50.999 64.0166 52.0892 64.4661C53.1795 64.9155 54.3515 65.1327 55.5305 65.1037C56.7094 65.0746 57.8693 64.8001 58.9362 64.2975C59.207 64.1575 59.4707 64.004 59.7261 63.8375C61.36 62.768 62.5892 61.1825 63.2179 59.3336C62.5601 60.3373 61.7032 61.1952 60.7002 61.8541Z" fill="#744F7D"/>
</g>
<defs>
<clipPath id="clip0_227_1261">
<rect width="100" height="100" fill="white" transform="translate(0 13.6774) rotate(-19.0731)"/>
</clipPath>
</defs>
</svg>
