<svg id="Layer_1" viewBox="0 0 50 50" xmlns="http://www.w3.org/2000/svg"><circle cx="25" cy="25" fill="#ffa726" r="56"/><g fill="#fffffe"><g><path d="m189.1 233.3h-79.8c-2.3 0-4.1-1.8-4.1-4.1v-14.2c0-2.3 1.8-4.1 4.1-4.1h80.9c2.3 0 4.1 1.8 4.1 4.1s-1.8 4.1-4.1 4.1h-76.8v6h75.7c2.3 0 4.1 1.8 4.1 4.1s-1.9 4.1-4.1 4.1z"/><path d="m402.8 233.3h-133.1c-2.3 0-4.1-1.8-4.1-4.1s1.8-4.1 4.1-4.1h129v-10.1c0-2.3 1.8-4.1 4.1-4.1s4.1 1.8 4.1 4.1v14.2c0 2.3-1.9 4.1-4.1 4.1z"/><path d="m402.8 219.1h-134.1c-2.3 0-4.1-1.8-4.1-4.1s1.8-4.1 4.1-4.1h134.1c2.3 0 4.1 1.8 4.1 4.1s-1.9 4.1-4.1 4.1z"/></g><g><path d="m340.2 219.1c-1.9 0-3.6-1.3-4-3.2l-4.2-18.8c-.5-2.2.9-4.4 3.1-4.9s4.4.9 4.9 3.1l4.2 18.8c.5 2.2-.9 4.4-3.1 4.9-.3.1-.6.1-.9.1z"/><path d="m307.4 219.1c-.3 0-.6 0-.9-.1-2.2-.5-3.6-2.7-3.1-4.9l4.2-18.8c.5-2.2 2.7-3.6 4.9-3.1s3.6 2.7 3.1 4.9l-4.2 18.8c-.4 1.9-2.1 3.2-4 3.2z"/></g><path d="m371.1 200.3h-94.5c-2.3 0-4.1-1.8-4.1-4.1v-68.4c0-2.3 1.8-4.1 4.1-4.1h94.5c2.3 0 4.1 1.8 4.1 4.1v68.4c0 2.3-1.8 4.1-4.1 4.1zm-90.5-8.2h86.4v-60.2h-86.4z"/><path d="m371.1 184.5h-94.5c-2.3 0-4.1-1.8-4.1-4.1s1.8-4.1 4.1-4.1h94.5c2.3 0 4.1 1.8 4.1 4.1s-1.8 4.1-4.1 4.1z"/><path d="m142.5 388.2h-18.2c-2.3 0-4.1-1.8-4.1-4.1v-154.9c0-2.3 1.8-4.1 4.1-4.1s4.1 1.8 4.1 4.1v150.8h14.1c2.3 0 4.1 1.8 4.1 4.1s-1.8 4.1-4.1 4.1z"/><path d="m389.1 388.2h-72.8c-2.3 0-4.1-1.8-4.1-4.1s1.8-4.1 4.1-4.1h68.7v-150.8c0-2.3 1.8-4.1 4.1-4.1s4.1 1.8 4.1 4.1v154.9c0 2.3-1.9 4.1-4.1 4.1z"/><path d="m316.3 388.2c-2.3 0-4.1-1.8-4.1-4.1v-154.9c0-2.3 1.8-4.1 4.1-4.1s4.1 1.8 4.1 4.1v154.9c-.1 2.3-1.9 4.1-4.1 4.1z"/><path d="m389.1 270.6h-72.8c-2.3 0-4.1-1.8-4.1-4.1s1.8-4.1 4.1-4.1h72.8c2.3 0 4.1 1.8 4.1 4.1s-1.9 4.1-4.1 4.1z"/><path d="m334.2 355.1c-2.3 0-4.1-1.8-4.1-4.1v-14.2c0-2.3 1.8-4.1 4.1-4.1s4.1 1.8 4.1 4.1v14.2c0 2.3-1.8 4.1-4.1 4.1z"/><path d="m142.5 388.2c-2.3 0-4.1-1.8-4.1-4.1v-154.9c0-2.3 1.8-4.1 4.1-4.1s4.1 1.8 4.1 4.1v154.9c0 2.3-1.8 4.1-4.1 4.1z"/><g><path d="m269.7 315h-80.6c-2.3 0-4.1-1.8-4.1-4.1v-88.3c0-19 15.4-34.4 34.4-34.4h20.1c19 0 34.4 15.4 34.4 34.4v88.3c-.1 2.3-1.9 4.1-4.2 4.1zm-76.5-8.2h72.4v-84.2c0-14.4-11.7-26.2-26.2-26.2h-20.1c-14.4 0-26.2 11.7-26.2 26.2z"/><path d="m284.7 315h-15c-2.3 0-4.1-1.8-4.1-4.1s1.8-4.1 4.1-4.1h10.9v-26.4h-10.9c-2.3 0-4.1-1.8-4.1-4.1s1.8-4.1 4.1-4.1h15c2.3 0 4.1 1.8 4.1 4.1v34.5c0 2.4-1.8 4.2-4.1 4.2z"/><path d="m189.1 315h-15c-2.3 0-4.1-1.8-4.1-4.1v-34.5c0-2.3 1.8-4.1 4.1-4.1h15c2.3 0 4.1 1.8 4.1 4.1s-1.8 4.1-4.1 4.1h-10.9v26.4h10.9c2.3 0 4.1 1.8 4.1 4.1 0 2.2-1.9 4-4.1 4z"/><path d="m215.9 357.5c-2.3 0-4.1-1.8-4.1-4.1v-42.5c0-2.3 1.8-4.1 4.1-4.1s4.1 1.8 4.1 4.1v42.5c0 2.3-1.8 4.1-4.1 4.1z"/><path d="m242.8 357.5c-2.3 0-4.1-1.8-4.1-4.1v-42.5c0-2.3 1.8-4.1 4.1-4.1s4.1 1.8 4.1 4.1v42.5c0 2.3-1.8 4.1-4.1 4.1z"/><path d="m269.7 373.2c-2.3 0-4.1-1.8-4.1-4.1v-9.9c0-.9-.8-1.7-1.7-1.7h-69c-.9 0-1.7.8-1.7 1.7v9.9c0 2.3-1.8 4.1-4.1 4.1s-4.1-1.8-4.1-4.1v-9.9c0-5.5 4.4-9.9 9.9-9.9h69c5.5 0 9.9 4.4 9.9 9.9v9.9c0 2.3-1.8 4.1-4.1 4.1z"/><path d="m269.7 388.2c-6.4 0-11.6-5.2-11.6-11.6s5.2-11.6 11.6-11.6 11.6 5.2 11.6 11.6-5.2 11.6-11.6 11.6zm0-15c-1.9 0-3.4 1.5-3.4 3.4s1.5 3.4 3.4 3.4 3.4-1.5 3.4-3.4-1.5-3.4-3.4-3.4z"/><path d="m229.4 388.2c-6.4 0-11.6-5.2-11.6-11.6s5.2-11.6 11.6-11.6 11.6 5.2 11.6 11.6-5.2 11.6-11.6 11.6zm0-15c-1.9 0-3.4 1.5-3.4 3.4s1.5 3.4 3.4 3.4 3.4-1.5 3.4-3.4-1.5-3.4-3.4-3.4z"/><path d="m189.1 388.2c-6.4 0-11.6-5.2-11.6-11.6s5.2-11.6 11.6-11.6 11.6 5.2 11.6 11.6-5.2 11.6-11.6 11.6zm0-15c-1.9 0-3.4 1.5-3.4 3.4s1.5 3.4 3.4 3.4 3.4-1.5 3.4-3.4-1.5-3.4-3.4-3.4z"/><path d="m229.4 373.2c-2.3 0-4.1-1.8-4.1-4.1v-15.7c0-2.3 1.8-4.1 4.1-4.1s4.1 1.8 4.1 4.1v15.7c0 2.3-1.9 4.1-4.1 4.1z"/><path d="m229.4 357.5c-2.3 0-4.1-1.8-4.1-4.1v-42.5c0-2.3 1.8-4.1 4.1-4.1s4.1 1.8 4.1 4.1v42.5c0 2.3-1.9 4.1-4.1 4.1z"/></g><path d="m389.1 307.8h-72.8c-2.3 0-4.1-1.8-4.1-4.1s1.8-4.1 4.1-4.1h72.8c2.3 0 4.1 1.8 4.1 4.1s-1.9 4.1-4.1 4.1z"/><path d="m357.9 289.2h-10.6c-2.3 0-4.1-1.8-4.1-4.1s1.8-4.1 4.1-4.1h10.6c2.3 0 4.1 1.8 4.1 4.1 0 2.2-1.8 4.1-4.1 4.1z"/><path d="m357.9 251.9h-10.6c-2.3 0-4.1-1.8-4.1-4.1s1.8-4.1 4.1-4.1h10.6c2.3 0 4.1 1.8 4.1 4.1s-1.8 4.1-4.1 4.1z"/></g></svg>