<svg width="25" height="25" viewBox="0 0 20 20" fill="none" xmlns="http://www.w3.org/2000/svg">
<path d="M10 9.333C9.45867 9.333 9.00367 9.149 8.63501 8.781C8.26701 8.413 8.08301 7.95833 8.08301 7.417C8.08301 6.875 8.26701 6.42 8.63501 6.052C9.00367 5.684 9.45867 5.5 10 5.5C10.5413 5.5 10.9963 5.684 11.365 6.052C11.733 6.42 11.917 6.875 11.917 7.417C11.917 7.95833 11.733 8.413 11.365 8.781C10.9963 9.149 10.5413 9.333 10 9.333ZM5.08301 14.5V13.75C5.08301 13.5973 5.14201 13.441 5.26001 13.281C5.37867 13.1217 5.54901 12.9723 5.77101 12.833C6.43767 12.4583 7.13201 12.1703 7.85401 11.969C8.57667 11.7677 9.29201 11.667 10 11.667C10.708 11.667 11.4233 11.7677 12.146 11.969C12.868 12.1703 13.5623 12.4583 14.229 12.833C14.451 12.9583 14.6213 13.1043 14.74 13.271C14.858 13.4377 14.917 13.5973 14.917 13.75V14.5H5.08301ZM5.50001 14.083H14.5V13.75C14.5 13.6387 14.4513 13.5277 14.354 13.417C14.2567 13.3057 14.118 13.2083 13.938 13.125C13.382 12.7917 12.7673 12.5347 12.094 12.354C11.42 12.1733 10.722 12.083 10 12.083C9.27801 12.083 8.58001 12.1733 7.90601 12.354C7.23267 12.5347 6.61801 12.7917 6.06201 13.125C5.88201 13.2363 5.74334 13.3407 5.64601 13.438C5.54867 13.5347 5.50001 13.6387 5.50001 13.75V14.083ZM10 8.917C10.4167 8.917 10.7707 8.771 11.062 8.479C11.354 8.18767 11.5 7.83367 11.5 7.417C11.5 7.00033 11.354 6.646 11.062 6.354C10.7707 6.06267 10.4167 5.917 10 5.917C9.58334 5.917 9.22934 6.06267 8.93801 6.354C8.64601 6.646 8.50001 7.00033 8.50001 7.417C8.50001 7.83367 8.64601 8.18767 8.93801 8.479C9.22934 8.771 9.58334 8.917 10 8.917Z" fill="#FFFFFF"/>
</svg>
