<svg width="25" height="25" viewBox="0 0 20 20" fill="none" xmlns="http://www.w3.org/2000/svg">
<path d="M14.771 15.771C13.507 15.6317 12.264 15.2427 11.042 14.604C9.81933 13.9653 8.71867 13.153 7.74 12.167C6.76067 11.181 5.94467 10.0803 5.292 8.86501C4.63867 7.64968 4.24967 6.41001 4.125 5.14601C4.097 4.85401 4.18367 4.60035 4.385 4.38501C4.587 4.16968 4.83367 4.06201 5.125 4.06201H6.25C6.542 4.06201 6.785 4.14201 6.979 4.30201C7.17367 4.46201 7.31267 4.68068 7.396 4.95801L7.729 5.97901C7.771 6.17368 7.764 6.36468 7.708 6.55201C7.65267 6.73935 7.54867 6.89568 7.396 7.02101L5.646 8.62501C6.42333 9.98635 7.274 11.1253 8.198 12.042C9.12133 12.9587 10.236 13.7503 11.542 14.417L13.354 12.583C13.5207 12.4163 13.6667 12.3227 13.792 12.302C13.9167 12.2813 14.0553 12.2917 14.208 12.333L14.979 12.521C15.257 12.5903 15.4757 12.7293 15.635 12.938C15.795 13.146 15.875 13.396 15.875 13.688V14.771C15.875 15.1457 15.743 15.4093 15.479 15.562C15.215 15.7153 14.979 15.785 14.771 15.771ZM5.458 8.20801L7.208 6.62501C7.27733 6.56968 7.32267 6.49335 7.344 6.39601C7.36467 6.29868 7.361 6.20835 7.333 6.12501L6.958 4.81201C6.93067 4.70135 6.882 4.61835 6.812 4.56301C6.74267 4.50701 6.65267 4.47901 6.542 4.47901H4.854C4.77067 4.47901 4.70133 4.50701 4.646 4.56301C4.59 4.61835 4.562 4.68768 4.562 4.77101C4.562 5.29835 4.649 5.85401 4.823 6.43801C4.99633 7.02068 5.208 7.61068 5.458 8.20801ZM12 14.583C12.514 14.833 13.073 15.0137 13.677 15.125C14.281 15.2363 14.7777 15.3057 15.167 15.333C15.2503 15.333 15.3197 15.3053 15.375 15.25C15.4303 15.1947 15.458 15.1253 15.458 15.042V13.375C15.458 13.2637 15.4303 13.1733 15.375 13.104C15.3197 13.0347 15.2363 12.986 15.125 12.958L14.104 12.729C14.0207 12.7017 13.9477 12.6983 13.885 12.719C13.823 12.7397 13.7573 12.7847 13.688 12.854L12 14.583Z" fill="#380445"/>
</svg>
