<svg width="30" height="30" viewBox="0 0 20 20" fill="none" xmlns="http://www.w3.org/2000/svg">
<path d="M13.0999 14.0114L13.0999 14.0114C12.1527 13.6531 11.1188 13.475 9.99999 13.475C8.88121 13.475 7.84763 13.6531 6.90108 14.0114C6.00558 14.3501 5.14563 14.8038 4.32131 15.3718C3.70091 14.7263 3.19285 13.9625 2.79775 13.0786L2.79771 13.0785C2.38346 12.1533 2.17499 11.128 2.17499 10C2.17499 7.8295 2.93609 5.98643 4.46173 4.46079C5.98669 2.93583 7.82942 2.17505 9.99999 2.17505C12.1706 2.17505 14.0136 2.93584 15.5393 4.46082C17.0642 5.98644 17.825 7.8295 17.825 10C17.825 11.128 17.6168 12.1534 17.2032 13.0786C16.8075 13.9625 16.2991 14.7263 15.6787 15.3718C14.8544 14.8038 13.9948 14.3501 13.0999 14.0114ZM1.81395 6.51855L1.81393 6.51859C1.35421 7.60014 1.12499 8.76124 1.12499 10C1.12499 11.2388 1.3542 12.3996 1.81393 13.4805C2.27237 14.559 2.90144 15.499 3.70124 16.2988C4.50104 17.0986 5.441 17.7277 6.51949 18.1861C7.6004 18.6458 8.76118 18.875 9.99999 18.875C11.2388 18.875 12.3999 18.6458 13.4814 18.1861L13.4815 18.1861C14.5593 17.7276 15.4989 17.0986 16.2987 16.2988C17.0985 15.499 17.7276 14.559 18.186 13.4805C18.6458 12.3996 18.875 11.2389 18.875 10C18.875 8.76124 18.6458 7.60014 18.186 6.51859L18.186 6.51855C17.7276 5.44071 17.0985 4.50109 16.2987 3.7013C15.4989 2.90152 14.5593 2.27245 13.4815 1.81401L13.4814 1.81399C12.3999 1.35427 11.2388 1.12505 9.99999 1.12505C8.76118 1.12505 7.6004 1.35427 6.51949 1.81401C5.441 2.27244 4.50104 2.90151 3.70124 3.7013C2.90145 4.50109 2.27239 5.44071 1.81395 6.51855ZM7.85124 9.64879C8.4351 10.2326 9.15506 10.525 9.99999 10.525C10.8449 10.525 11.5649 10.2326 12.1487 9.64879C12.7326 9.06494 13.025 8.34498 13.025 7.50005C13.025 6.65512 12.7326 5.93516 12.1487 5.35131C11.5649 4.76745 10.8449 4.47505 9.99999 4.47505C9.15506 4.47505 8.4351 4.76745 7.85124 5.35131C7.26739 5.93516 6.97499 6.65512 6.97499 7.50005C6.97499 8.34498 7.26739 9.06494 7.85124 9.64879ZM14.8762 16.1059C14.2757 16.6094 13.5602 17.0158 12.7274 17.3239C11.8204 17.6585 10.9115 17.8251 9.99999 17.8251C9.08848 17.8251 8.17995 17.6585 7.27359 17.3239C6.43819 17.0151 5.72095 16.6075 5.11951 16.1023C5.70224 15.63 6.38923 15.2545 7.1826 14.9773C8.04558 14.6764 8.98423 14.525 9.99999 14.525C11.0152 14.525 11.9492 14.6806 12.8034 14.9896C13.5889 15.274 14.2793 15.6464 14.8762 16.1059ZM11.4012 8.9013C11.0181 9.28449 10.5545 9.47505 9.99999 9.47505C9.44545 9.47505 8.98191 9.28449 8.59873 8.9013C8.21555 8.51812 8.02499 8.05458 8.02499 7.50005C8.02499 6.94551 8.21555 6.48198 8.59873 6.09879C8.98191 5.71561 9.44545 5.52505 9.99999 5.52505C10.5545 5.52505 11.0181 5.71561 11.4012 6.09879C11.7844 6.48198 11.975 6.94551 11.975 7.50005C11.975 8.05458 11.7844 8.51812 11.4012 8.9013Z" fill="#380445" stroke="#380445" stroke-width="0.35"/>
</svg>
