<svg width="21" height="21" viewBox="0 0 21 21" fill="none" xmlns="http://www.w3.org/2000/svg">
<path d="M13.8793 14.8952L13.8793 14.8952C14.8592 15.2662 15.8005 15.7635 16.703 16.3867C17.3861 15.6783 17.9455 14.8394 18.3803 13.8682L13.8793 14.8952ZM13.8793 14.8952C12.847 14.5048 11.7199 14.3106 10.5 14.3106C9.28006 14.3106 8.15338 14.5048 7.12178 14.8952C6.14116 15.2662 5.19954 15.7635 4.29702 16.3867C3.6139 15.6783 3.05494 14.8394 2.6208 13.8682L2.62076 13.8681M13.8793 14.8952L2.62076 13.8681M2.62076 13.8681C2.1674 12.8555 1.93937 11.7337 1.93937 10.5C1.93937 8.12562 2.77213 6.10897 4.4411 4.44001C6.10932 2.77178 8.1256 1.93937 10.5 1.93937C12.8744 1.93937 14.891 2.77177 16.56 4.43998C18.2282 6.10894 19.0606 8.1256 19.0606 10.5C19.0606 11.7337 18.833 12.8555 18.3803 13.8681H2.62076ZM1.57603 6.70467L1.57601 6.7047C1.07491 7.8836 0.825 9.14931 0.825 10.5C0.825 11.8507 1.0749 13.116 1.57601 14.2942C2.07583 15.4701 2.7616 16.4947 3.63344 17.3666C4.50527 18.2384 5.52992 18.9242 6.70576 19.424C7.88395 19.9251 9.14931 20.175 10.5 20.175C11.8507 20.175 13.1164 19.9251 14.2953 19.424L14.2953 19.424C15.4705 18.9242 16.4947 18.2384 17.3666 17.3666C18.2384 16.4947 18.9242 15.4701 19.424 14.2942C19.9251 13.116 20.175 11.8507 20.175 10.5C20.175 9.14931 19.9251 7.8836 19.424 6.7047L19.424 6.70467C18.9242 5.52954 18.2384 4.50526 17.3666 3.63344C16.4947 2.76162 15.4705 2.07585 14.2953 1.57603L14.2953 1.57601C13.1164 1.07491 11.8507 0.825 10.5 0.825C9.14932 0.825 7.88398 1.0749 6.70579 1.57601C5.52994 2.07583 4.50528 2.7616 3.63344 3.63344C2.76162 4.50526 2.07585 5.52954 1.57603 6.70467ZM8.16505 10.1051C8.79947 10.7395 9.5815 11.0572 10.5 11.0572C11.4185 11.0572 12.2005 10.7395 12.8349 10.1051C13.4694 9.47064 13.7871 8.68861 13.7871 7.77011C13.7871 6.85162 13.4694 6.06959 12.8349 5.43516C12.2005 4.80074 11.4185 4.48305 10.5 4.48305C9.5815 4.48305 8.79947 4.80074 8.16505 5.43516C7.53062 6.06959 7.21293 6.85162 7.21293 7.77011C7.21293 8.68861 7.53062 9.47064 8.16505 10.1051ZM15.8502 17.1668C15.1898 17.7238 14.4018 18.1728 13.4838 18.5124C12.4917 18.8783 11.4973 19.0606 10.5 19.0606C9.50266 19.0606 8.50872 18.8783 7.51733 18.5124C6.59667 18.1721 5.80687 17.7219 5.1455 17.1632C5.78666 16.6403 6.54355 16.2254 7.41836 15.9197C8.36253 15.5905 9.38927 15.425 10.5 15.425C11.6103 15.425 12.6319 15.5951 13.5667 15.9332C14.4328 16.2468 15.1934 16.6583 15.8502 17.1668ZM12.0415 9.3116C11.62 9.7331 11.1097 9.94281 10.5 9.94281C9.89029 9.94281 9.38001 9.7331 8.95851 9.3116C8.53702 8.8901 8.3273 8.37982 8.3273 7.77011C8.3273 7.16041 8.53702 6.65013 8.95851 6.22863C9.38001 5.80713 9.89029 5.59741 10.5 5.59741C11.1097 5.59741 11.62 5.80713 12.0415 6.22863C12.463 6.65013 12.6727 7.16041 12.6727 7.77011C12.6727 8.37982 12.463 8.8901 12.0415 9.3116Z" fill="white" stroke="white" stroke-width="0.35"/>
</svg>
