<svg width="109" height="76" viewBox="0 0 109 76" fill="none" xmlns="http://www.w3.org/2000/svg">
<path d="M35.8037 10.9119C38.9469 10.0176 41.9023 8.53757 44.5371 6.5605C50.0356 2.43469 56.8095 0 64.1361 0C82.5246 0 97.4314 15.3359 97.4314 34.2538C97.4314 53.1716 82.5246 68.5076 64.1361 68.5076C59.2408 68.5076 41.8166 69.0931 36.8734 68.1391C20.5085 64.9807 12.1574 54.5514 12.1574 38.6355C12.1575 20.1237 27.5965 13.2471 35.8037 10.9119Z" fill="#FFE6BA"/>
<path d="M12.1573 50.0212C12.134 50.0212 12.1114 50.0127 12.0936 49.9973C12.0758 49.9818 12.0638 49.9604 12.0598 49.9368C12.0572 49.921 11.7918 48.3306 11.6579 45.8585C11.5344 43.5776 11.5005 40.0563 12.0407 36.2336C12.6483 31.9339 13.8434 28.1369 15.5928 24.9481C16.6323 23.0532 17.8817 21.3548 19.3062 19.9002C20.8733 18.2999 22.691 16.9555 24.7086 15.9043C24.732 15.8928 24.7588 15.8911 24.7833 15.8997C24.8078 15.9083 24.8281 15.9264 24.8398 15.9501C24.8515 15.9739 24.8537 16.0014 24.8459 16.0269C24.8381 16.0523 24.821 16.0735 24.7981 16.0861C16.1364 20.5988 13.1867 29.5463 12.2375 36.2575C11.6992 40.0633 11.7326 43.57 11.8554 45.8417C11.9884 48.304 12.2523 49.8862 12.255 49.9019C12.2575 49.9165 12.2568 49.9316 12.253 49.9459C12.2492 49.9603 12.2425 49.9736 12.2332 49.985C12.2238 49.9964 12.2122 50.0055 12.1991 50.0118C12.186 50.018 12.1717 50.0212 12.1573 50.0212Z" fill="#AFC472"/>
<path d="M21.1207 18.3502C21.1207 18.3502 23.762 12.9999 21.6846 13.4615C20.0415 13.8266 21.7187 16.1472 21.1207 18.3502ZM19.4283 19.9031C19.4283 19.9031 23.3966 17.9571 23.8268 20.6452C23.8783 21.2213 22.0104 19.8338 19.4283 19.9031ZM23.6846 16.5731C23.6846 16.5731 25.2439 14.5438 26.4257 13.6271C27.6075 12.7104 28.7702 13.2642 28.2883 14.0471C27.8063 14.8299 24.8656 16.2714 23.6846 16.5731ZM17.2702 22.4764C17.2702 22.4764 18.3133 16.9235 16.4864 17.2443C14.6042 17.5748 17.219 20.5963 17.2702 22.4764ZM15.5135 25.3461C15.5135 25.3461 18.2184 22.4285 19.5523 24.0929C19.982 24.7571 16.4046 24.7849 15.5135 25.3461ZM14.1697 28.2451C14.1697 28.2451 13.6153 23.7548 11.9353 23.9138C10.2553 24.0728 13.7047 26.617 14.1697 28.2451ZM13.1243 31.2289C13.1243 31.2289 15.8563 27.5907 17.0778 29.4229C17.7151 30.7566 14.5974 30.021 13.1243 31.2289Z" fill="#BDD184"/>
<path d="M18.9398 17.5497C19.4952 17.5497 19.9454 17.0865 19.9454 16.5152C19.9454 15.9438 19.4952 15.4807 18.9398 15.4807C18.3844 15.4807 17.9342 15.9438 17.9342 16.5152C17.9342 17.0865 18.3844 17.5497 18.9398 17.5497Z" fill="#FFEDCF"/>
<path d="M25.2469 19.2743C25.8023 19.2743 26.2525 18.8112 26.2525 18.2398C26.2525 17.6684 25.8023 17.2053 25.2469 17.2053C24.6916 17.2053 24.2413 17.6684 24.2413 18.2398C24.2413 18.8112 24.6916 19.2743 25.2469 19.2743Z" fill="#FFEDCF"/>
<path d="M14.6216 23.6552C15.1769 23.6552 15.6271 23.192 15.6271 22.6207C15.6271 22.0493 15.1769 21.5861 14.6216 21.5861C14.0662 21.5861 13.616 22.0493 13.616 22.6207C13.616 23.192 14.0662 23.6552 14.6216 23.6552Z" fill="#FFEDCF"/>
<path d="M17.8717 28.4696C18.427 28.4696 18.8773 28.0065 18.8773 27.4351C18.8773 26.8638 18.427 26.4006 17.8717 26.4006C17.3163 26.4006 16.8661 26.8638 16.8661 27.4351C16.8661 28.0065 17.3163 28.4696 17.8717 28.4696Z" fill="#FFEDCF"/>
<path d="M11.2193 31.897C11.7747 31.897 12.2249 31.4338 12.2249 30.8624C12.2249 30.2911 11.7747 29.8279 11.2193 29.8279C10.664 29.8279 10.2137 30.2911 10.2137 30.8624C10.2137 31.4338 10.664 31.897 11.2193 31.897Z" fill="#FFEDCF"/>
<path d="M14.0653 35.9815C14.6206 35.9815 15.0709 35.5184 15.0709 34.947C15.0709 34.3757 14.6206 33.9125 14.0653 33.9125C13.5099 33.9125 13.0597 34.3757 13.0597 34.947C13.0597 35.5184 13.5099 35.9815 14.0653 35.9815Z" fill="#FFEDCF"/>
<path d="M96.8029 41.8584C96.7878 41.8584 96.7729 41.8549 96.7593 41.848C96.7458 41.8412 96.7339 41.8313 96.7247 41.819C96.7154 41.8068 96.709 41.7925 96.7059 41.7773C96.7028 41.7621 96.7031 41.7464 96.7069 41.7313C96.71 41.7186 97.0236 40.4382 97.2226 38.3373C97.4062 36.3989 97.5269 33.3457 97.0597 29.8079C96.2348 23.5629 93.3777 14.5785 84.4505 7.2412C84.4305 7.22417 84.4178 7.19973 84.4151 7.17313C84.4124 7.14653 84.42 7.11992 84.4362 7.09902C84.4524 7.07813 84.476 7.06464 84.5018 7.06146C84.5276 7.05827 84.5536 7.06565 84.5742 7.08201C88.5395 10.3412 91.6552 14.1934 93.8347 18.5316C95.5783 22.0024 96.7297 25.7898 97.257 29.7888C97.7261 33.3461 97.604 36.4159 97.419 38.3647C97.2184 40.4781 96.902 41.7689 96.8988 41.7817C96.8933 41.8036 96.881 41.823 96.8636 41.8369C96.8463 41.8508 96.8249 41.8584 96.8029 41.8584Z" fill="#AFC472"/>
<path d="M87.633 10.127C87.633 10.127 84.9916 4.77682 87.0691 5.2384C88.7122 5.60343 87.0349 7.92407 87.633 10.127ZM89.3254 11.7404C89.3254 11.7404 85.357 9.79432 84.9269 12.4824C84.8754 13.0586 86.7433 11.6711 89.3254 11.7404ZM85.9297 8.35231C85.9297 8.35231 84.3703 6.32303 83.1886 5.40635C82.0068 4.48965 80.8441 5.04348 81.3261 5.82632C81.808 6.60914 84.7487 8.05058 85.9297 8.35231ZM91.4835 14.706C91.4835 14.706 90.4403 9.15308 92.2673 9.47392C94.1495 9.80447 91.5347 12.8259 91.4835 14.706ZM93.0364 17.1833C93.0364 17.1833 90.3316 14.2658 88.9977 15.9302C88.568 16.5943 92.1454 16.6221 93.0364 17.1833ZM94.5351 20.4055C94.5351 20.4055 95.0895 15.9151 96.7695 16.0741C98.4495 16.2331 95.0001 18.7774 94.5351 20.4055ZM95.6293 23.0661C95.6293 23.0661 92.8974 19.4279 91.6758 21.2601C91.0386 22.5939 94.1563 21.8582 95.6293 23.0661Z" fill="#BDD184"/>
<path d="M89.8139 9.38688C90.3693 9.38688 90.8195 8.9237 90.8195 8.35235C90.8195 7.78099 90.3693 7.31781 89.8139 7.31781C89.2586 7.31781 88.8083 7.78099 88.8083 8.35235C88.8083 8.9237 89.2586 9.38688 89.8139 9.38688Z" fill="#FFEDCF"/>
<path d="M83.5068 11.1115C84.0622 11.1115 84.5124 10.6483 84.5124 10.077C84.5124 9.5056 84.0622 9.04242 83.5068 9.04242C82.9514 9.04242 82.5012 9.5056 82.5012 10.077C82.5012 10.6483 82.9514 11.1115 83.5068 11.1115Z" fill="#FFEDCF"/>
<path d="M94.1322 15.4924C94.6875 15.4924 95.1378 15.0292 95.1378 14.4578C95.1378 13.8865 94.6875 13.4233 94.1322 13.4233C93.5768 13.4233 93.1266 13.8865 93.1266 14.4578C93.1266 15.0292 93.5768 15.4924 94.1322 15.4924Z" fill="#FFEDCF"/>
<path d="M90.8821 20.3068C91.4374 20.3068 91.8876 19.8436 91.8876 19.2723C91.8876 18.7009 91.4374 18.2377 90.8821 18.2377C90.3267 18.2377 89.8765 18.7009 89.8765 19.2723C89.8765 19.8436 90.3267 20.3068 90.8821 20.3068Z" fill="#FFEDCF"/>
<path d="M94.6885 27.8187C95.2438 27.8187 95.694 27.3555 95.694 26.7842C95.694 26.2128 95.2438 25.7496 94.6885 25.7496C94.1331 25.7496 93.6829 26.2128 93.6829 26.7842C93.6829 27.3555 94.1331 27.8187 94.6885 27.8187Z" fill="#FFEDCF"/>
<path d="M54.633 63.8642C54.633 63.8642 52.4729 59.5676 54.633 59.5676C56.7932 59.5676 54.633 63.8642 54.633 63.8642ZM53.2612 65.2253C53.2612 65.2253 48.5974 64.6109 49.8255 62.7827C51.0535 60.9544 53.2612 65.2253 53.2612 65.2253ZM56.0049 65.2253C56.0049 65.2253 60.6687 64.6109 59.4406 62.7827C58.2126 60.9544 56.0049 65.2253 56.0049 65.2253ZM54.633 7.3784C54.633 7.3784 51.5308 1.20801 54.633 1.20801C57.7353 1.20801 54.633 7.3784 54.633 7.3784ZM52.6629 9.33313C52.6629 9.33313 45.965 8.45089 47.7287 5.82523C49.4924 3.19957 52.6629 9.33313 52.6629 9.33313ZM56.6032 9.33313C56.6032 9.33313 63.301 8.45089 61.5374 5.82523C59.7737 3.19957 56.6032 9.33313 56.6032 9.33313Z" fill="#FFEDCF"/>
<path d="M10.0852 60.0086C9.80645 60.6784 6.99613 60.757 3.49747 60.1006C0.553358 59.5482 -0.713638 57.1362 0.400496 55.6097C1.51463 54.0831 4.2103 53.9881 6.28117 55.4829C8.35204 56.9777 10.7601 58.8466 10.0852 60.0086ZM9.10739 25.8284C9.10739 25.8284 8.05357 25.9335 5.76969 24.2832C3.48581 22.633 2.82065 19.75 4.1921 18.9583C5.56356 18.1666 7.11216 19.0325 8.20121 21.5075C9.29023 23.9825 9.89554 25.636 9.10739 25.8284ZM98.9147 60.0086C99.1935 60.6784 102.004 60.757 105.503 60.1006C108.447 59.5482 109.714 57.1362 108.6 55.6097C107.485 54.0831 104.79 53.9881 102.719 55.4829C100.648 56.9777 98.2399 58.8466 98.9147 60.0086ZM99.72 26.5618C99.72 26.5618 100.775 26.6508 103.035 24.9659C105.295 23.281 105.918 20.3882 104.536 19.6175C103.153 18.8467 101.617 19.7363 100.564 22.2276C99.5106 24.7188 98.9292 26.3814 99.72 26.5618Z" fill="#FFE6BA"/>
<path d="M28.8168 68.6854C28.8168 68.6854 14.6679 59.5738 9.42951 53.629C4.19115 47.6843 7.21536 45.3508 8.34944 45.1841C8.34944 45.1841 -0.991015 32.2946 6.08129 29.2944C7.53939 28.7388 9.10549 30.2389 11.2117 34.1836C13.3178 38.1282 13.698 38.906 15.047 38.5171C16.396 38.1282 18.7722 38.2949 19.7982 41.5728C20.8243 44.8508 21.6162 47.4424 22.6604 48.1647C23.7046 48.8869 26.1167 46.5176 33.2451 60.9072L28.8168 68.6854Z" fill="#FFCF9A"/>
<path d="M31.0848 64.8373C31.0562 64.8373 31.0273 64.8277 31.0031 64.808C26.1928 60.8961 21.8775 56.7205 18.1768 52.3975C15.2155 48.938 12.6389 45.3767 10.5184 41.8125C8.63093 38.6397 7.46167 36.0515 6.81316 34.4389C6.10906 32.6881 5.84803 31.6723 5.84548 31.6622C5.84109 31.645 5.84006 31.627 5.84242 31.6093C5.84479 31.5917 5.85052 31.5747 5.85928 31.5593C5.86804 31.5439 5.87966 31.5304 5.89348 31.5196C5.9073 31.5089 5.92304 31.501 5.93982 31.4965C5.95659 31.492 5.97407 31.4909 5.99125 31.4933C6.00843 31.4958 6.02497 31.5016 6.03994 31.5107C6.0549 31.5197 6.068 31.5316 6.07847 31.5458C6.08894 31.5601 6.09658 31.5763 6.10096 31.5935C6.10349 31.6035 6.36193 32.6078 7.06158 34.346C7.70731 35.9503 8.87159 38.5255 10.7512 41.6834C14.0714 47.2614 20.3084 55.7643 31.1668 64.5949C31.1884 64.6124 31.204 64.6364 31.2117 64.6635C31.2194 64.6906 31.2186 64.7194 31.2096 64.7461C31.2006 64.7728 31.1837 64.7959 31.1614 64.8122C31.139 64.8285 31.1123 64.8373 31.0848 64.8373Z" fill="#FFC07E"/>
<path d="M80.3277 68.6854C80.3277 68.6854 94.4767 59.5738 99.7151 53.629C104.953 47.6843 101.929 45.3508 100.795 45.1841C100.795 45.1841 110.136 32.2946 103.063 29.2944C101.605 28.7388 100.039 30.2389 97.9329 34.1836C95.8268 38.1282 95.4466 38.906 94.0976 38.5171C92.7486 38.1282 90.3724 38.2949 89.3463 41.5728C88.3203 44.8508 87.5283 47.4424 86.4841 48.1647C85.44 48.8869 83.0279 46.5176 75.8994 60.9072L80.3277 68.6854Z" fill="#FFCF9A"/>
<path d="M78.0596 64.8373C78.0322 64.8373 78.0054 64.8286 77.9831 64.8122C77.9607 64.7959 77.9438 64.7728 77.9348 64.7461C77.9258 64.7195 77.9251 64.6906 77.9328 64.6635C77.9404 64.6364 77.9561 64.6124 77.9776 64.5949C88.836 55.7643 95.0731 47.2615 98.3932 41.6834C100.273 38.5255 101.437 35.9503 102.083 34.3461C102.783 32.6079 103.041 31.6035 103.044 31.5936C103.053 31.5592 103.075 31.5301 103.105 31.5123C103.135 31.4946 103.171 31.4897 103.204 31.4987C103.238 31.5077 103.266 31.5299 103.284 31.5605C103.302 31.5911 103.307 31.6276 103.299 31.6623C103.296 31.6723 103.035 32.6881 102.331 34.4389C101.683 36.0515 100.514 38.6397 98.626 41.8125C96.5056 45.3767 93.9289 48.938 90.9676 52.3975C87.267 56.7206 82.9516 60.8961 78.1414 64.808C78.1181 64.827 78.0893 64.8373 78.0596 64.8373Z" fill="#FFC07E"/>
<path d="M46.4427 12.0819C46.1718 12.1529 45.9154 12.2731 45.6814 12.4304C44.8761 12.9719 42.1228 14.8318 41.477 15.3856C40.7181 16.0361 37.466 19.6979 36.6349 20.8875C35.8037 22.0771 33.3827 31.4453 32.6781 34.2892C31.9735 37.1331 30.9978 43.5459 30.4919 49.0292C29.986 54.5126 32.2264 55.8137 30.8171 59.4569C29.4079 63.1001 18.9287 75.9999 18.9287 75.9999H44.3678C44.3678 75.9999 47.8367 60.8324 48.8666 58.9922C49.8964 57.152 51.6851 55.4234 52.7149 51.7616C53.7448 48.0998 53.0402 43.7317 53.1666 41.4826C53.2931 39.2335 53.3834 38.7874 52.986 37.2632C52.986 37.2632 52.5096 29.4609 52.6473 29.0183C53.2161 27.1889 53.3561 25.4556 53.3561 25.4556C53.3561 25.4556 54.507 22.9383 54.5307 22.2471C54.5849 20.6671 53.2931 20.4042 52.8414 20.5343C52.8414 20.5343 54.07 18.1365 53.9435 16.761C53.8171 15.3856 52.6427 14.8093 51.5586 15.1253C51.5586 15.1253 51.5586 13.6197 50.1494 13.1922C49.3273 12.9428 48.3607 13.248 48.3607 13.248C48.3607 13.248 47.955 11.6853 46.4427 12.0819Z" fill="#F6AF9A"/>
<path d="M32.5421 60.3374C35.3503 60.2475 38.7126 58.9921 38.7126 58.9921C33.9194 59.8685 31.9012 57.1162 30.9417 54.6992C31.2895 56.2704 31.5589 57.5392 30.8171 59.4568C29.4079 63.1 18.9287 75.9998 18.9287 75.9998H21.5254C21.5254 75.9998 24.9816 71.9093 27.2858 68.1314C29.5899 64.3534 31.4864 60.7236 32.5421 60.3374ZM53.2363 44.6749C53.1793 45.3999 52.7965 49.8813 51.8907 52.1271C50.9034 54.5751 50.0326 58.7387 43.7715 58.5088C43.7715 58.5088 44.944 59.8346 46.3756 60.205C47.5679 60.5135 42.8267 72.1263 41.2084 75.9998H44.3677C44.3677 75.9998 47.8367 60.8323 48.8666 58.9921C49.8964 57.1519 51.6851 55.4233 52.7149 51.7615C53.3669 49.4434 53.3237 46.8423 53.2363 44.6749Z" fill="#F2A994"/>
<path d="M45.7589 43.7503C40.9169 39.661 33.2562 38.174 33.2562 38.174C33.2562 38.174 43.8799 41.6127 43.6089 54.1036C43.6089 54.1036 44.2328 52.0924 43.3215 48.4672C42.4102 44.842 40.385 41.6335 37.4486 39.8834C37.4486 39.8834 39.0138 40.0126 41.4179 41.2585C44.1113 42.6544 45.7589 43.7503 45.7589 43.7503Z" fill="#F2A792"/>
<path d="M44.2413 51.7616C44.2413 51.7616 45.1036 46.7589 49.6804 45.0296C49.6804 45.0296 46.2546 46.5764 44.2413 51.7616ZM53.1485 41.4827C51.3309 40.9773 49.163 40.3283 48.2122 40.0189C40.2737 37.4354 39.1643 32.3933 39.1643 32.3933C39.1643 32.3933 40.6787 34.7686 43.1089 36.6646C45.539 38.5605 46.7339 38.8314 48.6983 39.6022C50.665 40.374 53.1485 41.4827 53.1485 41.4827Z" fill="#F2A792"/>
<path d="M35.9697 43.1595C34.9433 41.9145 33.1608 40.9776 33.0102 39.4632C32.8597 37.9488 33.2983 34.2407 33.5503 32.4038C33.8023 30.5669 34.628 26.9009 34.628 26.9009C33.8242 29.7662 33.0332 32.856 32.6781 34.2892C32.3019 35.8077 31.8484 38.3437 31.4304 41.2123L35.9697 43.1595Z" fill="#F2A994"/>
<path d="M33.7079 41.4827C33.1757 41.0423 32.1104 39.9389 31.7378 39.2021C31.2602 42.1752 30.7929 45.7667 30.4919 49.0293C30.4371 49.6236 30.4146 50.1686 30.4161 50.6729L39.1625 52.1272C38.7126 43.5274 34.539 42.1704 33.7079 41.4827ZM32.8718 58.9054C32.8718 58.9054 35.95 59.7179 38.7126 58.9923C38.7126 58.9923 35.6462 60.3429 32.8718 58.9054ZM43.7715 58.509C43.7715 58.509 44.9609 59.5159 48.7325 59.2732C48.8158 59.0745 48.882 58.9617 48.9796 58.7958C46.5458 59.3616 43.7715 58.509 43.7715 58.509Z" fill="#EA9A88"/>
<path d="M47.4935 12.8392C47.4935 12.8392 47.7826 13.4154 47.6561 14.1589C47.5296 14.9024 47.1683 15.3113 46.8611 15.2928C46.554 15.2742 46.3733 15.0325 46.4817 14.5307C46.5901 14.0288 46.8792 13.3782 46.9153 12.9879C46.9515 12.5975 47.3851 12.5232 47.4935 12.8392Z" fill="#FCBAA7"/>
<path d="M38.6017 21.9353C39.2352 22.5036 40.0471 22.7908 40.8511 22.9924C41.0023 23.0327 41.1532 23.0686 41.3044 23.1115C41.3124 23.1137 41.3117 23.1276 41.3027 23.128C40.3777 23.2261 39.1656 22.6127 38.6017 21.9353ZM39.3345 21.0829C40.2308 21.3925 41.3284 21.9102 41.5505 22.9526C41.5521 22.9613 41.5397 22.9665 41.5353 22.9585C41.4705 22.8489 41.406 22.7441 41.3355 22.6441C40.8136 21.8954 40.0856 21.4482 39.3345 21.0829ZM43.0909 17.4339C43.5237 17.9635 44.1386 18.2196 44.7315 18.5096C44.433 18.5874 44.0369 18.3811 43.7803 18.1829C43.5306 17.9863 43.1955 17.7004 43.0909 17.4339ZM43.3071 16.8348C43.8631 17.3731 44.5144 17.8102 45.0649 18.3405C44.4959 18.1977 44.0934 17.6819 43.6844 17.2807C43.5882 17.1778 43.4845 17.0629 43.3905 16.9571C43.3959 16.9566 43.2532 16.8178 43.3071 16.8348Z" fill="#EA9A88"/>
<path d="M48.2314 14.5502C47.8861 15.7219 47.3339 16.3422 46.5498 17.2657C45.7657 18.1892 44.7298 18.4754 44.7298 18.4754C44.7298 18.4754 44.5985 18.7491 43.5047 20.6149C42.411 22.4807 41.3223 23.0896 41.3223 23.0896L40.3828 26.7983L39.332 32.4038C41.6036 32.2336 44.153 33.3597 44.153 33.3597C42.8209 31.9417 40.6247 31.8887 40.8047 30.8701C40.9848 29.8516 41.7768 24.3698 42.0828 23.629C43.3502 22.2927 45.0601 19.2029 45.341 18.9992C48.5993 16.999 48.6173 14.536 48.9027 13.8507C49.1882 13.1655 50.045 13.1636 50.045 13.1636C49.2478 12.968 48.3607 13.2479 48.3607 13.2479C48.3607 13.2479 48.3713 13.3302 48.3801 13.6115C48.3889 13.8929 48.3153 14.1961 48.2314 14.5502Z" fill="#F2A994"/>
<path d="M50.2397 14.3075C50.2397 14.3075 49.8061 14.4562 49.7519 15.1253C49.6977 15.7945 49.4086 16.8168 49.7519 16.9283C50.0952 17.0399 50.5288 16.4451 50.7095 15.6086C50.8901 14.7722 50.5649 14.3075 50.2397 14.3075Z" fill="#FCBAA7"/>
<path d="M48.3607 13.248C48.5978 15.334 46.5788 17.8973 44.7144 18.5504L44.7495 18.5177C43.9159 20.1849 42.8456 22.1011 41.3348 23.1971L41.3638 23.1564C40.5378 26.2077 39.7868 29.2911 39.1643 32.3933C39.711 29.2614 40.3883 26.1224 41.2577 23.0762C41.8427 22.6712 42.3247 22.1221 42.7607 21.5564C43.5101 20.5938 44.0937 19.4957 44.6715 18.4291C46.5087 17.8021 48.5344 15.2997 48.3607 13.248Z" fill="#EA9A88"/>
<path d="M40.6846 25.4834L39.7865 32.3104L39.3321 32.4039L39.17 32.3831L39.5244 30.5393L40.6846 25.4834ZM46.4554 19.5113C46.7117 19.672 46.993 19.7946 47.2767 19.8942C47.5288 19.969 47.7831 20.0348 48.0267 20.1371C48.0469 20.1515 48.1591 20.1768 48.1319 20.2019C47.7762 20.2566 47.4372 20.1288 47.1245 19.9691C46.8835 19.8484 46.6494 19.7037 46.4455 19.5245C46.4383 19.5181 46.447 19.5052 46.4554 19.5113ZM46.5755 18.8853C46.9459 19.0583 48.3766 19.635 48.2288 20.108C48.1248 19.8748 47.845 19.7831 47.6641 19.6172C47.3386 19.3428 46.8727 19.1238 46.5755 18.8853ZM45.6679 25.1169C44.8794 25.1456 43.9704 24.8272 43.5683 24.0857C43.5647 24.078 43.5744 24.0693 43.5811 24.0755C43.8933 24.3182 44.2074 24.5656 44.5427 24.7676C44.8895 24.9582 45.2735 25.0731 45.668 25.1002C45.6777 25.1002 45.6786 25.117 45.6679 25.1169ZM43.9619 23.3643C44.6832 23.6038 45.5808 24.0205 45.8808 24.778C45.4965 24.4579 45.1614 24.0838 44.7407 23.8105C44.4926 23.6439 44.2315 23.4973 43.957 23.3802C43.9482 23.3771 43.9519 23.3611 43.9619 23.3643Z" fill="#EA9A88"/>
<path d="M45.6707 32.3831C45.6504 31.6331 46.1567 26.4662 46.4604 25.5911C46.7642 24.7161 48.3438 21.3826 48.6881 21.0909C49.0324 20.7992 50.2272 19.6741 51.26 17.9241C51.989 16.6888 51.9311 15.599 51.8339 15.0646C51.7443 15.0783 51.6547 15.0978 51.5657 15.1234C51.5054 15.4557 51.4036 15.737 51.3362 15.9686C50.0555 19.3676 48.0896 20.1998 48.0896 20.1998L45.8009 24.8782L45.5647 25.6705L44.2328 33.3623C47.0275 33.404 48.9026 34.6796 48.9026 34.6796C47.8211 33.2051 45.6909 33.1332 45.6707 32.3831Z" fill="#F2A994"/>
<path d="M52.6427 16.2963C52.6427 16.2963 52.444 16.4636 52.444 17.1327C52.444 17.8019 52.6788 18.5826 52.9499 18.4896C53.2209 18.3967 53.4738 17.4859 53.3112 16.7424C53.1486 15.9989 52.7511 16.0918 52.6427 16.2963Z" fill="#FCBAA7"/>
<path d="M51.5586 15.1252C51.2343 16.9549 49.7644 19.4324 48.1089 20.2616L48.1482 20.224C47.4628 21.9239 46.6458 23.5647 45.729 25.1441L45.7378 25.1204C45.2538 27.744 44.689 30.7366 44.2412 33.3597C44.6101 30.6144 45.1053 27.8197 45.5993 25.0932C46.5277 23.5035 47.3189 21.8091 48.0703 20.1377C49.662 19.3609 51.2025 16.8722 51.5586 15.1252Z" fill="#EA9A88"/>
<path d="M45.2685 27.3003L43.7726 33.0477L44.2413 33.3599H44.5205L45.2685 27.3003ZM49.5392 21.8252C49.819 22.0226 50.1393 22.1609 50.4627 22.2631C50.7917 22.3512 51.1278 22.409 51.4518 22.519C50.9604 22.7243 49.8472 22.2157 49.5392 21.8252ZM50.0477 21.3122C50.576 21.4961 51.4123 21.7338 51.6631 22.253C51.3098 22.0849 51.0053 21.8427 50.6654 21.6518C50.462 21.5351 50.2544 21.4277 50.0423 21.3279C50.0336 21.3243 50.038 21.3091 50.0477 21.3122ZM47.7056 26.3861C48.3156 26.7979 49.0034 27.035 49.6899 27.2702C49.2696 27.4008 48.7559 27.1072 48.3732 26.8866C48.136 26.7417 47.9079 26.5811 47.6959 26.3995C47.6887 26.3933 47.6972 26.3801 47.7056 26.3861ZM48.0829 25.854C48.6631 26.0266 49.639 26.3011 49.8615 26.9064C49.5067 26.6608 49.1622 26.4059 48.7834 26.2017C48.5542 26.0784 48.3189 25.9676 48.0783 25.8699C48.0694 25.8668 48.0731 25.8513 48.0829 25.854Z" fill="#EA9A88"/>
<path d="M52.8414 20.5345L51.4612 22.5395C51.4612 22.5395 51.3714 22.6639 50.9732 23.9865C50.5749 25.309 49.6906 27.2266 49.6906 27.2266L49.6652 27.7496L49.2911 35.1815C51.6257 35.8652 52.6473 37.1438 52.6473 37.1438C51.9182 35.8521 50.6626 35.1646 50.6221 34.5604C50.5816 33.9562 50.0551 28.4351 50.3184 27.7475C50.5816 27.06 51.6752 23.2889 51.898 22.8306C52.0796 22.4568 52.9347 21.03 53.244 20.5163C53.0842 20.4961 52.942 20.5055 52.8414 20.5345Z" fill="#F2A994"/>
<path d="M53.8352 21.2407C53.8352 21.2407 54.3953 21.6125 54.2507 22.579C54.1062 23.5456 53.7629 23.0623 53.6726 22.6905C53.5822 22.3188 53.4919 21.0548 53.8352 21.2407Z" fill="#FCBAA7"/>
<path d="M53.0945 24.9127C52.8901 24.7667 52.5815 24.5397 52.3456 24.6535C52.6931 24.8927 53.1028 24.9968 53.4488 25.2425C53.4496 25.2431 53.4504 25.2435 53.4514 25.2437L53.458 25.2287C53.3461 25.113 53.223 25.0088 53.0945 24.9127ZM52.7481 25.2957C52.5511 25.206 52.3534 25.1197 52.1346 25.1045C52.3472 25.4476 52.9675 25.4927 53.3545 25.4749C53.3554 25.4639 53.3559 25.4578 53.3561 25.4563C53.1474 25.4295 52.9455 25.3677 52.7481 25.2957ZM51.031 28.0292C51.5949 28.2734 52.198 28.3924 52.7494 28.6724C52.7518 28.6671 52.7533 28.6617 52.7548 28.6562C52.562 28.5257 52.3602 28.41 52.1533 28.305C51.8183 28.1468 51.3795 27.912 51.031 28.0292ZM51.7401 28.9372C51.4407 28.8562 51.1526 28.7284 50.8509 28.6696C51.2215 29.1243 52.1024 29.1561 52.6421 29.0405C52.6435 29.033 52.645 29.0266 52.6465 29.0211C52.3424 29.0418 52.0353 29.0084 51.7401 28.9372ZM49.6615 28.2297C49.6615 28.2297 49.1556 33.713 48.9027 34.6796L49.246 35.0699L49.6796 35.1814L49.6615 28.2297Z" fill="#EA9A88"/>
<path d="M52.8414 20.5344C52.3983 21.2191 51.9336 21.937 51.4661 22.6057L51.4728 22.5923C50.9743 24.2001 50.4629 25.8137 49.7428 27.3336L49.7505 27.3026C49.6505 29.894 49.593 32.4984 49.246 35.0699C49.4752 32.5275 49.4928 29.8219 49.6164 27.267C50.3354 25.7567 50.8609 24.1535 51.3918 22.5649C51.8103 21.9816 52.4223 21.1269 52.8414 20.5344Z" fill="#EA9A88"/>
<path d="M52.6427 37.1516C51.5586 35.646 49.246 35.0698 49.246 35.0698C47.7464 33.0995 44.2413 33.3597 44.2413 33.3597C42.1635 31.7798 39.1643 32.3932 39.1643 32.3932C37.5925 31.5381 34.5571 32.2259 34.5571 32.2259C34.5571 32.2259 36.0669 32.086 37.2056 32.2163C38.3443 32.3466 39.2731 32.7312 39.2731 32.7312C39.2731 32.7312 41.9445 32.2163 44.2329 33.7581C44.2329 33.7581 46.7845 33.4039 49.2552 35.3415C49.2552 35.3415 50.2742 35.6097 51.0373 36.029C51.8005 36.4483 52.6427 37.1516 52.6427 37.1516Z" fill="#EA9A88"/>
<path d="M26.8243 26.7984C26.8243 26.7984 25.7763 26.7984 25.5234 29.0289C25.2704 31.2594 25.162 33.3599 23.9335 36.5197C22.7199 39.6409 23.554 41.5012 24.9452 45.6277C26.3364 49.7542 28.5042 55.343 31.2506 57.7717C33.9971 60.2004 38.6404 58.0256 39.1102 53.862C39.5799 49.6984 38.1164 45.7392 35.8038 43.7689C33.4912 41.7986 30.8172 40.6834 30.0945 39.5867C29.3718 38.49 29.7151 38.0997 29.7151 38.0997C29.7151 38.0997 30.3655 35.9249 29.8957 32.3003C29.426 28.6757 28.631 26.7984 26.8243 26.7984Z" fill="#F6AF9A"/>
<path d="M34.5988 58.738C31.9062 57.6855 30.9062 54.8932 30.4161 53.0936C29.73 50.5749 25.2697 44.4265 24.6216 41.7373C23.9736 39.048 24.262 38.2794 24.9738 36.4261C25.6856 34.5727 25.7396 31.6788 25.7396 31.6788L25.1945 31.8116C24.9895 33.1765 24.6543 34.6657 23.9335 36.5197C22.7199 39.6409 23.554 41.5012 24.9452 45.6277C26.3364 49.7541 28.5042 55.3429 31.2506 57.7717C32.2195 58.6284 33.4244 58.9122 34.5988 58.738Z" fill="#F2A994"/>
<path d="M25.171 31.9644C25.171 31.9644 25.9863 31.7372 26.209 31.0704C26.4318 30.4037 26.209 28.237 26.209 28.237C26.209 28.237 26.0602 27.9937 25.8214 27.7681C25.6928 28.0784 25.5846 28.4879 25.5233 29.0289C25.4132 29.9994 25.3305 30.9452 25.171 31.9644Z" fill="#EDA18C"/>
<path d="M25.171 31.9644C25.171 31.9644 25.9572 31.7452 26.1964 31.1059C25.8818 30.9075 25.5263 30.8278 25.329 30.7971C25.2839 31.1789 25.2334 31.566 25.171 31.9644Z" fill="#EB9881"/>
<path d="M25.171 31.9644C25.6233 31.7667 26.0909 31.4256 26.1738 30.8953C26.2866 30.0178 26.2007 29.1224 26.209 28.2369C26.3588 29.1207 26.464 30.0323 26.3242 30.926C26.2201 31.4911 25.6879 31.8558 25.171 31.9644Z" fill="#E57E73"/>
<path d="M23.3496 39.4552C23.6818 39.5045 24.0271 39.4923 24.3594 39.4486C24.5601 39.4327 24.7915 39.4083 24.9795 39.4687C24.6683 39.6467 24.2976 39.6188 23.9536 39.5934C23.8849 39.5909 23.3131 39.511 23.3496 39.4552ZM24.5871 38.2204C24.1874 38.1705 23.7298 38.2301 23.4061 38.4936C23.4053 38.5003 23.4044 38.5069 23.4035 38.5136C23.4046 38.5138 23.4057 38.5138 23.4067 38.5135C23.4078 38.5132 23.4088 38.5127 23.4096 38.512C23.5878 38.4032 23.7985 38.3661 24.0025 38.3503C24.2581 38.3311 24.5093 38.399 24.7653 38.3944C25.2433 38.4333 24.7458 38.2551 24.5871 38.2204ZM29.5211 38.3098C29.2017 38.7129 28.7668 39.0029 28.3052 39.2062C28.7497 39.1191 29.1709 38.8972 29.4967 38.5736C29.5365 38.5259 29.5861 38.4777 29.6337 38.4271C29.6305 38.1959 29.7151 38.0996 29.7151 38.0996C29.7151 38.0996 29.7166 38.0943 29.7195 38.0842C29.6753 38.0867 29.6239 38.1102 29.5892 38.1204C29.0386 38.2822 28.4535 38.2503 27.89 38.1749C28.4061 38.3664 28.982 38.4314 29.5211 38.3098Z" fill="#EA9A88"/>
<path d="M62.884 12.0819C63.1549 12.1529 63.4113 12.2731 63.6453 12.4304C64.4506 12.9719 67.2039 14.8318 67.8498 15.3856C68.6086 16.0361 71.8608 19.6979 72.6919 20.8875C73.523 22.0771 75.944 31.4453 76.6486 34.2892C77.3533 37.1331 78.3289 43.5459 78.8348 49.0292C79.3407 54.5126 77.1003 55.8137 78.5096 59.4569C79.9189 63.1001 90.398 75.9999 90.398 75.9999H64.959C64.959 75.9999 61.49 60.8324 60.4602 58.9922C59.4303 57.152 57.6417 55.4234 56.6118 51.7616C55.582 48.0998 56.2866 43.7317 56.1601 41.4826C56.0337 39.2335 55.9433 38.7874 56.3408 37.2632C56.3408 37.2632 56.8171 29.4609 56.6795 29.0183C56.1106 27.1889 55.9707 25.4556 55.9707 25.4556C55.9707 25.4556 54.8198 22.9383 54.7961 22.2471C54.7419 20.6671 56.0337 20.4042 56.4853 20.5343C56.4853 20.5343 55.2568 18.1365 55.3832 16.761C55.5097 15.3855 56.6841 14.8093 57.7681 15.1253C57.7681 15.1253 57.7681 13.6197 59.1774 13.1922C59.9994 12.9428 60.9661 13.248 60.9661 13.248C60.9661 13.248 61.3717 11.6853 62.884 12.0819Z" fill="#F6AF9A"/>
<path d="M76.7846 60.3374C73.9764 60.2475 70.6141 58.9921 70.6141 58.9921C75.4073 59.8685 77.4255 57.1162 78.385 54.6992C78.0372 56.2704 77.7679 57.5392 78.5096 59.4568C79.9189 63.1 90.398 75.9998 90.398 75.9998H87.8013C87.8013 75.9998 84.3451 71.9093 82.0409 68.1314C79.7368 64.3534 77.8403 60.7236 76.7846 60.3374ZM56.0904 44.6749C56.1475 45.3999 56.5303 49.8813 57.436 52.1271C58.4233 54.5751 59.2942 58.7387 65.5552 58.5088C65.5552 58.5088 64.3828 59.8346 62.9512 60.205C61.7588 60.5135 66.5001 72.1263 68.1184 75.9998H64.959C64.959 75.9998 61.49 60.8323 60.4602 58.9921C59.4303 57.1519 57.6417 55.4233 56.6118 51.7615C55.9599 49.4434 56.003 46.8423 56.0904 44.6749Z" fill="#F2A994"/>
<path d="M63.5679 43.7503C68.41 39.661 76.0706 38.174 76.0706 38.174C76.0706 38.174 65.4469 41.6127 65.7179 54.1036C65.7179 54.1036 65.094 52.0924 66.0053 48.4672C66.9166 44.842 68.9418 41.6335 71.8782 39.8834C71.8782 39.8834 70.3131 40.0126 67.9089 41.2585C65.2155 42.6544 63.5679 43.7503 63.5679 43.7503Z" fill="#F2A792"/>
<path d="M65.0855 51.7616C65.0855 51.7616 64.2231 46.7589 59.6463 45.0296C59.6463 45.0296 63.0722 46.5764 65.0855 51.7616ZM56.1782 41.4827C57.9958 40.9773 60.1637 40.3283 61.1146 40.0189C69.0531 37.4354 70.1625 32.3933 70.1625 32.3933C70.1625 32.3933 68.6481 34.7686 66.2179 36.6646C63.7877 38.5605 62.5929 38.8314 60.6285 39.6022C58.6618 40.374 56.1782 41.4827 56.1782 41.4827Z" fill="#F2A792"/>
<path d="M73.3572 43.1595C74.3835 41.9145 76.1661 40.9776 76.3166 39.4632C76.4672 37.9488 76.0286 34.2407 75.7766 32.4038C75.5245 30.5669 74.6989 26.9009 74.6989 26.9009C75.5027 29.7662 76.2936 32.856 76.6487 34.2892C77.025 35.8077 77.4784 38.3437 77.8964 41.2123L73.3572 43.1595Z" fill="#F2A994"/>
<path d="M75.6189 41.4827C76.151 41.0423 77.2164 39.9389 77.589 39.2021C78.0666 42.1752 78.5339 45.7667 78.8349 49.0293C78.8897 49.6236 78.9122 50.1686 78.9107 50.6729L70.1643 52.1272C70.6142 43.5274 74.7878 42.1704 75.6189 41.4827ZM76.455 58.9054C76.455 58.9054 73.3768 59.7179 70.6142 58.9923C70.6142 58.9923 73.6806 60.3429 76.455 58.9054ZM65.5553 58.509C65.5553 58.509 64.3659 59.5159 60.5943 59.2732C60.511 59.0745 60.4448 58.9617 60.3472 58.7958C62.781 59.3616 65.5553 58.509 65.5553 58.509Z" fill="#EA9A88"/>
<path d="M61.8333 12.8392C61.8333 12.8392 61.5442 13.4154 61.6707 14.1589C61.7972 14.9024 62.1585 15.3113 62.4657 15.2928C62.7728 15.2742 62.9535 15.0325 62.8451 14.5307C62.7367 14.0288 62.4476 13.3782 62.4115 12.9879C62.3753 12.5975 61.9417 12.5232 61.8333 12.8392Z" fill="#FCBAA7"/>
<path d="M70.7251 21.9353C70.0915 22.5036 69.2797 22.7908 68.4756 22.9924C68.3244 23.0327 68.1735 23.0686 68.0224 23.1115C68.0143 23.1137 68.015 23.1276 68.024 23.128C68.9491 23.2261 70.1611 22.6127 70.7251 21.9353ZM69.9922 21.0829C69.0959 21.3925 67.9983 21.9102 67.7763 22.9526C67.7747 22.9613 67.787 22.9665 67.7914 22.9585C67.8563 22.8489 67.9207 22.7441 67.9912 22.6441C68.5132 21.8954 69.2412 21.4482 69.9922 21.0829ZM66.2359 17.4339C65.8031 17.9635 65.1882 18.2196 64.5953 18.5096C64.8937 18.5874 65.2898 18.3811 65.5464 18.1829C65.7961 17.9863 66.1313 17.7004 66.2359 17.4339ZM66.0197 16.8348C65.4637 17.3731 64.8123 17.8102 64.2618 18.3405C64.8309 18.1977 65.2333 17.6819 65.6423 17.2807C65.7385 17.1778 65.8422 17.0629 65.9363 16.9571C65.9309 16.9566 66.0736 16.8178 66.0197 16.8348Z" fill="#EA9A88"/>
<path d="M61.0953 14.5502C61.4407 15.7219 61.9928 16.3422 62.7769 17.2657C63.561 18.1892 64.5969 18.4754 64.5969 18.4754C64.5969 18.4754 64.7282 18.7491 65.822 20.6149C66.9157 22.4807 68.0044 23.0896 68.0044 23.0896L68.9439 26.7983L69.9947 32.4038C67.7232 32.2336 65.1738 33.3597 65.1738 33.3597C66.5058 31.9417 68.702 31.8887 68.522 30.8701C68.342 29.8516 67.5499 24.3698 67.2439 23.629C65.9765 22.2927 64.2666 19.2029 63.9857 18.9992C60.7275 16.999 60.7095 14.536 60.424 13.8507C60.1386 13.1655 59.2817 13.1636 59.2817 13.1636C60.079 12.968 60.966 13.2479 60.966 13.2479C60.966 13.2479 60.9555 13.3302 60.9467 13.6115C60.9378 13.8929 61.0114 14.1961 61.0953 14.5502Z" fill="#F2A994"/>
<path d="M59.0871 14.3075C59.0871 14.3075 59.5207 14.4562 59.5749 15.1253C59.6291 15.7945 59.9182 16.8168 59.5749 16.9283C59.2316 17.0399 58.798 16.4451 58.6173 15.6086C58.4366 14.7722 58.7618 14.3075 59.0871 14.3075Z" fill="#FCBAA7"/>
<path d="M60.966 13.248C60.7288 15.334 62.7478 17.8973 64.6122 18.5504L64.5771 18.5177C65.4107 20.1849 66.481 22.1011 67.9918 23.1971L67.9628 23.1564C68.7888 26.2077 69.5398 29.2911 70.1623 32.3933C69.6156 29.2614 68.9383 26.1224 68.0689 23.0762C67.4839 22.6712 67.0019 22.1221 66.566 21.5564C65.8165 20.5938 65.2329 19.4957 64.6551 18.4291C62.8179 17.8021 60.7922 15.2997 60.966 13.248Z" fill="#EA9A88"/>
<path d="M68.6421 25.4834L69.5402 32.3104L69.9947 32.4039L70.1567 32.3831L69.8023 30.5393L68.6421 25.4834ZM62.8714 19.5113C62.6151 19.672 62.3338 19.7946 62.05 19.8942C61.798 19.969 61.5437 20.0348 61.3 20.1371C61.2799 20.1515 61.1677 20.1768 61.1949 20.2019C61.5505 20.2566 61.8896 20.1288 62.2023 19.9691C62.4433 19.8484 62.6774 19.7037 62.8813 19.5245C62.8885 19.5181 62.8798 19.5052 62.8714 19.5113ZM62.7513 18.8853C62.3809 19.0583 60.9502 19.635 61.0979 20.108C61.202 19.8748 61.4818 19.7831 61.6627 19.6172C61.9882 19.3428 62.4541 19.1238 62.7513 18.8853ZM63.6589 25.1169C64.4474 25.1456 65.3564 24.8272 65.7585 24.0857C65.7621 24.078 65.7523 24.0693 65.7457 24.0755C65.4334 24.3182 65.1194 24.5656 64.7841 24.7676C64.4373 24.9582 64.0533 25.0731 63.6588 25.1002C63.6491 25.1002 63.6482 25.117 63.6589 25.1169ZM65.3648 23.3643C64.6436 23.6038 63.746 24.0205 63.446 24.778C63.8302 24.4579 64.1654 24.0838 64.5861 23.8105C64.8342 23.6439 65.0953 23.4973 65.3697 23.3802C65.3786 23.3771 65.3749 23.3611 65.3648 23.3643Z" fill="#EA9A88"/>
<path d="M63.656 32.3831C63.6762 31.6331 63.1699 26.4662 62.8662 25.5911C62.5624 24.7161 60.9828 21.3826 60.6385 21.0909C60.2942 20.7992 59.0994 19.6741 58.0666 17.9241C57.3376 16.6888 57.3955 15.599 57.4927 15.0646C57.5823 15.0783 57.6719 15.0978 57.7609 15.1234C57.8212 15.4557 57.9229 15.737 57.9904 15.9686C59.271 19.3676 61.237 20.1998 61.237 20.1998L63.5257 24.8782L63.7619 25.6705L65.0938 33.3623C62.2991 33.404 60.4239 34.6796 60.4239 34.6796C61.5055 33.2051 63.6357 33.1332 63.656 32.3831Z" fill="#F2A994"/>
<path d="M56.6841 16.2963C56.6841 16.2963 56.8828 16.4636 56.8828 17.1327C56.8828 17.8019 56.6479 18.5826 56.3769 18.4896C56.1059 18.3967 55.853 17.4859 56.0156 16.7424C56.1782 15.9989 56.5757 16.0919 56.6841 16.2963Z" fill="#FCBAA7"/>
<path d="M57.7682 15.1252C58.0924 16.9549 59.5623 19.4324 61.2179 20.2616L61.1785 20.224C61.8639 21.9239 62.6809 23.5647 63.5977 25.1441L63.589 25.1204C64.0729 27.744 64.6378 30.7366 65.0855 33.3597C64.7166 30.6144 64.2214 27.8197 63.7274 25.0932C62.799 23.5035 62.0078 21.8091 61.2565 20.1377C59.6647 19.3609 58.1243 16.8722 57.7682 15.1252Z" fill="#EA9A88"/>
<path d="M64.0583 27.3003L65.5542 33.0477L65.0855 33.3599H64.8062L64.0583 27.3003ZM59.7876 21.8252C59.5078 22.0226 59.1875 22.1609 58.8641 22.2631C58.5351 22.3512 58.199 22.409 57.875 22.519C58.3663 22.7243 59.4795 22.2157 59.7876 21.8252ZM59.2791 21.3122C58.7507 21.4961 57.9145 21.7338 57.6637 22.253C58.0169 22.0849 58.3215 21.8427 58.6614 21.6518C58.8647 21.5351 59.0723 21.4277 59.2844 21.3279C59.2931 21.3243 59.2888 21.3091 59.2791 21.3122ZM61.6211 26.3861C61.0111 26.7979 60.3234 27.035 59.6369 27.2702C60.0572 27.4008 60.5708 27.1072 60.9536 26.8866C61.1908 26.7417 61.4189 26.5811 61.6308 26.3995C61.638 26.3933 61.6296 26.3801 61.6211 26.3861ZM61.2438 25.854C60.6637 26.0266 59.6877 26.3011 59.4653 26.9064C59.8201 26.6608 60.1646 26.4059 60.5434 26.2017C60.7725 26.0784 61.0079 25.9676 61.2485 25.8699C61.2573 25.8668 61.2537 25.8513 61.2438 25.854Z" fill="#EA9A88"/>
<path d="M56.4853 20.5345L57.8656 22.5395C57.8656 22.5395 57.9553 22.6639 58.3536 23.9865C58.7518 25.309 59.6362 27.2266 59.6362 27.2266L59.6616 27.7496L60.0356 35.1815C57.7011 35.8652 56.6795 37.1438 56.6795 37.1438C57.4085 35.8521 58.6641 35.1646 58.7046 34.5604C58.7451 33.9562 59.2716 28.4351 59.0084 27.7475C58.7451 27.06 57.6515 23.2889 57.4288 22.8306C57.2471 22.4568 56.3921 21.03 56.0828 20.5163C56.2425 20.4961 56.3848 20.5055 56.4853 20.5345Z" fill="#F2A994"/>
<path d="M55.4915 21.2407C55.4915 21.2407 54.9314 21.6125 55.076 22.579C55.2205 23.5456 55.5638 23.0623 55.6541 22.6905C55.7445 22.3188 55.8348 21.0548 55.4915 21.2407Z" fill="#FCBAA7"/>
<path d="M56.2322 24.9127C56.4366 24.7667 56.7452 24.5397 56.9811 24.6535C56.6336 24.8927 56.2239 24.9968 55.8779 25.2425C55.8771 25.2431 55.8763 25.2435 55.8753 25.2437L55.8687 25.2287C55.9806 25.113 56.1037 25.0088 56.2322 24.9127ZM56.5786 25.2957C56.7756 25.206 56.9733 25.1197 57.1921 25.1045C56.9795 25.4476 56.3592 25.4927 55.9723 25.4749C55.9713 25.4639 55.9708 25.4578 55.9707 25.4563C56.1793 25.4295 56.3812 25.3677 56.5786 25.2957ZM58.2957 28.0292C57.7319 28.2734 57.1287 28.3924 56.5774 28.6724C56.575 28.6671 56.5734 28.6617 56.5719 28.6562C56.7647 28.5257 56.9665 28.41 57.1734 28.305C57.5084 28.1468 57.9472 27.912 58.2957 28.0292ZM57.5866 28.9372C57.886 28.8562 58.1741 28.7284 58.4758 28.6696C58.1052 29.1243 57.2243 29.1561 56.6846 29.0405C56.6834 29.0339 56.6819 29.0275 56.6802 29.0211C56.9843 29.0418 57.2915 29.0084 57.5866 28.9372ZM59.6652 28.2297C59.6652 28.2297 60.1711 33.713 60.424 34.6796L60.0807 35.0699L59.6471 35.1814L59.6652 28.2297Z" fill="#EA9A88"/>
<path d="M56.4854 20.5344C56.9284 21.2191 57.3931 21.937 57.8607 22.6057L57.854 22.5923C58.3524 24.2001 58.8639 25.8137 59.584 27.3336L59.5762 27.3026C59.6763 29.894 59.7338 32.4984 60.0808 35.0699C59.8516 32.5275 59.834 29.8219 59.7103 27.267C58.9914 25.7567 58.4659 24.1535 57.935 22.5649C57.5165 21.9816 56.9045 21.1269 56.4854 20.5344Z" fill="#EA9A88"/>
<path d="M56.6841 37.1516C57.7681 35.646 60.0808 35.0698 60.0808 35.0698C61.5804 33.0995 65.0855 33.3597 65.0855 33.3597C67.1632 31.7798 70.1624 32.3932 70.1624 32.3932C71.7343 31.5381 74.7696 32.2259 74.7696 32.2259C74.7696 32.2259 73.2598 32.086 72.1211 32.2163C70.9825 32.3466 70.0537 32.7312 70.0537 32.7312C70.0537 32.7312 67.3823 32.2163 65.0939 33.7581C65.0939 33.7581 62.5422 33.4039 60.0716 35.3415C60.0716 35.3415 59.0526 35.6097 58.2895 36.029C57.5263 36.4483 56.6841 37.1516 56.6841 37.1516Z" fill="#EA9A88"/>
<path d="M82.5026 26.7984C82.5026 26.7984 83.5505 26.7984 83.8034 29.0289C84.0564 31.2594 84.1648 33.3599 85.3934 36.5197C86.6069 39.6409 85.7728 41.5012 84.3816 45.6277C82.9904 49.7542 80.8227 55.343 78.0762 57.7717C75.3298 60.2004 70.6864 58.0256 70.2167 53.862C69.7469 49.6984 71.2104 45.7392 73.523 43.7689C75.8357 41.7986 78.5097 40.6834 79.2324 39.5867C79.9551 38.49 79.6118 38.0997 79.6118 38.0997C79.6118 38.0997 78.9614 35.9249 79.4311 32.3003C79.9009 28.6758 80.6958 26.7984 82.5026 26.7984Z" fill="#F6AF9A"/>
<path d="M74.7279 58.738C77.4206 57.6855 78.4205 54.8932 78.9107 53.0936C79.5967 50.5749 84.0571 44.4265 84.7051 41.7373C85.3532 39.048 85.0647 38.2794 84.3529 36.4261C83.6412 34.5727 83.5871 31.6788 83.5871 31.6788L84.1322 31.8116C84.3373 33.1765 84.6724 34.6657 85.3933 36.5197C86.6068 39.6409 85.7727 41.5012 84.3815 45.6277C82.9903 49.7541 80.8226 55.3429 78.0761 57.7717C77.1073 58.6284 75.9024 58.9122 74.7279 58.738Z" fill="#F2A994"/>
<path d="M84.1557 31.9644C84.1557 31.9644 83.3405 31.7372 83.1177 31.0704C82.8949 30.4037 83.1177 28.237 83.1177 28.237C83.1177 28.237 83.2666 27.9937 83.5053 27.7681C83.6339 28.0784 83.7421 28.4879 83.8034 29.0289C83.9135 29.9994 83.9962 30.9452 84.1557 31.9644Z" fill="#EDA18C"/>
<path d="M84.1558 31.9644C84.1558 31.9644 83.3696 31.7452 83.1304 31.1059C83.445 30.9075 83.8005 30.8278 83.9978 30.7971C84.0429 31.1789 84.0934 31.566 84.1558 31.9644Z" fill="#EB9881"/>
<path d="M84.1556 31.9644C83.7033 31.7667 83.2358 31.4256 83.1528 30.8953C83.04 30.0178 83.1259 29.1224 83.1176 28.2369C82.9679 29.1207 82.8627 30.0323 83.0024 30.926C83.1066 31.4911 83.6388 31.8558 84.1556 31.9644Z" fill="#E57E73"/>
<path d="M85.9772 39.4552C85.645 39.5045 85.2997 39.4923 84.9673 39.4486C84.7666 39.4327 84.5353 39.4083 84.3472 39.4687C84.6584 39.6467 85.0292 39.6188 85.3732 39.5934C85.4419 39.5909 86.0136 39.511 85.9772 39.4552ZM84.7396 38.2204C85.1394 38.1705 85.597 38.2301 85.9206 38.4936C85.9215 38.5003 85.9224 38.5069 85.9232 38.5136C85.9222 38.5138 85.9211 38.5138 85.92 38.5135C85.919 38.5132 85.918 38.5127 85.9172 38.512C85.7389 38.4032 85.5283 38.3661 85.3243 38.3503C85.0686 38.3311 84.8175 38.399 84.5615 38.3944C84.0835 38.4333 84.581 38.2551 84.7396 38.2204ZM79.8057 38.3098C80.1251 38.7129 80.56 39.0029 81.0216 39.2062C80.5771 39.1191 80.1559 38.8972 79.8301 38.5736C79.7903 38.5259 79.7407 38.4777 79.6931 38.4271C79.6963 38.1959 79.6117 38.0996 79.6117 38.0996C79.6117 38.0996 79.6102 38.0943 79.6073 38.0842C79.6514 38.0867 79.7028 38.1102 79.7376 38.1204C80.2881 38.2822 80.8733 38.2503 81.4368 38.1749C80.9207 38.3664 80.3448 38.4314 79.8057 38.3098Z" fill="#EA9A88"/>
<path d="M60.8861 28.06H56.8583C56.5626 28.06 56.3229 27.8134 56.3229 27.5092V18.1936C56.3229 17.8894 56.5626 17.6428 56.8583 17.6428H60.8861C61.1818 17.6428 61.4215 17.8894 61.4215 18.1936V27.5092C61.4215 27.8134 61.1818 28.06 60.8861 28.06Z" fill="#F8DECD"/>
<path d="M56.3229 19.7737V27.5092C56.3229 27.8134 56.5626 28.06 56.8583 28.06H60.8861C61.1818 28.06 61.4215 27.8134 61.4215 27.5092V23.3519L56.3229 19.7737Z" fill="#EDBB9A"/>
<path d="M65.0745 51.0195H43.0626C42.7022 51.0195 42.41 50.7188 42.41 50.3481V29.033H65.7271V50.3481C65.7271 50.7188 65.4349 51.0195 65.0745 51.0195Z" fill="#F8DECD"/>
<path d="M37.7063 30.7632L53.4789 19.4152C53.8338 19.1599 54.3053 19.157 54.6631 19.4082L70.8394 30.7609C71.1196 30.9575 70.9844 31.4084 70.6452 31.4084H37.9038C37.5667 31.4084 37.43 30.9619 37.7063 30.7632Z" fill="#F8DECD"/>
<path d="M65.7271 32.1828L63.0396 30.2968C62.5562 35.9767 59.6554 47.5136 42.41 48.3293V50.348C42.41 50.7188 42.7022 51.0194 43.0626 51.0194H65.0745C65.4349 51.0194 65.7271 50.7188 65.7271 50.348V32.1828H65.7271Z" fill="#F8D0BA"/>
<path d="M54.6632 23.4867C54.3054 23.2356 53.8339 23.2384 53.4789 23.4938L42.4102 31.4575V32.3889L53.4789 24.4252C53.8339 24.1698 54.3054 24.167 54.6632 24.4182L65.7272 32.183V31.4084H65.9507L54.6632 23.4867Z" fill="#EDBB9A"/>
<path d="M54.0714 32.5945C55.4136 32.5945 56.5016 31.4752 56.5016 30.0944C56.5016 28.7136 55.4136 27.5942 54.0714 27.5942C52.7293 27.5942 51.6412 28.7136 51.6412 30.0944C51.6412 31.4752 52.7293 32.5945 54.0714 32.5945Z" fill="#EDBB9A"/>
<path d="M50.9503 29.886H57.1926V30.3763H50.9503V29.886Z" fill="#F8DECD"/>
<path d="M53.8331 26.9201H54.3096V33.3421H53.8331V26.9201Z" fill="#F8DECD"/>
<path d="M57.1611 40.3426C56.2745 39.7852 55.1897 39.4402 54.0654 39.4402C52.9259 39.4402 51.8637 39.7713 50.9695 40.3426C49.3671 41.3666 48.3044 43.1621 48.3044 45.2059C48.3044 49.0186 50.8837 47.9522 54.0654 47.9522C57.247 47.9522 59.8263 49.2398 59.8263 45.2059C59.8263 43.1469 58.7835 41.3626 57.1611 40.3426Z" fill="#FFBC77"/>
<path d="M57.3226 43.5473C57.213 45.576 54.0769 46.9582 54.0769 46.9582C54.0769 46.9582 50.9407 45.576 50.8311 43.5473C50.7241 41.5663 52.7533 40.959 54.0769 42.1917C55.4005 40.959 57.4297 41.5663 57.3226 43.5473Z" fill="#E35F5D"/>
<path d="M57.2909 42.9855C56.6841 43.6545 55.668 44.7979 52.5887 46.082C53.353 46.6384 54.077 46.9581 54.077 46.9581C54.077 46.9581 57.2131 45.5759 57.3227 43.5472C57.3336 43.3453 57.3213 43.1584 57.2909 42.9855Z" fill="#D35454"/>
<path d="M33.7382 67.5179C32.4235 67.497 31.7611 68.2281 31.4319 68.8808C30.9179 67.8471 30.3584 66.8496 29.7739 66.0078C27.2853 62.4234 19.6385 57.3495 17.8739 63.7268C17.8739 63.7268 9.45789 60.8408 7.73849 65.2164C6.01908 69.5921 11.9012 73.7816 11.9012 73.7816C11.9012 73.7816 9.81986 74.122 9.91034 76H41.2084C41.2085 76 36.1006 67.5555 33.7382 67.5179Z" fill="#BDD184"/>
<path d="M31.6721 75.9323C29.8309 74.4814 27.5111 73.0255 24.777 71.605C22.591 70.4693 20.1365 69.3534 17.4818 68.2883C12.9622 66.4751 9.38039 65.4241 9.34474 65.4136C9.33426 65.4106 9.3233 65.4097 9.31247 65.411C9.30165 65.4123 9.29119 65.4158 9.28167 65.4212C9.27216 65.4267 9.26378 65.434 9.25702 65.4428C9.25027 65.4516 9.24526 65.4617 9.24228 65.4725C9.23931 65.4832 9.23843 65.4945 9.2397 65.5057C9.24096 65.5168 9.24434 65.5276 9.24965 65.5373C9.25496 65.5471 9.26209 65.5557 9.27064 65.5627C9.27918 65.5697 9.28898 65.5748 9.29946 65.5779C9.33504 65.5883 12.9106 66.6375 17.4231 68.448C21.5567 70.1065 27.3379 72.7587 31.4844 76H31.7043C31.7044 75.9869 31.7015 75.974 31.6959 75.9623C31.6903 75.9505 31.6822 75.9402 31.6721 75.9323Z" fill="#AFC472"/>
<path d="M28.1837 73.7082C28.167 73.7082 28.1508 73.7031 28.1371 73.6935C28.1233 73.6839 28.1127 73.6702 28.1065 73.6544C27.2844 71.5244 25.5759 69.107 24.2875 67.4541C22.8899 65.6613 21.6722 64.3575 21.6601 64.3445C21.6526 64.3364 21.6466 64.3269 21.6426 64.3165C21.6387 64.306 21.6367 64.2949 21.6369 64.2837C21.6371 64.2725 21.6395 64.2614 21.6438 64.2512C21.6482 64.2409 21.6545 64.2316 21.6623 64.2238C21.6702 64.2161 21.6794 64.2099 21.6896 64.2059C21.6997 64.2018 21.7105 64.1998 21.7214 64.2C21.7323 64.2002 21.743 64.2026 21.753 64.2071C21.763 64.2116 21.772 64.218 21.7796 64.2261C21.7918 64.2391 23.0147 65.5485 24.4169 67.3473C25.7125 69.0093 27.4311 71.4417 28.2608 73.5914C28.2658 73.6043 28.2676 73.6183 28.2661 73.6322C28.2647 73.646 28.2599 73.6593 28.2523 73.6708C28.2447 73.6824 28.2345 73.6918 28.2225 73.6983C28.2105 73.7048 28.1972 73.7082 28.1837 73.7082ZM15.2494 74.0065C15.2281 74.0065 15.2076 73.998 15.1921 73.9828C15.1767 73.9677 15.1676 73.947 15.1666 73.9251C15.1656 73.9031 15.1729 73.8817 15.1869 73.8651C15.2009 73.8486 15.2205 73.8382 15.2418 73.8361C15.2587 73.8345 16.9594 73.6682 18.8901 73.2716C21.4355 72.7488 23.2226 72.0658 24.0581 71.2965C24.0745 71.2817 24.096 71.2741 24.1178 71.2755C24.1396 71.2768 24.1601 71.287 24.1746 71.3037C24.1892 71.3205 24.1968 71.3425 24.1957 71.365C24.1946 71.3874 24.1849 71.4085 24.1688 71.4237C23.2987 72.2248 21.5332 72.9029 18.9211 73.4394C16.9822 73.8375 15.2743 74.0045 15.2572 74.0061C15.2546 74.0063 15.252 74.0065 15.2494 74.0065Z" fill="#AFC472"/>
<path d="M75.5887 67.5179C76.9033 67.497 77.5658 68.2281 77.895 68.8808C78.409 67.8471 78.9685 66.8496 79.5529 66.0078C82.0416 62.4234 89.6883 57.3495 91.453 63.7268C91.453 63.7268 99.869 60.8408 101.588 65.2164C103.308 69.5921 97.4256 73.7816 97.4256 73.7816C97.4256 73.7816 99.507 74.122 99.4165 76H68.1184C68.1184 76 73.2262 67.5555 75.5887 67.5179Z" fill="#BDD184"/>
<path d="M77.8423 75.9999C81.9888 72.7585 87.77 70.1063 91.9036 68.4478C96.4161 66.6374 99.9917 65.5881 100.027 65.5777C100.048 65.5712 100.066 65.5566 100.076 65.537C100.086 65.5173 100.089 65.4942 100.083 65.4727C100.077 65.4512 100.063 65.4329 100.044 65.4218C100.025 65.4108 100.003 65.4078 99.982 65.4135C99.9463 65.4239 96.3645 66.4749 91.845 68.2882C89.1902 69.3532 86.7358 70.4691 84.5498 71.6048C81.8157 73.0253 79.4958 74.4812 77.6546 75.9321C77.6446 75.9401 77.6364 75.9504 77.6308 75.9621C77.6252 75.9739 77.6224 75.9868 77.6224 75.9999H77.8423Z" fill="#AFC472"/>
<path d="M81.1431 73.7084C81.1296 73.7084 81.1163 73.7049 81.1043 73.6984C81.0923 73.6919 81.0821 73.6825 81.0745 73.6709C81.0669 73.6594 81.0621 73.6461 81.0607 73.6323C81.0592 73.6184 81.0611 73.6044 81.0661 73.5915C81.8958 71.4418 83.6143 69.0094 84.9099 67.3474C86.3121 65.5486 87.535 64.2392 87.5472 64.2262C87.5626 64.2105 87.5834 64.2016 87.6051 64.2014C87.6267 64.2012 87.6476 64.2098 87.6633 64.2253C87.6789 64.2408 87.688 64.2619 87.6886 64.2842C87.6893 64.3065 87.6814 64.3282 87.6667 64.3446C87.6546 64.3576 86.436 65.6624 85.0384 67.4555C83.7503 69.108 82.0422 71.5249 81.2203 73.6545C81.2141 73.6704 81.2035 73.684 81.1898 73.6936C81.176 73.7032 81.1598 73.7084 81.1431 73.7084ZM94.0774 74.0066C94.0748 74.0066 94.0722 74.0065 94.0696 74.0062C94.0525 74.0046 92.3446 73.8376 90.4057 73.4394C87.7936 72.903 86.0281 72.2248 85.158 71.4238C85.1421 71.4086 85.1325 71.3875 85.1315 71.3651C85.1305 71.3428 85.138 71.3209 85.1525 71.3042C85.167 71.2875 85.1874 71.2773 85.2091 71.2759C85.2308 71.2745 85.2522 71.2819 85.2687 71.2965C86.1042 72.0658 87.8913 72.7488 90.4367 73.2717C92.3674 73.6683 94.0681 73.8346 94.0851 73.8362C94.0959 73.8372 94.1064 73.8405 94.1161 73.8457C94.1257 73.8509 94.1343 73.8581 94.1412 73.8667C94.1482 73.8753 94.1534 73.8853 94.1566 73.896C94.1598 73.9067 94.1609 73.918 94.1599 73.9291C94.158 73.9503 94.1485 73.97 94.1332 73.9843C94.118 73.9986 94.0981 74.0066 94.0774 74.0066Z" fill="#AFC472"/>
</svg>
