<svg width="9" height="9" viewBox="0 0 9 9" fill="none" xmlns="http://www.w3.org/2000/svg">
<path d="M2.6979 7.84649V9.15527e-05H2.05962V7.84649L0.799013 6.58588L0.347748 7.03715L2.15313 8.84253C2.21298 8.90236 2.29414 8.93597 2.37876 8.93597C2.46339 8.93597 2.54455 8.90236 2.60439 8.84253L4.40977 7.03715L3.95851 6.58588L2.6979 7.84649ZM8.87775 1.89898L7.07237 0.0935998C7.01252 0.0337702 6.93136 0.000159729 6.84673 0.000159729C6.76211 0.000159729 6.68095 0.0337702 6.6211 0.0935998L4.81572 1.89898L5.26699 2.35025L6.52759 1.08964V8.93604H7.16588V1.08964L8.42648 2.35025L8.87775 1.89898Z" fill="#380445"/>
</svg>
